<svg width="37" height="37" viewBox="0 0 37 37" fill="none" xmlns="http://www.w3.org/2000/svg">
<g clip-path="url(#clip0_586_1011)">
<path d="M9.24992 36.9999C5.849 36.9999 3.08325 34.2342 3.08325 30.8333C3.08325 29.1868 3.72459 27.6374 4.88854 26.4719L21.8469 9.51355C22.1475 9.21293 22.6362 9.21293 22.9368 9.51355C23.2375 9.81418 23.2375 10.3029 22.9368 10.6035L5.9785 27.5618C5.10592 28.436 4.62492 29.5984 4.62492 30.8333C4.62492 33.3832 6.7 35.4583 9.24992 35.4583C10.4848 35.4583 11.6472 34.9773 12.5213 34.1047L29.4797 17.1463C29.7803 16.8457 30.269 16.8457 30.5696 17.1463C30.8703 17.447 30.8703 17.9357 30.5696 18.2363L13.6113 35.1946C12.4458 36.3586 10.8964 36.9999 9.24992 36.9999Z" fill="#1B4568"/>
<path d="M31.6041 20.0416C31.4068 20.0416 31.2095 19.9661 31.0584 19.8166L20.2667 9.0249C19.9661 8.72428 19.9661 8.23557 20.2667 7.93494C20.5674 7.63432 21.0561 7.63432 21.3567 7.93494L32.1484 18.7266C32.449 19.0272 32.449 19.5159 32.1484 19.8166C31.9988 19.9661 31.8015 20.0416 31.6041 20.0416Z" fill="#1B4568"/>
<path d="M30.8333 12.3334C29.1329 12.3334 27.75 10.9505 27.75 9.25008C27.75 7.54962 29.1329 6.16675 30.8333 6.16675C32.5338 6.16675 33.9167 7.54962 33.9167 9.25008C33.9167 10.9505 32.5338 12.3334 30.8333 12.3334ZM30.8333 7.70841C29.9839 7.70841 29.2917 8.40062 29.2917 9.25008C29.2917 10.0995 29.9839 10.7917 30.8333 10.7917C31.6828 10.7917 32.375 10.0995 32.375 9.25008C32.375 8.40062 31.6828 7.70841 30.8333 7.70841Z" fill="#1B4568"/>
<path d="M25.4375 4.625C24.1625 4.625 23.125 3.58746 23.125 2.3125C23.125 1.03754 24.1625 0 25.4375 0C26.7125 0 27.75 1.03754 27.75 2.3125C27.75 3.58746 26.7125 4.625 25.4375 4.625ZM25.4375 1.54167C25.012 1.54167 24.6667 1.887 24.6667 2.3125C24.6667 2.738 25.012 3.08333 25.4375 3.08333C25.863 3.08333 26.2083 2.738 26.2083 2.3125C26.2083 1.887 25.863 1.54167 25.4375 1.54167Z" fill="#1B4568"/>
<path d="M9.24992 32.3751C8.40046 32.3751 7.70825 31.6829 7.70825 30.8334C7.70825 29.984 8.40046 29.2917 9.24992 29.2917C10.0994 29.2917 10.7916 29.984 10.7916 30.8334C10.7916 31.6829 10.0994 32.3751 9.24992 32.3751Z" fill="#1B4568"/>
<path d="M13.8749 29.2916C13.0255 29.2916 12.3333 28.5994 12.3333 27.7499C12.3333 26.9005 13.0255 26.2083 13.8749 26.2083C14.7244 26.2083 15.4166 26.9005 15.4166 27.7499C15.4166 28.5994 14.7244 29.2916 13.8749 29.2916Z" fill="#1B4568"/>
<path d="M19.2709 18.5001C19.0735 18.5001 18.8762 18.4246 18.7251 18.275L16.4589 16.0088C16.1582 15.7082 16.1582 15.2195 16.4589 14.9188C16.7595 14.6182 17.2482 14.6182 17.5488 14.9188L19.8151 17.1851C20.1157 17.4857 20.1157 17.9744 19.8151 18.275C19.6655 18.4246 19.4682 18.5001 19.2709 18.5001Z" fill="#1B4568"/>
<path d="M21.9672 24.6636C21.2426 24.6636 20.518 24.4894 19.8844 24.141L18.6757 23.4581C17.8802 23.0187 16.8057 23.0202 16.0055 23.4611L14.8092 24.1364C13.5373 24.8379 11.9016 24.8379 10.6359 24.1395L9.34862 23.4103C8.97862 23.2006 8.84758 22.7304 9.05879 22.3589C9.26845 21.9904 9.73712 21.8578 10.1102 22.069L11.3898 22.7936C12.1807 23.2299 13.2567 23.2314 14.0584 22.789L15.2547 22.1137C16.5266 21.4123 18.1608 21.4107 19.428 22.1106L20.6367 22.7936C21.4307 23.233 22.5052 23.2299 23.3069 22.7905L24.5664 22.0844C24.9349 21.8763 25.4066 22.0089 25.6163 22.3789C25.826 22.7489 25.6918 23.2191 25.3218 23.4288L24.0577 24.1379C23.421 24.4879 22.6933 24.6636 21.9672 24.6636Z" fill="#1B4568"/>
</g>
<defs>
<clipPath id="clip0_586_1011">
<rect width="37" height="37" fill="white"/>
</clipPath>
</defs>
</svg>
