<svg width="37" height="37" viewBox="0 0 37 37" fill="none" xmlns="http://www.w3.org/2000/svg">
<path d="M9.24992 30.8333V22.3542C9.24992 21.077 10.2853 20.0417 11.5624 20.0417H16.1874C17.4645 20.0417 18.4999 21.077 18.4999 22.3542V30.8333H28.5208C29.7979 30.8333 30.8333 29.7979 30.8333 28.5208V16.1875H32.3749V28.5208C32.3749 30.6494 30.6493 32.375 28.5208 32.375H8.47909C6.35049 32.375 4.62492 30.6494 4.62492 28.5208V16.1875H6.16659V28.5208C6.16659 29.7979 7.20192 30.8333 8.47909 30.8333H9.24992ZM10.7916 30.8333H16.9583V22.3542C16.9583 21.9285 16.6131 21.5833 16.1874 21.5833H11.5624C11.1367 21.5833 10.7916 21.9285 10.7916 22.3542V30.8333ZM23.1249 22.3542V25.4375C23.1249 25.8632 23.4701 26.2083 23.8958 26.2083H25.4374C25.8631 26.2083 26.2083 25.8632 26.2083 25.4375V22.3542C26.2083 21.9285 25.8631 21.5833 25.4374 21.5833H23.8958C23.4701 21.5833 23.1249 21.9285 23.1249 22.3542ZM21.5833 22.3542C21.5833 21.077 22.6186 20.0417 23.8958 20.0417H25.4374C26.7145 20.0417 27.7499 21.077 27.7499 22.3542V25.4375C27.7499 26.7146 26.7145 27.75 25.4374 27.75H23.8958C22.6186 27.75 21.5833 26.7146 21.5833 25.4375V22.3542ZM9.24992 16.9583H5.39575C4.11859 16.9583 3.08325 15.9229 3.08325 14.6458V13.4011C3.08325 13.1069 3.13938 12.8154 3.24866 12.5422L6.22172 5.10955C6.33877 4.81691 6.62223 4.625 6.93742 4.625H30.0624C30.3777 4.625 30.661 4.81691 30.7781 5.10955L33.7512 12.5422C33.8605 12.8154 33.9166 13.1069 33.9166 13.4011V14.6458C33.9166 15.9229 32.8812 16.9583 31.6041 16.9583H27.7499C27.1576 16.9583 26.6174 16.7357 26.2083 16.3696C25.7991 16.7357 25.2589 16.9583 24.6666 16.9583H20.0416C19.4493 16.9583 18.9091 16.7357 18.4999 16.3696C18.0908 16.7357 17.5506 16.9583 16.9583 16.9583H12.3333C11.741 16.9583 11.2007 16.7357 10.7916 16.3696C10.3825 16.7357 9.8422 16.9583 9.24992 16.9583ZM7.4593 6.16667L4.68005 13.1148C4.64363 13.2058 4.62492 13.303 4.62492 13.4011V14.6458C4.62492 15.0715 4.97004 15.4167 5.39575 15.4167H9.24992C9.67563 15.4167 10.0208 15.0715 10.0208 14.6458V13.1042C10.0208 12.6785 10.3659 12.3333 10.7916 12.3333C11.2173 12.3333 11.5624 12.6785 11.5624 13.1042V14.6458C11.5624 15.0715 11.9075 15.4167 12.3333 15.4167H16.9583C17.3839 15.4167 17.7291 15.0715 17.7291 14.6458V13.1042C17.7291 12.6785 18.0743 12.3333 18.4999 12.3333C18.9256 12.3333 19.2708 12.6785 19.2708 13.1042V14.6458C19.2708 15.0715 19.6159 15.4167 20.0416 15.4167H24.6666C25.0922 15.4167 25.4374 15.0715 25.4374 14.6458V13.1042C25.4374 12.6785 25.7826 12.3333 26.2083 12.3333C26.6339 12.3333 26.9791 12.6785 26.9791 13.1042V14.6458C26.9791 15.0715 27.3243 15.4167 27.7499 15.4167H31.6041C32.0297 15.4167 32.3749 15.0715 32.3749 14.6458V13.4011C32.3749 13.303 32.3563 13.2058 32.3197 13.1148L29.5406 6.16667H7.4593Z" fill="#1B4568"/>
</svg>
