<svg width="37" height="37" viewBox="0 0 37 37" fill="none" xmlns="http://www.w3.org/2000/svg">
<g clip-path="url(#clip0_586_998)">
<path d="M23.125 27.75H2.89062C2.43079 27.7495 1.98994 27.5666 1.66479 27.2415C1.33964 26.9163 1.15675 26.4755 1.15625 26.0156V8.09375H12.7188C12.8261 8.09377 12.9314 8.06389 13.0227 8.00745C13.1141 7.95101 13.1879 7.87024 13.2359 7.7742L14.2324 5.78125H27.75V7.51562C27.75 7.66895 27.8109 7.816 27.9193 7.92442C28.0277 8.03284 28.1748 8.09375 28.3281 8.09375C28.4815 8.09375 28.6285 8.03284 28.7369 7.92442C28.8453 7.816 28.9062 7.66895 28.9062 7.51562V2.89062C28.9053 2.12426 28.6005 1.38954 28.0586 0.847638C27.5167 0.305736 26.782 0.000899659 26.0156 0L2.89062 0C2.12426 0.000899659 1.38954 0.305736 0.847638 0.847638C0.305736 1.38954 0.000899659 2.12426 0 2.89062L0 26.0156C0.000899659 26.782 0.305736 27.5167 0.847638 28.0586C1.38954 28.6005 2.12426 28.9053 2.89062 28.9062H23.125C23.2783 28.9062 23.4254 28.8453 23.5338 28.7369C23.6422 28.6285 23.7031 28.4815 23.7031 28.3281C23.7031 28.1748 23.6422 28.0277 23.5338 27.9193C23.4254 27.8109 23.2783 27.75 23.125 27.75ZM2.89062 1.15625H26.0156C26.4755 1.15675 26.9163 1.33964 27.2415 1.66479C27.5666 1.98994 27.7495 2.43079 27.75 2.89062V4.625H13.875C13.7676 4.62498 13.6624 4.65486 13.571 4.7113C13.4797 4.76774 13.4059 4.84851 13.3579 4.94455L12.3614 6.9375H1.15625V2.89062C1.15675 2.43079 1.33964 1.98994 1.66479 1.66479C1.98994 1.33964 2.43079 1.15675 2.89062 1.15625Z" fill="#1B4568"/>
<path d="M19.0781 3.46875H26.0156C26.169 3.46875 26.316 3.40784 26.4244 3.29942C26.5328 3.191 26.5938 3.04395 26.5938 2.89062C26.5938 2.7373 26.5328 2.59025 26.4244 2.48183C26.316 2.37341 26.169 2.3125 26.0156 2.3125H19.0781C18.9248 2.3125 18.7777 2.37341 18.6693 2.48183C18.5609 2.59025 18.5 2.7373 18.5 2.89062C18.5 3.04395 18.5609 3.191 18.6693 3.29942C18.7777 3.40784 18.9248 3.46875 19.0781 3.46875Z" fill="#1B4568"/>
<path d="M2.89062 5.78125H4.3173C4.47063 5.78125 4.61768 5.72034 4.7261 5.61192C4.83452 5.5035 4.89543 5.35645 4.89543 5.20312C4.89543 5.0498 4.83452 4.90275 4.7261 4.79433C4.61768 4.68591 4.47063 4.625 4.3173 4.625H2.89062C2.7373 4.625 2.59025 4.68591 2.48183 4.79433C2.37341 4.90275 2.3125 5.0498 2.3125 5.20312C2.3125 5.35645 2.37341 5.5035 2.48183 5.61192C2.59025 5.72034 2.7373 5.78125 2.89062 5.78125Z" fill="#1B4568"/>
<path d="M6.35938 5.78125H7.78605C7.93938 5.78125 8.08643 5.72034 8.19485 5.61192C8.30327 5.5035 8.36418 5.35645 8.36418 5.20312C8.36418 5.0498 8.30327 4.90275 8.19485 4.79433C8.08643 4.68591 7.93938 4.625 7.78605 4.625H6.35938C6.20605 4.625 6.059 4.68591 5.95058 4.79433C5.84216 4.90275 5.78125 5.0498 5.78125 5.20312C5.78125 5.35645 5.84216 5.5035 5.95058 5.61192C6.059 5.72034 6.20605 5.78125 6.35938 5.78125Z" fill="#1B4568"/>
<path d="M9.82812 5.78125H11.2548C11.4081 5.78125 11.5552 5.72034 11.6636 5.61192C11.772 5.5035 11.8329 5.35645 11.8329 5.20312C11.8329 5.0498 11.772 4.90275 11.6636 4.79433C11.5552 4.68591 11.4081 4.625 11.2548 4.625H9.82812C9.6748 4.625 9.52775 4.68591 9.41933 4.79433C9.31091 4.90275 9.25 5.0498 9.25 5.20312C9.25 5.35645 9.31091 5.5035 9.41933 5.61192C9.52775 5.72034 9.6748 5.78125 9.82812 5.78125Z" fill="#1B4568"/>
<path d="M37 17.9219C37.0008 15.9849 36.3528 14.1035 35.1595 12.5778C33.9662 11.0522 32.2962 9.97011 30.4161 9.50434C28.536 9.03858 26.554 9.21595 24.7865 10.0081C23.0189 10.8003 21.5676 12.1617 20.6642 13.875H10.4062C9.33295 13.875 8.30361 14.3014 7.54468 15.0603C6.78574 15.8192 6.35938 16.8486 6.35938 17.9219C6.35938 18.9952 6.78574 20.0245 7.54468 20.7835C8.30361 21.5424 9.33295 21.9688 10.4062 21.9688H20.6642C21.5853 23.7004 23.0633 25.071 24.8594 25.8591V28.3281C24.8594 28.4041 24.8743 28.4792 24.9033 28.5494C24.9324 28.6195 24.975 28.6833 25.0287 28.737C25.0823 28.7907 25.1461 28.8332 25.2162 28.8623C25.2864 28.8913 25.3616 28.9063 25.4375 28.9063H26.0156V34.6875C26.0156 35.3008 26.2593 35.889 26.6929 36.3227C27.1266 36.7564 27.7148 37 28.3281 37C28.9414 37 29.5296 36.7564 29.9633 36.3227C30.397 35.889 30.6406 35.3008 30.6406 34.6875V28.9063H31.2188C31.2947 28.9063 31.3699 28.8913 31.44 28.8623C31.5102 28.8332 31.5739 28.7907 31.6276 28.737C31.6813 28.6833 31.7239 28.6195 31.7529 28.5494C31.782 28.4792 31.7969 28.4041 31.7969 28.3281V25.8647C33.3419 25.1891 34.6567 24.0783 35.5807 22.6677C36.5047 21.2572 36.9979 19.6081 37 17.9219ZM7.51562 17.9219C7.51652 17.1555 7.82136 16.4208 8.36326 15.8789C8.90517 15.337 9.63988 15.0322 10.4062 15.0313H32.65C33.2244 15.8858 33.5312 16.8922 33.5312 17.9219C33.5312 18.9516 33.2244 19.9579 32.65 20.8125H10.4062C9.63988 20.8116 8.90517 20.5068 8.36326 19.9649C7.82136 19.423 7.51652 18.6882 7.51562 17.9219ZM25.0629 13.875C25.9867 13.1269 27.1394 12.7187 28.3282 12.7187C29.5169 12.7187 30.6696 13.1269 31.5934 13.875H25.0629ZM31.5934 21.9688C30.6695 22.7168 29.5169 23.125 28.3281 23.125C27.1394 23.125 25.9867 22.7168 25.0629 21.9688H31.5934ZM29.4844 34.6875C29.4844 34.9942 29.3626 35.2883 29.1457 35.5051C28.9289 35.7219 28.6348 35.8438 28.3281 35.8438C28.0215 35.8438 27.7274 35.7219 27.5105 35.5051C27.2937 35.2883 27.1719 34.9942 27.1719 34.6875V28.9063H29.4844V34.6875ZM30.6406 27.75H26.0156V26.2722C27.5275 26.7013 29.129 26.7009 30.6406 26.2711V27.75ZM28.3281 25.4375C27.0672 25.433 25.8275 25.1133 24.7216 24.5075C23.6158 23.9017 22.679 23.0289 21.9964 21.9688H23.4409C24.0321 22.6936 24.7776 23.2774 25.6231 23.6774C26.4686 24.0775 27.3928 24.2838 28.3281 24.2813C30.0147 24.2813 31.6323 23.6113 32.8249 22.4186C34.0175 21.226 34.6875 19.6085 34.6875 17.9219C34.6875 16.2353 34.0175 14.6177 32.8249 13.4251C31.6323 12.2325 30.0147 11.5625 28.3281 11.5625C27.3928 11.56 26.4686 11.7663 25.6231 12.1663C24.7776 12.5664 24.0321 13.1502 23.4409 13.875H21.9964C22.6991 12.7756 23.676 11.878 24.8309 11.2707C25.9858 10.6635 27.2789 10.3673 28.583 10.4115C29.8871 10.4557 31.1572 10.8386 32.2684 11.5227C33.3795 12.2067 34.2934 13.1683 34.9201 14.3128C35.5469 15.4572 35.8648 16.7452 35.8427 18.0498C35.8205 19.3545 35.4591 20.6309 34.7939 21.7534C34.1288 22.876 33.1828 23.806 32.049 24.452C30.9153 25.0979 29.633 25.4376 28.3281 25.4375Z" fill="#1B4568"/>
<path d="M23.8725 19.4869C23.9262 19.5406 23.9899 19.5832 24.06 19.6123C24.1302 19.6413 24.2053 19.6563 24.2813 19.6563C24.3572 19.6563 24.4323 19.6413 24.5025 19.6123C24.5726 19.5832 24.6363 19.5406 24.69 19.4869L25.4375 18.7394L26.185 19.487C26.2936 19.5942 26.4403 19.6542 26.593 19.6537C26.7457 19.6532 26.892 19.5923 26.9999 19.4844C27.1079 19.3764 27.1687 19.2301 27.1692 19.0774C27.1697 18.9248 27.1098 18.7781 27.0025 18.6695L26.255 17.9219L27.0025 17.1744C27.0567 17.1209 27.0998 17.0571 27.1293 16.9868C27.1588 16.9166 27.1741 16.8411 27.1744 16.7649C27.1746 16.6887 27.1598 16.6132 27.1307 16.5427C27.1017 16.4723 27.059 16.4083 27.0051 16.3544C26.9512 16.3005 26.8871 16.2578 26.8167 16.2287C26.7462 16.1997 26.6707 16.1848 26.5945 16.1851C26.5183 16.1853 26.4429 16.2006 26.3726 16.2301C26.3023 16.2596 26.2386 16.3027 26.185 16.357L25.4375 17.1044L24.69 16.3569C24.5813 16.2496 24.4347 16.1897 24.282 16.1902C24.1293 16.1907 23.983 16.2515 23.875 16.3595C23.7671 16.4675 23.7062 16.6138 23.7057 16.7664C23.7053 16.9191 23.7652 17.0658 23.8725 17.1744L24.62 17.9219L23.8725 18.6695C23.8188 18.7231 23.7762 18.7868 23.7471 18.857C23.7181 18.9271 23.7031 19.0023 23.7031 19.0782C23.7031 19.1541 23.7181 19.2293 23.7472 19.2994C23.7762 19.3695 23.8188 19.4333 23.8725 19.4869Z" fill="#1B4568"/>
<path d="M28.4975 19.4869C28.5512 19.5406 28.6149 19.5832 28.685 19.6123C28.7552 19.6413 28.8303 19.6563 28.9063 19.6563C28.9822 19.6563 29.0573 19.6413 29.1275 19.6123C29.1976 19.5832 29.2613 19.5406 29.315 19.4869L30.0625 18.7394L30.81 19.487C30.9186 19.5942 31.0653 19.6542 31.218 19.6537C31.3707 19.6532 31.517 19.5923 31.6249 19.4844C31.7329 19.3764 31.7937 19.2301 31.7942 19.0774C31.7947 18.9248 31.7348 18.7781 31.6275 18.6695L30.88 17.9219L31.6275 17.1744C31.6817 17.1209 31.7248 17.0571 31.7543 16.9868C31.7838 16.9166 31.7991 16.8411 31.7994 16.7649C31.7996 16.6887 31.7848 16.6132 31.7557 16.5427C31.7267 16.4723 31.684 16.4083 31.6301 16.3544C31.5762 16.3005 31.5121 16.2578 31.4417 16.2287C31.3712 16.1997 31.2957 16.1848 31.2195 16.1851C31.1433 16.1853 31.0679 16.2006 30.9976 16.2301C30.9273 16.2596 30.8636 16.3027 30.81 16.357L30.0625 17.1044L29.315 16.3569C29.2063 16.2496 29.0597 16.1897 28.907 16.1902C28.7543 16.1907 28.608 16.2515 28.5 16.3595C28.3921 16.4675 28.3312 16.6138 28.3307 16.7664C28.3303 16.9191 28.3902 17.0658 28.4975 17.1744L29.245 17.9219L28.4975 18.6695C28.4438 18.7231 28.4012 18.7868 28.3721 18.857C28.3431 18.9271 28.3281 19.0023 28.3281 19.0782C28.3281 19.1541 28.3431 19.2293 28.3722 19.2994C28.4012 19.3695 28.4438 19.4333 28.4975 19.4869Z" fill="#1B4568"/>
<path d="M21.5601 19.4869C21.6688 19.5937 21.8153 19.6532 21.9677 19.6525C22.1202 19.6519 22.2661 19.591 22.3739 19.4832C22.4817 19.3755 22.5425 19.2295 22.5432 19.0771C22.5439 18.9247 22.4844 18.7782 22.3776 18.6695L21.6301 17.9219L22.3776 17.1744C22.4318 17.1209 22.4749 17.0571 22.5044 16.9868C22.5339 16.9166 22.5492 16.8411 22.5495 16.7649C22.5497 16.6887 22.5349 16.6132 22.5058 16.5427C22.4768 16.4723 22.4341 16.4083 22.3802 16.3544C22.3263 16.3005 22.2622 16.2578 22.1918 16.2287C22.1213 16.1997 22.0458 16.1848 21.9696 16.1851C21.8934 16.1853 21.818 16.2006 21.7477 16.2301C21.6774 16.2596 21.6137 16.3027 21.5601 16.357L20.8126 17.1044L20.0651 16.3569C19.9564 16.2496 19.8098 16.1897 19.6571 16.1902C19.5044 16.1907 19.3581 16.2515 19.2501 16.3595C19.1422 16.4675 19.0813 16.6138 19.0808 16.7664C19.0804 16.9191 19.1403 17.0658 19.2476 17.1744L19.9951 17.9219L19.2476 18.6695C19.1933 18.723 19.1502 18.7868 19.1207 18.857C19.0912 18.9273 19.0759 19.0027 19.0757 19.079C19.0754 19.1552 19.0903 19.2307 19.1193 19.3012C19.1484 19.3716 19.1911 19.4356 19.245 19.4895C19.2989 19.5434 19.3629 19.5861 19.4334 19.6152C19.5038 19.6442 19.5794 19.6591 19.6556 19.6588C19.7318 19.6586 19.8072 19.6433 19.8775 19.6138C19.9478 19.5843 20.0115 19.5412 20.0651 19.4869L20.8126 18.7394L21.5601 19.4869Z" fill="#1B4568"/>
<path d="M17.7526 16.3569C17.6989 16.3032 17.6352 16.2606 17.565 16.2315C17.4949 16.2025 17.4197 16.1875 17.3438 16.1875C17.2679 16.1875 17.1927 16.2025 17.1226 16.2315C17.0525 16.2606 16.9887 16.3032 16.9351 16.3569L16.1876 17.1044L15.4401 16.3568C15.3314 16.2496 15.1848 16.1896 15.0321 16.1901C14.8794 16.1906 14.7331 16.2515 14.6251 16.3594C14.5172 16.4674 14.4563 16.6137 14.4558 16.7664C14.4554 16.919 14.5153 17.0657 14.6226 17.1743L15.3701 17.9219L14.6226 18.6694C14.5683 18.7229 14.5252 18.7867 14.4957 18.857C14.4662 18.9272 14.4509 19.0027 14.4507 19.0789C14.4504 19.1551 14.4653 19.2306 14.4943 19.3011C14.5234 19.3715 14.5661 19.4355 14.62 19.4894C14.6739 19.5433 14.7379 19.586 14.8084 19.6151C14.8788 19.6441 14.9544 19.659 15.0306 19.6587C15.1068 19.6585 15.1822 19.6432 15.2525 19.6137C15.3228 19.5842 15.3865 19.5411 15.4401 19.4868L16.1876 18.7394L16.9351 19.4869C16.9887 19.5411 17.0524 19.5842 17.1227 19.6137C17.193 19.6432 17.2684 19.6585 17.3446 19.6588C17.4208 19.659 17.4963 19.6442 17.5668 19.6151C17.6373 19.586 17.7013 19.5433 17.7552 19.4894C17.8091 19.4355 17.8518 19.3715 17.8808 19.3011C17.9099 19.2306 17.9247 19.1551 17.9245 19.0789C17.9242 19.0027 17.9089 18.9272 17.8794 18.857C17.8499 18.7867 17.8068 18.7229 17.7526 18.6694L17.0051 17.9219L17.7526 17.1743C17.8063 17.1207 17.8489 17.057 17.8779 16.9868C17.907 16.9167 17.9219 16.8415 17.9219 16.7656C17.9219 16.6897 17.907 16.6145 17.8779 16.5444C17.8489 16.4743 17.8063 16.4105 17.7526 16.3569Z" fill="#1B4568"/>
<path d="M13.1276 16.3569C13.0739 16.3032 13.0102 16.2606 12.94 16.2315C12.8699 16.2025 12.7947 16.1875 12.7188 16.1875C12.6429 16.1875 12.5677 16.2025 12.4976 16.2315C12.4275 16.2606 12.3637 16.3032 12.3101 16.3569L11.5626 17.1044L10.8151 16.3568C10.7064 16.2496 10.5598 16.1896 10.4071 16.1901C10.2544 16.1906 10.1081 16.2515 10.0001 16.3594C9.89219 16.4674 9.83133 16.6137 9.83085 16.7664C9.83037 16.919 9.89032 17.0657 9.9976 17.1743L10.7451 17.9219L9.99757 18.6694C9.94333 18.7229 9.90023 18.7867 9.87073 18.857C9.84123 18.9272 9.82592 19.0027 9.82569 19.0789C9.82545 19.1551 9.84028 19.2306 9.86934 19.3011C9.8984 19.3715 9.94111 19.4355 9.995 19.4894C10.0489 19.5433 10.1129 19.586 10.1834 19.6151C10.2538 19.6441 10.3294 19.659 10.4056 19.6587C10.4818 19.6585 10.5572 19.6432 10.6275 19.6137C10.6978 19.5842 10.7615 19.5411 10.8151 19.4868L11.5626 18.7394L12.3101 19.4869C12.3637 19.5411 12.4274 19.5842 12.4977 19.6137C12.568 19.6432 12.6434 19.6585 12.7196 19.6588C12.7958 19.659 12.8713 19.6442 12.9418 19.6151C13.0123 19.586 13.0763 19.5433 13.1302 19.4894C13.1841 19.4355 13.2268 19.3715 13.2558 19.3011C13.2849 19.2306 13.2997 19.1551 13.2995 19.0789C13.2992 19.0027 13.2839 18.9272 13.2544 18.857C13.2249 18.7867 13.1818 18.7229 13.1276 18.6694L12.3801 17.9219L13.1276 17.1743C13.1813 17.1207 13.2239 17.057 13.2529 16.9868C13.282 16.9167 13.2969 16.8415 13.2969 16.7656C13.2969 16.6897 13.282 16.6145 13.2529 16.5444C13.2239 16.4743 13.1813 16.4105 13.1276 16.3569Z" fill="#1B4568"/>
</g>
<defs>
<clipPath id="clip0_586_998">
<rect width="37" height="37" fill="white"/>
</clipPath>
</defs>
</svg>
