<svg width="117" height="28" viewBox="0 0 117 28" fill="none" xmlns="http://www.w3.org/2000/svg">
<path d="M43.7744 16.7256H45.6543C45.6042 17.391 45.4196 17.9811 45.1006 18.4961C44.7816 19.0065 44.3372 19.4076 43.7676 19.6992C43.1979 19.9909 42.5075 20.1367 41.6963 20.1367C41.0719 20.1367 40.5091 20.0273 40.0078 19.8086C39.5111 19.5853 39.085 19.2686 38.7295 18.8584C38.3786 18.4437 38.1097 17.9469 37.9229 17.3682C37.736 16.7848 37.6426 16.1309 37.6426 15.4062V14.6475C37.6426 13.9229 37.7383 13.2689 37.9297 12.6855C38.1211 12.1022 38.3945 11.6055 38.75 11.1953C39.11 10.7806 39.5407 10.4616 40.042 10.2383C40.5479 10.015 41.113 9.90332 41.7373 9.90332C42.5485 9.90332 43.2344 10.0537 43.7949 10.3545C44.3555 10.6507 44.7907 11.0586 45.1006 11.5781C45.4105 12.0977 45.5973 12.6947 45.6611 13.3691H43.7812C43.7448 12.9499 43.6536 12.5944 43.5078 12.3027C43.3665 12.0111 43.1523 11.79 42.8652 11.6396C42.5827 11.4847 42.2067 11.4072 41.7373 11.4072C41.3727 11.4072 41.0514 11.4756 40.7734 11.6123C40.5 11.749 40.2721 11.9541 40.0898 12.2275C39.9076 12.4964 39.7708 12.8337 39.6797 13.2393C39.5885 13.6403 39.543 14.1051 39.543 14.6338V15.4062C39.543 15.9121 39.584 16.3656 39.666 16.7666C39.748 17.1676 39.8757 17.5072 40.0488 17.7852C40.222 18.0632 40.4453 18.2751 40.7188 18.4209C40.9922 18.5667 41.318 18.6396 41.6963 18.6396C42.1566 18.6396 42.5303 18.5667 42.8174 18.4209C43.109 18.2751 43.3301 18.0609 43.4805 17.7783C43.6354 17.4958 43.7334 17.1449 43.7744 16.7256ZM46.6523 16.377V16.2334C46.6523 15.6911 46.7298 15.1921 46.8848 14.7363C47.0397 14.276 47.2653 13.8773 47.5615 13.54C47.8577 13.2028 48.2201 12.9408 48.6484 12.7539C49.0768 12.5625 49.5645 12.4668 50.1113 12.4668C50.6673 12.4668 51.1595 12.5625 51.5879 12.7539C52.0208 12.9408 52.3854 13.2028 52.6816 13.54C52.9779 13.8773 53.2035 14.276 53.3584 14.7363C53.5133 15.1921 53.5908 15.6911 53.5908 16.2334V16.377C53.5908 16.9147 53.5133 17.4137 53.3584 17.874C53.2035 18.3298 52.9779 18.7285 52.6816 19.0703C52.3854 19.4076 52.0231 19.6696 51.5947 19.8564C51.1663 20.0433 50.6764 20.1367 50.125 20.1367C49.5781 20.1367 49.0882 20.0433 48.6553 19.8564C48.2223 19.6696 47.8577 19.4076 47.5615 19.0703C47.2653 18.7285 47.0397 18.3298 46.8848 17.874C46.7298 17.4137 46.6523 16.9147 46.6523 16.377ZM48.457 16.2334V16.377C48.457 16.7005 48.4889 17.0036 48.5527 17.2861C48.6165 17.5687 48.7145 17.8171 48.8467 18.0312C48.9788 18.2454 49.1497 18.4141 49.3594 18.5371C49.5736 18.6556 49.8288 18.7148 50.125 18.7148C50.4167 18.7148 50.6673 18.6556 50.877 18.5371C51.0866 18.4141 51.2575 18.2454 51.3896 18.0312C51.5264 17.8171 51.6266 17.5687 51.6904 17.2861C51.7542 17.0036 51.7861 16.7005 51.7861 16.377V16.2334C51.7861 15.9144 51.7542 15.6159 51.6904 15.3379C51.6266 15.0553 51.5264 14.807 51.3896 14.5928C51.2575 14.374 51.0843 14.2031 50.8701 14.0801C50.6605 13.9525 50.4076 13.8887 50.1113 13.8887C49.8197 13.8887 49.569 13.9525 49.3594 14.0801C49.1497 14.2031 48.9788 14.374 48.8467 14.5928C48.7145 14.807 48.6165 15.0553 48.5527 15.3379C48.4889 15.6159 48.457 15.9144 48.457 16.2334ZM56.6738 14.1826V20H54.8691V12.6035H56.5645L56.6738 14.1826ZM56.3867 16.0352H55.8535C55.8581 15.4974 55.931 15.0098 56.0723 14.5723C56.2135 14.1348 56.4118 13.7588 56.667 13.4443C56.9268 13.1299 57.2344 12.8883 57.5898 12.7197C57.9453 12.5511 58.3418 12.4668 58.7793 12.4668C59.1348 12.4668 59.4561 12.5169 59.7432 12.6172C60.0303 12.7174 60.2764 12.877 60.4814 13.0957C60.6911 13.3145 60.8506 13.6016 60.96 13.957C61.0739 14.3079 61.1309 14.7409 61.1309 15.2559V20H59.3125V15.2422C59.3125 14.9049 59.2624 14.6383 59.1621 14.4424C59.0664 14.2464 58.9251 14.1074 58.7383 14.0254C58.556 13.9434 58.3304 13.9023 58.0615 13.9023C57.7835 13.9023 57.5397 13.9593 57.3301 14.0732C57.125 14.1826 56.9518 14.3353 56.8105 14.5312C56.6738 14.7272 56.569 14.9528 56.4961 15.208C56.4232 15.4632 56.3867 15.7389 56.3867 16.0352ZM66.2236 12.6035V13.9023H61.9854V12.6035H66.2236ZM63.1201 10.7852H64.9316V17.8672C64.9316 18.0859 64.9613 18.2546 65.0205 18.373C65.0798 18.4915 65.1686 18.5713 65.2871 18.6123C65.4056 18.6533 65.5469 18.6738 65.7109 18.6738C65.8294 18.6738 65.9388 18.667 66.0391 18.6533C66.1393 18.6396 66.2236 18.626 66.292 18.6123L66.2988 19.9658C66.1484 20.016 65.9775 20.057 65.7861 20.0889C65.5993 20.1208 65.3874 20.1367 65.1504 20.1367C64.7448 20.1367 64.3893 20.0684 64.084 19.9316C63.7786 19.7904 63.5417 19.5648 63.373 19.2549C63.2044 18.9404 63.1201 18.5257 63.1201 18.0107V10.7852ZM71.501 18.4277V15.0166C71.501 14.766 71.4577 14.5495 71.3711 14.3672C71.2845 14.1849 71.1523 14.0436 70.9746 13.9434C70.7969 13.8431 70.5713 13.793 70.2979 13.793C70.0563 13.793 69.8444 13.834 69.6621 13.916C69.4844 13.998 69.3477 14.1143 69.252 14.2646C69.1562 14.4105 69.1084 14.5791 69.1084 14.7705H67.2969C67.2969 14.4652 67.3698 14.1758 67.5156 13.9023C67.6615 13.6243 67.8688 13.3783 68.1377 13.1641C68.4111 12.9453 68.737 12.7744 69.1152 12.6514C69.498 12.5283 69.9264 12.4668 70.4004 12.4668C70.9609 12.4668 71.46 12.5625 71.8975 12.7539C72.3395 12.9408 72.6859 13.2233 72.9365 13.6016C73.1917 13.9798 73.3193 14.4561 73.3193 15.0303V18.2568C73.3193 18.626 73.3421 18.9427 73.3877 19.207C73.4378 19.4668 73.5107 19.6924 73.6064 19.8838V20H71.7676C71.681 19.8132 71.6149 19.5762 71.5693 19.2891C71.5238 18.9974 71.501 18.7103 71.501 18.4277ZM71.7539 15.4951L71.7676 16.5684H70.626C70.3434 16.5684 70.0951 16.598 69.8809 16.6572C69.6667 16.7119 69.4912 16.7939 69.3545 16.9033C69.2178 17.0081 69.1152 17.1357 69.0469 17.2861C68.9785 17.432 68.9443 17.5983 68.9443 17.7852C68.9443 17.9674 68.9854 18.1315 69.0674 18.2773C69.154 18.4232 69.277 18.5394 69.4365 18.626C69.6006 18.708 69.792 18.749 70.0107 18.749C70.3298 18.749 70.6077 18.6852 70.8447 18.5576C71.0817 18.4255 71.2663 18.266 71.3984 18.0791C71.5306 17.8923 71.6012 17.7145 71.6104 17.5459L72.1299 18.3252C72.0661 18.512 71.9704 18.7103 71.8428 18.9199C71.7152 19.1296 71.5511 19.3255 71.3506 19.5078C71.1501 19.6901 70.9085 19.8405 70.626 19.959C70.3434 20.0775 70.0153 20.1367 69.6416 20.1367C69.1631 20.1367 68.7347 20.041 68.3564 19.8496C67.9782 19.6582 67.6797 19.3962 67.4609 19.0635C67.2422 18.7308 67.1328 18.3525 67.1328 17.9287C67.1328 17.5368 67.2057 17.1904 67.3516 16.8896C67.4974 16.5889 67.7139 16.3359 68.001 16.1309C68.2881 15.9212 68.6436 15.764 69.0674 15.6592C69.4958 15.5498 69.9857 15.4951 70.5371 15.4951H71.7539ZM69.5459 11.5781L70.8857 9.5H72.8818L71.0156 11.5781H69.5459ZM77.9814 18.7148C78.2367 18.7148 78.4645 18.6647 78.665 18.5645C78.8656 18.4642 79.0251 18.3229 79.1436 18.1406C79.2666 17.9583 79.3327 17.7464 79.3418 17.5049H81.0439C81.0348 18.0062 80.8936 18.4551 80.6201 18.8516C80.3467 19.248 79.9821 19.5625 79.5264 19.7949C79.0752 20.0228 78.5693 20.1367 78.0088 20.1367C77.4391 20.1367 76.9424 20.041 76.5186 19.8496C76.0947 19.6582 75.7415 19.3916 75.459 19.0498C75.181 18.708 74.9714 18.3115 74.8301 17.8604C74.6934 17.4092 74.625 16.9261 74.625 16.4111V16.1924C74.625 15.6774 74.6934 15.1943 74.8301 14.7432C74.9714 14.292 75.181 13.8955 75.459 13.5537C75.7415 13.2119 76.0947 12.9453 76.5186 12.7539C76.9424 12.5625 77.4368 12.4668 78.002 12.4668C78.599 12.4668 79.123 12.583 79.5742 12.8154C80.0299 13.0479 80.3854 13.376 80.6406 13.7998C80.9004 14.2236 81.0348 14.7227 81.0439 15.2969H79.3418C79.3327 15.0326 79.2734 14.7956 79.1641 14.5859C79.0547 14.3763 78.8997 14.2077 78.6992 14.0801C78.4987 13.9525 78.2549 13.8887 77.9678 13.8887C77.6624 13.8887 77.4072 13.9525 77.2021 14.0801C77.0016 14.2077 76.8444 14.3831 76.7305 14.6064C76.6211 14.8252 76.5436 15.0713 76.498 15.3447C76.457 15.6136 76.4365 15.8962 76.4365 16.1924V16.4111C76.4365 16.7119 76.457 16.999 76.498 17.2725C76.5436 17.5459 76.6211 17.792 76.7305 18.0107C76.8444 18.2249 77.0016 18.3958 77.2021 18.5234C77.4072 18.651 77.667 18.7148 77.9814 18.7148ZM85.7471 12.6035V13.9023H81.5088V12.6035H85.7471ZM82.6436 10.7852H84.4551V17.8672C84.4551 18.0859 84.4847 18.2546 84.5439 18.373C84.6032 18.4915 84.6921 18.5713 84.8105 18.6123C84.929 18.6533 85.0703 18.6738 85.2344 18.6738C85.3529 18.6738 85.4622 18.667 85.5625 18.6533C85.6628 18.6396 85.7471 18.626 85.8154 18.6123L85.8223 19.9658C85.6719 20.016 85.501 20.057 85.3096 20.0889C85.1227 20.1208 84.9108 20.1367 84.6738 20.1367C84.2682 20.1367 83.9128 20.0684 83.6074 19.9316C83.3021 19.7904 83.0651 19.5648 82.8965 19.2549C82.7279 18.9404 82.6436 18.5257 82.6436 18.0107V10.7852ZM91.0244 18.4277V15.0166C91.0244 14.766 90.9811 14.5495 90.8945 14.3672C90.8079 14.1849 90.6758 14.0436 90.498 13.9434C90.3203 13.8431 90.0947 13.793 89.8213 13.793C89.5798 13.793 89.3678 13.834 89.1855 13.916C89.0078 13.998 88.8711 14.1143 88.7754 14.2646C88.6797 14.4105 88.6318 14.5791 88.6318 14.7705H86.8203C86.8203 14.4652 86.8932 14.1758 87.0391 13.9023C87.1849 13.6243 87.3923 13.3783 87.6611 13.1641C87.9346 12.9453 88.2604 12.7744 88.6387 12.6514C89.0215 12.5283 89.4499 12.4668 89.9238 12.4668C90.4844 12.4668 90.9834 12.5625 91.4209 12.7539C91.863 12.9408 92.2093 13.2233 92.46 13.6016C92.7152 13.9798 92.8428 14.4561 92.8428 15.0303V18.2568C92.8428 18.626 92.8656 18.9427 92.9111 19.207C92.9613 19.4668 93.0342 19.6924 93.1299 19.8838V20H91.291C91.2044 19.8132 91.1383 19.5762 91.0928 19.2891C91.0472 18.9974 91.0244 18.7103 91.0244 18.4277ZM91.2773 15.4951L91.291 16.5684H90.1494C89.8669 16.5684 89.6185 16.598 89.4043 16.6572C89.1901 16.7119 89.0146 16.7939 88.8779 16.9033C88.7412 17.0081 88.6387 17.1357 88.5703 17.2861C88.502 17.432 88.4678 17.5983 88.4678 17.7852C88.4678 17.9674 88.5088 18.1315 88.5908 18.2773C88.6774 18.4232 88.8005 18.5394 88.96 18.626C89.124 18.708 89.3154 18.749 89.5342 18.749C89.8532 18.749 90.1312 18.6852 90.3682 18.5576C90.6051 18.4255 90.7897 18.266 90.9219 18.0791C91.054 17.8923 91.1247 17.7145 91.1338 17.5459L91.6533 18.3252C91.5895 18.512 91.4938 18.7103 91.3662 18.9199C91.2386 19.1296 91.0745 19.3255 90.874 19.5078C90.6735 19.6901 90.432 19.8405 90.1494 19.959C89.8669 20.0775 89.5387 20.1367 89.165 20.1367C88.6865 20.1367 88.2581 20.041 87.8799 19.8496C87.5016 19.6582 87.2031 19.3962 86.9844 19.0635C86.7656 18.7308 86.6562 18.3525 86.6562 17.9287C86.6562 17.5368 86.7292 17.1904 86.875 16.8896C87.0208 16.5889 87.2373 16.3359 87.5244 16.1309C87.8115 15.9212 88.167 15.764 88.5908 15.6592C89.0192 15.5498 89.5091 15.4951 90.0605 15.4951H91.2773ZM96.2402 14.1826V20H94.4355V12.6035H96.1309L96.2402 14.1826ZM95.9531 16.0352H95.4199C95.4245 15.4974 95.4974 15.0098 95.6387 14.5723C95.7799 14.1348 95.9782 13.7588 96.2334 13.4443C96.4932 13.1299 96.8008 12.8883 97.1562 12.7197C97.5117 12.5511 97.9082 12.4668 98.3457 12.4668C98.7012 12.4668 99.0225 12.5169 99.3096 12.6172C99.5967 12.7174 99.8428 12.877 100.048 13.0957C100.257 13.3145 100.417 13.6016 100.526 13.957C100.64 14.3079 100.697 14.7409 100.697 15.2559V20H98.8789V15.2422C98.8789 14.9049 98.8288 14.6383 98.7285 14.4424C98.6328 14.2464 98.4915 14.1074 98.3047 14.0254C98.1224 13.9434 97.8968 13.9023 97.6279 13.9023C97.3499 13.9023 97.1061 13.9593 96.8965 14.0732C96.6914 14.1826 96.5182 14.3353 96.377 14.5312C96.2402 14.7272 96.1354 14.9528 96.0625 15.208C95.9896 15.4632 95.9531 15.7389 95.9531 16.0352ZM101.969 16.377V16.2334C101.969 15.6911 102.046 15.1921 102.201 14.7363C102.356 14.276 102.582 13.8773 102.878 13.54C103.174 13.2028 103.536 12.9408 103.965 12.7539C104.393 12.5625 104.881 12.4668 105.428 12.4668C105.984 12.4668 106.476 12.5625 106.904 12.7539C107.337 12.9408 107.702 13.2028 107.998 13.54C108.294 13.8773 108.52 14.276 108.675 14.7363C108.83 15.1921 108.907 15.6911 108.907 16.2334V16.377C108.907 16.9147 108.83 17.4137 108.675 17.874C108.52 18.3298 108.294 18.7285 107.998 19.0703C107.702 19.4076 107.34 19.6696 106.911 19.8564C106.483 20.0433 105.993 20.1367 105.441 20.1367C104.895 20.1367 104.405 20.0433 103.972 19.8564C103.539 19.6696 103.174 19.4076 102.878 19.0703C102.582 18.7285 102.356 18.3298 102.201 17.874C102.046 17.4137 101.969 16.9147 101.969 16.377ZM103.773 16.2334V16.377C103.773 16.7005 103.805 17.0036 103.869 17.2861C103.933 17.5687 104.031 17.8171 104.163 18.0312C104.295 18.2454 104.466 18.4141 104.676 18.5371C104.89 18.6556 105.145 18.7148 105.441 18.7148C105.733 18.7148 105.984 18.6556 106.193 18.5371C106.403 18.4141 106.574 18.2454 106.706 18.0312C106.843 17.8171 106.943 17.5687 107.007 17.2861C107.071 17.0036 107.103 16.7005 107.103 16.377V16.2334C107.103 15.9144 107.071 15.6159 107.007 15.3379C106.943 15.0553 106.843 14.807 106.706 14.5928C106.574 14.374 106.401 14.2031 106.187 14.0801C105.977 13.9525 105.724 13.8887 105.428 13.8887C105.136 13.8887 104.885 13.9525 104.676 14.0801C104.466 14.2031 104.295 14.374 104.163 14.5928C104.031 14.807 103.933 15.0553 103.869 15.3379C103.805 15.6159 103.773 15.9144 103.773 16.2334ZM114.287 17.9766C114.287 17.8216 114.246 17.6826 114.164 17.5596C114.082 17.4365 113.927 17.3249 113.699 17.2246C113.476 17.1198 113.148 17.0218 112.715 16.9307C112.332 16.8486 111.979 16.7461 111.655 16.623C111.332 16.5 111.054 16.3519 110.821 16.1787C110.589 16.001 110.407 15.7936 110.274 15.5566C110.147 15.3151 110.083 15.0371 110.083 14.7227C110.083 14.4173 110.149 14.1302 110.281 13.8613C110.413 13.5879 110.605 13.3486 110.855 13.1436C111.106 12.9339 111.411 12.7699 111.771 12.6514C112.132 12.5283 112.537 12.4668 112.988 12.4668C113.617 12.4668 114.157 12.5693 114.608 12.7744C115.064 12.9795 115.413 13.262 115.654 13.6221C115.896 13.9775 116.017 14.3786 116.017 14.8252H114.212C114.212 14.6292 114.166 14.4515 114.075 14.292C113.989 14.1325 113.854 14.0049 113.672 13.9092C113.49 13.8089 113.259 13.7588 112.981 13.7588C112.731 13.7588 112.519 13.7998 112.346 13.8818C112.177 13.9639 112.049 14.071 111.963 14.2031C111.876 14.3353 111.833 14.4811 111.833 14.6406C111.833 14.7591 111.856 14.8662 111.901 14.9619C111.951 15.0531 112.031 15.1374 112.141 15.2148C112.25 15.2923 112.398 15.363 112.585 15.4268C112.776 15.4906 113.011 15.5521 113.289 15.6113C113.84 15.7207 114.321 15.8665 114.731 16.0488C115.146 16.2266 115.47 16.4635 115.702 16.7598C115.935 17.056 116.051 17.4342 116.051 17.8945C116.051 18.2227 115.98 18.5234 115.839 18.7969C115.698 19.0658 115.493 19.3005 115.224 19.501C114.955 19.7015 114.633 19.8587 114.26 19.9727C113.886 20.082 113.465 20.1367 112.995 20.1367C112.316 20.1367 111.742 20.016 111.272 19.7744C110.803 19.5283 110.448 19.2184 110.206 18.8447C109.965 18.4665 109.844 18.0745 109.844 17.6689H111.573C111.587 17.9561 111.664 18.1862 111.806 18.3594C111.947 18.5326 112.125 18.6579 112.339 18.7354C112.558 18.8083 112.788 18.8447 113.029 18.8447C113.303 18.8447 113.533 18.8083 113.72 18.7354C113.907 18.6579 114.048 18.5553 114.144 18.4277C114.239 18.2956 114.287 18.1452 114.287 17.9766Z" fill="white"/>
<path d="M11.2048 8.692L8.97728 6.46449C8.8029 6.29011 8.51603 6.29011 8.34165 6.46449L7.38539 7.42074C6.85664 7.9495 6.00163 7.9495 5.47851 7.42074L5.37163 7.31387C4.84288 6.78512 4.84288 5.93011 5.37163 5.40698L6.32789 4.45072C6.50226 4.27635 6.50226 3.98947 6.32789 3.81509L4.09475 1.58195C3.92037 1.40758 3.63349 1.40758 3.45912 1.58195L2.50286 2.53821C0.922224 4.11885 0.922224 6.68386 2.50286 8.2645L4.52225 10.2839C6.10289 11.8645 8.6679 11.8645 10.2485 10.2839L11.2048 9.32763C11.3792 9.15326 11.3792 8.86638 11.2048 8.692ZM8.66228 7.42074L10.2542 9.01263L9.93354 9.33326L8.34165 7.74137L8.66228 7.42074ZM3.77974 2.53821L5.37163 4.1301L5.051 4.4451L3.45912 2.85321L3.77974 2.53821ZM5.15788 9.64826L3.13849 7.62887C2.03598 6.52074 1.90661 4.77135 2.84036 3.51697L4.4435 5.11448C3.85287 6.00886 3.97662 7.19012 4.73038 7.94387L4.83725 8.05075C5.59663 8.8045 6.77789 8.92263 7.66665 8.33763L9.26416 9.93514C8.0154 10.8801 6.26601 10.7508 5.15788 9.64826Z" fill="white"/>
<path d="M11.2501 13.5001H1.35001C0.601879 13.5001 0 12.8982 0 12.1501V1.35001C0 0.601879 0.601879 0 1.35001 0H11.2501C11.9982 0 12.6001 0.601879 12.6001 1.35001V12.1501C12.6001 12.8982 11.9982 13.5001 11.2501 13.5001ZM1.35001 0.900006C1.10251 0.900006 0.900006 1.10251 0.900006 1.35001V12.1501C0.900006 12.3976 1.10251 12.6001 1.35001 12.6001H11.2501C11.4976 12.6001 11.7001 12.3976 11.7001 12.1501V1.35001C11.7001 1.10251 11.4976 0.900006 11.2501 0.900006H1.35001Z" fill="white"/>
<path d="M11.2501 27.0005H1.35001C0.601879 27.0005 0 26.3986 0 25.6505V15.7504C0 15.0023 0.601879 14.4004 1.35001 14.4004H11.2501C11.9982 14.4004 12.6001 15.0023 12.6001 15.7504V25.6505C12.6001 26.3986 11.9982 27.0005 11.2501 27.0005ZM1.35001 15.3004C1.10251 15.3004 0.900006 15.5029 0.900006 15.7504V25.6505C0.900006 25.898 1.10251 26.1005 1.35001 26.1005H11.2501C11.4976 26.1005 11.7001 25.898 11.7001 25.6505V15.7504C11.7001 15.5029 11.4976 15.3004 11.2501 15.3004H1.35001Z" fill="white"/>
<path d="M10.3499 17.5508H2.24981C2.00231 17.5508 1.7998 17.7533 1.7998 18.0008V23.4008C1.7998 23.6483 2.00231 23.8508 2.24981 23.8508H10.3499C10.5974 23.8508 10.7999 23.6483 10.7999 23.4008V18.0008C10.7999 17.7533 10.5974 17.5508 10.3499 17.5508ZM6.29984 20.9933L3.43669 18.4508H9.16861L6.29984 20.9933ZM4.61795 20.7064L2.69981 22.3996V19.002L4.61795 20.7064ZM5.29858 21.3083L5.70358 21.6683C6.04671 21.9777 6.56421 21.9777 6.90734 21.6683L7.31234 21.3083L9.16298 22.9508H3.43669L5.29858 21.3083ZM7.98735 20.7064L9.89986 19.002V22.3996L7.98735 20.7064Z" fill="white"/>
<path d="M25.65 0H15.7499C15.0018 0 14.3999 0.601879 14.3999 1.35001V12.1501C14.3999 12.8982 15.0018 13.5001 15.7499 13.5001H17.9999V19.142L17.4712 18.0283C17.3755 17.6964 17.1505 17.4207 16.8524 17.252C16.543 17.072 16.1718 17.0214 15.8287 17.117L15.4124 17.2295C14.9343 17.3589 14.6474 17.8539 14.7768 18.332C14.7824 18.3489 14.788 18.3658 14.7937 18.3826L16.6724 23.8389C16.6893 23.8895 16.7174 23.9402 16.7568 23.9852L17.9774 25.4252L17.9999 26.5671C18.0056 26.8146 18.2024 27.0058 18.4499 27.0058H24.75C24.9975 27.0058 25.2 26.8033 25.2 26.5558V25.3408L26.0269 24.1033C26.0775 24.0302 26.1 23.9458 26.1 23.8558V18.0001C26.1 17.6457 25.9594 17.3026 25.7062 17.0495C25.3237 16.6726 24.7556 16.5545 24.255 16.7401C24.1931 16.5151 24.075 16.307 23.9062 16.1495C23.5237 15.7726 22.9556 15.6545 22.455 15.8401C22.3931 15.6151 22.275 15.407 22.1062 15.2495C21.735 14.8839 21.1893 14.7601 20.6999 14.9232V13.5001H25.65C26.3981 13.5001 27 12.8982 27 12.1501V1.35001C27 0.601879 26.3981 0 25.65 0ZM21.1499 15.7501C21.2737 15.7501 21.3862 15.8007 21.4706 15.8851C21.555 15.9695 21.6 16.082 21.6 16.2001V19.3501C21.6 19.5976 21.8025 19.8001 22.05 19.8001C22.2975 19.8001 22.5 19.5976 22.5 19.3501V17.1001C22.5 16.8526 22.7025 16.6501 22.95 16.6501C23.0737 16.6501 23.1862 16.7007 23.2706 16.7851C23.355 16.8695 23.4 16.982 23.4 17.1001V19.3501C23.4 19.5976 23.6025 19.8001 23.85 19.8001C24.0975 19.8001 24.3 19.5976 24.3 19.3501V18.0001C24.3 17.7526 24.5025 17.5501 24.75 17.5501C24.8737 17.5501 24.9862 17.6007 25.0706 17.6851C25.155 17.7695 25.2 17.882 25.2 18.0001V23.7152L24.3731 24.9527C24.3225 25.0258 24.3 25.1102 24.3 25.2002V26.1002H18.8887L18.8718 25.2339C18.8718 25.1327 18.8324 25.0314 18.7649 24.9527L17.4993 23.4564L15.6543 18.0901L16.0649 17.9776C16.183 17.9439 16.3068 17.9608 16.408 18.0226C16.5093 18.0789 16.588 18.1801 16.6162 18.2926C16.6218 18.3208 18.0449 21.3358 18.0449 21.3358C18.1518 21.5608 18.4218 21.6564 18.6468 21.5495C18.8043 21.4764 18.8999 21.3189 18.9056 21.1501V12.2007C18.8943 11.9532 19.0687 11.7395 19.3162 11.7001C19.4512 11.6888 19.5862 11.7338 19.6762 11.8351C19.7606 11.9195 19.8056 12.032 19.8056 12.1501V19.3501C19.8056 19.5976 20.0081 19.8001 20.2556 19.8001C20.5031 19.8001 20.7056 19.5976 20.7056 19.3501V16.2001C20.6999 15.9526 20.9024 15.7501 21.1499 15.7501ZM26.1 12.1501C26.1 12.3976 25.8975 12.6001 25.65 12.6001H20.6999V12.1501C20.6999 11.7957 20.5593 11.4526 20.3062 11.1995C20.0249 10.9126 19.6312 10.7663 19.2318 10.8057C18.5231 10.8845 17.9887 11.4863 17.9999 12.2007V12.6001H15.7499C15.5024 12.6001 15.2999 12.3976 15.2999 12.1501V1.35001C15.2999 1.10251 15.5024 0.900006 15.7499 0.900006H25.65C25.8975 0.900006 26.1 1.10251 26.1 1.35001V12.1501Z" fill="white"/>
<path d="M20.6999 2.69922C18.7142 2.69922 17.0999 4.31361 17.0999 6.29924C17.0999 8.28488 18.7142 9.89927 20.6999 9.89927H22.4999C22.7474 9.89927 22.9499 9.69677 22.9499 9.44927C22.9499 9.20176 22.7474 8.99926 22.4999 8.99926H20.6999C19.2092 8.99926 17.9999 7.78988 17.9999 6.29924C17.9999 4.80861 19.2092 3.59923 20.6999 3.59923C22.1905 3.59923 23.3999 4.80861 23.3999 6.29924V6.74925C23.3999 6.99675 23.1974 7.19925 22.9499 7.19925C22.7024 7.19925 22.4999 6.99675 22.4999 6.74925V6.29924C22.5055 5.29799 21.7011 4.47673 20.6999 4.47111C19.6986 4.46548 18.8774 5.26986 18.8717 6.27112C18.8661 7.27238 19.6705 8.09363 20.6718 8.09926C21.133 8.10488 21.583 7.9305 21.9205 7.6155C22.393 8.18926 23.2424 8.26801 23.8105 7.78988C24.1199 7.53113 24.2999 7.15425 24.2943 6.74925V6.29924C24.2999 4.31361 22.6855 2.69922 20.6999 2.69922ZM20.6999 7.19925C20.2049 7.19925 19.7999 6.79425 19.7999 6.29924C19.7999 5.80424 20.2049 5.39924 20.6999 5.39924C21.1949 5.39924 21.5999 5.80424 21.5999 6.29924C21.5999 6.79425 21.1949 7.19925 20.6999 7.19925Z" fill="white"/>
</svg>
