<svg width="31" height="30" viewBox="0 0 31 30" fill="none" xmlns="http://www.w3.org/2000/svg">
<path d="M29.4136 4.00195H22.9155V1.5C22.9155 0.673828 22.2417 0 21.4155 0H10.4116C9.58545 0 8.91162 0.673828 8.91162 1.5V4.00195H2.41357C1.5874 4.00195 0.913574 4.66992 0.913574 5.50195V9.50391C0.913574 10.3301 1.5874 11.0039 2.41357 11.0039V27.0059C1.5874 27 0.913574 27.6738 0.913574 28.5C0.913574 29.3262 1.5874 30 2.41357 30H29.4136C30.2397 30 30.9136 29.3262 30.9136 28.5C30.9136 27.6738 30.2397 27 29.4136 27V10.998C30.2397 10.998 30.9136 10.3242 30.9136 9.49805V5.50195C30.9136 4.66992 30.2397 4.00195 29.4136 4.00195ZM9.91357 1.5C9.91357 1.22461 10.1362 1.00195 10.4116 1.00195H21.4097C21.6851 1.00195 21.9077 1.22461 21.9077 1.5V10.002H9.91357V1.5ZM1.91553 9.49805V5.50195C1.91553 5.22656 2.13818 5.00391 2.41357 5.00391H8.91162V10.002H2.41357C2.13818 10.002 1.91553 9.77344 1.91553 9.49805ZM29.9116 28.5C29.9116 28.7754 29.689 28.998 29.4136 28.998H2.41357C2.13818 28.998 1.91553 28.7754 1.91553 28.5C1.91553 28.2246 2.13818 28.002 2.41357 28.002H29.4136C29.689 28.002 29.9116 28.2246 29.9116 28.5ZM26.4136 27H21.4155V13.002H26.4136V27ZM28.4116 27H27.4097V13.002C27.4097 12.4512 26.9644 12 26.4077 12H21.4097C20.8589 12 20.4077 12.4453 20.4077 13.002V27H3.41553V10.998H28.4175V27H28.4116ZM29.9116 9.49805C29.9116 9.77344 29.689 9.99609 29.4136 9.99609H22.9155V4.99805H29.4136C29.689 4.99805 29.9116 5.2207 29.9116 5.49609V9.49805Z" fill="#ACCBE6"/>
<path d="M18.4155 12.0002H5.41357C4.86279 12.0002 4.41162 12.4456 4.41162 13.0022V25.0022C4.41162 25.553 4.85693 26.0041 5.41357 26.0041H18.4155C18.9663 26.0041 19.4175 25.5588 19.4175 25.0022V13.0022C19.4116 12.4456 18.9663 12.0002 18.4155 12.0002ZM18.4155 18.4983H15.9136V15.4983C15.9136 14.6721 15.2397 13.9983 14.4136 13.9983C13.5874 13.9983 12.9136 14.6721 12.9136 15.4983V18.4983H11.9116V12.9963H18.4097V18.4983H18.4155ZM14.9116 18.4983H13.9097V15.4983C13.9097 15.2229 14.1323 15.0002 14.4077 15.0002C14.6831 15.0002 14.9058 15.2229 14.9058 15.4983V18.4983H14.9116ZM5.41357 13.0022H10.9155V25.0022H5.41357V13.0022ZM13.9155 24.4983C13.9155 24.2229 14.1382 24.0002 14.4136 24.0002C14.689 24.0002 14.9116 24.2229 14.9116 24.4983C14.9116 24.7737 14.689 24.9963 14.4136 24.9963C14.1382 24.9963 13.9155 24.7737 13.9155 24.4983ZM17.4136 25.0022V21.0002C17.4136 20.7249 17.1909 20.5022 16.9155 20.5022C16.6401 20.5022 16.4175 20.7249 16.4175 21.0002V25.0022H15.8257C15.8843 24.844 15.9136 24.6741 15.9194 24.5041C15.9194 23.678 15.2456 23.0041 14.4194 23.0041C13.5933 23.0041 12.9194 23.678 12.9194 24.5041C12.9194 24.6741 12.9546 24.844 13.0132 25.0022H11.9233V19.5002H18.4214V25.0022H17.4136Z" fill="#ACCBE6"/>
<path d="M24.9136 20.5022H25.4116C25.687 20.5022 25.9097 20.2795 25.9097 20.0042C25.9097 19.7288 25.687 19.5061 25.4116 19.5061H24.9136C24.6382 19.5061 24.4155 19.7288 24.4155 20.0042C24.4155 20.2795 24.6382 20.5022 24.9136 20.5022Z" fill="#ACCBE6"/>
<path d="M13.4116 7.00195H14.4136V8.00391C14.4136 8.55469 14.8589 9.00586 15.4155 9.00586H16.4175C16.9683 9.00586 17.4194 8.56055 17.4194 8.00391V7.00195H18.4214C18.9722 7.00195 19.4233 6.55664 19.4233 6V4.99805C19.4233 4.44727 18.978 3.99609 18.4214 3.99609H17.4194V3C17.4194 2.44922 16.9741 1.99805 16.4175 1.99805H15.4155C14.8647 1.99805 14.4136 2.44336 14.4136 3V4.00195H13.4116C12.8608 4.00195 12.4097 4.44727 12.4097 5.00391V6.00586C12.4155 6.55078 12.8608 7.00195 13.4116 7.00195ZM13.4116 4.99805H14.9116C15.187 4.99805 15.4097 4.77539 15.4097 4.5V3H16.4116V4.5C16.4116 4.77539 16.6343 4.99805 16.9097 4.99805H18.4097V6H16.9097C16.6343 6 16.4116 6.22266 16.4116 6.49805V7.99805H15.4097V6.49805C15.4097 6.22266 15.187 6 14.9116 6H13.4116V4.99805Z" fill="#ACCBE6"/>
</svg>
