<svg width="17" height="17" viewBox="0 0 17 17" fill="none" xmlns="http://www.w3.org/2000/svg">
<path d="M8.5 17C7.35189 17 6.23865 16.7759 5.19016 16.3326C4.17902 15.9042 3.27 15.2915 2.48799 14.512C1.70598 13.7325 1.09581 12.8235 0.667448 11.8098C0.224143 10.7589 0 9.64562 0 8.49751C0 7.3494 0.224143 6.23616 0.667448 5.18766C1.09581 4.17653 1.70847 3.26751 2.49048 2.48799C3.27249 1.70847 4.17902 1.09581 5.19265 0.667448C6.24114 0.224143 7.35438 0 8.50249 0C9.6506 0 10.7638 0.224143 11.8123 0.667448C12.8235 1.09332 13.7325 1.70598 14.512 2.48799C15.2915 3.27 15.9042 4.17653 16.3326 5.19016C16.7759 6.23865 17 7.35189 17 8.5C17 9.64811 16.7759 10.7614 16.3326 11.8098C15.9042 12.821 15.2915 13.7325 14.512 14.512C13.7325 15.2915 12.8235 15.9042 11.8098 16.3326C10.7614 16.7734 9.64811 17 8.5 17ZM8.5 0.9937C4.36332 0.9937 0.996191 4.36083 0.996191 8.49751C0.996191 12.6342 4.36332 16.0013 8.5 16.0013C12.6367 16.0013 16.0063 12.6367 16.0063 8.49751C16.0063 4.35834 12.6392 0.9937 8.5 0.9937Z" fill="#1B4568"/>
<path d="M10.602 13.8211H6.46531C6.02201 13.8211 5.66089 13.46 5.66089 13.0167V6.77552C5.66089 6.04083 6.12163 5.37588 6.809 5.11687L6.81398 5.11438C6.92356 5.07453 6.99828 4.96246 6.99828 4.8454V3.20667C7.00077 2.76586 7.36189 2.40723 7.80519 2.40723H9.26212C9.70542 2.40723 10.0665 2.76835 10.0665 3.21165V4.85039C10.0665 4.96744 10.1437 5.07951 10.2533 5.11936L10.2558 5.12185C10.9432 5.38086 11.4039 6.04581 11.4039 6.78051V13.0216C11.4064 13.4625 11.0453 13.8211 10.602 13.8211ZM6.65957 12.8249H10.4102V6.77552C10.4102 6.45425 10.2085 6.16287 9.90715 6.0508L9.90466 6.04831C9.40657 5.86152 9.07035 5.37837 9.07035 4.8454V3.40093H7.99945V4.8454C7.99945 5.37837 7.66572 5.86152 7.16763 6.04831L7.16265 6.0508C6.86379 6.16287 6.66206 6.45425 6.66206 6.77552V12.8249H6.65957Z" fill="#1B4568"/>
<path d="M13.8937 2.39656L2.58447 13.7058L3.28888 14.4102L14.5981 3.10097L13.8937 2.39656Z" fill="#1B4568"/>
<path d="M9.56734 3.76636H7.50024V4.76255H9.56734V3.76636Z" fill="#1B4568"/>
</svg>
