<svg width="27" height="30" viewBox="0 0 27 30" fill="none" xmlns="http://www.w3.org/2000/svg">
<path d="M26.346 1.4063C25.7006 0.525054 24.6204 -0.00619545 23.4655 5.45426e-05C21.9912 0.0125545 20.68 0.862553 20.1637 2.1313L19.3145 4.2188L18.309 3.2938V1.50005C18.309 1.22505 18.0645 1.00005 17.7655 1.00005H11.7871C11.4882 1.00005 11.2436 1.22505 11.2436 1.50005V2.3563C10.6322 1.8438 9.70142 1.81255 9.04922 2.28755V1.50005C9.04922 0.681303 8.32909 0.0188045 7.43911 0.0188045C6.54914 0.0188045 5.82221 0.681303 5.82221 1.50005V2.28755C5.53008 2.06255 5.14963 1.93755 4.76918 1.93755C4.3208 1.93755 3.8928 2.10005 3.58028 2.40005C2.93488 3.01255 2.93488 3.9813 3.57349 4.60005L4.07623 5.0813C3.8928 5.15629 3.72295 5.26879 3.58028 5.40004H3.57349L3.5667 5.40629C3.43762 5.52504 3.33571 5.66254 3.25419 5.81254L2.63596 4.76255L1.67805 5.23755L3.09114 7.62504C3.02999 7.65629 2.96206 7.68754 2.90771 7.72504C2.88733 7.73754 2.86695 7.75629 2.84656 7.76879L0.740514 5.98754L0 6.72504L2.09246 8.50004C1.85468 8.83754 1.69843 9.21879 1.63728 9.61879C1.52179 10.3813 1.76636 11.1563 2.30307 11.7438L3.09114 12.65V21V29V30H4.17813H5.80862H7.09943H21.0265C22.5279 30 23.744 28.8813 23.744 27.5V12.5C23.744 12.3875 23.7032 12.2813 23.6285 12.2L26.7672 4.5063C27.1884 3.4688 27.0322 2.31255 26.346 1.4063ZM18.8865 5.24379L15.9992 12.3063L15.578 12.5625V6.20629L17.752 4.2063L18.8865 5.24379ZM12.3238 2.00005H17.2153V3.00005H12.3238V2.00005ZM12.0045 4.00005H16.4476L14.8171 5.50004H10.374L12.0045 4.00005ZM12.8401 9.99379C11.8686 9.43754 10.6661 9.34379 9.6131 9.75004V6.50004H14.5046V12.5688L14.491 12.5625C14.423 11.5063 13.8116 10.55 12.8401 9.99379ZM13.2681 12.0188C13.2138 12.0313 13.1594 12.0563 13.1119 12.0813L11.7803 12.9L10.4487 12.0875C10.2653 11.975 10.0275 11.975 9.84408 12.0875L8.5261 12.8938C8.5261 12.8438 8.51252 12.8 8.51252 12.75C8.50572 11.65 9.36853 10.7125 10.5506 10.5313C11.7327 10.35 12.8809 10.9813 13.2681 12.0188ZM4.34797 3.10005C4.45667 2.9938 4.60613 2.93755 4.76239 2.93755C4.91865 2.93755 5.06811 2.9938 5.17681 3.10005L5.97167 3.85005C6.12793 3.9938 6.35891 4.03755 6.56952 3.96255C6.77333 3.88755 6.9092 3.70005 6.9092 3.50005V1.50005C6.90241 1.32505 6.99752 1.1563 7.16736 1.06255C7.33041 0.968803 7.54102 0.968803 7.70407 1.06255C7.86712 1.1563 7.96902 1.3188 7.96223 1.50005V3.50005C7.96223 3.70005 8.0981 3.88755 8.30191 3.96255C8.50572 4.03755 8.7435 3.9938 8.89296 3.85005L9.69462 3.10005C9.92561 2.8938 10.2925 2.8938 10.5235 3.10005C10.7612 3.32505 10.7612 3.67505 10.5235 3.90005L8.92014 5.40004L8.93373 5.41254L8.68236 5.64379C8.6416 5.68754 8.60084 5.73129 8.58045 5.78754C8.57366 5.80004 8.56687 5.81879 8.56007 5.83754C8.54649 5.88129 8.5329 5.92504 8.5329 5.96879C8.5329 5.98129 8.5261 5.98754 8.5261 6.00004V10.4125C8.40382 10.5188 8.28833 10.6375 8.17963 10.7625L7.15378 8.75004C6.77333 8.05629 6.08716 7.54379 5.27192 7.35004C5.08169 7.30629 4.88468 7.27504 4.68766 7.26879L4.54499 7.11879C4.43629 7.00629 4.35477 6.91254 4.34118 6.90004C4.19851 6.76254 4.13737 6.57504 4.17813 6.39379C4.19851 6.28754 4.25286 6.19379 4.32759 6.11254L4.33439 6.10629L4.34797 6.09379C4.54499 5.91879 4.85071 5.88754 5.08169 6.03129C5.31268 6.17504 5.6184 6.13129 5.80183 5.93754C5.97846 5.74379 5.97167 5.45629 5.77465 5.2688L4.34797 3.9063C4.11019 3.6813 4.11699 3.32505 4.34797 3.10005ZM2.71069 9.75004C2.77863 9.26254 3.07076 8.83129 3.51235 8.55629C3.94714 8.28754 4.49064 8.20004 5.00017 8.31879C5.5097 8.43754 5.9377 8.75629 6.17548 9.18754L7.5614 11.9C7.52743 12.0188 7.50025 12.1375 7.47987 12.2563L7.19454 12.0813C7.01111 11.9688 6.77333 11.9688 6.5899 12.0813L5.25833 12.8938L4.05584 12.1563L3.94035 12.025L5.33986 11.0313L4.67407 10.2375L3.26098 11.2438L3.13869 11.1063C2.79221 10.7313 2.63596 10.2375 2.71069 9.75004ZM17.7588 29H7.09263H5.80183H4.17134V21V13.4375L4.95941 13.9188C5.14284 14.0313 5.38062 14.0313 5.56405 13.9188L6.89561 13.1L8.22718 13.9125C8.41061 14.025 8.64839 14.025 8.83182 13.9125L10.1634 13.1L11.495 13.9125C11.6784 14.025 11.9162 14.025 12.0996 13.9125L13.4312 13.1L14.7627 13.9125C14.9462 14.025 15.1839 14.025 15.3674 13.9125L16.6989 13.1L17.7859 13.7688V29H17.7588ZM22.6502 27.5C22.6502 28.3313 21.9233 29 21.0197 29H18.8457V13.7688L19.9327 13.1L21.2643 13.9125C21.4477 14.025 21.6855 14.025 21.8689 13.9125L22.657 13.4313V27.5H22.6502ZM25.7482 4.1563L22.3853 12.4L21.57 12.9L20.2385 12.0875C20.055 11.975 19.8172 11.975 19.6338 12.0875L18.3023 12.9L17.2017 12.225L21.176 2.4813C21.5293 1.60005 22.4396 1.01255 23.4587 1.00005C24.2603 1.00005 25.0076 1.36255 25.4492 1.97505C25.9384 2.61255 26.0403 3.42505 25.7482 4.1563Z" fill="white"/>
</svg>
