<svg width="16" height="20" viewBox="0 0 16 20" fill="none" xmlns="http://www.w3.org/2000/svg">
<path d="M14.9005 5.92578C14.6276 5.67578 14.3426 5.41406 14.253 5.20703C14.1553 4.97656 14.1634 4.58594 14.1715 4.21094C14.1838 3.53906 14.2001 2.78125 13.6625 2.26172C13.125 1.74219 12.3309 1.75391 11.6304 1.76562C11.2395 1.77344 10.8323 1.77734 10.592 1.68359C10.3762 1.59766 10.1033 1.32422 9.84271 1.0625C9.35403 0.5625 8.79613 0 8.00204 0C7.20794 0 6.65004 0.5625 6.15729 1.05859C5.89667 1.32031 5.6279 1.59375 5.40799 1.67969C5.1718 1.77344 4.76457 1.76953 4.36956 1.76172C3.66913 1.75 2.87503 1.73828 2.33749 2.25781C1.79995 2.77734 1.81624 3.53516 1.82846 4.20703C1.8366 4.58594 1.84474 4.97656 1.74701 5.20312C1.65742 5.41016 1.37236 5.67188 1.09952 5.92188C0.582336 6.39844 0 6.93359 0 7.69531C0 8.45703 0.582336 8.99219 1.09952 9.46484C1.37236 9.71484 1.65742 9.97656 1.74701 10.1836C1.84474 10.4141 1.8366 10.8047 1.82846 11.1797C1.81624 11.8516 1.79995 12.6094 2.33749 13.1289C2.67549 13.457 3.1153 13.5742 3.57139 13.6133V19.4141C3.57139 19.6094 3.6732 19.793 3.84424 19.9023C4.01527 20.0117 4.2311 20.0312 4.41843 19.9531L7.99796 18.4922L11.5775 19.9531C11.6549 19.9844 11.7363 20 11.8178 20C11.9359 20 12.054 19.9688 12.1558 19.9023C12.3268 19.793 12.4286 19.6094 12.4286 19.4141V13.6133C12.8806 13.5742 13.3245 13.457 13.6625 13.1289C14.2001 12.6094 14.1838 11.8516 14.1715 11.1797C14.1634 10.8008 14.1553 10.4102 14.253 10.1836C14.3426 9.97656 14.6276 9.71484 14.9005 9.46484C15.4177 8.99219 16 8.45703 16 7.69531C16 6.93359 15.4177 6.39844 14.9005 5.92578ZM8.23823 17.3164C8.08348 17.2539 7.91245 17.2539 7.76177 17.3164L4.79308 18.5273V13.6289C5.03334 13.6328 5.25732 13.6523 5.40799 13.7148C5.62382 13.8008 5.89667 14.0742 6.15729 14.3359C6.65004 14.832 7.20794 15.3945 8.00204 15.3945C8.79613 15.3945 9.35403 14.832 9.84678 14.3359C10.1074 14.0742 10.3762 13.8008 10.5961 13.7148C10.7468 13.6523 10.9667 13.6367 11.211 13.6289V18.5312L8.23823 17.3164ZM14.0575 8.61719C13.691 8.95312 13.3123 9.29688 13.125 9.73438C12.9295 10.1875 12.9417 10.7031 12.9499 11.2031C12.958 11.6406 12.9702 12.1367 12.7951 12.3047C12.62 12.4727 12.1028 12.4648 11.6467 12.457C11.1295 12.4492 10.592 12.4414 10.1196 12.6289C9.66353 12.8086 9.30517 13.1719 8.95495 13.5234C8.63324 13.8477 8.26674 14.2188 7.99389 14.2188C7.72105 14.2188 7.35454 13.8516 7.03283 13.5234C6.68262 13.1719 6.32426 12.8086 5.86816 12.6289C5.48944 12.4766 5.07407 12.4531 4.65462 12.4531C4.54874 12.4531 4.44693 12.4531 4.34105 12.457C3.88496 12.4648 3.36778 12.4727 3.19267 12.3047C3.02163 12.1367 3.02978 11.6406 3.03792 11.2031C3.05014 10.707 3.05828 10.1914 2.86282 9.73438C2.67549 9.29688 2.29677 8.94922 1.93026 8.61719C1.59226 8.30859 1.20947 7.95312 1.20947 7.69531C1.20947 7.4375 1.59226 7.08203 1.93026 6.77344C2.29677 6.4375 2.67549 6.09375 2.86282 5.65625C3.05828 5.20312 3.04607 4.6875 3.03792 4.1875C3.042 3.75 3.02978 3.25391 3.20489 3.08594C3.37999 2.91797 3.89718 2.92578 4.35327 2.93359C4.87045 2.94141 5.40799 2.94922 5.88038 2.76172C6.33647 2.58203 6.69483 2.21875 7.04505 1.86719C7.36676 1.54297 7.73327 1.17188 8.00611 1.17188C8.27895 1.17188 8.64546 1.53906 8.96717 1.86719C9.31331 2.21875 9.67575 2.58203 10.1318 2.76172C10.6042 2.94922 11.1418 2.94141 11.6589 2.93359C12.115 2.92578 12.6322 2.91797 12.8073 3.08594C12.9784 3.25391 12.9702 3.75 12.9621 4.1875C12.9499 4.68359 12.9417 5.19922 13.1372 5.65625C13.3245 6.09375 13.7032 6.44141 14.0697 6.77344C14.4077 7.08203 14.7905 7.4375 14.7905 7.69531C14.7905 7.95312 14.3955 8.30859 14.0575 8.61719Z" fill="#1B4568"/>
<path d="M8.00206 3.42969C5.58312 3.42969 3.61621 5.32031 3.61621 7.64844C3.61621 9.97656 5.58312 11.8672 8.00206 11.8672C10.421 11.8672 12.3879 9.97656 12.3879 7.64844C12.3879 5.32031 10.421 3.42969 8.00206 3.42969ZM8.00206 10.6953C6.25912 10.6953 4.8379 9.32812 4.8379 7.64844C4.8379 5.96875 6.25912 4.60156 8.00206 4.60156C9.745 4.60156 11.1662 5.96875 11.1662 7.64844C11.1662 9.32812 9.745 10.6953 8.00206 10.6953Z" fill="#1B4568"/>
<path d="M8.71873 6.54297L7.61107 7.60547L7.28528 7.29297C7.04502 7.0625 6.65815 7.0625 6.42196 7.29297C6.18577 7.52344 6.1817 7.89453 6.42196 8.12109L7.17941 8.84766C7.29343 8.95703 7.44818 9.01953 7.61107 9.01953C7.77396 9.01953 7.92871 8.95703 8.04273 8.84766L9.58205 7.37109C9.82232 7.14062 9.82232 6.76953 9.58205 6.54297C9.34179 6.3125 8.95492 6.3125 8.71873 6.54297Z" fill="#1B4568"/>
</svg>
