<svg width="31" height="31" viewBox="0 0 31 31" fill="none" xmlns="http://www.w3.org/2000/svg">
<path d="M13.3009 9.65591L10.8259 7.18091C10.6321 6.98716 10.3134 6.98716 10.1196 7.18091L9.05713 8.24341C8.46963 8.83091 7.51963 8.83091 6.93838 8.24341L6.81963 8.12466C6.23213 7.53716 6.23213 6.58716 6.81963 6.00591L7.88213 4.94341C8.07588 4.74966 8.07588 4.43091 7.88213 4.23716L5.40088 1.75591C5.20713 1.56216 4.88838 1.56216 4.69463 1.75591L3.63213 2.81841C1.87588 4.57466 1.87588 7.42466 3.63213 9.18091L5.87588 11.4247C7.63213 13.1809 10.4821 13.1809 12.2384 11.4247L13.3009 10.3622C13.4946 10.1684 13.4946 9.84966 13.3009 9.65591ZM10.4759 8.24341L12.2446 10.0122L11.8884 10.3684L10.1196 8.59966L10.4759 8.24341ZM5.05088 2.81841L6.81963 4.58716L6.46338 4.93716L4.69463 3.16841L5.05088 2.81841ZM6.58213 10.7184L4.33838 8.47466C3.11338 7.24341 2.96963 5.29966 4.00713 3.90591L5.78838 5.68091C5.13213 6.67466 5.26963 7.98716 6.10713 8.82466L6.22588 8.94341C7.06963 9.78091 8.38213 9.91216 9.36963 9.26216L11.1446 11.0372C9.75713 12.0872 7.81338 11.9434 6.58213 10.7184Z" fill="#ACCBE6"/>
<path d="M13.3511 15H2.35107C1.51982 15 0.851074 14.3313 0.851074 13.5V1.5C0.851074 0.66875 1.51982 0 2.35107 0H13.3511C14.1823 0 14.8511 0.66875 14.8511 1.5V13.5C14.8511 14.3313 14.1823 15 13.3511 15ZM2.35107 1C2.07607 1 1.85107 1.225 1.85107 1.5V13.5C1.85107 13.775 2.07607 14 2.35107 14H13.3511C13.6261 14 13.8511 13.775 13.8511 13.5V1.5C13.8511 1.225 13.6261 1 13.3511 1H2.35107Z" fill="#ACCBE6"/>
<path d="M13.3511 29.9995H2.35107C1.51982 29.9995 0.851074 29.3308 0.851074 28.4995V17.4995C0.851074 16.6683 1.51982 15.9995 2.35107 15.9995H13.3511C14.1823 15.9995 14.8511 16.6683 14.8511 17.4995V28.4995C14.8511 29.3308 14.1823 29.9995 13.3511 29.9995ZM2.35107 16.9995C2.07607 16.9995 1.85107 17.2245 1.85107 17.4995V28.4995C1.85107 28.7745 2.07607 28.9995 2.35107 28.9995H13.3511C13.6261 28.9995 13.8511 28.7745 13.8511 28.4995V17.4995C13.8511 17.2245 13.6261 16.9995 13.3511 16.9995H2.35107Z" fill="#ACCBE6"/>
<path d="M12.3508 19.4995H3.35083C3.07583 19.4995 2.85083 19.7245 2.85083 19.9995V25.9995C2.85083 26.2745 3.07583 26.4995 3.35083 26.4995H12.3508C12.6258 26.4995 12.8508 26.2745 12.8508 25.9995V19.9995C12.8508 19.7245 12.6258 19.4995 12.3508 19.4995ZM7.85083 23.3245L4.66958 20.4995H11.0383L7.85083 23.3245ZM5.98208 23.0058L3.85083 24.887V21.112L5.98208 23.0058ZM6.73833 23.6745L7.18833 24.0745C7.56958 24.4183 8.14458 24.4183 8.52583 24.0745L8.97583 23.6745L11.0321 25.4995H4.66958L6.73833 23.6745ZM9.72583 23.0058L11.8508 21.112V24.887L9.72583 23.0058Z" fill="#ACCBE6"/>
<path d="M29.3508 0H18.3508C17.5196 0 16.8508 0.66875 16.8508 1.5V13.5C16.8508 14.3313 17.5196 15 18.3508 15H20.8508V21.2687L20.2633 20.0312C20.1571 19.6625 19.9071 19.3563 19.5758 19.1688C19.2321 18.9688 18.8196 18.9125 18.4383 19.0187L17.9758 19.1437C17.4446 19.2875 17.1258 19.8375 17.2696 20.3687C17.2758 20.3875 17.2821 20.4062 17.2883 20.425L19.3758 26.4875C19.3946 26.5437 19.4258 26.6 19.4696 26.65L20.8258 28.25L20.8508 29.5187C20.8571 29.7937 21.0758 30.0063 21.3508 30.0063H28.3508C28.6258 30.0063 28.8508 29.7812 28.8508 29.5063V28.1562L29.7696 26.7812C29.8258 26.7 29.8508 26.6063 29.8508 26.5063V20C29.8508 19.6063 29.6946 19.225 29.4133 18.9438C28.9883 18.525 28.3571 18.3938 27.8008 18.6C27.7321 18.35 27.6008 18.1187 27.4133 17.9438C26.9883 17.525 26.3571 17.3938 25.8008 17.6C25.7321 17.35 25.6008 17.1187 25.4133 16.9438C25.0008 16.5375 24.3946 16.4 23.8508 16.5812V15H29.3508C30.1821 15 30.8508 14.3313 30.8508 13.5V1.5C30.8508 0.66875 30.1821 0 29.3508 0ZM24.3508 17.5C24.4883 17.5 24.6133 17.5562 24.7071 17.65C24.8008 17.7437 24.8508 17.8687 24.8508 18V21.5C24.8508 21.775 25.0758 22 25.3508 22C25.6258 22 25.8508 21.775 25.8508 21.5V19C25.8508 18.725 26.0758 18.5 26.3508 18.5C26.4883 18.5 26.6133 18.5562 26.7071 18.65C26.8008 18.7437 26.8508 18.8687 26.8508 19V21.5C26.8508 21.775 27.0758 22 27.3508 22C27.6258 22 27.8508 21.775 27.8508 21.5V20C27.8508 19.725 28.0758 19.5 28.3508 19.5C28.4883 19.5 28.6133 19.5562 28.7071 19.65C28.8008 19.7437 28.8508 19.8687 28.8508 20V26.35L27.9321 27.725C27.8758 27.8062 27.8508 27.9 27.8508 28V29H21.8383L21.8196 28.0375C21.8196 27.925 21.7758 27.8125 21.7008 27.725L20.2946 26.0625L18.2446 20.1L18.7008 19.975C18.8321 19.9375 18.9696 19.9562 19.0821 20.025C19.1946 20.0875 19.2821 20.2 19.3133 20.325C19.3196 20.3563 20.9008 23.7062 20.9008 23.7062C21.0196 23.9562 21.3196 24.0625 21.5696 23.9438C21.7446 23.8625 21.8508 23.6875 21.8571 23.5V13.5562C21.8446 13.2812 22.0383 13.0437 22.3133 13C22.4633 12.9875 22.6133 13.0375 22.7133 13.15C22.8071 13.2437 22.8571 13.3687 22.8571 13.5V21.5C22.8571 21.775 23.0821 22 23.3571 22C23.6321 22 23.8571 21.775 23.8571 21.5V18C23.8508 17.725 24.0758 17.5 24.3508 17.5ZM29.8508 13.5C29.8508 13.775 29.6258 14 29.3508 14H23.8508V13.5C23.8508 13.1062 23.6946 12.725 23.4133 12.4438C23.1008 12.125 22.6633 11.9625 22.2196 12.0063C21.4321 12.0938 20.8383 12.7625 20.8508 13.5562V14H18.3508C18.0758 14 17.8508 13.775 17.8508 13.5V1.5C17.8508 1.225 18.0758 1 18.3508 1H29.3508C29.6258 1 29.8508 1.225 29.8508 1.5V13.5Z" fill="#ACCBE6"/>
<path d="M23.8508 2.99976C21.6446 2.99976 19.8508 4.79351 19.8508 6.99976C19.8508 9.20601 21.6446 10.9998 23.8508 10.9998H25.8508C26.1258 10.9998 26.3508 10.7748 26.3508 10.4998C26.3508 10.2248 26.1258 9.99976 25.8508 9.99976H23.8508C22.1946 9.99976 20.8508 8.65601 20.8508 6.99976C20.8508 5.34351 22.1946 3.99976 23.8508 3.99976C25.5071 3.99976 26.8508 5.34351 26.8508 6.99976V7.49976C26.8508 7.77476 26.6258 7.99976 26.3508 7.99976C26.0758 7.99976 25.8508 7.77476 25.8508 7.49976V6.99976C25.8571 5.88726 24.9633 4.97476 23.8508 4.96851C22.7383 4.96226 21.8258 5.85601 21.8196 6.96851C21.8133 8.08101 22.7071 8.99351 23.8196 8.99976C24.3321 9.00601 24.8321 8.81226 25.2071 8.46226C25.7321 9.09976 26.6758 9.18726 27.3071 8.65601C27.6508 8.36851 27.8508 7.94976 27.8446 7.49976V6.99976C27.8508 4.79351 26.0571 2.99976 23.8508 2.99976ZM23.8508 7.99976C23.3008 7.99976 22.8508 7.54976 22.8508 6.99976C22.8508 6.44976 23.3008 5.99976 23.8508 5.99976C24.4008 5.99976 24.8508 6.44976 24.8508 6.99976C24.8508 7.54976 24.4008 7.99976 23.8508 7.99976Z" fill="#ACCBE6"/>
</svg>
