<svg width="19" height="19" viewBox="0 0 19 19" fill="none" xmlns="http://www.w3.org/2000/svg">
<g clip-path="url(#clip0_586_1877)">
<path d="M18.8752 10.5762L16.7896 9.09352C16.7256 9.04801 16.6462 9.02973 16.5687 9.04266C16.4912 9.0556 16.4221 9.09871 16.3763 9.16255L16.2689 9.3124L15.0262 8.1823C14.75 7.73295 12.3322 3.8028 11.9712 3.33775C11.642 2.9137 11.2105 2.93103 10.6638 2.95307C10.4105 2.96324 9.68267 3.03334 9.08595 3.09557C9.00852 3.1048 8.93783 3.14413 8.88916 3.20505C8.84049 3.26597 8.81773 3.34359 8.82582 3.42114C8.83391 3.4987 8.87218 3.56996 8.93237 3.61953C8.99257 3.6691 9.06984 3.693 9.14751 3.68606C9.88599 3.60905 10.4904 3.55417 10.6875 3.54623C11.2331 3.52441 11.3735 3.53602 11.5021 3.70179C11.7863 4.0678 13.615 7.01937 14.5422 8.52894C14.5569 8.55276 14.5748 8.57439 14.5955 8.59318L15.9207 9.79819L15.4076 10.5144C15.3849 10.5461 15.3686 10.5819 15.3598 10.6199C15.3509 10.6579 15.3496 10.6972 15.356 10.7357C15.3623 10.7742 15.3762 10.811 15.3968 10.8441C15.4174 10.8772 15.4443 10.9059 15.476 10.9287C15.5076 10.9514 15.5435 10.9676 15.5815 10.9765C15.6194 10.9853 15.6588 10.9866 15.6972 10.9803C15.7357 10.9739 15.7726 10.96 15.8057 10.9395C15.8388 10.9189 15.8675 10.892 15.8902 10.8603L16.6867 9.74862L18.531 11.0599C18.5627 11.0831 18.5987 11.0997 18.6369 11.1088C18.6752 11.118 18.7148 11.1194 18.7536 11.1131C18.7924 11.1068 18.8295 11.0929 18.8629 11.0722C18.8962 11.0514 18.9251 11.0242 18.9479 10.9922C18.9707 10.9602 18.9869 10.924 18.9955 10.8857C19.0042 10.8474 19.0052 10.8077 18.9984 10.769C18.9917 10.7303 18.9773 10.6933 18.9561 10.6602C18.935 10.6271 18.9075 10.5985 18.8752 10.5762Z" fill="#1B4568"/>
<path d="M15.3373 15.5202L13.5097 14.1818L15.3787 11.5738C15.4245 11.5098 15.4431 11.4302 15.4303 11.3525C15.4175 11.2749 15.3743 11.2054 15.3103 11.1596C15.2463 11.1137 15.1667 11.0951 15.089 11.108C15.0113 11.1208 14.9419 11.1639 14.896 11.2279L13.3022 13.4521C12.8362 13.4252 11.425 13.2994 10.6532 12.7453C10.1434 12.3793 9.73315 11.7056 9.4336 11.2137C9.35775 11.0892 9.28613 10.9715 9.22208 10.8748C8.98498 10.5157 8.58628 10.393 7.8625 10.1703C7.75488 10.1372 5.75918 9.72799 5.22031 9.46466C4.78353 9.25121 4.48859 9.05939 4.3351 8.84319C4.19706 8.64866 4.167 8.44204 4.24055 8.19285C4.40038 7.65142 4.80461 7.60945 5.20517 7.61153C5.59916 7.61427 6.56475 7.99168 7.11029 8.26313C7.66716 8.54012 8.98005 8.99864 9.61447 8.92791C10.0786 8.87573 10.4665 8.39457 10.6116 8.1901C10.725 8.03053 11.0866 7.47344 10.9809 7.00839C10.8622 6.48685 10.3055 5.36363 10.2821 5.3162C10.2593 5.27031 10.225 5.2311 10.1825 5.20238C10.1401 5.17367 10.0909 5.15644 10.0398 5.15236C10.0188 5.15066 9.81471 5.13644 9.12871 5.15422C8.42942 5.17222 7.28252 5.33442 7.23405 5.34136C7.17941 5.34911 7.12801 5.37193 7.08561 5.40727C7.08561 5.40727 6.99388 5.48379 6.84002 5.61193L5.55923 4.93635C5.94662 4.59751 6.24245 4.3413 6.31307 4.28323C6.47335 4.15164 6.73716 4.00119 6.8326 3.97496C6.92296 3.95013 7.35113 3.8859 8.28198 3.78017C8.36023 3.77128 8.43173 3.73167 8.48077 3.67005C8.52981 3.60844 8.55237 3.52987 8.54348 3.45162C8.53458 3.37338 8.49497 3.30187 8.43336 3.25283C8.37174 3.20379 8.29317 3.18124 8.21493 3.19013C7.34679 3.28877 6.82874 3.3602 6.67526 3.40236C6.46618 3.45981 6.1289 3.6661 5.93626 3.82426C5.78237 3.95043 2.91263 6.45067 2.59865 6.80203C2.28986 7.14755 1.77307 7.72605 2.13726 8.44816C2.19738 8.56922 2.27725 8.67942 2.37361 8.7742L0.245651 12.8087C-0.017096 13.3068 -0.0712166 13.8889 0.0951956 14.4269C0.261608 14.9649 0.634921 15.4147 1.13301 15.6775C1.6311 15.9402 2.21317 15.9943 2.75116 15.8279C3.28915 15.6615 3.739 15.2882 4.00175 14.7901L5.36181 12.2118C5.41158 12.2209 5.46207 12.2254 5.51266 12.2254C5.70699 12.2216 5.89699 12.1673 6.06403 12.0679C6.10124 12.211 6.17688 12.3413 6.28278 12.4445C6.38868 12.5477 6.5208 12.62 6.66483 12.6535C6.72641 12.6685 6.7896 12.6759 6.85298 12.6755C7.23439 12.6755 7.71937 12.43 8.01587 11.9007C8.15173 11.6582 8.37194 11.2722 8.51188 11.0274C8.59771 11.0658 8.67194 11.126 8.72711 11.2021C8.785 11.2897 8.85072 11.3977 8.9268 11.5226C9.25288 12.0581 9.69941 12.7913 10.3073 13.2277C11.0483 13.7597 12.2151 13.9494 12.8981 14.0165L12.8563 14.0748C12.8107 14.1384 12.7921 14.2173 12.8044 14.2946C12.8168 14.3718 12.8591 14.4411 12.9222 14.4873L14.9869 15.9992C15.0182 16.0235 15.0541 16.0413 15.0925 16.0514C15.1308 16.0616 15.1708 16.064 15.2101 16.0584C15.2494 16.0529 15.2871 16.0395 15.3211 16.0191C15.3552 15.9988 15.3848 15.9718 15.4082 15.9397C15.4316 15.9077 15.4484 15.8714 15.4575 15.8328C15.4666 15.7942 15.4679 15.7541 15.4613 15.715C15.4547 15.6759 15.4403 15.6385 15.419 15.6051C15.3977 15.5716 15.3699 15.5427 15.3373 15.5202ZM10.3963 7.28025C10.3679 7.42435 10.2802 7.63164 10.1277 7.84636C9.9116 8.15065 9.67266 8.32395 9.5483 8.33794C9.19346 8.37784 8.29323 8.12586 7.65754 7.85975L7.68133 7.81467L8.28992 7.43786L10.3963 7.28025ZM9.14415 5.74764C9.4834 5.73884 9.69912 5.73825 9.82818 5.7397C9.94801 5.98914 10.1239 6.37055 10.2524 6.69556L8.17307 6.85108C8.12547 6.85463 8.07944 6.86961 8.03888 6.89476L7.5706 7.18481L7.92217 6.51821C7.9589 6.44857 7.96647 6.3672 7.9432 6.29198C7.91994 6.21677 7.86775 6.15387 7.79811 6.11713L7.41589 5.91552C7.70894 5.87603 8.59266 5.76192 9.14415 5.74771V5.74764ZM7.25858 6.50389L7.04249 6.91343L5.02976 5.85169L5.24581 5.44215L7.25858 6.50389ZM2.66767 8.18097C2.49867 7.84584 2.71591 7.56206 3.04162 7.19757C3.08663 7.14722 3.20557 7.034 3.37293 6.88007L2.67735 8.19886C2.67413 8.19288 2.67075 8.18713 2.66767 8.18097ZM3.47665 14.5131C3.28693 14.8711 2.96292 15.1392 2.57572 15.2586C2.18853 15.378 1.76979 15.3388 1.41142 15.1498C1.05304 14.9607 0.784316 14.6372 0.664216 14.2503C0.544116 13.8633 0.582457 13.4445 0.770823 13.0858L4.40621 6.19406L6.94471 7.53315C6.42277 7.30638 5.66262 7.02104 5.20933 7.01785C4.87082 7.01566 3.97091 7.00943 3.67122 8.02485C3.54549 8.45076 3.60602 8.84174 3.85105 9.18693C4.13828 9.59143 4.62934 9.84748 4.97372 10.0048C4.99803 10.0159 5.02244 10.0263 5.04686 10.0368H2.93849C2.85976 10.0368 2.78425 10.0681 2.72857 10.1237C2.6729 10.1794 2.64162 10.2549 2.64162 10.3337C2.64162 10.4124 2.6729 10.4879 2.72857 10.5436C2.78425 10.5992 2.85976 10.6305 2.93849 10.6305H5.52468L3.47665 14.5131ZM6.12025 11.2292C5.97515 11.4209 5.82007 11.5342 5.68997 11.5898L6.32762 10.3809L6.69433 10.4582C6.69433 10.4582 6.25125 11.0562 6.12025 11.2292ZM7.49768 11.6106C7.27843 12.002 6.93543 12.109 6.80878 12.0775C6.75044 12.0629 6.59551 12.0242 6.61882 11.7098C6.62634 11.6338 6.64326 11.5591 6.66917 11.4874C6.85353 11.2416 7.31209 10.6214 7.31209 10.6214L7.94729 10.8184C7.94729 10.8184 7.61951 11.3931 7.49768 11.6105V11.6106Z" fill="#1B4568"/>
</g>
<defs>
<clipPath id="clip0_586_1877">
<rect width="19" height="19" fill="white"/>
</clipPath>
</defs>
</svg>
