<svg width="30" height="30" viewBox="0 0 30 30" fill="none" xmlns="http://www.w3.org/2000/svg">
<path d="M28.6862 22.9774H28.345C28.3332 22.9774 28.3215 22.9715 28.3156 22.9539C28.245 22.7489 28.1626 22.5498 28.0685 22.3565C28.0626 22.3448 28.0626 22.3331 28.0744 22.3214L28.3156 22.0812C28.4862 21.9114 28.5803 21.6829 28.5803 21.4428C28.5803 21.2027 28.4862 20.9742 28.3156 20.8044L27.5861 20.0781C27.4155 19.9083 27.1861 19.8145 26.9449 19.8145C26.7037 19.8145 26.4743 19.9083 26.3037 20.0781L26.0625 20.3182C26.0566 20.3241 26.0389 20.33 26.0272 20.3241C25.833 20.2304 25.633 20.1484 25.4271 20.0781C25.4154 20.0723 25.4036 20.0605 25.4036 20.0488V19.7091C25.4036 19.2113 24.9977 18.8013 24.4918 18.8013H24.1153C23.7388 18.5436 23.3211 18.3503 22.8799 18.2273L17.55 16.7513C17.3794 16.7044 17.203 16.7161 17.0441 16.7864C16.9147 16.6107 16.8382 16.3881 16.8382 16.1773V14.7072C17.0912 14.549 17.3324 14.3675 17.5677 14.1625C18.5854 13.2898 19.2266 12.0305 19.3619 10.6541C20.1091 10.6248 20.7032 10.0156 20.7032 9.26594V8.21167C20.7032 7.7431 20.4738 7.32139 20.1032 7.06954L20.1738 6.81182C20.1855 6.77083 20.1914 6.72983 20.1914 6.68883V4.70328C20.1914 4.46314 19.9914 4.264 19.7502 4.264C19.509 4.264 19.309 4.46314 19.309 4.70328V6.07969C17.4559 5.45884 15.5616 5.14256 13.6674 5.14256C11.7731 5.14256 9.88473 5.45884 8.02576 6.07969V3.78371C8.02576 2.78801 8.70228 1.93288 9.67295 1.70445L12.7673 0.972317C13.2791 0.849319 13.8262 0.849319 14.338 0.96646L17.6324 1.71617C18.2619 1.86259 18.7913 2.27259 19.0737 2.85244C19.1796 3.06915 19.4443 3.15701 19.6678 3.05158C19.8855 2.94615 19.9738 2.68258 19.8679 2.46002C19.462 1.64588 18.7207 1.06603 17.8324 0.861033L14.538 0.111327C13.8909 -0.0409573 13.2085 -0.0351002 12.5614 0.117184L9.46705 0.849319C8.09635 1.17146 7.13745 2.37802 7.13745 3.78371V6.68883C7.13745 6.71225 7.13745 6.72983 7.14334 6.75325C7.14334 6.75325 7.14334 6.75325 7.14334 6.75911V6.76497V6.77082C7.14334 6.7884 7.14922 6.80597 7.1551 6.81768L7.21981 7.06368C6.8492 7.31553 6.61977 7.73724 6.61977 8.20581V9.26008C6.61977 10.0098 7.21981 10.6189 7.96105 10.6482C8.09635 12.0246 8.73758 13.2839 9.75531 14.1566C9.99062 14.3557 10.2318 14.5373 10.4848 14.7013V16.1714C10.4848 16.3823 10.4024 16.6049 10.2789 16.7806C10.12 16.7161 9.94356 16.6986 9.77296 16.7454L4.44313 18.2331C2.90771 18.6607 1.73703 19.9493 1.4723 21.5131L1.24876 22.8134C1.20758 23.0535 1.36641 23.2819 1.60761 23.3229C1.63114 23.3288 1.66055 23.3288 1.68408 23.3288C1.89587 23.3288 2.08412 23.1765 2.11941 22.9656L2.34296 21.6654C2.55474 20.4354 3.47246 19.4221 4.68432 19.0824L7.20805 18.3796L9.64353 21.1441C9.64942 21.15 9.6553 21.1558 9.66118 21.1617C9.66118 21.1617 9.66118 21.1675 9.66707 21.1675C9.67295 21.1734 9.67295 21.1792 9.67883 21.1792C9.68471 21.1851 9.6906 21.191 9.69648 21.1968C9.69648 21.1968 9.69648 21.1968 9.70236 21.2027L9.71413 21.2144C9.71413 21.2144 9.71413 21.2144 9.72001 21.2144C9.72589 21.2202 9.73178 21.2261 9.73766 21.232C9.73766 21.232 9.73766 21.232 9.74354 21.2378C9.74942 21.2437 9.74942 21.2437 9.75531 21.2495C9.75531 21.2495 9.75531 21.2495 9.76119 21.2554C9.76707 21.2612 9.77296 21.2671 9.77884 21.273C9.78472 21.2788 9.7906 21.2788 9.7906 21.2847C9.7906 21.2847 9.79649 21.2847 9.79649 21.2905C9.80237 21.2964 9.80825 21.3022 9.81414 21.3081C9.82002 21.314 9.8259 21.3198 9.83178 21.3198C9.83178 21.3198 9.83767 21.3198 9.83767 21.3257C9.84355 21.3315 9.84943 21.3315 9.85532 21.3374C9.8612 21.3432 9.86708 21.3491 9.87296 21.3491C9.87296 21.3491 9.87885 21.3491 9.87885 21.355C9.88473 21.3608 9.89061 21.3608 9.89061 21.3667C9.89061 21.3667 9.89061 21.3667 9.89649 21.3725C9.90238 21.3784 9.90826 21.3784 9.91414 21.3842C9.91414 21.3842 9.92003 21.3842 9.92003 21.3901C9.92591 21.396 9.92591 21.396 9.93179 21.4018C9.93179 21.4018 9.93767 21.4018 9.93767 21.4077C9.94356 21.4135 9.94944 21.4135 9.95532 21.4194C9.95532 21.4194 9.96121 21.4194 9.96121 21.4252C9.96709 21.4311 9.97297 21.4311 9.97297 21.437C9.97297 21.437 9.97885 21.437 9.97885 21.4428C9.98474 21.4487 9.99062 21.4487 9.9965 21.4545C9.9965 21.4545 9.9965 21.4545 10.0024 21.4545C10.0083 21.4604 10.0142 21.4604 10.02 21.4662C10.02 21.4662 10.0259 21.4662 10.0259 21.4721C10.0318 21.478 10.0377 21.4779 10.0377 21.4838C10.0377 21.4838 10.0436 21.4838 10.0436 21.4897C10.0494 21.4955 10.0553 21.4955 10.0612 21.5014L10.0671 21.5072C10.073 21.5072 10.073 21.5131 10.0789 21.5131C10.0789 21.5131 10.0847 21.5131 10.0847 21.5189C10.0906 21.5248 10.0965 21.5248 10.1024 21.5307C10.1024 21.5307 10.1083 21.5307 10.1083 21.5365C10.1142 21.5365 10.1142 21.5424 10.12 21.5424L10.1259 21.5482C10.1318 21.5541 10.1377 21.5541 10.1436 21.5599L10.1495 21.5658C10.1553 21.5658 10.1553 21.5717 10.1612 21.5717L10.1671 21.5775C10.173 21.5775 10.173 21.5834 10.1789 21.5834C10.1848 21.5834 10.1848 21.5892 10.1906 21.5892C10.1965 21.5892 10.1965 21.5951 10.2024 21.5951C10.2083 21.5951 10.2083 21.6009 10.2142 21.6009C10.22 21.6009 10.22 21.6068 10.2259 21.6068C10.2318 21.6068 10.2377 21.6127 10.2436 21.6127C10.2495 21.6127 10.2495 21.6185 10.2553 21.6185C10.2612 21.6185 10.2612 21.6244 10.2671 21.6244C10.273 21.6244 10.273 21.6244 10.2789 21.6302C10.2848 21.6302 10.2906 21.6361 10.2906 21.6361C10.2965 21.6361 10.2965 21.6419 10.3024 21.6419C10.3083 21.6419 10.3083 21.6478 10.3142 21.6478C10.3142 21.6478 10.3201 21.6478 10.3201 21.6537C10.3259 21.6537 10.3259 21.6595 10.3318 21.6595C10.3318 21.6595 10.3318 21.6595 10.3377 21.6595C10.3436 21.6654 10.3554 21.6654 10.3612 21.6712H10.3671C10.373 21.6712 10.373 21.6771 10.3789 21.6771C10.3789 21.6771 10.3848 21.6771 10.3848 21.6829C10.3907 21.6829 10.3965 21.6888 10.4083 21.6888H10.4142C10.4201 21.6888 10.4201 21.6947 10.4259 21.6947H10.4318C10.4377 21.7005 10.4495 21.7005 10.4554 21.7064C10.4612 21.7064 10.4671 21.7122 10.4671 21.7122H10.473C10.4848 21.7181 10.5024 21.7239 10.5142 21.7239C10.5142 21.7239 10.5142 21.7239 10.5201 21.7239C10.5377 21.7298 10.5495 21.7298 10.5613 21.7357C10.5613 21.7357 10.5613 21.7357 10.5671 21.7357C10.5848 21.7415 10.5965 21.7415 10.6142 21.7474C10.6201 21.7474 10.626 21.7474 10.6318 21.7532C10.6436 21.7532 10.6495 21.7591 10.6613 21.7591C10.6671 21.7591 10.673 21.7591 10.6789 21.7649C10.6966 21.7708 10.7083 21.7708 10.726 21.7767C10.726 21.7767 10.726 21.7767 10.7319 21.7767C10.7495 21.7767 10.7613 21.7825 10.7789 21.7825C10.7789 21.7825 10.7789 21.7825 10.7848 21.7825C10.8024 21.7825 10.8142 21.7884 10.8319 21.7884C10.8377 21.7884 10.8436 21.7884 10.8495 21.7884C10.8613 21.7884 10.873 21.7884 10.8789 21.7942C10.8848 21.7942 10.8907 21.7942 10.8966 21.7942C10.9142 21.7942 10.926 21.7942 10.9436 21.8001C10.9436 21.8001 10.9436 21.8001 10.9495 21.8001C10.9672 21.8001 10.9789 21.8001 10.9966 21.8001H11.0025C11.0201 21.8001 11.0319 21.8001 11.0495 21.8001H11.0554H11.0613C11.1142 21.8001 11.1672 21.8001 11.2201 21.7942C11.2319 21.7942 11.2437 21.7942 11.2554 21.7884C11.2907 21.7825 11.3201 21.7825 11.3554 21.7767C11.3613 21.7767 11.3672 21.7767 11.3672 21.7767C11.3672 21.7767 11.3672 21.7767 11.3731 21.7767C11.379 21.7767 11.3848 21.7767 11.3848 21.7767C11.3848 21.7767 11.3848 21.7767 11.3907 21.7767C11.3966 21.7767 11.3966 21.7767 11.4025 21.7767H11.4084C11.4143 21.7767 11.4143 21.7767 11.4201 21.7767H11.426C11.4319 21.7767 11.4319 21.7767 11.4378 21.7767H11.4437C11.4496 21.7767 11.4496 21.7767 11.4554 21.7767C11.4554 21.7767 11.4554 21.7767 11.4613 21.7767C11.4731 21.7708 11.4907 21.7708 11.5025 21.7649H11.5084C11.5143 21.7649 11.5143 21.7649 11.5202 21.7649H11.526C11.5319 21.7649 11.5319 21.7649 11.5378 21.7649H11.5437C11.5496 21.7649 11.5496 21.7649 11.5554 21.7649C11.5613 21.7649 11.5613 21.7649 11.5672 21.7649H11.5731H11.579H11.5849C11.5907 21.7649 11.5907 21.7649 11.5966 21.7591H11.6025C11.6084 21.7591 11.6084 21.7591 11.6143 21.7532H11.6202C11.626 21.7532 11.626 21.7532 11.6319 21.7474H11.6378C11.6437 21.7474 11.6496 21.7415 11.6555 21.7415L13.7027 21.0445L15.7499 21.7415C15.7558 21.7415 15.7617 21.7474 15.7675 21.7474H15.7734C15.7793 21.7474 15.7793 21.7474 15.7852 21.7532H15.7911L15.8028 21.7591H15.8087C15.8146 21.7591 15.8146 21.7591 15.8205 21.7649H15.8264C15.8323 21.7649 15.8323 21.7649 15.8381 21.7649C15.844 21.7649 15.844 21.7649 15.844 21.7649C15.8499 21.7649 15.8499 21.7649 15.8558 21.7649C15.8617 21.7649 15.8617 21.7649 15.8676 21.7649H15.8734C15.8793 21.7649 15.8793 21.7649 15.8852 21.7649C15.8911 21.7649 15.8911 21.7649 15.897 21.7649C15.9028 21.7649 15.9028 21.7649 15.9028 21.7649H15.9087C15.9205 21.7708 15.9381 21.7708 15.9499 21.7767C15.9499 21.7767 15.9499 21.7767 15.9558 21.7767C15.9617 21.7767 15.9617 21.7767 15.9676 21.7767H15.9734C15.9793 21.7767 15.9793 21.7767 15.9852 21.7767H15.9911C15.997 21.7767 15.997 21.7767 16.0029 21.7767H16.0087C16.0146 21.7767 16.0146 21.7767 16.0205 21.7767H16.0264C16.0323 21.7767 16.0323 21.7767 16.0382 21.7767H16.044C16.0499 21.7767 16.0499 21.7767 16.0558 21.7767H16.0617C16.0676 21.7767 16.0676 21.7767 16.0735 21.7767H16.0793C16.0911 21.7767 16.1087 21.7825 16.1205 21.7825H16.1264C16.1323 21.7825 16.1323 21.7825 16.1382 21.7825H16.144C16.1499 21.7825 16.1499 21.7825 16.1558 21.7825H16.1617C16.1676 21.7825 16.1676 21.7825 16.1735 21.7825H16.1793C16.1852 21.7825 16.1852 21.7825 16.1911 21.7825H16.197C16.2029 21.7825 16.2029 21.7825 16.2088 21.7825H16.2146C16.2205 21.7825 16.2205 21.7825 16.2264 21.7825H16.2323C16.2382 21.7825 16.2382 21.7825 16.2441 21.7825C16.2499 21.7825 16.2499 21.7825 16.2558 21.7825H16.2617C16.2676 21.7825 16.2735 21.7825 16.2735 21.7825H16.2793C16.2852 21.7825 16.2911 21.7825 16.297 21.7825H16.3029C16.3088 21.7825 16.3088 21.7825 16.3146 21.7825H16.3205C16.3264 21.7825 16.3264 21.7825 16.3323 21.7825H16.3382H16.3499H16.3558H16.3735C16.3794 21.7825 16.3911 21.7825 16.397 21.7825H16.4029C16.4088 21.7825 16.4147 21.7825 16.4205 21.7825C16.4264 21.7825 16.4382 21.7825 16.4441 21.7825H16.45C16.4558 21.7825 16.4617 21.7825 16.4676 21.7825C16.4676 21.7825 16.4676 21.7825 16.4735 21.7825C16.4911 21.7825 16.5029 21.7825 16.5205 21.7767C16.5205 21.7767 16.5205 21.7767 16.5264 21.7767C16.5441 21.7767 16.5558 21.7708 16.5735 21.7708C16.5911 21.7708 16.6029 21.7649 16.6206 21.7649C16.6264 21.7649 16.6323 21.7649 16.6441 21.7591C16.65 21.7591 16.6617 21.7591 16.6676 21.7532C16.6735 21.7532 16.6853 21.7532 16.6911 21.7474C16.7088 21.7415 16.7206 21.7415 16.7382 21.7357C16.7559 21.7298 16.7676 21.7298 16.7853 21.7239C16.8029 21.7181 16.8147 21.7181 16.8323 21.7122C16.8382 21.7122 16.8441 21.7064 16.8559 21.7064C16.8617 21.7064 16.8735 21.7005 16.8794 21.7005C16.8853 21.7005 16.8912 21.6947 16.9029 21.6947C16.9206 21.6888 16.9323 21.6829 16.95 21.6829C16.9618 21.6771 16.9794 21.6712 16.9912 21.6654C16.9912 21.6654 16.9912 21.6654 16.9971 21.6654C17.0088 21.6595 17.0265 21.6537 17.0382 21.6478C17.0382 21.6478 17.0382 21.6478 17.0441 21.6478C17.05 21.6478 17.0559 21.6419 17.0618 21.6419C17.0676 21.6361 17.0735 21.6361 17.0853 21.6302C17.0912 21.6302 17.0971 21.6244 17.1029 21.6244C17.1029 21.6244 17.1029 21.6244 17.1088 21.6244C17.1147 21.6185 17.1206 21.6185 17.1265 21.6127C17.1324 21.6127 17.1382 21.6068 17.1441 21.6068H17.15C17.1618 21.6009 17.1735 21.5951 17.1912 21.5892H17.1971C17.2029 21.5834 17.2088 21.5834 17.2147 21.5775C17.2206 21.5717 17.2265 21.5717 17.2324 21.5658H17.2382C17.2441 21.5599 17.25 21.5599 17.2559 21.5541C17.2559 21.5541 17.2559 21.5541 17.2618 21.5541C17.2677 21.5482 17.2735 21.5482 17.2794 21.5424C17.2794 21.5424 17.2853 21.5424 17.2853 21.5365C17.2912 21.5365 17.2971 21.5307 17.2971 21.5307C17.2971 21.5307 17.303 21.5307 17.303 21.5248C17.3088 21.5189 17.3147 21.5189 17.3206 21.5131H17.3265C17.3324 21.5072 17.3383 21.5072 17.3383 21.5014C17.3383 21.5014 17.3441 21.5014 17.3441 21.4955C17.35 21.4897 17.3559 21.4897 17.3618 21.4838C17.3677 21.4779 17.3736 21.478 17.3794 21.4721C17.3794 21.4721 17.3853 21.4721 17.3853 21.4662C17.3912 21.4604 17.3971 21.4604 17.403 21.4545C17.4088 21.4487 17.4147 21.4487 17.4206 21.4428C17.4206 21.4428 17.4265 21.4428 17.4265 21.437C17.4324 21.4311 17.4324 21.4311 17.4383 21.4252C17.4383 21.4252 17.4441 21.4252 17.4441 21.4194C17.45 21.4135 17.4559 21.4135 17.4618 21.4077L17.4677 21.4018C17.4736 21.396 17.4736 21.396 17.4794 21.3901C17.4794 21.3901 17.4853 21.3901 17.4853 21.3842C17.4912 21.3784 17.4971 21.3784 17.503 21.3725L17.5089 21.3667C17.5147 21.3608 17.5147 21.3608 17.5206 21.355L17.5265 21.3491C17.5324 21.3432 17.5383 21.3432 17.5442 21.3374C17.5442 21.3374 17.5442 21.3374 17.55 21.3315C17.5559 21.3257 17.5559 21.3257 17.5618 21.3198L17.5677 21.314C17.5736 21.3081 17.5795 21.3081 17.5795 21.3022C17.5795 21.3022 17.5795 21.3022 17.5853 21.2964C17.5912 21.2905 17.5971 21.2905 17.5971 21.2847L17.603 21.2788C17.6089 21.273 17.6089 21.273 17.6147 21.2671C17.6147 21.2671 17.6147 21.2671 17.6206 21.2612C17.6265 21.2554 17.6324 21.2495 17.6383 21.2495L17.6442 21.2437C17.65 21.2378 17.65 21.2378 17.6559 21.232L17.6618 21.2261C17.6677 21.2202 17.6736 21.2144 17.6795 21.2085L17.6853 21.2027C17.6912 21.1968 17.6912 21.1968 17.6971 21.191L17.703 21.1851C17.7089 21.1792 17.7148 21.1734 17.7206 21.1675C17.7265 21.1617 17.7265 21.1558 17.7324 21.1558L17.7383 21.15C17.7442 21.1441 17.7501 21.1382 17.7559 21.1324L20.1914 18.3678L22.7151 19.0707C22.7622 19.0824 22.8034 19.0941 22.8505 19.1117C22.7093 19.2698 22.6269 19.4807 22.6269 19.7033V20.043C22.6269 20.0547 22.621 20.0664 22.6034 20.0723C22.3975 20.1425 22.1975 20.2245 22.0033 20.3182C21.9916 20.3241 21.9798 20.3241 21.968 20.3124L21.7268 20.0723C21.3739 19.7208 20.7973 19.7208 20.4385 20.0723L19.709 20.7985C19.3561 21.15 19.3561 21.7239 19.709 22.0812L19.9502 22.3214C19.9561 22.3272 19.962 22.3448 19.9561 22.3565C19.862 22.5498 19.7796 22.7489 19.709 22.9539C19.7031 22.9656 19.6914 22.9774 19.6796 22.9774H19.3384C18.8384 22.9774 18.4266 23.3815 18.4266 23.8852V24.9102C18.4266 25.4081 18.8325 25.818 19.3384 25.818H19.6796C19.6914 25.818 19.7031 25.8239 19.709 25.8415C19.7796 26.0465 19.862 26.2456 19.9561 26.4389C19.962 26.4506 19.962 26.4623 19.9502 26.474L19.709 26.7142C19.3561 27.0656 19.3561 27.6396 19.709 27.9969L19.9208 28.2077H1.91351C1.73703 28.2077 1.57819 28.1316 1.46642 28.0027C1.35465 27.868 1.30758 27.6982 1.337 27.5283L1.76644 25.0273C1.80762 24.7872 1.64879 24.5588 1.40759 24.5178C1.1664 24.4768 0.936967 24.6349 0.895787 24.8751L0.466342 27.376C0.395748 27.8036 0.513404 28.237 0.789897 28.565C1.07227 28.893 1.47819 29.0863 1.91351 29.0863H22.5563V29.0922C22.5563 29.59 22.9622 30 23.4681 30H24.4976C24.9977 30 25.4095 29.5959 25.4095 29.0922V28.7524C25.4095 28.7407 25.4154 28.729 25.433 28.7232C25.6389 28.6529 25.8389 28.5709 26.0331 28.4772C26.0448 28.4713 26.0566 28.4713 26.0684 28.483L26.3095 28.7232C26.4802 28.893 26.7096 28.9867 26.9508 28.9867C27.192 28.9867 27.4214 28.893 27.592 28.7232L28.3215 27.9969C28.4921 27.827 28.5862 27.5986 28.5862 27.3585C28.5862 27.1183 28.4921 26.8899 28.3215 26.72L28.0803 26.4799C28.0744 26.474 28.0685 26.4565 28.0744 26.4448C28.1685 26.2515 28.2568 26.0523 28.3215 25.8473C28.3274 25.8356 28.3391 25.8239 28.3509 25.8239H28.6921C29.1921 25.8239 29.6039 25.4198 29.6039 24.9161V23.8911C29.598 23.3874 29.1921 22.9774 28.6862 22.9774ZM13.6615 6.01526C15.5205 6.01526 17.3853 6.3374 19.209 6.97582L19.1031 7.36239C19.0619 7.50882 18.9737 7.62596 18.8384 7.69624C18.709 7.76653 18.5619 7.7841 18.4207 7.73724C15.291 6.78254 12.1202 6.77083 8.98466 7.70796C8.95524 7.71967 8.92583 7.72553 8.89053 7.73724C8.74935 7.77824 8.60228 7.76653 8.47285 7.69624C8.44344 7.67867 8.41991 7.6611 8.39049 7.64353C8.38461 7.63767 8.37873 7.63182 8.36696 7.62596C8.36108 7.6201 8.3552 7.61424 8.34931 7.60839C8.27872 7.54396 8.23166 7.4561 8.20813 7.36239L8.19636 7.30968L8.16106 7.18668L8.10224 6.97582C9.93767 6.3374 11.8025 6.01526 13.6615 6.01526ZM10.3377 13.4948C9.40234 12.6923 8.85524 11.4975 8.82582 10.2031C8.81994 9.96293 8.62581 9.77551 8.38461 9.77551H8.02576C7.74338 9.77551 7.51395 9.54708 7.51395 9.26594V8.21167C7.51395 8.14138 7.5316 8.0711 7.56102 8.00667C7.56102 8.00667 7.56102 8.00667 7.56102 8.01253L7.5669 8.01838C7.5669 8.02424 7.57278 8.02424 7.57278 8.02424L7.57867 8.0301C7.57867 8.03595 7.58455 8.03595 7.58455 8.04181C7.59043 8.04767 7.59043 8.04767 7.59631 8.05352L7.6022 8.05938C7.6022 8.06524 7.60808 8.06524 7.60808 8.06524L7.61396 8.0711L7.61985 8.07695L7.62573 8.08281L7.63161 8.08867L7.63749 8.09452C7.63749 8.10038 7.64338 8.10038 7.64338 8.10624L7.64926 8.1121C7.65514 8.11795 7.65514 8.12381 7.66103 8.12381L7.66691 8.12967C7.66691 8.13552 7.67279 8.13552 7.67279 8.13552L7.67867 8.14138L7.68456 8.14724L7.69044 8.1531L7.69632 8.15895L7.7022 8.16481C7.70809 8.17067 7.70809 8.17067 7.71397 8.17652C7.71397 8.17652 7.71397 8.18238 7.71985 8.18238C7.72574 8.18824 7.72574 8.19409 7.73162 8.19409L7.7375 8.19995L7.74338 8.20581L7.74927 8.21167L7.75515 8.21752L7.76103 8.22338L7.76692 8.22924L7.7728 8.2351L7.77868 8.24095C7.78456 8.24681 7.78456 8.24681 7.79045 8.25267L7.79633 8.25852C7.80221 8.25852 7.80221 8.26438 7.80221 8.26438L7.8081 8.27024L7.81398 8.27609L7.81986 8.28195L7.82574 8.28781L7.83163 8.29367C7.83751 8.29367 7.83751 8.29952 7.84339 8.29952L7.84928 8.30538C7.85516 8.31124 7.86104 8.31709 7.86692 8.31709L7.87281 8.32295C7.87869 8.32295 7.87869 8.32881 7.88457 8.32881L7.89045 8.33467C7.89634 8.33467 7.89634 8.34052 7.90222 8.34052L7.9081 8.34638C7.91399 8.34638 7.91399 8.35224 7.91987 8.35224C7.91987 8.35224 7.92575 8.35224 7.92575 8.35809C7.93163 8.35809 7.93163 8.36395 7.93752 8.36395C7.93752 8.36395 7.93752 8.36395 7.9434 8.36395C7.95517 8.36981 7.96105 8.37566 7.97281 8.38152C7.9787 8.38152 7.9787 8.38738 7.98458 8.38738C7.98458 8.38738 7.99046 8.38738 7.99046 8.39324C7.99635 8.39324 7.99635 8.39909 8.00223 8.39909C8.00223 8.39909 8.00811 8.39909 8.00811 8.40495C8.01399 8.40495 8.01399 8.41081 8.01988 8.41081C8.01988 8.41081 8.01988 8.41081 8.02576 8.41081C8.03752 8.41666 8.04341 8.42252 8.05517 8.42838C8.06106 8.43423 8.06694 8.43424 8.07282 8.44009C8.0787 8.44595 8.08459 8.44595 8.09047 8.45181C8.09635 8.45766 8.10224 8.45766 8.10812 8.46352C8.11988 8.46938 8.13753 8.47523 8.1493 8.48109C8.15518 8.48109 8.16106 8.48695 8.16695 8.48695C8.16695 8.48695 8.16695 8.48695 8.17283 8.48695C8.17871 8.48695 8.1846 8.49281 8.19048 8.49281C8.20224 8.49866 8.21401 8.50452 8.23166 8.51038H8.23754C8.24342 8.51038 8.24931 8.51623 8.25519 8.51623H8.26107C8.26695 8.51623 8.27284 8.52209 8.27872 8.52209H8.2846C8.29049 8.52209 8.29637 8.52795 8.30225 8.52795H8.30813C8.31402 8.52795 8.3199 8.53381 8.3199 8.53381H8.32578C8.33167 8.53381 8.33167 8.53381 8.33755 8.53966H8.34343C8.34931 8.53966 8.34931 8.53966 8.3552 8.54552H8.36108C8.36696 8.54552 8.37285 8.55138 8.37873 8.55138H8.38461C8.39049 8.55138 8.39049 8.55138 8.39638 8.55723C8.40226 8.55723 8.40226 8.55723 8.40814 8.55723H8.41991C8.42579 8.55723 8.42579 8.55723 8.43167 8.55723C8.43756 8.55723 8.43756 8.55723 8.44344 8.55723C8.44932 8.55723 8.44932 8.55723 8.4552 8.55723C8.46109 8.55723 8.46697 8.55723 8.47285 8.56309C8.47874 8.56309 8.47874 8.56309 8.48462 8.56309C8.4905 8.56309 8.4905 8.56309 8.49638 8.56309C8.50227 8.56309 8.50227 8.56309 8.50815 8.56309C8.51403 8.56309 8.51403 8.56309 8.51992 8.56309C8.5258 8.56309 8.5258 8.56309 8.53168 8.56309C8.53756 8.56309 8.53756 8.56309 8.54345 8.56309C8.54933 8.56309 8.55521 8.56309 8.55521 8.56309C8.5611 8.56309 8.56698 8.56309 8.56698 8.56309C8.57286 8.56309 8.57286 8.56309 8.57874 8.56309C8.58463 8.56309 8.58463 8.56309 8.59051 8.56309C8.59639 8.56309 8.59639 8.56309 8.60227 8.56309H8.60816C8.61404 8.56309 8.61404 8.56309 8.61992 8.56309H8.62581C8.63169 8.56309 8.63757 8.56309 8.64934 8.56309H8.65522C8.6611 8.56309 8.6611 8.56309 8.66699 8.56309C8.67287 8.56309 8.67287 8.56309 8.67287 8.56309C8.67875 8.56309 8.67875 8.56309 8.68464 8.56309H8.69052C8.6964 8.56309 8.6964 8.56309 8.70228 8.56309H8.70817C8.71405 8.56309 8.71993 8.56309 8.7317 8.56309H8.73758H8.74346C8.79053 8.56309 8.83759 8.56309 8.87877 8.55723C8.89642 8.55723 8.91406 8.55138 8.93171 8.55138C8.9376 8.55138 8.94348 8.55138 8.94936 8.55138C8.95525 8.55138 8.96113 8.55138 8.96701 8.55138C8.97289 8.55138 8.97878 8.55138 8.98466 8.55138C8.99054 8.55138 8.99642 8.55138 9.00231 8.54552C9.00819 8.54552 9.01407 8.54552 9.01996 8.53966C9.02584 8.53966 9.03172 8.53966 9.03172 8.53381C9.03172 8.53381 9.03172 8.53381 9.0376 8.53381C9.04937 8.53381 9.06114 8.52795 9.0729 8.52795C9.07878 8.52795 9.08467 8.52795 9.08467 8.52209C9.08467 8.52209 9.08467 8.52209 9.09055 8.52209C9.10231 8.52209 9.11408 8.51623 9.11996 8.51623C9.11996 8.51623 9.11996 8.51623 9.12585 8.51623C9.13173 8.51623 9.13173 8.51623 9.13761 8.51038H9.14349C9.14938 8.51038 9.15526 8.50452 9.16114 8.50452C11.7202 7.72553 14.3027 7.60839 16.8676 8.16481C16.9147 8.17652 16.9676 8.18824 17.0147 8.19995C17.0382 8.20581 17.0618 8.21167 17.0853 8.21752C17.1206 8.22338 17.1618 8.23509 17.1971 8.24095C17.2382 8.25267 17.2853 8.26438 17.3265 8.27024C17.3559 8.27609 17.3794 8.28195 17.4088 8.29367C17.4559 8.30538 17.503 8.31709 17.55 8.32881C17.65 8.35809 17.7501 8.38152 17.8501 8.41081C17.9559 8.44009 18.0618 8.46938 18.1677 8.50452C18.5383 8.6158 18.9325 8.57481 19.2737 8.38738C19.2796 8.38152 19.2855 8.38152 19.2913 8.37566C19.2913 8.37566 19.2972 8.37566 19.2972 8.36981C19.3031 8.36981 19.3031 8.36395 19.309 8.36395C19.309 8.36395 19.3149 8.36395 19.3149 8.35809C19.3208 8.35809 19.3208 8.35224 19.3266 8.35224C19.3266 8.35224 19.3325 8.35224 19.3325 8.34638C19.3384 8.34638 19.3384 8.34052 19.3443 8.34052C19.3443 8.34052 19.3502 8.34052 19.3502 8.33467C19.3619 8.32881 19.3737 8.31709 19.3855 8.31124C19.3855 8.31124 19.3914 8.31124 19.3914 8.30538C19.3972 8.30538 19.3972 8.29952 19.4031 8.29952C19.4031 8.29952 19.409 8.29952 19.409 8.29367C19.4149 8.29367 19.4149 8.28781 19.4208 8.28781C19.4208 8.28781 19.4267 8.28781 19.4267 8.28195C19.4325 8.28195 19.4325 8.27609 19.4384 8.27609C19.4384 8.27609 19.4443 8.27609 19.4443 8.27024C19.4502 8.26438 19.4561 8.26438 19.462 8.25852C19.4678 8.25267 19.4737 8.25267 19.4796 8.24681C19.4796 8.24681 19.4855 8.24681 19.4855 8.24095C19.4914 8.23509 19.4914 8.2351 19.4972 8.22924L19.5031 8.22338C19.509 8.22338 19.509 8.21752 19.5149 8.21752C19.5149 8.21752 19.5208 8.21752 19.5208 8.21167C19.5267 8.20581 19.5267 8.20581 19.5325 8.19995C19.5325 8.19995 19.5384 8.19995 19.5384 8.19409C19.5502 8.18824 19.5561 8.17652 19.5678 8.16481C19.5678 8.16481 19.5737 8.16481 19.5737 8.15895C19.5796 8.1531 19.5796 8.1531 19.5855 8.14724L19.5914 8.14138C19.5973 8.13552 19.5973 8.13552 19.6031 8.12967L19.609 8.12381C19.6149 8.11795 19.6149 8.11795 19.6208 8.1121C19.6208 8.1121 19.6208 8.1121 19.6267 8.10624C19.6326 8.10038 19.6384 8.09452 19.6384 8.09452C19.6443 8.08867 19.6443 8.08281 19.6502 8.08281L19.6561 8.07695C19.662 8.0711 19.662 8.0711 19.6678 8.06524L19.6737 8.05938C19.6796 8.05353 19.6796 8.05352 19.6855 8.04767L19.6914 8.04181C19.6973 8.03595 19.6973 8.03595 19.7031 8.0301C19.7031 8.0301 19.7031 8.0301 19.709 8.02424C19.7149 8.01838 19.7149 8.01253 19.7208 8.00667C19.7267 8.00081 19.7267 7.99495 19.7326 7.99495C19.7326 7.99495 19.7326 7.9891 19.7384 7.9891C19.7384 7.98324 19.7443 7.98324 19.7443 7.97738C19.7443 7.97738 19.7443 7.97153 19.7502 7.97153C19.7502 7.96567 19.7561 7.96567 19.7561 7.95981C19.7561 7.95981 19.7561 7.95396 19.762 7.95396C19.7679 7.9481 19.7679 7.9481 19.7737 7.94224C19.7737 7.94224 19.7737 7.94224 19.7737 7.93638C19.7796 7.93053 19.7796 7.92467 19.7855 7.91881C19.7914 7.91296 19.7914 7.9071 19.7973 7.9071C19.7973 7.9071 19.7973 7.90124 19.8032 7.90124C19.8032 7.89538 19.809 7.89538 19.809 7.88953C19.8385 7.95395 19.8561 8.02424 19.8561 8.09452V9.1488C19.8561 9.42994 19.6267 9.65836 19.3443 9.65836H18.9854C18.7442 9.65836 18.5501 9.85165 18.5442 10.0859C18.5148 11.3745 17.9677 12.5752 17.0323 13.3718C16.7794 13.5885 16.5088 13.7817 16.2382 13.9457C16.2323 13.9516 16.2264 13.9516 16.2146 13.9575C15.4616 14.3967 14.638 14.6252 13.7556 14.6427C13.7497 14.6427 13.7497 14.6427 13.7497 14.6427C13.738 14.6427 13.7262 14.6427 13.7144 14.6427C13.7027 14.6427 13.6909 14.6427 13.6791 14.6427C13.6733 14.6427 13.6733 14.6427 13.6733 14.6427C12.7908 14.6252 11.9614 14.3909 11.2142 13.9575C11.2084 13.9516 11.2025 13.9516 11.1907 13.9457C10.8613 13.9047 10.5965 13.7173 10.3377 13.4948ZM11.3319 20.8395C10.9613 20.9625 10.5554 20.8571 10.3024 20.5642L8.1493 18.116L9.96121 17.6123L12.8379 20.33L11.3319 20.8395ZM10.9613 17.3546C11.2201 17.0207 11.379 16.5931 11.379 16.1773V15.1757C12.0614 15.4686 12.785 15.6209 13.5497 15.6443C13.5615 15.6443 13.5733 15.6443 13.585 15.6443H13.5909C13.6027 15.6443 13.6086 15.6443 13.6203 15.6443H13.6262C13.638 15.6443 13.6497 15.6443 13.6615 15.6443H13.6733C13.685 15.6443 13.6968 15.6443 13.7086 15.6443H13.7144C13.7262 15.6443 13.7321 15.6443 13.7439 15.6443H13.7497C13.7615 15.6443 13.7733 15.6443 13.785 15.6443C14.5498 15.6209 15.2793 15.4627 15.9558 15.1757V16.1773C15.9558 16.5931 16.1146 17.0207 16.3735 17.3546L13.6674 19.9083L10.9613 17.3546ZM17.0265 20.5642C16.7676 20.8571 16.3676 20.9625 15.997 20.8395L14.4969 20.33L17.3736 17.6123L19.1855 18.116L17.0265 20.5642ZM28.7156 24.9102C28.7156 24.9278 28.7039 24.9395 28.6862 24.9395H28.345C27.9509 24.9395 27.6038 25.1913 27.4802 25.5603C27.4273 25.7243 27.3567 25.8825 27.2802 26.0406C27.1037 26.392 27.1743 26.8137 27.4508 27.089L27.692 27.3292C27.692 27.3292 27.6979 27.335 27.6979 27.3467C27.6979 27.3585 27.692 27.3643 27.692 27.3643L26.9625 28.0906C26.9625 28.0906 26.9567 28.0965 26.9449 28.0965C26.9331 28.0965 26.9272 28.0906 26.9272 28.0906L26.686 27.8505C26.4096 27.5752 25.986 27.5049 25.633 27.6806C25.4801 27.7567 25.3154 27.827 25.1506 27.8797C24.7741 28.0027 24.5271 28.3483 24.5271 28.7407V29.0804C24.5271 29.098 24.5153 29.1097 24.4976 29.1097H23.4681C23.4505 29.1097 23.4387 29.098 23.4387 29.0804V28.7407C23.4387 28.3483 23.1858 28.0027 22.8152 27.8797C22.6504 27.827 22.4857 27.7567 22.3328 27.6806C22.2033 27.6162 22.0622 27.581 21.921 27.581C21.6857 27.581 21.4503 27.6747 21.2797 27.8446L21.0385 28.0847C21.0268 28.0964 21.0091 28.0964 20.9974 28.0847L20.2679 27.3585C20.2561 27.3467 20.2561 27.3292 20.2679 27.3175L20.5091 27.0773C20.7856 26.802 20.8562 26.3803 20.6797 26.0289C20.6032 25.8766 20.5326 25.7126 20.4797 25.5486C20.3561 25.1796 20.0091 24.9278 19.6149 24.9278H19.2737C19.2561 24.9278 19.2443 24.9161 19.2443 24.8985V23.8735C19.2443 23.8559 19.2561 23.8442 19.2737 23.8442H19.6149C20.0091 23.8442 20.3561 23.5924 20.4797 23.2234C20.5326 23.0594 20.6032 22.8954 20.6797 22.7431C20.8562 22.3917 20.7856 21.9699 20.5091 21.6947L20.2679 21.4545C20.2561 21.4428 20.2561 21.4252 20.2679 21.4135L20.9974 20.6872C21.0091 20.6755 21.0268 20.6755 21.0385 20.6872L21.2797 20.9274C21.5562 21.2027 21.9798 21.273 22.3328 21.0972C22.4857 21.0211 22.6504 20.9508 22.8152 20.8981C23.1917 20.7751 23.4387 20.4295 23.4387 20.0371V19.6974C23.4387 19.6798 23.4505 19.6681 23.4681 19.6681H23.9741H23.9858H24.4976C24.5153 19.6681 24.5271 19.6798 24.5271 19.6974V20.0371C24.5271 20.4295 24.78 20.7751 25.1506 20.8981C25.3154 20.9508 25.4742 21.0211 25.633 21.0972C25.986 21.273 26.4096 21.2027 26.686 20.9274L26.9272 20.6872C26.9272 20.6872 26.9331 20.6814 26.9449 20.6814C26.9567 20.6814 26.9625 20.6872 26.9625 20.6872L27.692 21.4135C27.692 21.4135 27.6979 21.4194 27.6979 21.4311C27.6979 21.4428 27.692 21.4487 27.692 21.4487L27.4508 21.6888C27.1743 21.9641 27.1037 22.3858 27.2802 22.7372C27.3567 22.8895 27.4273 23.0535 27.4802 23.2175C27.6038 23.5865 27.9509 23.8384 28.345 23.8384H28.6862C28.7039 23.8384 28.7156 23.8501 28.7156 23.8676V24.9102Z" fill="#ACCBE6"/>
<path d="M23.9861 22.2568C22.8036 22.2568 21.8389 23.2174 21.8389 24.3947C21.8389 25.5719 22.8036 26.5325 23.9861 26.5325C25.1685 26.5325 26.1333 25.5719 26.1333 24.3947C26.1333 23.2174 25.1685 22.2568 23.9861 22.2568ZM23.9861 25.6598C23.286 25.6598 22.7213 25.0917 22.7213 24.4005C22.7213 23.7094 23.2919 23.1413 23.9861 23.1413C24.6861 23.1413 25.2509 23.7094 25.2509 24.4005C25.2509 25.0917 24.6803 25.6598 23.9861 25.6598Z" fill="#ACCBE6"/>
<path d="M10.9671 25.9233C11.3495 25.9233 11.6613 25.6129 11.6613 25.2322V24.0783C11.6613 23.6976 11.3495 23.3872 10.9671 23.3872H7.60213C7.21975 23.3872 6.90796 23.6976 6.90796 24.0783V25.2322C6.90796 25.6129 7.21975 25.9233 7.60213 25.9233H10.9671ZM7.79038 24.2716H10.7789V25.0506H7.79038V24.2716Z" fill="#ACCBE6"/>
</svg>
