<svg width="19" height="19" viewBox="0 0 19 19" fill="none" xmlns="http://www.w3.org/2000/svg">
<path d="M18.0194 2.2029L17.1613 1.37681V0.305958C17.1613 0.122383 17.0387 0 16.8548 0H9.5C9.31613 0 9.19355 0.122383 9.19355 0.305958V1.40741L8.33548 2.26409C7.69194 2.9066 7.35484 3.76329 7.35484 4.65056V6.94525C6.55806 6.82287 5.73065 6.76168 4.90323 6.76168C2.54355 6.76168 0 7.25121 0 8.29147V17.4702C0 18.5105 2.54355 19 4.90323 19C7.2629 19 9.80645 18.5105 9.80645 17.4702V15.9404H18.6935C18.8774 15.9404 19 15.818 19 15.6345V4.52818C19 3.6409 18.6323 2.78422 18.0194 2.2029ZM17.4065 2.44767H10.2968L9.99032 1.83575H16.7323L17.4065 2.44767ZM9.80645 0.611916H16.5484V1.22383H9.80645V0.611916ZM9.19355 9.4847C9.19355 9.76007 7.72258 10.4026 4.90323 10.4026V11.0145C6.55806 11.0145 8.30484 10.7697 9.19355 10.2802V17.4396C9.19355 17.715 7.72258 18.3575 4.90323 18.3575C2.08387 18.3575 0.612903 17.715 0.612903 17.4396V17.0113C1.50161 17.5008 3.24839 17.7456 4.90323 17.7456V17.1337C2.08387 17.1337 0.612903 16.4911 0.612903 16.2158V9.05636C1.50161 9.54589 3.24839 9.79066 4.90323 9.79066C6.55806 9.79066 8.30484 9.54589 9.19355 9.05636V9.4847ZM4.90323 9.17874C2.08387 9.17874 0.612903 8.53623 0.612903 8.26087C0.612903 7.98551 2.08387 7.343 4.90323 7.343C7.72258 7.343 9.19355 7.98551 9.19355 8.26087C9.19355 8.53623 7.72258 9.17874 4.90323 9.17874ZM9.80645 15.2979V8.26087C9.80645 7.67955 9.04032 7.2818 7.96774 7.03704V4.61997C7.96774 3.88567 8.24355 3.18196 8.76452 2.66184L9.40806 2.01932L10.1742 3.57971C10.3274 3.88567 10.3887 4.19163 10.3887 4.52818V15.2979H9.80645ZM18.3871 15.2979H11.0323V14.686H18.3871V15.2979ZM18.3871 14.0741H11.0323V4.55878C11.0323 4.13043 10.9403 3.73269 10.7565 3.33494L10.6032 3.05958H17.9274C18.2339 3.48792 18.3871 4.00805 18.3871 4.52818V14.0741Z" fill="#1B4568"/>
<path d="M17.4677 4.89526H12.5645C12.3806 4.89526 12.2581 5.01765 12.2581 5.20122V11.3204C12.2581 11.504 12.3806 11.6263 12.5645 11.6263H17.4677C17.6516 11.6263 17.7742 11.504 17.7742 11.3204V5.20122C17.7742 5.01765 17.6516 4.89526 17.4677 4.89526ZM17.1613 11.0144H12.871V6.73101H17.1613V11.0144ZM17.1613 6.1191H12.871V5.50718H17.1613V6.1191Z" fill="#1B4568"/>
<path d="M5.8226 7.95483H3.98389V8.56675H5.8226V7.95483Z" fill="#1B4568"/>
<path d="M4.90327 11.6265C3.55489 11.6265 2.45166 12.7279 2.45166 14.0741C2.45166 15.4203 3.55489 16.5218 4.90327 16.5218C6.25166 16.5218 7.35489 15.4203 7.35489 14.0741C7.35489 12.7279 6.25166 11.6265 4.90327 11.6265ZM4.90327 15.9099C3.89198 15.9099 3.06456 15.0838 3.06456 14.0741C3.06456 13.0645 3.89198 12.2384 4.90327 12.2384C5.91456 12.2384 6.74198 13.0645 6.74198 14.0741C6.74198 15.0838 5.91456 15.9099 4.90327 15.9099Z" fill="#1B4568"/>
</svg>
