<svg width="17" height="18" viewBox="0 0 17 18" fill="none" xmlns="http://www.w3.org/2000/svg">
<path d="M13.175 4.48622C13.0504 4.48622 12.9292 4.43821 12.8392 4.34903L12.1884 3.70423C12.0015 3.51902 12.0015 3.22062 12.1884 3.03884C12.3753 2.85363 12.6765 2.85363 12.86 3.03884L13.175 3.35095L14.1408 2.39403C14.3277 2.20882 14.6254 2.20882 14.8123 2.39403C14.9992 2.57924 14.9992 2.87764 14.8123 3.05942L13.5107 4.34903C13.4242 4.43821 13.3031 4.48622 13.175 4.48622Z" fill="#1B4568"/>
<path d="M13.175 15.1256C13.0504 15.1256 12.9292 15.0776 12.8392 14.9884L12.1884 14.3436C12.0015 14.1584 12.0015 13.86 12.1884 13.6782C12.3753 13.493 12.6765 13.493 12.86 13.6782L13.175 13.9904L14.1408 13.0334C14.3277 12.8482 14.6254 12.8482 14.8123 13.0334C14.9992 13.2186 14.9992 13.517 14.8123 13.6988L13.5107 14.9884C13.4242 15.0776 13.3031 15.1256 13.175 15.1256Z" fill="#1B4568"/>
<path d="M13.175 11.579C13.0504 11.579 12.9292 11.531 12.8392 11.4418L12.1884 10.797C12.0015 10.6118 12.0015 10.3134 12.1884 10.1316C12.3753 9.9464 12.6765 9.9464 12.86 10.1316L13.175 10.4437L14.1408 9.48681C14.3277 9.3016 14.6254 9.3016 14.8123 9.48681C14.9992 9.67202 14.9992 9.97041 14.8123 10.1522L13.5107 11.4418C13.4242 11.531 13.3031 11.579 13.175 11.579Z" fill="#1B4568"/>
<path d="M13.175 8.03261C13.0504 8.03261 12.9292 7.98459 12.8392 7.89542L12.1884 7.25061C12.0015 7.0654 12.0015 6.76701 12.1884 6.58523C12.3753 6.40002 12.6765 6.40002 12.86 6.58523L13.175 6.89734L14.1408 5.94042C14.3277 5.75521 14.6254 5.75521 14.8123 5.94042C14.9992 6.12563 14.9992 6.42403 14.8123 6.60581L13.5107 7.89542C13.4242 7.98459 13.3031 8.03261 13.175 8.03261Z" fill="#1B4568"/>
<path d="M10.5926 4.16389H5.4209C5.15781 4.16389 4.94666 3.95467 4.94666 3.69401C4.94666 3.43334 5.15781 3.22412 5.4209 3.22412H10.5926C10.8556 3.22412 11.0668 3.43334 11.0668 3.69401C11.0703 3.95467 10.8556 4.16389 10.5926 4.16389Z" fill="#1B4568"/>
<path d="M10.5926 7.71028H5.4209C5.15781 7.71028 4.94666 7.50106 4.94666 7.24039C4.94666 6.97973 5.15781 6.77051 5.4209 6.77051H10.5926C10.8556 6.77051 11.0668 6.97973 11.0668 7.24039C11.0668 7.50106 10.8556 7.71028 10.5926 7.71028Z" fill="#1B4568"/>
<path d="M10.7725 11.2567H7.54977C7.38708 11.2567 7.25208 11.0474 7.25208 10.7868C7.25208 10.5261 7.38362 10.3169 7.54977 10.3169H10.7725C10.9352 10.3169 11.0702 10.5261 11.0702 10.7868C11.0702 11.0474 10.9352 11.2567 10.7725 11.2567Z" fill="#1B4568"/>
<path d="M10.7725 14.8031H7.54977C7.38708 14.8031 7.25208 14.5938 7.25208 14.3332C7.25208 14.0725 7.38362 13.8633 7.54977 13.8633H10.7725C10.9352 13.8633 11.0702 14.0725 11.0702 14.3332C11.0702 14.5938 10.9352 14.8031 10.7725 14.8031Z" fill="#1B4568"/>
<path d="M16.5223 0H3.50659C3.24351 0 3.03235 0.209219 3.03235 0.469885V10.142H3.98429V0.9432H16.048V16.765H6.95436V17.7082H16.5257C16.7888 17.7082 17 17.4989 17 17.2383V0.469885C16.9965 0.209219 16.7853 0 16.5223 0Z" fill="#1B4568"/>
<path d="M6.81938 12.5256L6.3313 11.0748C6.29668 10.9753 6.20322 10.9102 6.09937 10.9102H0.730401C0.626553 10.9102 0.533089 10.9753 0.498473 11.0748L0.0138465 12.5256C0.00692323 12.5496 0.00346162 12.5702 0 12.5942C0 12.5976 0 12.5976 0 12.6011V12.8411C0 13.2184 0.180004 13.5751 0.488088 13.8015C0.488088 13.8049 0.488088 13.8049 0.488088 13.8084V16.9501C0.488088 17.3514 0.816941 17.6738 1.21849 17.6738H5.61128C6.01629 17.6738 6.34168 17.3479 6.34168 16.9501V13.8084C6.34168 13.8049 6.34168 13.8049 6.34168 13.8015C6.6463 13.5751 6.82977 13.2184 6.82977 12.8411V12.6011C6.82977 12.5976 6.82977 12.5976 6.82977 12.5942C6.82977 12.5702 6.82631 12.5462 6.81938 12.5256ZM5.12319 11.3938H5.92283L6.24822 12.361H5.12319V11.3938ZM3.65893 11.3938H4.6351V12.361H3.65893V11.3938ZM2.19466 11.3938H3.17084V12.361H2.19466V11.3938ZM0.906944 11.3938H1.70658V12.361H0.581552L0.906944 11.3938ZM3.9047 17.1936H2.92853V15.2592H3.9047V17.1936ZM5.85706 16.9535C5.85706 17.0873 5.74628 17.1936 5.61474 17.1936H4.39625V15.0191C4.39625 14.8853 4.28548 14.779 4.15394 14.779H2.68275C2.54775 14.779 2.44044 14.8887 2.44044 15.0191V17.1936H1.21849C1.08349 17.1936 0.976176 17.0838 0.976176 16.9535V14.0279C1.31888 14.0965 1.67542 14.0176 1.95235 13.8049C2.38852 14.1205 2.98045 14.1205 3.41662 13.8049C3.85278 14.1205 4.44472 14.1205 4.88088 13.8049C5.15781 14.0141 5.51436 14.0965 5.85706 14.0279V16.9535ZM5.61128 13.5683C5.40012 13.5683 5.19935 13.4757 5.06434 13.3179C4.97434 13.2184 4.82203 13.2081 4.72164 13.2939C4.71472 13.3007 4.70434 13.3076 4.69741 13.3179C4.42741 13.6163 3.96009 13.6437 3.65893 13.3728C3.63816 13.3556 3.62085 13.335 3.60354 13.3179C3.50662 13.2184 3.34738 13.2116 3.247 13.3076C3.24353 13.311 3.24007 13.3145 3.23661 13.3179C2.96661 13.6163 2.49929 13.6437 2.19813 13.3728C2.17736 13.3556 2.16005 13.335 2.14274 13.3179C2.04582 13.2184 1.88658 13.2116 1.78619 13.3076C1.78273 13.311 1.77927 13.3145 1.77581 13.3179C1.63734 13.4757 1.44003 13.5683 1.22887 13.5683C0.823865 13.5683 0.498473 13.2424 0.498473 12.8446H6.35553C6.34514 13.2424 6.01629 13.5683 5.61128 13.5683Z" fill="#1B4568"/>
</svg>
