<svg width="19" height="19" viewBox="0 0 19 19" fill="none" xmlns="http://www.w3.org/2000/svg">
<path d="M16.0313 17.6641H6.53131C6.09826 17.6641 5.68295 17.492 5.37674 17.1858C5.07052 16.8796 4.8985 16.4643 4.8985 16.0313V15.7641C3.88547 15.5294 2.9818 14.9584 2.33479 14.1444C1.68778 13.3303 1.33557 12.3211 1.33557 11.2813C1.33557 10.2414 1.68778 9.23218 2.33479 8.41812C2.9818 7.60406 3.88547 7.03315 4.8985 6.79844V2.96875C4.8985 2.5357 5.07052 2.12039 5.37674 1.81418C5.68295 1.50797 6.09826 1.33594 6.53131 1.33594H13.1635C13.3787 1.33554 13.5918 1.37784 13.7906 1.4604C13.9893 1.54295 14.1697 1.66412 14.3213 1.81688L17.1832 4.67875C17.3396 4.83383 17.4628 5.01904 17.5455 5.22317C17.6281 5.42729 17.6685 5.64607 17.6641 5.86625V16.0313C17.6641 16.4643 17.4921 16.8796 17.1859 17.1858C16.8797 17.492 16.4644 17.6641 16.0313 17.6641ZM5.78912 15.8828V16.0313C5.78912 16.2281 5.86731 16.4169 6.0065 16.5561C6.14569 16.6952 6.33447 16.7734 6.53131 16.7734H16.0313C16.2281 16.7734 16.4169 16.6952 16.5561 16.5561C16.6953 16.4169 16.7735 16.2281 16.7735 16.0313V6.38282H14.2501C13.817 6.38282 13.4017 6.21079 13.0955 5.90458C12.7893 5.59836 12.6172 5.18305 12.6172 4.75V2.22657H6.53131C6.33447 2.22657 6.14569 2.30476 6.0065 2.44395C5.86731 2.58313 5.78912 2.77191 5.78912 2.96875V6.67969H5.93756C7.15797 6.67969 8.32839 7.1645 9.19135 8.02746C10.0543 8.89042 10.5391 10.0608 10.5391 11.2813C10.5391 12.5017 10.0543 13.6721 9.19135 14.535C8.32839 15.398 7.15797 15.8828 5.93756 15.8828H5.78912ZM5.93756 7.57032C5.2036 7.57032 4.48613 7.78796 3.87587 8.19572C3.26561 8.60348 2.78997 9.18305 2.5091 9.86114C2.22823 10.5392 2.15474 11.2854 2.29793 12.0052C2.44111 12.7251 2.79455 13.3863 3.31353 13.9053C3.83251 14.4243 4.49374 14.7777 5.21359 14.9209C5.93344 15.0641 6.67959 14.9906 7.35767 14.7097C8.03576 14.4288 8.61533 13.9532 9.02309 13.3429C9.43085 12.7327 9.6485 12.0152 9.6485 11.2813C9.6485 10.2971 9.25752 9.35316 8.56159 8.65722C7.86565 7.96129 6.92176 7.57032 5.93756 7.57032ZM13.5079 2.30969V4.75C13.5079 4.94684 13.5861 5.13562 13.7253 5.27481C13.8644 5.414 14.0532 5.49219 14.2501 5.49219H16.6904C16.6536 5.42478 16.6077 5.36283 16.5538 5.30813L13.6919 2.44625C13.6372 2.39239 13.5753 2.34643 13.5079 2.30969ZM14.8438 13.5078H11.8751C11.757 13.5078 11.6437 13.4609 11.5602 13.3774C11.4767 13.2939 11.4297 13.1806 11.4297 13.0625C11.4297 12.9444 11.4767 12.8311 11.5602 12.7476C11.6437 12.6641 11.757 12.6172 11.8751 12.6172H14.8438C14.9619 12.6172 15.0752 12.6641 15.1587 12.7476C15.2422 12.8311 15.2891 12.9444 15.2891 13.0625C15.2891 13.1806 15.2422 13.2939 15.1587 13.3774C15.0752 13.4609 14.9619 13.5078 14.8438 13.5078ZM7.12506 12.9141C7.06655 12.9143 7.00858 12.9029 6.95454 12.8805C6.9005 12.8581 6.85148 12.8251 6.81037 12.7834L5.93756 11.9106L5.06475 12.7834C4.98033 12.8621 4.86868 12.9049 4.75331 12.9029C4.63794 12.9009 4.52787 12.8541 4.44628 12.7725C4.36469 12.6909 4.31796 12.5809 4.31592 12.4655C4.31389 12.3501 4.35671 12.2385 4.43537 12.1541L5.30818 11.2813L4.43537 10.4084C4.35671 10.324 4.31389 10.2124 4.31592 10.097C4.31796 9.98164 4.36469 9.87157 4.44628 9.78998C4.52787 9.70839 4.63794 9.66165 4.75331 9.65962C4.86868 9.65758 4.98033 9.70041 5.06475 9.77907L5.93756 10.6519L6.81037 9.77907C6.89479 9.70041 7.00644 9.65758 7.12181 9.65962C7.23717 9.66165 7.34724 9.70839 7.42883 9.78998C7.51042 9.87157 7.55716 9.98164 7.55919 10.097C7.56123 10.2124 7.51841 10.324 7.43975 10.4084L6.56693 11.2813L7.43975 12.1541C7.52314 12.2376 7.56998 12.3507 7.56998 12.4688C7.56998 12.5868 7.52314 12.6999 7.43975 12.7834C7.39863 12.8251 7.34962 12.8581 7.29558 12.8805C7.24154 12.9029 7.18357 12.9143 7.12506 12.9141ZM14.8438 11.1328H12.4688C12.3507 11.1328 12.2374 11.0859 12.1539 11.0024C12.0704 10.9189 12.0235 10.8056 12.0235 10.6875C12.0235 10.5694 12.0704 10.4561 12.1539 10.3726C12.2374 10.2891 12.3507 10.2422 12.4688 10.2422H14.8438C14.9619 10.2422 15.0752 10.2891 15.1587 10.3726C15.2422 10.4561 15.2891 10.5694 15.2891 10.6875C15.2891 10.8056 15.2422 10.9189 15.1587 11.0024C15.0752 11.0859 14.9619 11.1328 14.8438 11.1328ZM14.8438 8.75782H11.8751C11.757 8.75782 11.6437 8.7109 11.5602 8.62739C11.4767 8.54387 11.4297 8.43061 11.4297 8.3125C11.4297 8.1944 11.4767 8.08113 11.5602 7.99762C11.6437 7.91411 11.757 7.86719 11.8751 7.86719H14.8438C14.9619 7.86719 15.0752 7.91411 15.1587 7.99762C15.2422 8.08113 15.2891 8.1944 15.2891 8.3125C15.2891 8.43061 15.2422 8.54387 15.1587 8.62739C15.0752 8.7109 14.9619 8.75782 14.8438 8.75782ZM10.6876 6.38282H8.90631C8.7882 6.38282 8.67494 6.3359 8.59142 6.25239C8.50791 6.16887 8.461 6.05561 8.461 5.9375C8.461 5.8194 8.50791 5.70613 8.59142 5.62262C8.67494 5.53911 8.7882 5.49219 8.90631 5.49219H10.6876C10.8057 5.49219 10.9189 5.53911 11.0024 5.62262C11.086 5.70613 11.1329 5.8194 11.1329 5.9375C11.1329 6.05561 11.086 6.16887 11.0024 6.25239C10.9189 6.3359 10.8057 6.38282 10.6876 6.38282Z" fill="#1B4568"/>
</svg>
