<svg width="31" height="32" viewBox="0 0 31 32" fill="none" xmlns="http://www.w3.org/2000/svg">
<path d="M22.6396 27.7566C24.9544 27.7566 26.8359 25.875 26.8359 23.5603C26.8359 21.2456 24.9544 19.364 22.6396 19.364C20.3249 19.364 18.4434 21.2456 18.4434 23.5603C18.4434 25.875 20.3249 27.7566 22.6396 27.7566ZM22.6396 20.4402C24.3588 20.4402 25.753 21.8412 25.753 23.5535C25.753 25.2659 24.352 26.6669 22.6396 26.6669C20.9273 26.6669 19.5263 25.2659 19.5263 23.5535C19.5263 21.8412 20.9205 20.4402 22.6396 20.4402Z" fill="#ACCBE6"/>
<path d="M0.85957 26.5651H17.3469C18.396 28.4061 20.379 29.6514 22.6396 29.6514C23.7496 29.6514 24.819 29.3536 25.7665 28.7851L27.7834 30.802C28.0677 31.0863 28.4399 31.2352 28.8325 31.2352C29.2251 31.2352 29.6041 31.0795 29.8816 30.802C30.4636 30.22 30.4636 29.2792 29.8816 28.6971L27.8646 26.6802C28.4332 25.7394 28.731 24.6633 28.731 23.5601C28.731 20.203 25.9966 17.4687 22.6396 17.4687C21.0288 17.4687 19.5668 18.0981 18.4772 19.1201C17.0694 17.6041 15.2149 16.6227 13.1777 16.3113V15.3638C15.1134 14.4907 16.4941 12.6091 16.6498 10.3892C17.4416 10.0778 17.9763 9.31303 17.9763 8.42639C17.9763 8.12859 17.9086 7.83756 17.7936 7.5736C17.9492 7.47885 18.0575 7.30964 18.0575 7.11337V3.93232C18.0575 2.51777 16.9069 1.36041 15.4856 1.36041H15.4721C15.1201 0.56176 14.3215 0 13.3943 0H5.94925C4.7039 0 3.68867 1.01523 3.68867 2.26058C3.68867 2.51777 3.73605 2.76142 3.8105 2.98477C3.41795 3.39086 3.18783 3.93909 3.18783 4.52115V7.11337C3.18783 7.30964 3.29612 7.47885 3.45179 7.5736C3.33673 7.83756 3.26905 8.12859 3.26905 8.42639C3.26905 9.30626 3.80373 10.0778 4.59561 10.3892C4.75128 12.6836 6.22674 14.6125 8.2572 15.4518V16.2775C3.76989 16.8731 0.318115 20.7716 0.318115 25.3536V26.0237C0.318115 26.3215 0.56177 26.5651 0.85957 26.5651ZM22.6396 18.5448C25.401 18.5448 27.6481 20.7919 27.6481 23.5533C27.6481 24.5888 27.33 25.5905 26.7276 26.4365C26.5787 26.6531 26.599 26.9442 26.7885 27.1337L29.1168 29.4619C29.2724 29.6176 29.2724 29.8748 29.1168 30.0372C28.9611 30.1929 28.6971 30.1929 28.5415 30.0372L26.2132 27.709C26.1117 27.6074 25.9696 27.5533 25.8274 27.5533C25.7191 27.5533 25.6108 27.5871 25.5161 27.6548C24.6701 28.2572 23.6684 28.5753 22.6328 28.5753C19.8714 28.5753 17.6244 26.3283 17.6244 23.5668C17.6244 20.8054 19.8782 18.5448 22.6396 18.5448ZM15.6481 2.45685C16.3926 2.53807 16.9746 3.16751 16.9746 3.93232V6.57191H15.9256C15.4112 6.57191 14.9916 6.15228 14.9916 5.6379V3.86464C15.357 3.49915 15.6007 3.00508 15.6481 2.45685ZM5.94925 1.08291H13.3943C14.044 1.08291 14.5719 1.61083 14.5719 2.26058C14.5719 2.91032 14.044 3.43824 13.3943 3.43824H5.94925C5.2995 3.43824 4.77158 2.91032 4.77158 2.26058C4.77158 1.61083 5.2995 1.08291 5.94925 1.08291ZM4.27074 6.57191V4.52115C4.27074 4.31134 4.33165 4.10829 4.43994 3.93232C4.81896 4.27073 5.30627 4.48731 5.84773 4.51438V5.6379C5.84773 6.15228 5.4281 6.57191 4.91372 6.57191H4.27074ZM5.66498 9.97631C5.66498 9.71235 5.47548 9.48223 5.21152 9.44162C4.71067 9.3604 4.35196 8.93401 4.35196 8.42639C4.35196 8.12859 4.48055 7.84433 4.7039 7.65482H4.90695C6.0237 7.65482 6.92387 6.74788 6.92387 5.6379V4.52115H13.3943C13.5702 4.52115 13.7394 4.50085 13.8951 4.46024V5.6379C13.8951 6.75465 14.802 7.65482 15.912 7.65482H16.5347C16.758 7.8511 16.8866 8.12859 16.8866 8.42639C16.8866 8.93401 16.5279 9.3604 16.0271 9.44162C15.7631 9.48223 15.5736 9.71235 15.5736 9.97631C15.5736 12.643 13.4078 14.8088 10.7411 14.8088H10.4907C7.83081 14.8088 5.66498 12.643 5.66498 9.97631ZM10.4975 15.8917H10.7479C11.2081 15.8917 11.6616 15.8308 12.088 15.7293V17.3536C12.088 18.1117 11.4721 18.7276 10.7141 18.7276C9.95602 18.7276 9.34011 18.1117 9.34011 17.3536V15.7699C9.71913 15.8511 10.1049 15.8917 10.4975 15.8917ZM1.40103 25.3536C1.40103 21.3672 4.37226 17.9628 8.26397 17.3739C8.27074 18.7208 9.36718 19.8173 10.7208 19.8173C12.0609 19.8173 13.1506 18.7411 13.1777 17.401C14.9442 17.7056 16.5415 18.5922 17.753 19.9255C17.0017 20.9408 16.555 22.1929 16.555 23.5533C16.555 24.2233 16.6633 24.8731 16.8663 25.4755H1.40103V25.3536Z" fill="#ACCBE6"/>
</svg>
