<svg width="37" height="37" viewBox="0 0 37 37" fill="none" xmlns="http://www.w3.org/2000/svg">
<path d="M35.8354 28.3387H35.4025C35.3875 28.3387 35.3726 28.3315 35.3651 28.3099C35.2756 28.057 35.1711 27.8114 35.0516 27.573C35.0441 27.5586 35.0441 27.5441 35.0591 27.5297L35.3651 27.2335C35.5816 27.024 35.7011 26.7423 35.7011 26.4461C35.7011 26.15 35.5816 25.8682 35.3651 25.6587L34.4395 24.763C34.223 24.5535 33.9319 24.4379 33.6258 24.4379C33.3197 24.4379 33.0286 24.5535 32.8121 24.763L32.506 25.0592C32.4986 25.0664 32.4762 25.0736 32.4612 25.0664C32.2149 24.9508 31.9611 24.8497 31.6998 24.763C31.6849 24.7558 31.6699 24.7413 31.6699 24.7269V24.3079C31.6699 23.6939 31.1548 23.1882 30.5128 23.1882H30.0351C29.5573 22.8704 29.0273 22.632 28.4674 22.4803L21.704 20.6599C21.4876 20.6021 21.2636 20.6166 21.062 20.7033C20.8978 20.4866 20.8008 20.2121 20.8008 19.952V18.1388C21.1218 17.9438 21.4278 17.7199 21.7264 17.467C23.0179 16.3907 23.8316 14.8376 24.0033 13.14C24.9514 13.1039 25.7053 12.3526 25.7053 11.428V10.1277C25.7053 9.54982 25.4142 9.02971 24.9439 8.71909L25.0335 8.40125C25.0484 8.35068 25.0559 8.30012 25.0559 8.24955V5.80071C25.0559 5.50453 24.8021 5.25893 24.496 5.25893C24.1899 5.25893 23.9361 5.50453 23.9361 5.80071V7.49828C21.5846 6.73257 19.1808 6.34249 16.7771 6.34249C14.3733 6.34249 11.977 6.73257 9.61808 7.49828V4.66658C9.61808 3.43855 10.4766 2.38388 11.7083 2.10216L15.6349 1.19919C16.2844 1.04749 16.9786 1.04749 17.6281 1.19197L21.8086 2.11661C22.6073 2.2972 23.2792 2.80286 23.6375 3.51801C23.7719 3.78529 24.1078 3.89364 24.3915 3.76362C24.6677 3.63359 24.7797 3.30852 24.6453 3.03402C24.1302 2.02992 23.1896 1.31477 22.0624 1.06194L17.8819 0.137303C17.0608 -0.050514 16.1948 -0.0432903 15.3737 0.144527L11.447 1.04749C9.70766 1.4448 8.49085 2.93289 8.49085 4.66658V8.24955C8.49085 8.27845 8.49085 8.30012 8.49831 8.32901C8.49831 8.32901 8.49831 8.32901 8.49831 8.33624V8.34346V8.35068C8.49831 8.37236 8.50578 8.39403 8.51324 8.40847L8.59536 8.71187C8.12506 9.02249 7.83392 9.5426 7.83392 10.1205V11.4208C7.83392 12.3454 8.59536 13.0967 9.53596 13.1328C9.70766 14.8304 10.5214 16.3835 11.8128 17.4598C12.1114 17.7054 12.4175 17.9294 12.7385 18.1316V19.9448C12.7385 20.2048 12.634 20.4793 12.4772 20.696C12.2756 20.6166 12.0517 20.5949 11.8352 20.6527L5.07184 22.4875C3.12346 23.0149 1.6379 24.6041 1.30198 26.5328L1.0183 28.1365C0.966047 28.4327 1.1676 28.7144 1.47367 28.7649C1.50353 28.7722 1.54086 28.7722 1.57072 28.7722C1.83946 28.7722 2.07834 28.5844 2.12313 28.3243L2.40681 26.7206C2.67555 25.2036 3.8401 23.9539 5.37791 23.535L8.58043 22.6681L11.671 26.0777C11.6784 26.0849 11.6859 26.0922 11.6934 26.0994C11.6934 26.0994 11.6934 26.1066 11.7008 26.1066C11.7083 26.1138 11.7083 26.1211 11.7158 26.1211C11.7232 26.1283 11.7307 26.1355 11.7382 26.1427C11.7382 26.1427 11.7382 26.1427 11.7456 26.15L11.7606 26.1644C11.7606 26.1644 11.7606 26.1644 11.768 26.1644C11.7755 26.1716 11.783 26.1789 11.7904 26.1861C11.7904 26.1861 11.7904 26.1861 11.7979 26.1933C11.8053 26.2005 11.8053 26.2005 11.8128 26.2077C11.8128 26.2077 11.8128 26.2077 11.8203 26.215C11.8277 26.2222 11.8352 26.2294 11.8427 26.2366C11.8501 26.2439 11.8576 26.2439 11.8576 26.2511C11.8576 26.2511 11.8651 26.2511 11.8651 26.2583C11.8725 26.2655 11.88 26.2728 11.8875 26.28C11.8949 26.2872 11.9024 26.2944 11.9099 26.2944C11.9099 26.2944 11.9173 26.2944 11.9173 26.3017C11.9248 26.3089 11.9323 26.3089 11.9397 26.3161C11.9472 26.3233 11.9546 26.3306 11.9621 26.3306C11.9621 26.3306 11.9696 26.3306 11.9696 26.3378C11.977 26.345 11.9845 26.345 11.9845 26.3522C11.9845 26.3522 11.9845 26.3522 11.992 26.3594C11.9994 26.3667 12.0069 26.3667 12.0144 26.3739C12.0144 26.3739 12.0218 26.3739 12.0218 26.3811C12.0293 26.3883 12.0293 26.3883 12.0368 26.3956C12.0368 26.3956 12.0442 26.3956 12.0442 26.4028C12.0517 26.41 12.0592 26.41 12.0666 26.4172C12.0666 26.4172 12.0741 26.4172 12.0741 26.4245C12.0816 26.4317 12.089 26.4317 12.089 26.4389C12.089 26.4389 12.0965 26.4389 12.0965 26.4461C12.104 26.4534 12.1114 26.4534 12.1189 26.4606C12.1189 26.4606 12.1189 26.4606 12.1263 26.4606C12.1338 26.4678 12.1413 26.4678 12.1487 26.475C12.1487 26.475 12.1562 26.475 12.1562 26.4823C12.1637 26.4895 12.1711 26.4895 12.1711 26.4967C12.1711 26.4967 12.1786 26.4967 12.1786 26.5039C12.1861 26.5111 12.1935 26.5111 12.201 26.5184L12.2085 26.5256C12.2159 26.5256 12.2159 26.5328 12.2234 26.5328C12.2234 26.5328 12.2309 26.5328 12.2309 26.54C12.2383 26.5473 12.2458 26.5473 12.2533 26.5545C12.2533 26.5545 12.2607 26.5545 12.2607 26.5617C12.2682 26.5617 12.2682 26.5689 12.2756 26.5689L12.2831 26.5762C12.2906 26.5834 12.298 26.5834 12.3055 26.5906L12.313 26.5978C12.3204 26.5978 12.3204 26.6051 12.3279 26.6051L12.3354 26.6123C12.3428 26.6123 12.3428 26.6195 12.3503 26.6195C12.3578 26.6195 12.3578 26.6267 12.3652 26.6267C12.3727 26.6267 12.3727 26.6339 12.3802 26.6339C12.3876 26.6339 12.3876 26.6412 12.3951 26.6412C12.4026 26.6412 12.4026 26.6484 12.41 26.6484C12.4175 26.6484 12.4249 26.6556 12.4324 26.6556C12.4399 26.6556 12.4399 26.6628 12.4473 26.6628C12.4548 26.6628 12.4548 26.6701 12.4623 26.6701C12.4697 26.6701 12.4697 26.6701 12.4772 26.6773C12.4847 26.6773 12.4921 26.6845 12.4921 26.6845C12.4996 26.6845 12.4996 26.6917 12.5071 26.6917C12.5145 26.6917 12.5145 26.699 12.522 26.699C12.522 26.699 12.5295 26.699 12.5295 26.7062C12.5369 26.7062 12.5369 26.7134 12.5444 26.7134C12.5444 26.7134 12.5444 26.7134 12.5519 26.7134C12.5593 26.7206 12.5743 26.7206 12.5817 26.7279H12.5892C12.5966 26.7279 12.5966 26.7351 12.6041 26.7351C12.6041 26.7351 12.6116 26.7351 12.6116 26.7423C12.619 26.7423 12.6265 26.7495 12.6414 26.7495H12.6489C12.6564 26.7495 12.6564 26.7568 12.6638 26.7568H12.6713C12.6788 26.764 12.6937 26.764 12.7012 26.7712C12.7086 26.7712 12.7161 26.7784 12.7161 26.7784H12.7236C12.7385 26.7856 12.7609 26.7929 12.7758 26.7929C12.7758 26.7929 12.7758 26.7929 12.7833 26.7929C12.8057 26.8001 12.8206 26.8001 12.8355 26.8073C12.8355 26.8073 12.8355 26.8073 12.843 26.8073C12.8654 26.8145 12.8803 26.8145 12.9027 26.8218C12.9102 26.8218 12.9176 26.8218 12.9251 26.829C12.94 26.829 12.9475 26.8362 12.9624 26.8362C12.9699 26.8362 12.9774 26.8362 12.9848 26.8434C13.0072 26.8507 13.0222 26.8507 13.0445 26.8579C13.0445 26.8579 13.0445 26.8579 13.052 26.8579C13.0744 26.8579 13.0893 26.8651 13.1117 26.8651C13.1117 26.8651 13.1117 26.8651 13.1192 26.8651C13.1416 26.8651 13.1565 26.8723 13.1789 26.8723C13.1864 26.8723 13.1939 26.8723 13.2013 26.8723C13.2162 26.8723 13.2312 26.8723 13.2386 26.8796C13.2461 26.8796 13.2536 26.8796 13.261 26.8796C13.2834 26.8796 13.2984 26.8796 13.3208 26.8868C13.3208 26.8868 13.3208 26.8868 13.3282 26.8868C13.3506 26.8868 13.3655 26.8868 13.3879 26.8868H13.3954C13.4178 26.8868 13.4327 26.8868 13.4551 26.8868H13.4626H13.4701C13.5372 26.8868 13.6044 26.8868 13.6716 26.8796C13.6865 26.8796 13.7015 26.8796 13.7164 26.8723C13.7612 26.8651 13.7985 26.8651 13.8433 26.8579C13.8508 26.8579 13.8582 26.8579 13.8582 26.8579C13.8582 26.8579 13.8582 26.8579 13.8657 26.8579C13.8732 26.8579 13.8806 26.8579 13.8806 26.8579C13.8806 26.8579 13.8806 26.8579 13.8881 26.8579C13.8956 26.8579 13.8956 26.8579 13.903 26.8579H13.9105C13.918 26.8579 13.918 26.8579 13.9254 26.8579H13.9329C13.9404 26.8579 13.9404 26.8579 13.9478 26.8579H13.9553C13.9628 26.8579 13.9628 26.8579 13.9702 26.8579C13.9702 26.8579 13.9702 26.8579 13.9777 26.8579C13.9926 26.8507 14.015 26.8507 14.0299 26.8434H14.0374C14.0449 26.8434 14.0449 26.8434 14.0523 26.8434H14.0598C14.0673 26.8434 14.0673 26.8434 14.0747 26.8434H14.0822C14.0897 26.8434 14.0897 26.8434 14.0971 26.8434C14.1046 26.8434 14.1046 26.8434 14.1121 26.8434H14.1195H14.127H14.1345C14.1419 26.8434 14.1419 26.8434 14.1494 26.8362H14.1568C14.1643 26.8362 14.1643 26.8362 14.1718 26.829H14.1792C14.1867 26.829 14.1867 26.829 14.1942 26.8218H14.2016C14.2091 26.8218 14.2166 26.8145 14.224 26.8145L16.8219 25.9549L19.4197 26.8145C19.4272 26.8145 19.4347 26.8218 19.4421 26.8218H19.4496C19.4571 26.8218 19.4571 26.8218 19.4645 26.829H19.472L19.4869 26.8362H19.4944C19.5018 26.8362 19.5018 26.8362 19.5093 26.8434H19.5168C19.5242 26.8434 19.5242 26.8434 19.5317 26.8434C19.5392 26.8434 19.5392 26.8434 19.5392 26.8434C19.5466 26.8434 19.5466 26.8434 19.5541 26.8434C19.5616 26.8434 19.5616 26.8434 19.569 26.8434H19.5765C19.584 26.8434 19.584 26.8434 19.5914 26.8434C19.5989 26.8434 19.5989 26.8434 19.6064 26.8434C19.6138 26.8434 19.6138 26.8434 19.6138 26.8434H19.6213C19.6362 26.8507 19.6586 26.8507 19.6735 26.8579C19.6735 26.8579 19.6735 26.8579 19.681 26.8579C19.6885 26.8579 19.6885 26.8579 19.6959 26.8579H19.7034C19.7109 26.8579 19.7109 26.8579 19.7183 26.8579H19.7258C19.7333 26.8579 19.7333 26.8579 19.7407 26.8579H19.7482C19.7557 26.8579 19.7557 26.8579 19.7631 26.8579H19.7706C19.7781 26.8579 19.7781 26.8579 19.7855 26.8579H19.793C19.8004 26.8579 19.8004 26.8579 19.8079 26.8579H19.8154C19.8228 26.8579 19.8228 26.8579 19.8303 26.8579H19.8378C19.8527 26.8579 19.8751 26.8651 19.89 26.8651H19.8975C19.905 26.8651 19.905 26.8651 19.9124 26.8651H19.9199C19.9274 26.8651 19.9274 26.8651 19.9348 26.8651H19.9423C19.9498 26.8651 19.9497 26.8651 19.9572 26.8651H19.9647C19.9721 26.8651 19.9721 26.8651 19.9796 26.8651H19.9871C19.9945 26.8651 19.9945 26.8651 20.002 26.8651H20.0095C20.0169 26.8651 20.0169 26.8651 20.0244 26.8651H20.0319C20.0393 26.8651 20.0393 26.8651 20.0468 26.8651C20.0543 26.8651 20.0543 26.8651 20.0617 26.8651H20.0692C20.0767 26.8651 20.0841 26.8651 20.0841 26.8651H20.0916C20.0991 26.8651 20.1065 26.8651 20.114 26.8651H20.1214C20.1289 26.8651 20.1289 26.8651 20.1364 26.8651H20.1438C20.1513 26.8651 20.1513 26.8651 20.1588 26.8651H20.1662H20.1812H20.1886H20.211C20.2185 26.8651 20.2334 26.8651 20.2409 26.8651H20.2484C20.2558 26.8651 20.2633 26.8651 20.2708 26.8651C20.2782 26.8651 20.2931 26.8651 20.3006 26.8651H20.3081C20.3155 26.8651 20.323 26.8651 20.3305 26.8651C20.3305 26.8651 20.3305 26.8651 20.3379 26.8651C20.3603 26.8651 20.3753 26.8651 20.3977 26.8579C20.3977 26.8579 20.3977 26.8579 20.4051 26.8579C20.4275 26.8579 20.4424 26.8507 20.4648 26.8507C20.4872 26.8507 20.5022 26.8434 20.5246 26.8434C20.532 26.8434 20.5395 26.8434 20.5544 26.8362C20.5619 26.8362 20.5768 26.8362 20.5843 26.829C20.5917 26.829 20.6067 26.829 20.6141 26.8218C20.6365 26.8145 20.6515 26.8145 20.6739 26.8073C20.6963 26.8001 20.7112 26.8001 20.7336 26.7929C20.756 26.7856 20.7709 26.7856 20.7933 26.7784C20.8008 26.7784 20.8082 26.7712 20.8232 26.7712C20.8306 26.7712 20.8456 26.764 20.853 26.764C20.8605 26.764 20.868 26.7568 20.8829 26.7568C20.9053 26.7495 20.9202 26.7423 20.9426 26.7423C20.9575 26.7351 20.9799 26.7279 20.9949 26.7206C20.9949 26.7206 20.9949 26.7206 21.0023 26.7206C21.0173 26.7134 21.0397 26.7062 21.0546 26.699C21.0546 26.699 21.0546 26.699 21.062 26.699C21.0695 26.699 21.077 26.6917 21.0844 26.6917C21.0919 26.6845 21.0994 26.6845 21.1143 26.6773C21.1218 26.6773 21.1292 26.6701 21.1367 26.6701C21.1367 26.6701 21.1367 26.6701 21.1442 26.6701C21.1516 26.6628 21.1591 26.6628 21.1666 26.6556C21.174 26.6556 21.1815 26.6484 21.189 26.6484H21.1964C21.2113 26.6412 21.2263 26.6339 21.2487 26.6267H21.2561C21.2636 26.6195 21.2711 26.6195 21.2785 26.6123C21.286 26.6051 21.2935 26.6051 21.3009 26.5978H21.3084C21.3159 26.5906 21.3233 26.5906 21.3308 26.5834C21.3308 26.5834 21.3308 26.5834 21.3383 26.5834C21.3457 26.5762 21.3532 26.5762 21.3607 26.5689C21.3607 26.5689 21.3681 26.5689 21.3681 26.5617C21.3756 26.5617 21.383 26.5545 21.383 26.5545C21.383 26.5545 21.3905 26.5545 21.3905 26.5473C21.398 26.54 21.4054 26.54 21.4129 26.5328H21.4204C21.4278 26.5256 21.4353 26.5256 21.4353 26.5184C21.4353 26.5184 21.4428 26.5184 21.4428 26.5111C21.4502 26.5039 21.4577 26.5039 21.4652 26.4967C21.4726 26.4895 21.4801 26.4895 21.4876 26.4823C21.4876 26.4823 21.495 26.4822 21.495 26.475C21.5025 26.4678 21.51 26.4678 21.5174 26.4606C21.5249 26.4534 21.5323 26.4534 21.5398 26.4461C21.5398 26.4461 21.5473 26.4461 21.5473 26.4389C21.5547 26.4317 21.5547 26.4317 21.5622 26.4245C21.5622 26.4245 21.5697 26.4245 21.5697 26.4172C21.5771 26.41 21.5846 26.41 21.5921 26.4028L21.5995 26.3956C21.607 26.3883 21.607 26.3883 21.6145 26.3811C21.6145 26.3811 21.6219 26.3811 21.6219 26.3739C21.6294 26.3667 21.6369 26.3667 21.6443 26.3594L21.6518 26.3522C21.6593 26.345 21.6593 26.345 21.6667 26.3378L21.6742 26.3306C21.6816 26.3233 21.6891 26.3233 21.6966 26.3161C21.6966 26.3161 21.6966 26.3161 21.704 26.3089C21.7115 26.3017 21.7115 26.3017 21.719 26.2944L21.7264 26.2872C21.7339 26.28 21.7414 26.28 21.7414 26.2728C21.7414 26.2728 21.7414 26.2728 21.7488 26.2655C21.7563 26.2583 21.7638 26.2583 21.7638 26.2511L21.7712 26.2439C21.7787 26.2366 21.7787 26.2366 21.7862 26.2294C21.7862 26.2294 21.7862 26.2294 21.7936 26.2222C21.8011 26.215 21.8086 26.2077 21.816 26.2077L21.8235 26.2005C21.8309 26.1933 21.831 26.1933 21.8384 26.1861L21.8459 26.1789C21.8533 26.1716 21.8608 26.1644 21.8683 26.1572L21.8757 26.15C21.8832 26.1427 21.8832 26.1427 21.8907 26.1355L21.8981 26.1283C21.9056 26.1211 21.9131 26.1138 21.9205 26.1066C21.928 26.0994 21.928 26.0922 21.9355 26.0922L21.9429 26.0849C21.9504 26.0777 21.9579 26.0705 21.9653 26.0633L25.0559 22.6537L28.2584 23.5205C28.3181 23.535 28.3704 23.5494 28.4301 23.5711C28.2509 23.7661 28.1464 24.0262 28.1464 24.3007V24.7197C28.1464 24.7341 28.1389 24.7486 28.1166 24.7558C27.8553 24.8425 27.6015 24.9436 27.3551 25.0592C27.3402 25.0664 27.3253 25.0664 27.3103 25.052L27.0043 24.7558C26.5563 24.3224 25.8248 24.3224 25.3694 24.7558L24.4437 25.6515C23.9958 26.0849 23.9958 26.7929 24.4437 27.2335L24.7498 27.5297C24.7573 27.5369 24.7647 27.5586 24.7573 27.573C24.6378 27.8114 24.5333 28.057 24.4437 28.3099C24.4363 28.3243 24.4213 28.3387 24.4064 28.3387H23.9734C23.3389 28.3387 22.8163 28.8372 22.8163 29.4584V30.7226C22.8163 31.3366 23.3314 31.8423 23.9734 31.8423H24.4064C24.4213 31.8423 24.4363 31.8495 24.4437 31.8712C24.5333 32.124 24.6378 32.3696 24.7573 32.608C24.7647 32.6224 24.7647 32.6369 24.7498 32.6513L24.4437 32.9475C23.9958 33.3809 23.9958 34.0888 24.4437 34.5295L24.7125 34.7895H1.86186C1.6379 34.7895 1.43635 34.6956 1.29451 34.5367C1.15267 34.3706 1.09295 34.1611 1.13028 33.9516L1.67523 30.8671C1.72749 30.5709 1.52593 30.2892 1.21986 30.2386C0.913791 30.188 0.622653 30.3831 0.570397 30.6792L0.0254463 33.7638C-0.0641347 34.2911 0.0851669 34.8257 0.436026 35.2302C0.79435 35.6347 1.30944 35.8731 1.86186 35.8731H28.0568V35.8803C28.0568 36.4943 28.5719 37 29.2139 37H30.5203C31.1548 37 31.6774 36.5016 31.6774 35.8803V35.4613C31.6774 35.4469 31.6849 35.4324 31.7073 35.4252C31.9685 35.3385 32.2223 35.2374 32.4687 35.1218C32.4836 35.1146 32.4986 35.1146 32.5135 35.1291L32.8196 35.4252C33.036 35.6347 33.3272 35.7503 33.6332 35.7503C33.9393 35.7503 34.2305 35.6347 34.4469 35.4252L35.3726 34.5295C35.5891 34.32 35.7085 34.0383 35.7085 33.7421C35.7085 33.4459 35.5891 33.1642 35.3726 32.9547L35.0665 32.6585C35.0591 32.6513 35.0516 32.6296 35.0591 32.6152C35.1785 32.3768 35.2905 32.1312 35.3726 31.8784C35.3801 31.8639 35.395 31.8495 35.4099 31.8495H35.8429C36.4774 31.8495 37 31.351 37 30.7298V29.4656C36.9925 28.8444 36.4774 28.3387 35.8354 28.3387ZM16.7696 7.41882C19.1286 7.41882 21.495 7.81613 23.8092 8.60351L23.6748 9.08028C23.6226 9.26087 23.5106 9.40535 23.3389 9.49203C23.1747 9.57872 22.988 9.60039 22.8089 9.5426C18.8375 8.36513 14.8138 8.35069 10.8349 9.50648C10.7976 9.52093 10.7602 9.52815 10.7154 9.5426C10.5363 9.59317 10.3497 9.57872 10.1854 9.49203C10.1481 9.47036 10.1182 9.44869 10.0809 9.42702C10.0734 9.4198 10.066 9.41257 10.0511 9.40535C10.0436 9.39812 10.0361 9.3909 10.0287 9.38368C9.93908 9.30422 9.87936 9.19586 9.84949 9.08028L9.83457 9.01527L9.78977 8.86357L9.71512 8.60351C12.0442 7.81613 14.4107 7.41882 16.7696 7.41882ZM12.5519 16.6435C11.3649 15.6539 10.6707 14.1802 10.6333 12.5838C10.6259 12.2876 10.3795 12.0565 10.0734 12.0565H9.61808C9.25975 12.0565 8.96861 11.7747 8.96861 11.428V10.1277C8.96861 10.041 8.99101 9.95435 9.02834 9.87489C9.02834 9.87489 9.02834 9.87489 9.02834 9.88212L9.0358 9.88934C9.0358 9.89656 9.04327 9.89656 9.04327 9.89656L9.05073 9.90379C9.05073 9.91101 9.0582 9.91101 9.0582 9.91823C9.06566 9.92546 9.06566 9.92546 9.07313 9.93268L9.08059 9.93991C9.08059 9.94713 9.08806 9.94713 9.08806 9.94713L9.09552 9.95435L9.10299 9.96158L9.11045 9.9688L9.11792 9.97602L9.12538 9.98325C9.12538 9.99047 9.13285 9.99047 9.13285 9.99769L9.14031 10.0049C9.14778 10.0121 9.14778 10.0194 9.15524 10.0194L9.16271 10.0266C9.16271 10.0338 9.17017 10.0338 9.17017 10.0338L9.17764 10.041L9.1851 10.0483L9.19257 10.0555L9.20003 10.0627L9.2075 10.0699C9.21496 10.0772 9.21496 10.0772 9.22243 10.0844C9.22243 10.0844 9.22243 10.0916 9.22989 10.0916C9.23736 10.0988 9.23736 10.1061 9.24482 10.1061L9.25229 10.1133L9.25975 10.1205L9.26722 10.1277L9.27468 10.1349L9.28215 10.1422L9.28961 10.1494L9.29708 10.1566L9.30454 10.1638C9.31201 10.1711 9.31201 10.1711 9.31947 10.1783L9.32694 10.1855C9.3344 10.1855 9.3344 10.1927 9.3344 10.1927L9.34187 10.2L9.34933 10.2072L9.3568 10.2144L9.36426 10.2216L9.37173 10.2289C9.37919 10.2289 9.3792 10.2361 9.38666 10.2361L9.39412 10.2433C9.40159 10.2505 9.40905 10.2577 9.41652 10.2577L9.42399 10.265C9.43145 10.265 9.43145 10.2722 9.43892 10.2722L9.44638 10.2794C9.45385 10.2794 9.45385 10.2866 9.46131 10.2866L9.46878 10.2939C9.47624 10.2939 9.47624 10.3011 9.48371 10.3011C9.48371 10.3011 9.49117 10.3011 9.49117 10.3083C9.49864 10.3083 9.49864 10.3155 9.5061 10.3155C9.5061 10.3155 9.5061 10.3155 9.51357 10.3155C9.5285 10.3228 9.53596 10.33 9.55089 10.3372C9.55836 10.3372 9.55836 10.3444 9.56582 10.3444C9.56582 10.3444 9.57329 10.3444 9.57329 10.3517C9.58075 10.3517 9.58075 10.3589 9.58822 10.3589C9.58822 10.3589 9.59568 10.3589 9.59568 10.3661C9.60315 10.3661 9.60315 10.3733 9.61061 10.3733C9.61061 10.3733 9.61061 10.3733 9.61808 10.3733C9.63301 10.3806 9.64047 10.3878 9.6554 10.395C9.66287 10.4022 9.67033 10.4022 9.6778 10.4094C9.68526 10.4167 9.69273 10.4167 9.70019 10.4239C9.70766 10.4311 9.71512 10.4311 9.72259 10.4383C9.73752 10.4456 9.75991 10.4528 9.77484 10.46C9.78231 10.46 9.78977 10.4672 9.79724 10.4672C9.79724 10.4672 9.79724 10.4672 9.8047 10.4672C9.81217 10.4672 9.81963 10.4745 9.8271 10.4745C9.84203 10.4817 9.85696 10.4889 9.87935 10.4961H9.88682C9.89429 10.4961 9.90175 10.5034 9.90922 10.5034H9.91668C9.92414 10.5034 9.93161 10.5106 9.93908 10.5106H9.94654C9.95401 10.5106 9.96147 10.5178 9.96894 10.5178H9.9764C9.98387 10.5178 9.99133 10.525 9.99133 10.525H9.9988C10.0063 10.525 10.0063 10.525 10.0137 10.5323H10.0212C10.0287 10.5323 10.0287 10.5323 10.0361 10.5395H10.0436C10.0511 10.5395 10.0585 10.5467 10.066 10.5467H10.0734C10.0809 10.5467 10.0809 10.5467 10.0884 10.5539C10.0958 10.5539 10.0958 10.5539 10.1033 10.5539H10.1182C10.1257 10.5539 10.1257 10.5539 10.1332 10.5539C10.1406 10.5539 10.1406 10.5539 10.1481 10.5539C10.1556 10.5539 10.1556 10.5539 10.163 10.5539C10.1705 10.5539 10.178 10.5539 10.1854 10.5611C10.1929 10.5611 10.1929 10.5611 10.2004 10.5611C10.2078 10.5611 10.2078 10.5611 10.2153 10.5611C10.2227 10.5611 10.2227 10.5611 10.2302 10.5611C10.2377 10.5611 10.2377 10.5611 10.2451 10.5611C10.2526 10.5611 10.2526 10.5611 10.2601 10.5611C10.2675 10.5611 10.2675 10.5611 10.275 10.5611C10.2825 10.5611 10.2899 10.5611 10.2899 10.5611C10.2974 10.5611 10.3049 10.5611 10.3049 10.5611C10.3123 10.5611 10.3123 10.5611 10.3198 10.5611C10.3273 10.5611 10.3273 10.5611 10.3347 10.5611C10.3422 10.5611 10.3422 10.5611 10.3497 10.5611H10.3571C10.3646 10.5611 10.3646 10.5611 10.3721 10.5611H10.3795C10.387 10.5611 10.3944 10.5611 10.4094 10.5611H10.4168C10.4243 10.5611 10.4243 10.5611 10.4318 10.5611C10.4392 10.5611 10.4392 10.5611 10.4392 10.5611C10.4467 10.5611 10.4467 10.5611 10.4542 10.5611H10.4616C10.4691 10.5611 10.4691 10.5611 10.4766 10.5611H10.484C10.4915 10.5611 10.499 10.5611 10.5139 10.5611H10.5214H10.5288C10.5885 10.5611 10.6483 10.5611 10.7005 10.5539C10.7229 10.5539 10.7453 10.5467 10.7677 10.5467C10.7752 10.5467 10.7826 10.5467 10.7901 10.5467C10.7976 10.5467 10.805 10.5467 10.8125 10.5467C10.82 10.5467 10.8274 10.5467 10.8349 10.5467C10.8424 10.5467 10.8498 10.5467 10.8573 10.5395C10.8647 10.5395 10.8722 10.5395 10.8797 10.5323C10.8871 10.5323 10.8946 10.5323 10.8946 10.525C10.8946 10.525 10.8946 10.525 10.9021 10.525C10.917 10.525 10.9319 10.5178 10.9469 10.5178C10.9543 10.5178 10.9618 10.5178 10.9618 10.5106C10.9618 10.5106 10.9618 10.5106 10.9693 10.5106C10.9842 10.5106 10.9991 10.5034 11.0066 10.5034C11.0066 10.5034 11.0066 10.5034 11.014 10.5034C11.0215 10.5034 11.0215 10.5034 11.029 10.4961H11.0364C11.0439 10.4961 11.0514 10.4889 11.0588 10.4889C14.3061 9.52815 17.5833 9.38368 20.8381 10.0699C20.8978 10.0844 20.965 10.0988 21.0247 10.1133C21.0546 10.1205 21.0844 10.1277 21.1143 10.1349C21.1591 10.1422 21.2113 10.1566 21.2561 10.1638C21.3084 10.1783 21.3681 10.1927 21.4204 10.2C21.4577 10.2072 21.4876 10.2144 21.5249 10.2289C21.5846 10.2433 21.6443 10.2577 21.704 10.2722C21.8309 10.3083 21.9579 10.3372 22.0848 10.3733C22.2191 10.4094 22.3535 10.4456 22.4879 10.4889C22.9582 10.6262 23.4583 10.5756 23.8913 10.3444C23.8988 10.3372 23.9062 10.3372 23.9137 10.33C23.9137 10.33 23.9212 10.33 23.9212 10.3228C23.9286 10.3228 23.9286 10.3155 23.9361 10.3155C23.9361 10.3155 23.9436 10.3155 23.9436 10.3083C23.951 10.3083 23.951 10.3011 23.9585 10.3011C23.9585 10.3011 23.966 10.3011 23.966 10.2939C23.9734 10.2939 23.9734 10.2866 23.9809 10.2866C23.9809 10.2866 23.9884 10.2866 23.9884 10.2794C24.0033 10.2722 24.0182 10.2577 24.0331 10.2505C24.0331 10.2505 24.0406 10.2505 24.0406 10.2433C24.0481 10.2433 24.0481 10.2361 24.0555 10.2361C24.0555 10.2361 24.063 10.2361 24.063 10.2289C24.0705 10.2289 24.0705 10.2216 24.0779 10.2216C24.0779 10.2216 24.0854 10.2216 24.0854 10.2144C24.0929 10.2144 24.0929 10.2072 24.1003 10.2072C24.1003 10.2072 24.1078 10.2072 24.1078 10.2C24.1153 10.1927 24.1227 10.1927 24.1302 10.1855C24.1377 10.1783 24.1451 10.1783 24.1526 10.1711C24.1526 10.1711 24.1601 10.1711 24.1601 10.1638C24.1675 10.1566 24.1675 10.1566 24.175 10.1494L24.1825 10.1422C24.1899 10.1422 24.1899 10.1349 24.1974 10.1349C24.1974 10.1349 24.2048 10.1349 24.2048 10.1277C24.2123 10.1205 24.2123 10.1205 24.2198 10.1133C24.2198 10.1133 24.2272 10.1133 24.2272 10.1061C24.2422 10.0988 24.2496 10.0844 24.2646 10.0699C24.2646 10.0699 24.272 10.0699 24.272 10.0627C24.2795 10.0555 24.2795 10.0555 24.287 10.0483L24.2944 10.041C24.3019 10.0338 24.3019 10.0338 24.3094 10.0266L24.3168 10.0194C24.3243 10.0121 24.3243 10.0121 24.3318 10.0049C24.3318 10.0049 24.3318 10.0049 24.3392 9.99769C24.3467 9.99047 24.3541 9.98325 24.3541 9.98325C24.3616 9.97602 24.3616 9.9688 24.3691 9.9688L24.3765 9.96158C24.384 9.95435 24.384 9.95435 24.3915 9.94713L24.3989 9.93991C24.4064 9.93268 24.4064 9.93268 24.4139 9.92546L24.4213 9.91823C24.4288 9.91101 24.4288 9.91101 24.4363 9.90379C24.4363 9.90379 24.4363 9.90379 24.4437 9.89656C24.4512 9.88934 24.4512 9.88212 24.4587 9.87489C24.4661 9.86767 24.4661 9.86044 24.4736 9.86044C24.4736 9.86044 24.4736 9.85322 24.4811 9.85322C24.4811 9.846 24.4885 9.846 24.4885 9.83877C24.4885 9.83877 24.4885 9.83155 24.496 9.83155C24.496 9.82433 24.5035 9.82432 24.5035 9.8171C24.5035 9.8171 24.5035 9.80988 24.5109 9.80988C24.5184 9.80265 24.5184 9.80265 24.5258 9.79543C24.5258 9.79543 24.5258 9.79543 24.5258 9.78821C24.5333 9.78098 24.5333 9.77376 24.5408 9.76653C24.5482 9.75931 24.5482 9.75209 24.5557 9.75209C24.5557 9.75209 24.5557 9.74486 24.5632 9.74486C24.5632 9.73764 24.5706 9.73764 24.5706 9.73042C24.608 9.80988 24.6304 9.89656 24.6304 9.98325V11.2835C24.6304 11.6303 24.3392 11.912 23.9809 11.912H23.5255C23.2195 11.912 22.9731 12.1504 22.9656 12.4393C22.9283 14.0285 22.2341 15.5094 21.0471 16.4918C20.7261 16.7591 20.3827 16.9975 20.0393 17.1998C20.0319 17.207 20.0244 17.207 20.0095 17.2142C19.0539 17.756 18.0088 18.0377 16.8891 18.0594C16.8816 18.0594 16.8816 18.0594 16.8816 18.0594C16.8667 18.0594 16.8517 18.0594 16.8368 18.0594C16.8219 18.0594 16.807 18.0594 16.792 18.0594C16.7846 18.0594 16.7846 18.0594 16.7846 18.0594C15.6648 18.0377 14.6122 17.7488 13.6642 17.2142C13.6567 17.207 13.6492 17.207 13.6343 17.1998C13.2162 17.1492 12.8803 16.918 12.5519 16.6435ZM13.8135 25.7021C13.3432 25.8538 12.8281 25.7238 12.5071 25.3626L9.77484 22.3431L12.0741 21.7218L15.7245 25.0736L13.8135 25.7021ZM13.3432 21.404C13.6716 20.9922 13.8732 20.4649 13.8732 19.952V18.7167C14.7391 19.0779 15.6573 19.2657 16.6278 19.2946C16.6427 19.2946 16.6576 19.2946 16.6726 19.2946H16.68C16.695 19.2946 16.7024 19.2946 16.7174 19.2946H16.7248C16.7398 19.2946 16.7547 19.2946 16.7696 19.2946H16.7846C16.7995 19.2946 16.8144 19.2946 16.8293 19.2946H16.8368C16.8517 19.2946 16.8592 19.2946 16.8741 19.2946H16.8816C16.8965 19.2946 16.9115 19.2946 16.9264 19.2946C17.8969 19.2657 18.8225 19.0707 19.681 18.7167V19.952C19.681 20.4649 19.8826 20.9922 20.211 21.404L16.7771 24.5535L13.3432 21.404ZM21.0397 25.3626C20.7112 25.7238 20.2036 25.8538 19.7333 25.7021L17.8297 25.0736L21.4801 21.7218L23.7793 22.3431L21.0397 25.3626ZM35.8728 30.7226C35.8728 30.7442 35.8578 30.7587 35.8354 30.7587H35.4025C34.9023 30.7587 34.4619 31.0693 34.3051 31.5244C34.2379 31.7267 34.1483 31.9217 34.0513 32.1168C33.8273 32.5502 33.9169 33.0703 34.2678 33.4098L34.5738 33.706C34.5738 33.706 34.5813 33.7132 34.5813 33.7276C34.5813 33.7421 34.5738 33.7493 34.5738 33.7493L33.6482 34.6451C33.6482 34.6451 33.6407 34.6523 33.6258 34.6523C33.6109 34.6523 33.6034 34.6451 33.6034 34.6451L33.2973 34.3489C32.9465 34.0094 32.409 33.9227 31.9611 34.1394C31.767 34.2333 31.558 34.32 31.3489 34.385C30.8712 34.5367 30.5576 34.9629 30.5576 35.4469V35.8659C30.5576 35.8875 30.5427 35.902 30.5203 35.902H29.2139C29.1915 35.902 29.1766 35.8875 29.1766 35.8659V35.4469C29.1766 34.9629 28.8556 34.5367 28.3853 34.385C28.1763 34.32 27.9672 34.2333 27.7732 34.1394C27.6089 34.0599 27.4298 34.0166 27.2506 34.0166C26.952 34.0166 26.6534 34.1322 26.4369 34.3417L26.1308 34.6378C26.1159 34.6523 26.0935 34.6523 26.0786 34.6378L25.1529 33.7421C25.138 33.7276 25.138 33.706 25.1529 33.6915L25.459 33.3954C25.8098 33.0558 25.8994 32.5357 25.6755 32.1023C25.5784 31.9145 25.4888 31.7122 25.4217 31.51C25.2649 31.0549 24.8244 30.7443 24.3243 30.7443H23.8913C23.8689 30.7443 23.854 30.7298 23.854 30.7081V29.444C23.854 29.4223 23.8689 29.4079 23.8913 29.4079H24.3243C24.8244 29.4079 25.2649 29.0972 25.4217 28.6421C25.4888 28.4399 25.5784 28.2376 25.6755 28.0498C25.8994 27.6164 25.8098 27.0963 25.459 26.7568L25.1529 26.4606C25.138 26.4461 25.138 26.4245 25.1529 26.41L26.0786 25.5143C26.0935 25.4998 26.1159 25.4998 26.1308 25.5143L26.4369 25.8104C26.7878 26.15 27.3253 26.2366 27.7732 26.0199C27.9672 25.926 28.1763 25.8393 28.3853 25.7743C28.8631 25.6226 29.1766 25.1964 29.1766 24.7124V24.2935C29.1766 24.2718 29.1915 24.2573 29.2139 24.2573H29.8559H29.8708H30.5203C30.5427 24.2573 30.5576 24.2718 30.5576 24.2935V24.7124C30.5576 25.1964 30.8786 25.6226 31.3489 25.7743C31.558 25.8393 31.7595 25.926 31.9611 26.0199C32.409 26.2366 32.9465 26.15 33.2973 25.8104L33.6034 25.5143C33.6034 25.5143 33.6109 25.507 33.6258 25.507C33.6407 25.507 33.6482 25.5143 33.6482 25.5143L34.5738 26.41C34.5738 26.41 34.5813 26.4172 34.5813 26.4317C34.5813 26.4461 34.5738 26.4534 34.5738 26.4534L34.2678 26.7495C33.9169 27.089 33.8273 27.6092 34.0513 28.0426C34.1483 28.2304 34.2379 28.4327 34.3051 28.6349C34.4619 29.09 34.9023 29.4006 35.4025 29.4006H35.8354C35.8578 29.4006 35.8728 29.4151 35.8728 29.4368V30.7226Z" fill="#1B4568"/>
</svg>
