<svg width="19" height="19" viewBox="0 0 19 19" fill="none" xmlns="http://www.w3.org/2000/svg">
<path d="M11.8601 14.9507C12.1143 15.0289 12.3748 15.0884 12.6391 15.1276C12.2511 16.21 11.2242 16.9921 10.0111 16.9921H2.80319C1.25735 16.9921 0 15.7345 0 14.189V5.37922C0 3.83339 1.25735 2.57604 2.80319 2.57604H4.96068C5.15695 1.22184 6.31488 0.17334 7.72302 0.17334H11.6122C13.1577 0.17334 14.4153 1.43069 14.4153 2.97653V4.88599C14.1525 4.83205 13.8849 4.79762 13.6144 4.78594V2.97653C13.6144 1.87293 12.7166 0.974324 11.6122 0.974324H7.72302C6.75635 0.974324 5.94727 1.66305 5.76154 2.57616H10.0119C11.3642 2.57616 12.4951 3.53899 12.7572 4.81381C12.4928 4.84592 12.2324 4.90385 11.9728 4.97655C11.7866 4.06497 10.978 3.37702 10.0128 3.37702H2.80473C1.70113 3.37702 0.802526 4.27575 0.802526 5.37935V14.1892C0.802526 15.292 1.70126 16.1915 2.80473 16.1915H10.0128C10.845 16.1905 11.5598 15.6765 11.8601 14.9507ZM15.8052 14.1703C13.4941 15.5046 10.529 14.7099 9.19514 12.3995C7.86072 10.09 8.65579 7.12454 10.9654 5.79089C13.2757 4.45737 16.2415 5.25078 17.5759 7.56164C18.9102 9.8716 18.114 12.836 15.8052 14.1703ZM15.4048 13.4773C17.3328 12.3651 17.9944 9.89048 16.8814 7.96213C15.7692 6.0334 13.2946 5.3701 11.366 6.48347C9.43764 7.59683 8.77551 10.0703 9.88848 11.9989C11.0015 13.9275 13.476 14.5903 15.4048 13.4773ZM17.0207 13.873L14.9386 15.0745L16.5404 17.8479L18.6225 16.6464L17.0207 13.873ZM18.8383 17.0234L16.757 18.2248C17.0886 18.8003 17.8238 18.9976 18.3979 18.6644C18.9728 18.3328 19.1715 17.5983 18.8383 17.0234ZM7.73253 5.47761H2.40193V6.07835H7.7324L7.73253 5.47761ZM6.50652 8.14799H2.40193V8.7486H6.50652V8.14799ZM2.40193 11.4181H6.50652V10.8173H2.40193V11.4181ZM2.40193 14.0873H7.7324V13.4867H2.40193V14.0873ZM12.6047 10.8135L11.3611 9.43565L10.7667 9.97345L12.5257 11.9193L15.9623 9.05712L15.4493 8.442L12.6047 10.8135Z" fill="#1B4568"/>
</svg>
