<svg width="18" height="19" viewBox="0 0 18 19" fill="none" xmlns="http://www.w3.org/2000/svg">
<path d="M5.45766 16.3382H1.89331C1.18967 16.3382 0.620605 15.7679 0.620605 15.0627V12.0764C0.620605 11.8298 0.659056 11.5831 0.739802 11.3519L1.03971 10.4503C1.10124 10.2691 1.132 10.0765 1.132 9.88381V9.16709C1.132 8.88964 1.06663 8.61606 0.943589 8.36944L0.862843 8.21145C0.705196 7.89162 0.620605 7.54097 0.620605 7.1826V5.10949C0.620605 3.61824 1.85871 2.86298 2.65847 2.61636V1.27539H3.16986V2.80903C3.16986 2.92849 3.08527 3.03253 2.96992 3.0595C2.89687 3.07491 1.132 3.49493 1.132 5.10564V7.17875C1.132 7.45619 1.19736 7.72978 1.3204 7.9764L1.40115 8.13438C1.55879 8.45421 1.64339 8.80487 1.64339 9.16323V9.87996C1.64339 10.1266 1.60493 10.3732 1.52419 10.6044L1.22428 11.5061C1.16276 11.6872 1.132 11.8799 1.132 12.0725V15.0589C1.132 15.4828 1.4742 15.8257 1.89716 15.8257H5.46535C5.88831 15.8257 6.23051 15.4828 6.23051 15.0589V12.0725C6.23051 11.8799 6.19975 11.691 6.13823 11.5061L5.83832 10.6044C5.76142 10.3693 5.71912 10.1227 5.71912 9.87611V9.15938C5.71912 8.80102 5.80371 8.45036 5.96136 8.13053L6.04211 7.97254C6.16515 7.72593 6.23051 7.45234 6.23051 7.1749V5.10178C6.23051 3.48337 4.41181 3.0595 4.39259 3.05565C4.27724 3.02867 4.19264 2.92463 4.19264 2.80518V1.27539H4.6925V2.61251C5.49227 2.85912 6.73037 3.61438 6.73037 5.10564V7.17875C6.73037 7.53711 6.64578 7.88777 6.48813 8.2076L6.40739 8.36559C6.28434 8.6122 6.21898 8.88579 6.21898 9.16323V9.87996C6.21898 10.0726 6.24974 10.2614 6.31126 10.4464L6.61117 11.3481C6.68807 11.5831 6.73037 11.8298 6.73037 12.0764V15.0627C6.73037 15.7679 6.1613 16.3382 5.45766 16.3382Z" fill="#1B4568"/>
<path d="M4.69257 1.53364H2.6547C2.37401 1.53364 2.14331 1.30629 2.14331 1.02114V0.512498C2.14716 0.227349 2.37401 0 2.6547 0H4.69257C4.97326 0 5.20396 0.227349 5.20396 0.512498V1.025C5.20396 1.30244 4.9771 1.53364 4.69257 1.53364ZM2.6547 0.512498V1.025H4.69257V0.512498H2.6547Z" fill="#1B4568"/>
<path d="M6.47651 7.14805H1.63561C1.49334 7.14805 1.38184 7.03245 1.38184 6.89373C1.38184 6.75115 1.49719 6.6394 1.63561 6.6394H6.47651C6.61878 6.6394 6.73028 6.755 6.73028 6.89373C6.73028 7.03245 6.61878 7.14805 6.47651 7.14805Z" fill="#1B4568"/>
<path d="M3.67345 11.2326C2.82754 11.2326 2.14697 10.5467 2.14697 9.69898C2.14697 8.85124 2.83139 8.16919 3.6773 8.16919C3.88877 8.16919 4.09641 8.21158 4.28866 8.29635C4.41554 8.35415 4.47706 8.50443 4.41939 8.63159C4.36171 8.75875 4.2156 8.81655 4.08487 8.76261C3.56964 8.53911 2.96981 8.77417 2.7468 9.29052C2.52379 9.80687 2.75833 10.408 3.27357 10.6315C3.7888 10.855 4.38863 10.6199 4.61164 10.1036C4.72315 9.8454 4.72315 9.5487 4.61164 9.29052C4.55012 9.16336 4.60395 9.00922 4.73468 8.95142C4.86157 8.88977 5.01537 8.94372 5.07304 9.07473C5.07689 9.07858 5.07689 9.08244 5.08074 9.09014C5.4191 9.86467 5.06536 10.7702 4.2925 11.1055C4.09256 11.1902 3.88493 11.2326 3.67345 11.2326Z" fill="#1B4568"/>
<path d="M14.4473 12.8704H0.693604V17.6293H14.4473V12.8704Z" fill="white"/>
<path d="M17.5195 4.09215C17.5195 4.09215 17.8386 3.36771 17.8425 3.32918C17.8502 3.31762 17.8425 1.81481 17.8463 1.80325C17.8502 1.59902 17.631 1.43718 17.4388 1.51039L16.4775 1.84563L15.5162 1.51039C15.4509 1.48727 15.3778 1.48727 15.3125 1.51039L14.355 1.84563L13.3976 1.51039C13.3323 1.48727 13.2592 1.48727 13.1938 1.51039L12.2364 1.84563L11.279 1.51039C11.2136 1.48727 11.1406 1.48727 11.0752 1.51039L10.1178 1.84563L9.1604 1.51039C9.09503 1.48727 9.02198 1.48727 8.95661 1.51039L7.9992 1.84563L7.04179 1.51039C6.84953 1.43718 6.62652 1.59516 6.63421 1.79939V3.31377C6.6419 3.35615 7.19559 4.51216 7.16867 5.05934V12.7352H3.54665C2.98527 12.7507 2.40852 12.6081 1.8779 12.4925C1.85483 12.4963 0.309128 12.4848 0.309128 12.4848C0.0668907 12.4771 -0.0907558 12.7853 0.0630457 12.978L0.293748 13.2863C0.182242 13.4558 -0.133051 13.7256 0.0630457 13.9645L0.293748 14.2727C0.186087 14.4384 -0.133051 14.712 0.0630457 14.9509L0.293748 15.2592C0.193777 15.4172 -0.136896 15.6946 0.0630457 15.9374L0.293748 16.2457L0.0630457 16.5539C-0.125361 16.7928 0.170707 17.051 0.293748 17.2321L0.0630457 17.5442C-0.0869107 17.7331 0.0630457 18.0452 0.309128 18.0375H1.81254C2.37007 17.9296 2.95836 17.7754 3.54665 17.787C4.19261 17.841 11.825 17.6753 12.221 17.8911L12.8632 18.0298C12.8862 18.0336 14.4319 18.0375 14.4319 18.0375C14.5473 18.0375 14.655 17.972 14.7088 17.8679C14.8395 17.6483 14.555 17.3978 14.4473 17.236C14.5704 17.0472 14.8703 16.7967 14.678 16.5578L14.4473 16.2495L14.5896 16.0568L15.3086 16.3112C15.374 16.3343 15.447 16.3343 15.5124 16.3112L16.4737 15.9721L17.4349 16.3112C17.5272 16.3458 17.631 16.3304 17.7156 16.2726C17.7964 16.2148 17.8463 16.1224 17.8463 16.0222V14.5078C17.8425 14.4654 17.2927 13.3171 17.3119 12.7622V5.05934C17.308 4.7241 17.3811 4.38885 17.5195 4.09215ZM7.89538 2.46603C7.96075 2.48915 8.0338 2.48915 8.09917 2.46603L9.05658 2.13078L10.014 2.46603C10.0794 2.48915 10.1524 2.48915 10.2178 2.46603L11.1752 2.13078L12.1326 2.46603C12.198 2.48915 12.271 2.48915 12.3364 2.46603L13.2938 2.13078L14.2512 2.46603C14.3166 2.48915 14.3897 2.48915 14.455 2.46603L15.4124 2.13078L16.3737 2.46603C16.4391 2.48915 16.5121 2.48915 16.5775 2.46603L17.2311 2.23868V3.00935H7.24942V2.23482L7.89538 2.46603ZM7.51857 3.83397L7.42244 3.62204H17.0581C16.8351 4.06517 16.689 4.55455 16.6967 5.05934V12.7622C16.6928 13.2709 16.8389 13.7564 17.0581 14.1995H14.505C14.6319 14.03 14.8511 13.8142 14.6819 13.5945L14.4512 13.2863L14.6819 12.978C14.8357 12.7853 14.6819 12.4771 14.4358 12.4848H12.9324C12.9208 12.4848 12.2249 12.6312 12.2249 12.6312C11.5251 12.8239 8.54904 12.7044 7.78388 12.7352V5.05934C7.78388 4.64318 7.6916 4.21931 7.51857 3.83397ZM0.924334 17.0549L0.693632 16.7427L0.924334 16.4345C1.00508 16.3266 1.00508 16.1724 0.924334 16.0646L0.693632 15.7563L0.924334 15.448C1.11659 15.213 0.816673 14.9509 0.693632 14.7698C0.816673 14.5849 1.11659 14.3305 0.924334 14.0916L0.693632 13.7834L0.924334 13.4751C1.00508 13.3672 1.00508 13.2131 0.924334 13.1052H1.50493V17.4286H0.924334C1.00892 17.3169 1.00892 17.1666 0.924334 17.0549ZM12.3518 17.2938C11.9865 17.2167 11.5982 17.1743 11.1944 17.1743C10.41 17.2206 2.95451 17.0587 2.38929 17.2938L2.12014 17.3516V13.1745L2.38929 13.2323C2.91991 13.4712 10.4408 13.3055 11.1944 13.3518C11.6943 13.3556 12.1557 13.2824 12.6209 13.1745V17.3516C12.6209 17.3554 12.3518 17.2938 12.3518 17.2938ZM13.8167 16.4345L14.0474 16.7427L13.8167 17.0549C13.736 17.1666 13.736 17.3169 13.8167 17.4248H13.2361V13.1013H13.8167C13.6245 13.3364 13.9244 13.5984 14.0474 13.7795L13.8167 14.0878C13.6245 14.3228 13.9244 14.5849 14.0474 14.766L13.8167 15.0742C13.6245 15.3093 13.9244 15.5713 14.0474 15.7524C13.9244 15.9412 13.6245 16.1956 13.8167 16.4345ZM16.5775 15.3555C16.5121 15.3324 16.4391 15.3324 16.3737 15.3555L15.4124 15.6946L14.5396 15.3864L14.4473 15.2631C14.5088 15.1744 14.728 14.9317 14.7319 14.8161H17.2273V15.5867L16.5775 15.3555Z" fill="#1B4568"/>
<path d="M11.129 14.1609H3.74657C3.57739 14.1609 3.43896 14.2996 3.43896 14.4692V16.0413C3.43896 16.2109 3.57739 16.3496 3.74657 16.3496H11.129C11.2982 16.3496 11.4366 16.2109 11.4366 16.0413V14.4692C11.4366 14.2958 11.2982 14.1609 11.129 14.1609ZM10.8214 15.7331H4.05417V14.7774H10.8214V15.7331Z" fill="#1B4568"/>
<path d="M12.2403 11.0205C12.3211 11.0205 12.4018 10.9897 12.4595 10.9319L14.159 9.2287C14.2782 9.1131 14.2782 8.90887 14.159 8.79327L12.4595 7.09008C12.3403 6.97062 12.1442 6.97062 12.025 7.09008L10.3255 8.79327C10.2063 8.91272 10.2063 9.10924 10.3255 9.2287L12.025 10.9319C12.0788 10.9858 12.1557 11.0205 12.2403 11.0205ZM12.2403 7.73744L13.5053 9.0052L12.2403 10.273L10.9753 9.0052L12.2403 7.73744Z" fill="#1B4568"/>
<path d="M12.2403 12.1574C13.9744 12.1574 15.3855 10.7432 15.3855 9.00533C15.2125 4.82442 9.26807 4.82828 9.09888 9.00533C9.09504 10.7432 10.5062 12.1574 12.2403 12.1574ZM12.2403 6.47366C13.636 6.47366 14.7703 7.61041 14.7703 9.00918C14.6319 12.3732 9.85251 12.3693 9.71409 9.00918C9.71025 7.61041 10.8445 6.47366 12.2403 6.47366Z" fill="#1B4568"/>
</svg>
