<svg width="217" height="46" viewBox="0 0 217 46" fill="none" xmlns="http://www.w3.org/2000/svg">
<path d="M41.3594 28.625V40H39.0156V28.625H41.3594ZM45.8906 33.4844V35.3125H40.7188V33.4844H45.8906ZM46.4375 28.625V30.4609H40.7188V28.625H46.4375ZM51.5444 30.5703L48.4506 40H45.9584L50.185 28.625H51.7709L51.5444 30.5703ZM54.1147 40L51.0131 30.5703L50.7631 28.625H52.3647L56.6147 40H54.1147ZM53.9741 35.7656V37.6016H47.9662V35.7656H53.9741ZM58.2294 28.625H62.4716C63.3414 28.625 64.0888 28.7552 64.7138 29.0156C65.344 29.276 65.8283 29.6615 66.1669 30.1719C66.5054 30.6823 66.6747 31.3099 66.6747 32.0547C66.6747 32.6641 66.5705 33.1875 66.3622 33.625C66.1591 34.0573 65.87 34.4193 65.495 34.7109C65.1252 34.9974 64.6903 35.2266 64.1903 35.3984L63.4481 35.7891H59.7606L59.745 33.9609H62.4872C62.8986 33.9609 63.2398 33.888 63.5106 33.7422C63.7815 33.5964 63.9846 33.3932 64.12 33.1328C64.2606 32.8724 64.3309 32.5703 64.3309 32.2266C64.3309 31.862 64.2632 31.5469 64.1278 31.2812C63.9924 31.0156 63.7867 30.8125 63.5106 30.6719C63.2346 30.5312 62.8882 30.4609 62.4716 30.4609H60.5731V40H58.2294V28.625ZM64.5888 40L61.995 34.9297L64.4716 34.9141L67.0966 39.8906V40H64.5888ZM70.1097 28.625H72.0941L75.0159 36.9766L77.9378 28.625H79.9222L75.8128 40H74.2191L70.1097 28.625ZM69.0394 28.625H71.0159L71.3753 36.7656V40H69.0394V28.625ZM79.0159 28.625H81.0003V40H78.6566V36.7656L79.0159 28.625ZM88.3806 30.5703L85.2869 40H82.7947L87.0213 28.625H88.6072L88.3806 30.5703ZM90.9509 40L87.8494 30.5703L87.5994 28.625H89.2009L93.4509 40H90.9509ZM90.8103 35.7656V37.6016H84.8025V35.7656H90.8103ZM101.519 36.2266H103.855C103.808 36.9922 103.597 37.6719 103.222 38.2656C102.852 38.8594 102.334 39.3229 101.667 39.6562C101.006 39.9896 100.209 40.1562 99.2766 40.1562C98.5474 40.1562 97.8937 40.0312 97.3156 39.7812C96.7375 39.526 96.2427 39.1615 95.8312 38.6875C95.425 38.2135 95.1151 37.6406 94.9016 36.9688C94.688 36.2969 94.5812 35.5443 94.5812 34.7109V33.9219C94.5812 33.0885 94.6906 32.3359 94.9094 31.6641C95.1333 30.987 95.451 30.4115 95.8625 29.9375C96.2792 29.4635 96.7766 29.099 97.3547 28.8438C97.9328 28.5885 98.5786 28.4609 99.2922 28.4609C100.24 28.4609 101.04 28.6328 101.691 28.9766C102.347 29.3203 102.855 29.7943 103.214 30.3984C103.579 31.0026 103.797 31.6901 103.87 32.4609H101.527C101.501 32.0026 101.409 31.6146 101.253 31.2969C101.097 30.974 100.86 30.7318 100.542 30.5703C100.23 30.4036 99.813 30.3203 99.2922 30.3203C98.9016 30.3203 98.5604 30.3932 98.2687 30.5391C97.9771 30.6849 97.7323 30.9062 97.5344 31.2031C97.3365 31.5 97.188 31.875 97.0891 32.3281C96.9953 32.776 96.9484 33.3021 96.9484 33.9062V34.7109C96.9484 35.2995 96.9927 35.8177 97.0812 36.2656C97.1698 36.7083 97.3052 37.0833 97.4875 37.3906C97.675 37.6927 97.9146 37.9219 98.2062 38.0781C98.5031 38.2292 98.8599 38.3047 99.2766 38.3047C99.7661 38.3047 100.17 38.2266 100.487 38.0703C100.805 37.9141 101.047 37.6823 101.214 37.375C101.386 37.0677 101.487 36.6849 101.519 36.2266ZM108.446 28.625V40H106.11V28.625H108.446ZM115.967 30.5703L112.873 40H110.381L114.607 28.625H116.193L115.967 30.5703ZM118.537 40L115.436 30.5703L115.186 28.625H116.787L121.037 40H118.537ZM118.397 35.7656V37.6016H112.389V35.7656H118.397ZM128.574 37.0234C128.574 36.8203 128.543 36.638 128.48 36.4766C128.423 36.3099 128.313 36.1589 128.152 36.0234C127.99 35.8828 127.764 35.7448 127.472 35.6094C127.181 35.474 126.803 35.3333 126.339 35.1875C125.824 35.0208 125.334 34.8333 124.871 34.625C124.412 34.4167 124.006 34.1745 123.652 33.8984C123.303 33.6172 123.027 33.2917 122.824 32.9219C122.626 32.5521 122.527 32.1224 122.527 31.6328C122.527 31.1589 122.631 30.7292 122.839 30.3438C123.048 29.9531 123.339 29.6198 123.714 29.3438C124.089 29.0625 124.532 28.8464 125.043 28.6953C125.558 28.5443 126.123 28.4688 126.738 28.4688C127.576 28.4688 128.308 28.6198 128.933 28.9219C129.558 29.224 130.043 29.638 130.386 30.1641C130.735 30.6901 130.91 31.2917 130.91 31.9688H128.582C128.582 31.6354 128.511 31.3438 128.371 31.0938C128.235 30.8385 128.027 30.638 127.746 30.4922C127.47 30.3464 127.121 30.2734 126.699 30.2734C126.293 30.2734 125.954 30.3359 125.683 30.4609C125.412 30.5807 125.209 30.7448 125.074 30.9531C124.938 31.1562 124.871 31.3854 124.871 31.6406C124.871 31.8333 124.918 32.0078 125.011 32.1641C125.11 32.3203 125.256 32.4661 125.449 32.6016C125.641 32.737 125.878 32.8646 126.16 32.9844C126.441 33.1042 126.766 33.2214 127.136 33.3359C127.756 33.5234 128.3 33.7344 128.769 33.9688C129.243 34.2031 129.639 34.4661 129.957 34.7578C130.274 35.0495 130.514 35.3802 130.675 35.75C130.837 36.1198 130.918 36.5391 130.918 37.0078C130.918 37.5026 130.821 37.9453 130.628 38.3359C130.436 38.7266 130.157 39.0573 129.793 39.3281C129.428 39.599 128.993 39.8047 128.488 39.9453C127.983 40.0859 127.418 40.1562 126.793 40.1562C126.23 40.1562 125.675 40.0833 125.128 39.9375C124.582 39.7865 124.084 39.5599 123.636 39.2578C123.194 38.9557 122.839 38.5703 122.574 38.1016C122.308 37.6328 122.175 37.0781 122.175 36.4375H124.527C124.527 36.7917 124.582 37.0911 124.691 37.3359C124.8 37.5807 124.954 37.7786 125.152 37.9297C125.355 38.0807 125.595 38.1901 125.871 38.2578C126.152 38.3255 126.459 38.3594 126.793 38.3594C127.199 38.3594 127.532 38.3021 127.793 38.1875C128.058 38.0729 128.253 37.9141 128.378 37.7109C128.509 37.5078 128.574 37.2786 128.574 37.0234ZM141.108 40H138.631L138.647 38.1719H141.108C141.722 38.1719 142.241 38.0339 142.662 37.7578C143.084 37.4766 143.402 37.0677 143.616 36.5312C143.834 35.9948 143.944 35.3464 143.944 34.5859V34.0312C143.944 33.4479 143.881 32.9349 143.756 32.4922C143.636 32.0495 143.457 31.6771 143.217 31.375C142.978 31.0729 142.683 30.8464 142.334 30.6953C141.985 30.5391 141.584 30.4609 141.131 30.4609H138.584V28.625H141.131C141.892 28.625 142.587 28.7552 143.217 29.0156C143.853 29.2708 144.402 29.638 144.866 30.1172C145.329 30.5964 145.686 31.1693 145.936 31.8359C146.191 32.4974 146.319 33.2344 146.319 34.0469V34.5859C146.319 35.3932 146.191 36.1302 145.936 36.7969C145.686 37.4635 145.329 38.0365 144.866 38.5156C144.407 38.9896 143.858 39.3568 143.217 39.6172C142.582 39.8724 141.879 40 141.108 40ZM139.959 28.625V40H137.616V28.625H139.959ZM156.215 38.1719V40H150.16V38.1719H156.215ZM150.926 28.625V40H148.582V28.625H150.926ZM155.426 33.2578V35.0391H150.16V33.2578H155.426ZM156.207 28.625V30.4609H150.16V28.625H156.207ZM167.35 28.625V40H165.014V28.625H167.35ZM170.85 28.625V30.4609H161.569V28.625H170.85ZM179.027 28.625H181.363V36.1406C181.363 37.0156 181.176 37.7526 180.801 38.3516C180.431 38.9505 179.918 39.401 179.262 39.7031C178.611 40.0052 177.861 40.1562 177.012 40.1562C176.163 40.1562 175.408 40.0052 174.746 39.7031C174.09 39.401 173.574 38.9505 173.199 38.3516C172.83 37.7526 172.645 37.0156 172.645 36.1406V28.625H174.988V36.1406C174.988 36.651 175.069 37.0677 175.231 37.3906C175.392 37.7135 175.624 37.9505 175.926 38.1016C176.233 38.2526 176.595 38.3281 177.012 38.3281C177.439 38.3281 177.801 38.2526 178.098 38.1016C178.4 37.9505 178.629 37.7135 178.785 37.3906C178.947 37.0677 179.027 36.651 179.027 36.1406V28.625ZM183.853 28.625H188.095C188.965 28.625 189.712 28.7552 190.337 29.0156C190.968 29.276 191.452 29.6615 191.791 30.1719C192.129 30.6823 192.298 31.3099 192.298 32.0547C192.298 32.6641 192.194 33.1875 191.986 33.625C191.783 34.0573 191.494 34.4193 191.119 34.7109C190.749 34.9974 190.314 35.2266 189.814 35.3984L189.072 35.7891H185.384L185.369 33.9609H188.111C188.522 33.9609 188.864 33.888 189.134 33.7422C189.405 33.5964 189.608 33.3932 189.744 33.1328C189.884 32.8724 189.955 32.5703 189.955 32.2266C189.955 31.862 189.887 31.5469 189.752 31.2812C189.616 31.0156 189.41 30.8125 189.134 30.6719C188.858 30.5312 188.512 30.4609 188.095 30.4609H186.197V40H183.853V28.625ZM190.212 40L187.619 34.9297L190.095 34.9141L192.72 39.8906V40H190.212ZM203.921 28.625V40H201.577L197.007 32.375V40H194.663V28.625H197.007L201.585 36.2578V28.625H203.921ZM215.864 34.0469V34.5859C215.864 35.4505 215.747 36.2266 215.512 36.9141C215.278 37.6016 214.947 38.1875 214.52 38.6719C214.093 39.151 213.583 39.5182 212.989 39.7734C212.4 40.0286 211.747 40.1562 211.028 40.1562C210.314 40.1562 209.661 40.0286 209.067 39.7734C208.478 39.5182 207.968 39.151 207.536 38.6719C207.103 38.1875 206.767 37.6016 206.528 36.9141C206.293 36.2266 206.176 35.4505 206.176 34.5859V34.0469C206.176 33.1771 206.293 32.401 206.528 31.7188C206.762 31.0312 207.093 30.4453 207.52 29.9609C207.952 29.4766 208.463 29.1068 209.051 28.8516C209.645 28.5964 210.299 28.4688 211.012 28.4688C211.731 28.4688 212.385 28.5964 212.973 28.8516C213.567 29.1068 214.077 29.4766 214.504 29.9609C214.937 30.4453 215.27 31.0312 215.504 31.7188C215.744 32.401 215.864 33.1771 215.864 34.0469ZM213.497 34.5859V34.0312C213.497 33.4271 213.442 32.8958 213.333 32.4375C213.223 31.9792 213.062 31.5938 212.848 31.2812C212.635 30.9688 212.374 30.7344 212.067 30.5781C211.76 30.4167 211.408 30.3359 211.012 30.3359C210.616 30.3359 210.265 30.4167 209.958 30.5781C209.655 30.7344 209.398 30.9688 209.184 31.2812C208.976 31.5938 208.817 31.9792 208.708 32.4375C208.598 32.8958 208.543 33.4271 208.543 34.0312V34.5859C208.543 35.1849 208.598 35.7161 208.708 36.1797C208.817 36.638 208.978 37.026 209.192 37.3438C209.405 37.6562 209.666 37.8932 209.973 38.0547C210.28 38.2161 210.632 38.2969 211.028 38.2969C211.424 38.2969 211.775 38.2161 212.083 38.0547C212.39 37.8932 212.648 37.6562 212.856 37.3438C213.064 37.026 213.223 36.638 213.333 36.1797C213.442 35.7161 213.497 35.1849 213.497 34.5859Z" fill="#20295C"/>
<path d="M45.1641 12.835H46.4766C46.4082 13.4639 46.2282 14.0267 45.9365 14.5234C45.6449 15.0202 45.2324 15.4144 44.6992 15.7061C44.166 15.9932 43.5007 16.1367 42.7031 16.1367C42.1198 16.1367 41.5889 16.0273 41.1104 15.8086C40.6364 15.5898 40.2285 15.2799 39.8867 14.8789C39.5449 14.4733 39.2806 13.988 39.0938 13.4229C38.9115 12.8532 38.8203 12.2197 38.8203 11.5225V10.5312C38.8203 9.83398 38.9115 9.2028 39.0938 8.6377C39.2806 8.06803 39.5472 7.5804 39.8936 7.1748C40.2445 6.76921 40.666 6.45703 41.1582 6.23828C41.6504 6.01953 42.2041 5.91016 42.8193 5.91016C43.5713 5.91016 44.207 6.05143 44.7266 6.33398C45.2461 6.61654 45.6494 7.00846 45.9365 7.50977C46.2282 8.00651 46.4082 8.58301 46.4766 9.23926H45.1641C45.1003 8.77441 44.9818 8.37565 44.8086 8.04297C44.6354 7.70573 44.3893 7.44596 44.0703 7.26367C43.7513 7.08138 43.3343 6.99023 42.8193 6.99023C42.3773 6.99023 41.9876 7.07454 41.6504 7.24316C41.3177 7.41178 41.0374 7.65104 40.8096 7.96094C40.5863 8.27083 40.4176 8.64225 40.3037 9.0752C40.1898 9.50814 40.1328 9.98893 40.1328 10.5176V11.5225C40.1328 12.0101 40.1829 12.4681 40.2832 12.8965C40.388 13.3249 40.5452 13.7008 40.7549 14.0244C40.9645 14.348 41.2311 14.6032 41.5547 14.79C41.8783 14.9723 42.2611 15.0635 42.7031 15.0635C43.2637 15.0635 43.7103 14.9746 44.043 14.7969C44.3757 14.6191 44.6263 14.3639 44.7949 14.0312C44.9681 13.6986 45.0911 13.2998 45.1641 12.835ZM48.238 12.3838V12.2266C48.238 11.6934 48.3155 11.1989 48.4705 10.7432C48.6254 10.2829 48.8487 9.88411 49.1404 9.54688C49.4321 9.20508 49.7852 8.94076 50.2 8.75391C50.6147 8.5625 51.0795 8.4668 51.5945 8.4668C52.114 8.4668 52.5811 8.5625 52.9959 8.75391C53.4151 8.94076 53.7706 9.20508 54.0623 9.54688C54.3585 9.88411 54.5841 10.2829 54.739 10.7432C54.894 11.1989 54.9714 11.6934 54.9714 12.2266V12.3838C54.9714 12.917 54.894 13.4115 54.739 13.8672C54.5841 14.3229 54.3585 14.7217 54.0623 15.0635C53.7706 15.4007 53.4174 15.665 53.0027 15.8564C52.5925 16.0433 52.1277 16.1367 51.6082 16.1367C51.0886 16.1367 50.6215 16.0433 50.2068 15.8564C49.7921 15.665 49.4366 15.4007 49.1404 15.0635C48.8487 14.7217 48.6254 14.3229 48.4705 13.8672C48.3155 13.4115 48.238 12.917 48.238 12.3838ZM49.5027 12.2266V12.3838C49.5027 12.7529 49.546 13.1016 49.6326 13.4297C49.7192 13.7533 49.849 14.0404 50.0222 14.291C50.2 14.5417 50.421 14.7399 50.6853 14.8857C50.9496 15.027 51.2573 15.0977 51.6082 15.0977C51.9545 15.0977 52.2576 15.027 52.5173 14.8857C52.7817 14.7399 53.0004 14.5417 53.1736 14.291C53.3468 14.0404 53.4767 13.7533 53.5632 13.4297C53.6544 13.1016 53.7 12.7529 53.7 12.3838V12.2266C53.7 11.862 53.6544 11.5179 53.5632 11.1943C53.4767 10.8662 53.3445 10.5768 53.1668 10.3262C52.9936 10.071 52.7748 9.87044 52.5105 9.72461C52.2507 9.57878 51.9454 9.50586 51.5945 9.50586C51.2481 9.50586 50.9428 9.57878 50.6785 9.72461C50.4187 9.87044 50.2 10.071 50.0222 10.3262C49.849 10.5768 49.7192 10.8662 49.6326 11.1943C49.546 11.5179 49.5027 11.862 49.5027 12.2266ZM58.312 10.1826V16H57.0474V8.60352H58.2437L58.312 10.1826ZM58.0112 12.0215L57.4849 12.001C57.4894 11.4951 57.5646 11.028 57.7105 10.5996C57.8563 10.1667 58.0614 9.79069 58.3257 9.47168C58.59 9.15267 58.9045 8.90658 59.2691 8.7334C59.6382 8.55566 60.0461 8.4668 60.4927 8.4668C60.8573 8.4668 61.1854 8.51693 61.4771 8.61719C61.7687 8.71289 62.0171 8.86784 62.2222 9.08203C62.4318 9.29622 62.5913 9.57422 62.7007 9.91602C62.8101 10.2533 62.8648 10.6657 62.8648 11.1533V16H61.5933V11.1396C61.5933 10.7523 61.5363 10.4424 61.4224 10.21C61.3085 9.97298 61.1421 9.80208 60.9234 9.69727C60.7046 9.58789 60.4357 9.5332 60.1167 9.5332C59.8023 9.5332 59.5152 9.59928 59.2554 9.73145C59.0002 9.86361 58.7792 10.0459 58.5923 10.2783C58.41 10.5107 58.2665 10.7773 58.1616 11.0781C58.0614 11.3743 58.0112 11.6888 58.0112 12.0215ZM69.5823 14.0381C69.5823 13.8558 69.5413 13.6872 69.4593 13.5322C69.3818 13.3727 69.22 13.2292 68.9739 13.1016C68.7324 12.9694 68.3678 12.8555 67.8802 12.7598C67.47 12.6732 67.0986 12.5706 66.7659 12.4521C66.4378 12.3337 66.1575 12.1901 65.9251 12.0215C65.6972 11.8529 65.5218 11.6546 65.3987 11.4268C65.2757 11.1989 65.2141 10.9323 65.2141 10.627C65.2141 10.3353 65.2779 10.0596 65.4055 9.7998C65.5377 9.54004 65.7223 9.3099 65.9593 9.10938C66.2008 8.90885 66.4902 8.75163 66.8274 8.6377C67.1647 8.52376 67.5406 8.4668 67.9554 8.4668C68.5478 8.4668 69.0537 8.57161 69.4729 8.78125C69.8922 8.99089 70.2135 9.27116 70.4368 9.62207C70.6601 9.96842 70.7718 10.3535 70.7718 10.7773H69.5071C69.5071 10.5723 69.4456 10.374 69.3225 10.1826C69.204 9.98665 69.0286 9.82487 68.7962 9.69727C68.5683 9.56966 68.288 9.50586 67.9554 9.50586C67.6044 9.50586 67.3196 9.56055 67.1009 9.66992C66.8867 9.77474 66.7294 9.90918 66.6292 10.0732C66.5335 10.2373 66.4856 10.4105 66.4856 10.5928C66.4856 10.7295 66.5084 10.8525 66.554 10.9619C66.6041 11.0667 66.6907 11.1647 66.8137 11.2559C66.9368 11.3424 67.11 11.4245 67.3333 11.502C67.5566 11.5794 67.8414 11.6569 68.1878 11.7344C68.7939 11.8711 69.2929 12.0352 69.6848 12.2266C70.0768 12.418 70.3684 12.6527 70.5598 12.9307C70.7512 13.2087 70.847 13.5459 70.847 13.9424C70.847 14.266 70.7786 14.5622 70.6419 14.8311C70.5097 15.0999 70.316 15.3324 70.0608 15.5283C69.8102 15.7197 69.5094 15.8701 69.1585 15.9795C68.8121 16.0843 68.4225 16.1367 67.9895 16.1367C67.3378 16.1367 66.7864 16.0205 66.3352 15.7881C65.8841 15.5557 65.5423 15.2549 65.3098 14.8857C65.0774 14.5166 64.9612 14.127 64.9612 13.7168H66.2327C66.2509 14.0632 66.3512 14.3389 66.5335 14.5439C66.7158 14.7445 66.9391 14.888 67.2034 14.9746C67.4677 15.0566 67.7298 15.0977 67.9895 15.0977C68.3359 15.0977 68.6253 15.0521 68.8577 14.9609C69.0947 14.8698 69.2747 14.7445 69.3977 14.585C69.5208 14.4255 69.5823 14.2432 69.5823 14.0381ZM77.5235 14.291V8.60352H78.795V16H77.585L77.5235 14.291ZM77.7627 12.7324L78.2891 12.7188C78.2891 13.2109 78.2367 13.6667 78.1319 14.0859C78.0316 14.5007 77.8676 14.8607 77.6397 15.166C77.4118 15.4714 77.1133 15.7106 76.7442 15.8838C76.375 16.0524 75.9261 16.1367 75.3975 16.1367C75.0375 16.1367 74.7071 16.0843 74.4063 15.9795C74.1101 15.8747 73.8549 15.7129 73.6407 15.4941C73.4265 15.2754 73.2601 14.9906 73.1416 14.6396C73.0277 14.2887 72.9707 13.8672 72.9707 13.375V8.60352H74.2354V13.3887C74.2354 13.7214 74.2718 13.9971 74.3448 14.2158C74.4222 14.43 74.5248 14.6009 74.6524 14.7285C74.7845 14.8516 74.9304 14.9382 75.0899 14.9883C75.2539 15.0384 75.4226 15.0635 75.5957 15.0635C76.1335 15.0635 76.5596 14.9609 76.8741 14.7559C77.1885 14.5462 77.4141 14.266 77.5508 13.915C77.6921 13.5596 77.7627 13.1654 77.7627 12.7324ZM82.5867 5.5V16H81.3152V5.5H82.5867ZM88.2037 8.60352V9.57422H84.2046V8.60352H88.2037ZM85.5582 6.80566H86.8228V14.168C86.8228 14.4186 86.8615 14.6077 86.939 14.7354C87.0165 14.863 87.1168 14.9473 87.2398 14.9883C87.3629 15.0293 87.495 15.0498 87.6363 15.0498C87.7411 15.0498 87.8505 15.0407 87.9644 15.0225C88.0829 14.9997 88.1718 14.9814 88.231 14.9678L88.2379 16C88.1376 16.0319 88.0054 16.0615 87.8414 16.0889C87.6819 16.1208 87.4882 16.1367 87.2603 16.1367C86.9504 16.1367 86.6656 16.0752 86.4058 15.9521C86.1461 15.8291 85.9387 15.624 85.7837 15.3369C85.6334 15.0452 85.5582 14.6533 85.5582 14.1611V6.80566ZM94.5384 14.7354V10.9277C94.5384 10.6361 94.4792 10.3831 94.3607 10.1689C94.2467 9.9502 94.0736 9.78158 93.8411 9.66309C93.6087 9.5446 93.3216 9.48535 92.9798 9.48535C92.6608 9.48535 92.3805 9.54004 92.139 9.64941C91.902 9.75879 91.7152 9.90234 91.5784 10.0801C91.4463 10.2578 91.3802 10.4492 91.3802 10.6543H90.1155C90.1155 10.39 90.1839 10.1279 90.3206 9.86816C90.4573 9.6084 90.6533 9.3737 90.9085 9.16406C91.1683 8.94987 91.4782 8.78125 91.8382 8.6582C92.2028 8.5306 92.6084 8.4668 93.055 8.4668C93.5928 8.4668 94.0667 8.55794 94.4769 8.74023C94.8916 8.92253 95.2152 9.19824 95.4476 9.56738C95.6846 9.93197 95.803 10.39 95.803 10.9414V14.3867C95.803 14.6328 95.8236 14.8949 95.8646 15.1729C95.9101 15.4508 95.9762 15.6901 96.0628 15.8906V16H94.7435C94.6797 15.8542 94.6295 15.6605 94.5931 15.4189C94.5566 15.1729 94.5384 14.945 94.5384 14.7354ZM94.7571 11.5156L94.7708 12.4043H93.4925C93.1325 12.4043 92.8112 12.4339 92.5286 12.4932C92.2461 12.5479 92.0091 12.6322 91.8177 12.7461C91.6263 12.86 91.4805 13.0036 91.3802 13.1768C91.2799 13.3454 91.2298 13.5436 91.2298 13.7715C91.2298 14.0039 91.2822 14.2158 91.387 14.4072C91.4918 14.5986 91.6491 14.7513 91.8587 14.8652C92.0729 14.9746 92.3349 15.0293 92.6448 15.0293C93.0322 15.0293 93.374 14.9473 93.6702 14.7832C93.9665 14.6191 94.2012 14.4186 94.3743 14.1816C94.5521 13.9447 94.6478 13.7145 94.6614 13.4912L95.2015 14.0996C95.1696 14.291 95.083 14.5029 94.9417 14.7354C94.8004 14.9678 94.6113 15.1911 94.3743 15.4053C94.1419 15.6149 93.8639 15.7904 93.5404 15.9316C93.2213 16.0684 92.8613 16.1367 92.4603 16.1367C91.959 16.1367 91.5192 16.0387 91.1409 15.8428C90.7672 15.6468 90.4756 15.3848 90.2659 15.0566C90.0609 14.724 89.9583 14.3525 89.9583 13.9424C89.9583 13.5459 90.0358 13.1973 90.1907 12.8965C90.3457 12.5911 90.569 12.3382 90.8607 12.1377C91.1523 11.9326 91.5032 11.7777 91.9134 11.6729C92.3236 11.568 92.7816 11.5156 93.2874 11.5156H94.7571ZM106.907 14.5645V5.5H108.179V16H107.016L106.907 14.5645ZM101.931 12.3838V12.2402C101.931 11.6751 101.999 11.1624 102.136 10.7021C102.277 10.2373 102.475 9.83854 102.73 9.50586C102.99 9.17318 103.298 8.91797 103.653 8.74023C104.013 8.55794 104.414 8.4668 104.856 8.4668C105.321 8.4668 105.727 8.54883 106.073 8.71289C106.424 8.8724 106.72 9.1071 106.962 9.41699C107.208 9.72233 107.402 10.0915 107.543 10.5244C107.684 10.9574 107.782 11.4473 107.837 11.9941V12.623C107.787 13.1654 107.689 13.653 107.543 14.0859C107.402 14.5189 107.208 14.888 106.962 15.1934C106.72 15.4987 106.424 15.7334 106.073 15.8975C105.722 16.057 105.312 16.1367 104.843 16.1367C104.41 16.1367 104.013 16.0433 103.653 15.8564C103.298 15.6696 102.99 15.4076 102.73 15.0703C102.475 14.7331 102.277 14.3366 102.136 13.8809C101.999 13.4206 101.931 12.9215 101.931 12.3838ZM103.202 12.2402V12.3838C103.202 12.7529 103.238 13.0993 103.311 13.4229C103.389 13.7464 103.507 14.0312 103.667 14.2773C103.826 14.5234 104.029 14.7171 104.275 14.8584C104.521 14.9951 104.815 15.0635 105.157 15.0635C105.576 15.0635 105.92 14.9746 106.189 14.7969C106.463 14.6191 106.681 14.3844 106.846 14.0928C107.01 13.8011 107.137 13.4844 107.228 13.1426V11.4951C107.174 11.2445 107.094 11.0029 106.989 10.7705C106.889 10.5335 106.757 10.3239 106.593 10.1416C106.433 9.95475 106.235 9.80664 105.998 9.69727C105.765 9.58789 105.49 9.5332 105.171 9.5332C104.824 9.5332 104.526 9.60612 104.275 9.75195C104.029 9.89323 103.826 10.0892 103.667 10.3398C103.507 10.5859 103.389 10.873 103.311 11.2012C103.238 11.5247 103.202 11.8711 103.202 12.2402ZM113.707 16.1367C113.192 16.1367 112.725 16.0501 112.305 15.877C111.891 15.6992 111.533 15.4508 111.232 15.1318C110.936 14.8128 110.708 14.4346 110.548 13.9971C110.389 13.5596 110.309 13.0811 110.309 12.5615V12.2744C110.309 11.6729 110.398 11.1374 110.576 10.668C110.754 10.194 110.995 9.79297 111.3 9.46484C111.606 9.13672 111.952 8.88835 112.339 8.71973C112.727 8.55111 113.128 8.4668 113.543 8.4668C114.071 8.4668 114.527 8.55794 114.91 8.74023C115.297 8.92253 115.614 9.17773 115.86 9.50586C116.106 9.82943 116.288 10.2122 116.407 10.6543C116.525 11.0918 116.585 11.5703 116.585 12.0898V12.6572H111.061V11.625H115.32V11.5293C115.302 11.2012 115.233 10.8822 115.115 10.5723C115.001 10.2624 114.819 10.0072 114.568 9.80664C114.317 9.60612 113.976 9.50586 113.543 9.50586C113.255 9.50586 112.991 9.56738 112.75 9.69043C112.508 9.80892 112.301 9.98665 112.128 10.2236C111.954 10.4606 111.82 10.75 111.724 11.0918C111.629 11.4336 111.581 11.8278 111.581 12.2744V12.5615C111.581 12.9124 111.629 13.2428 111.724 13.5527C111.824 13.8581 111.968 14.127 112.155 14.3594C112.346 14.5918 112.576 14.7741 112.845 14.9062C113.119 15.0384 113.429 15.1045 113.775 15.1045C114.222 15.1045 114.6 15.0133 114.91 14.8311C115.22 14.6488 115.491 14.4049 115.723 14.0996L116.489 14.708C116.329 14.9495 116.127 15.1797 115.88 15.3984C115.634 15.6172 115.331 15.7949 114.971 15.9316C114.616 16.0684 114.194 16.1367 113.707 16.1367ZM123.778 10.0254V18.8438H122.507V8.60352H123.669L123.778 10.0254ZM128.762 12.2402V12.3838C128.762 12.9215 128.698 13.4206 128.57 13.8809C128.443 14.3366 128.256 14.7331 128.01 15.0703C127.768 15.4076 127.47 15.6696 127.114 15.8564C126.759 16.0433 126.351 16.1367 125.891 16.1367C125.421 16.1367 125.007 16.0592 124.647 15.9043C124.287 15.7493 123.981 15.5238 123.731 15.2275C123.48 14.9313 123.279 14.5758 123.129 14.1611C122.983 13.7464 122.883 13.2793 122.828 12.7598V11.9941C122.883 11.4473 122.985 10.9574 123.136 10.5244C123.286 10.0915 123.484 9.72233 123.731 9.41699C123.981 9.1071 124.284 8.8724 124.64 8.71289C124.995 8.54883 125.405 8.4668 125.87 8.4668C126.335 8.4668 126.748 8.55794 127.108 8.74023C127.468 8.91797 127.771 9.17318 128.017 9.50586C128.263 9.83854 128.447 10.2373 128.57 10.7021C128.698 11.1624 128.762 11.6751 128.762 12.2402ZM127.49 12.3838V12.2402C127.49 11.8711 127.452 11.5247 127.374 11.2012C127.297 10.873 127.176 10.5859 127.012 10.3398C126.852 10.0892 126.647 9.89323 126.397 9.75195C126.146 9.60612 125.847 9.5332 125.501 9.5332C125.182 9.5332 124.904 9.58789 124.667 9.69727C124.435 9.80664 124.236 9.95475 124.072 10.1416C123.908 10.3239 123.774 10.5335 123.669 10.7705C123.569 11.0029 123.494 11.2445 123.443 11.4951V13.2656C123.535 13.5846 123.662 13.8854 123.826 14.168C123.99 14.446 124.209 14.6715 124.483 14.8447C124.756 15.0133 125.1 15.0977 125.515 15.0977C125.857 15.0977 126.151 15.027 126.397 14.8857C126.647 14.7399 126.852 14.5417 127.012 14.291C127.176 14.0404 127.297 13.7533 127.374 13.4297C127.452 13.1016 127.49 12.7529 127.49 12.3838ZM132.13 9.76562V16H130.865V8.60352H132.096L132.13 9.76562ZM134.44 8.5625L134.433 9.73828C134.329 9.71549 134.228 9.70182 134.133 9.69727C134.042 9.68815 133.937 9.68359 133.818 9.68359C133.527 9.68359 133.269 9.72917 133.046 9.82031C132.822 9.91146 132.633 10.0391 132.478 10.2031C132.323 10.3672 132.2 10.5632 132.109 10.791C132.023 11.0143 131.966 11.2604 131.938 11.5293L131.583 11.7344C131.583 11.2878 131.626 10.8685 131.713 10.4766C131.804 10.0846 131.943 9.73828 132.13 9.4375C132.317 9.13216 132.554 8.89518 132.841 8.72656C133.132 8.55339 133.479 8.4668 133.88 8.4668C133.971 8.4668 134.076 8.47819 134.194 8.50098C134.313 8.51921 134.395 8.53971 134.44 8.5625ZM135.628 12.3838V12.2266C135.628 11.6934 135.705 11.1989 135.86 10.7432C136.015 10.2829 136.238 9.88411 136.53 9.54688C136.822 9.20508 137.175 8.94076 137.589 8.75391C138.004 8.5625 138.469 8.4668 138.984 8.4668C139.504 8.4668 139.971 8.5625 140.385 8.75391C140.805 8.94076 141.16 9.20508 141.452 9.54688C141.748 9.88411 141.974 10.2829 142.129 10.7432C142.284 11.1989 142.361 11.6934 142.361 12.2266V12.3838C142.361 12.917 142.284 13.4115 142.129 13.8672C141.974 14.3229 141.748 14.7217 141.452 15.0635C141.16 15.4007 140.807 15.665 140.392 15.8564C139.982 16.0433 139.517 16.1367 138.998 16.1367C138.478 16.1367 138.011 16.0433 137.596 15.8564C137.182 15.665 136.826 15.4007 136.53 15.0635C136.238 14.7217 136.015 14.3229 135.86 13.8672C135.705 13.4115 135.628 12.917 135.628 12.3838ZM136.892 12.2266V12.3838C136.892 12.7529 136.936 13.1016 137.022 13.4297C137.109 13.7533 137.239 14.0404 137.412 14.291C137.589 14.5417 137.811 14.7399 138.075 14.8857C138.339 15.027 138.647 15.0977 138.998 15.0977C139.344 15.0977 139.647 15.027 139.907 14.8857C140.171 14.7399 140.39 14.5417 140.563 14.291C140.736 14.0404 140.866 13.7533 140.953 13.4297C141.044 13.1016 141.089 12.7529 141.089 12.3838V12.2266C141.089 11.862 141.044 11.5179 140.953 11.1943C140.866 10.8662 140.734 10.5768 140.556 10.3262C140.383 10.071 140.164 9.87044 139.9 9.72461C139.64 9.57878 139.335 9.50586 138.984 9.50586C138.638 9.50586 138.332 9.57878 138.068 9.72461C137.808 9.87044 137.589 10.071 137.412 10.3262C137.239 10.5768 137.109 10.8662 137.022 11.1943C136.936 11.5179 136.892 11.862 136.892 12.2266ZM149.099 14.5645V5.5H150.371V16H149.208L149.099 14.5645ZM144.122 12.3838V12.2402C144.122 11.6751 144.191 11.1624 144.328 10.7021C144.469 10.2373 144.667 9.83854 144.922 9.50586C145.182 9.17318 145.49 8.91797 145.845 8.74023C146.205 8.55794 146.606 8.4668 147.048 8.4668C147.513 8.4668 147.919 8.54883 148.265 8.71289C148.616 8.8724 148.912 9.1071 149.154 9.41699C149.4 9.72233 149.593 10.0915 149.735 10.5244C149.876 10.9574 149.974 11.4473 150.029 11.9941V12.623C149.979 13.1654 149.881 13.653 149.735 14.0859C149.593 14.5189 149.4 14.888 149.154 15.1934C148.912 15.4987 148.616 15.7334 148.265 15.8975C147.914 16.057 147.504 16.1367 147.035 16.1367C146.602 16.1367 146.205 16.0433 145.845 15.8564C145.49 15.6696 145.182 15.4076 144.922 15.0703C144.667 14.7331 144.469 14.3366 144.328 13.8809C144.191 13.4206 144.122 12.9215 144.122 12.3838ZM145.394 12.2402V12.3838C145.394 12.7529 145.43 13.0993 145.503 13.4229C145.581 13.7464 145.699 14.0312 145.859 14.2773C146.018 14.5234 146.221 14.7171 146.467 14.8584C146.713 14.9951 147.007 15.0635 147.349 15.0635C147.768 15.0635 148.112 14.9746 148.381 14.7969C148.655 14.6191 148.873 14.3844 149.037 14.0928C149.202 13.8011 149.329 13.4844 149.42 13.1426V11.4951C149.366 11.2445 149.286 11.0029 149.181 10.7705C149.081 10.5335 148.949 10.3239 148.785 10.1416C148.625 9.95475 148.427 9.80664 148.19 9.69727C147.957 9.58789 147.682 9.5332 147.363 9.5332C147.016 9.5332 146.718 9.60612 146.467 9.75195C146.221 9.89323 146.018 10.0892 145.859 10.3398C145.699 10.5859 145.581 10.873 145.503 11.2012C145.43 11.5247 145.394 11.8711 145.394 12.2402ZM157.355 14.291V8.60352H158.626V16H157.416L157.355 14.291ZM157.594 12.7324L158.12 12.7188C158.12 13.2109 158.068 13.6667 157.963 14.0859C157.863 14.5007 157.699 14.8607 157.471 15.166C157.243 15.4714 156.944 15.7106 156.575 15.8838C156.206 16.0524 155.757 16.1367 155.229 16.1367C154.869 16.1367 154.538 16.0843 154.237 15.9795C153.941 15.8747 153.686 15.7129 153.472 15.4941C153.258 15.2754 153.091 14.9906 152.973 14.6396C152.859 14.2887 152.802 13.8672 152.802 13.375V8.60352H154.067V13.3887C154.067 13.7214 154.103 13.9971 154.176 14.2158C154.253 14.43 154.356 14.6009 154.484 14.7285C154.616 14.8516 154.762 14.9382 154.921 14.9883C155.085 15.0384 155.254 15.0635 155.427 15.0635C155.965 15.0635 156.391 14.9609 156.705 14.7559C157.02 14.5462 157.245 14.266 157.382 13.915C157.523 13.5596 157.594 13.1654 157.594 12.7324ZM164.004 15.0977C164.305 15.0977 164.583 15.0361 164.838 14.9131C165.093 14.79 165.303 14.6214 165.467 14.4072C165.631 14.1885 165.724 13.9401 165.747 13.6621H166.95C166.927 14.0996 166.779 14.5075 166.506 14.8857C166.237 15.2594 165.884 15.5625 165.446 15.7949C165.009 16.0228 164.528 16.1367 164.004 16.1367C163.448 16.1367 162.962 16.0387 162.548 15.8428C162.138 15.6468 161.796 15.3779 161.522 15.0361C161.254 14.6943 161.051 14.3024 160.914 13.8604C160.782 13.4137 160.716 12.9421 160.716 12.4453V12.1582C160.716 11.6615 160.782 11.1921 160.914 10.75C161.051 10.3034 161.254 9.90918 161.522 9.56738C161.796 9.22559 162.138 8.95671 162.548 8.76074C162.962 8.56478 163.448 8.4668 164.004 8.4668C164.583 8.4668 165.088 8.58529 165.521 8.82227C165.954 9.05469 166.294 9.3737 166.54 9.7793C166.791 10.1803 166.927 10.6361 166.95 11.1465H165.747C165.724 10.8411 165.638 10.5654 165.487 10.3193C165.341 10.0732 165.141 9.87728 164.886 9.73145C164.635 9.58105 164.341 9.50586 164.004 9.50586C163.616 9.50586 163.291 9.58333 163.026 9.73828C162.767 9.88867 162.559 10.0938 162.404 10.3535C162.254 10.6087 162.144 10.8936 162.076 11.208C162.012 11.5179 161.98 11.8346 161.98 12.1582V12.4453C161.98 12.7689 162.012 13.0879 162.076 13.4023C162.14 13.7168 162.247 14.0016 162.397 14.2568C162.552 14.512 162.76 14.7171 163.019 14.8721C163.284 15.0225 163.612 15.0977 164.004 15.0977ZM171.959 8.60352V9.57422H167.96V8.60352H171.959ZM169.313 6.80566H170.578V14.168C170.578 14.4186 170.617 14.6077 170.694 14.7354C170.772 14.863 170.872 14.9473 170.995 14.9883C171.118 15.0293 171.25 15.0498 171.391 15.0498C171.496 15.0498 171.605 15.0407 171.719 15.0225C171.838 14.9997 171.927 14.9814 171.986 14.9678L171.993 16C171.893 16.0319 171.76 16.0615 171.596 16.0889C171.437 16.1208 171.243 16.1367 171.015 16.1367C170.705 16.1367 170.421 16.0752 170.161 15.9521C169.901 15.8291 169.694 15.624 169.539 15.3369C169.388 15.0452 169.313 14.6533 169.313 14.1611V6.80566ZM173.46 12.3838V12.2266C173.46 11.6934 173.538 11.1989 173.693 10.7432C173.848 10.2829 174.071 9.88411 174.363 9.54688C174.654 9.20508 175.008 8.94076 175.422 8.75391C175.837 8.5625 176.302 8.4668 176.817 8.4668C177.336 8.4668 177.803 8.5625 178.218 8.75391C178.637 8.94076 178.993 9.20508 179.285 9.54688C179.581 9.88411 179.806 10.2829 179.961 10.7432C180.116 11.1989 180.194 11.6934 180.194 12.2266V12.3838C180.194 12.917 180.116 13.4115 179.961 13.8672C179.806 14.3229 179.581 14.7217 179.285 15.0635C178.993 15.4007 178.64 15.665 178.225 15.8564C177.815 16.0433 177.35 16.1367 176.831 16.1367C176.311 16.1367 175.844 16.0433 175.429 15.8564C175.014 15.665 174.659 15.4007 174.363 15.0635C174.071 14.7217 173.848 14.3229 173.693 13.8672C173.538 13.4115 173.46 12.917 173.46 12.3838ZM174.725 12.2266V12.3838C174.725 12.7529 174.768 13.1016 174.855 13.4297C174.942 13.7533 175.071 14.0404 175.245 14.291C175.422 14.5417 175.643 14.7399 175.908 14.8857C176.172 15.027 176.48 15.0977 176.831 15.0977C177.177 15.0977 177.48 15.027 177.74 14.8857C178.004 14.7399 178.223 14.5417 178.396 14.291C178.569 14.0404 178.699 13.7533 178.786 13.4297C178.877 13.1016 178.922 12.7529 178.922 12.3838V12.2266C178.922 11.862 178.877 11.5179 178.786 11.1943C178.699 10.8662 178.567 10.5768 178.389 10.3262C178.216 10.071 177.997 9.87044 177.733 9.72461C177.473 9.57878 177.168 9.50586 176.817 9.50586C176.47 9.50586 176.165 9.57878 175.901 9.72461C175.641 9.87044 175.422 10.071 175.245 10.3262C175.071 10.5768 174.942 10.8662 174.855 11.1943C174.768 11.5179 174.725 11.862 174.725 12.2266ZM186.576 14.0381C186.576 13.8558 186.535 13.6872 186.453 13.5322C186.376 13.3727 186.214 13.2292 185.968 13.1016C185.726 12.9694 185.362 12.8555 184.874 12.7598C184.464 12.6732 184.093 12.5706 183.76 12.4521C183.432 12.3337 183.152 12.1901 182.919 12.0215C182.691 11.8529 182.516 11.6546 182.393 11.4268C182.27 11.1989 182.208 10.9323 182.208 10.627C182.208 10.3353 182.272 10.0596 182.4 9.7998C182.532 9.54004 182.716 9.3099 182.953 9.10938C183.195 8.90885 183.484 8.75163 183.821 8.6377C184.159 8.52376 184.535 8.4668 184.949 8.4668C185.542 8.4668 186.048 8.57161 186.467 8.78125C186.886 8.99089 187.208 9.27116 187.431 9.62207C187.654 9.96842 187.766 10.3535 187.766 10.7773H186.501C186.501 10.5723 186.44 10.374 186.317 10.1826C186.198 9.98665 186.023 9.82487 185.79 9.69727C185.562 9.56966 185.282 9.50586 184.949 9.50586C184.599 9.50586 184.314 9.56055 184.095 9.66992C183.881 9.77474 183.724 9.90918 183.623 10.0732C183.528 10.2373 183.48 10.4105 183.48 10.5928C183.48 10.7295 183.502 10.8525 183.548 10.9619C183.598 11.0667 183.685 11.1647 183.808 11.2559C183.931 11.3424 184.104 11.4245 184.327 11.502C184.551 11.5794 184.835 11.6569 185.182 11.7344C185.788 11.8711 186.287 12.0352 186.679 12.2266C187.071 12.418 187.363 12.6527 187.554 12.9307C187.745 13.2087 187.841 13.5459 187.841 13.9424C187.841 14.266 187.773 14.5622 187.636 14.8311C187.504 15.0999 187.31 15.3324 187.055 15.5283C186.804 15.7197 186.503 15.8701 186.153 15.9795C185.806 16.0843 185.417 16.1367 184.984 16.1367C184.332 16.1367 183.78 16.0205 183.329 15.7881C182.878 15.5557 182.536 15.2549 182.304 14.8857C182.071 14.5166 181.955 14.127 181.955 13.7168H183.227C183.245 14.0632 183.345 14.3389 183.528 14.5439C183.71 14.7445 183.933 14.888 184.197 14.9746C184.462 15.0566 184.724 15.0977 184.984 15.0977C185.33 15.0977 185.619 15.0521 185.852 14.9609C186.089 14.8698 186.269 14.7445 186.392 14.585C186.515 14.4255 186.576 14.2432 186.576 14.0381Z" fill="#4898CF"/>
<path d="M23.75 15.335H18.335V13.25C18.335 12.5615 17.7734 12 17.085 12H7.91504C7.22656 12 6.66504 12.5615 6.66504 13.25V15.335H1.25C0.561523 15.335 0 15.8916 0 16.585V19.9199C0 20.6084 0.561523 21.1699 1.25 21.1699V34.5049C0.561523 34.5 0 35.0615 0 35.75C0 36.4385 0.561523 37 1.25 37H23.75C24.4385 37 25 36.4385 25 35.75C25 35.0615 24.4385 34.5 23.75 34.5V21.165C24.4385 21.165 25 20.6035 25 19.915V16.585C25 15.8916 24.4385 15.335 23.75 15.335ZM7.5 13.25C7.5 13.0205 7.68555 12.835 7.91504 12.835H17.0801C17.3096 12.835 17.4951 13.0205 17.4951 13.25V20.335H7.5V13.25ZM0.834961 19.915V16.585C0.834961 16.3555 1.02051 16.1699 1.25 16.1699H6.66504V20.335H1.25C1.02051 20.335 0.834961 20.1445 0.834961 19.915ZM24.165 35.75C24.165 35.9795 23.9795 36.165 23.75 36.165H1.25C1.02051 36.165 0.834961 35.9795 0.834961 35.75C0.834961 35.5205 1.02051 35.335 1.25 35.335H23.75C23.9795 35.335 24.165 35.5205 24.165 35.75ZM21.25 34.5H17.085V22.835H21.25V34.5ZM22.915 34.5H22.0801V22.835C22.0801 22.376 21.709 22 21.2451 22H17.0801C16.6211 22 16.2451 22.3711 16.2451 22.835V34.5H2.08496V21.165H22.9199V34.5H22.915ZM24.165 19.915C24.165 20.1445 23.9795 20.3301 23.75 20.3301H18.335V16.165H23.75C23.9795 16.165 24.165 16.3506 24.165 16.5801V19.915Z" fill="#20295C"/>
<path d="M14.585 22H3.75C3.29102 22 2.91504 22.3711 2.91504 22.835V32.835C2.91504 33.2939 3.28613 33.6699 3.75 33.6699H14.585C15.0439 33.6699 15.4199 33.2988 15.4199 32.835V22.835C15.415 22.3711 15.0439 22 14.585 22ZM14.585 27.415H12.5V24.915C12.5 24.2266 11.9385 23.665 11.25 23.665C10.5615 23.665 10 24.2266 10 24.915V27.415H9.16504V22.8301H14.5801V27.415H14.585ZM11.665 27.415H10.8301V24.915C10.8301 24.6855 11.0156 24.5 11.2451 24.5C11.4746 24.5 11.6602 24.6855 11.6602 24.915V27.415H11.665ZM3.75 22.835H8.33496V32.835H3.75V22.835ZM10.835 32.415C10.835 32.1855 11.0205 32 11.25 32C11.4795 32 11.665 32.1855 11.665 32.415C11.665 32.6445 11.4795 32.8301 11.25 32.8301C11.0205 32.8301 10.835 32.6445 10.835 32.415ZM13.75 32.835V29.5C13.75 29.2705 13.5645 29.085 13.335 29.085C13.1055 29.085 12.9199 29.2705 12.9199 29.5V32.835H12.4268C12.4756 32.7031 12.5 32.5615 12.5049 32.4199C12.5049 31.7314 11.9434 31.1699 11.2549 31.1699C10.5664 31.1699 10.0049 31.7314 10.0049 32.4199C10.0049 32.5615 10.0342 32.7031 10.083 32.835H9.1748V28.25H14.5898V32.835H13.75Z" fill="#20295C"/>
<path d="M20 29.085H20.415C20.6445 29.085 20.8301 28.8994 20.8301 28.6699C20.8301 28.4404 20.6445 28.2549 20.415 28.2549H20C19.7705 28.2549 19.585 28.4404 19.585 28.6699C19.585 28.8994 19.7705 29.085 20 29.085Z" fill="#20295C"/>
<path d="M10.415 17.835H11.25V18.6699C11.25 19.1289 11.6211 19.5049 12.085 19.5049H12.9199C13.3789 19.5049 13.7549 19.1338 13.7549 18.6699V17.835H14.5898C15.0488 17.835 15.4248 17.4639 15.4248 17V16.165C15.4248 15.7061 15.0537 15.3301 14.5898 15.3301H13.7549V14.5C13.7549 14.041 13.3838 13.665 12.9199 13.665H12.085C11.626 13.665 11.25 14.0361 11.25 14.5V15.335H10.415C9.95606 15.335 9.58008 15.7061 9.58008 16.1699V17.0049C9.58496 17.459 9.95606 17.835 10.415 17.835ZM10.415 16.165H11.665C11.8945 16.165 12.0801 15.9795 12.0801 15.75V14.5H12.915V15.75C12.915 15.9795 13.1006 16.165 13.3301 16.165H14.5801V17H13.3301C13.1006 17 12.915 17.1855 12.915 17.415V18.665H12.0801V17.415C12.0801 17.1855 11.8945 17 11.665 17H10.415V16.165Z" fill="#20295C"/>
</svg>
