<svg width="225" height="128" viewBox="0 0 225 128" fill="none" xmlns="http://www.w3.org/2000/svg">
<circle cx="183.327" cy="10.6195" r="10.6195" fill="white"/>
<circle cx="146.159" cy="10.6195" r="10.6195" fill="white"/>
<circle cx="111.646" cy="10.6195" r="10.6195" fill="white"/>
<circle cx="164.743" cy="26.5487" r="10.6195" fill="white"/>
<circle cx="127.575" cy="26.5487" r="10.6195" fill="white"/>
<circle cx="93.0619" cy="26.5487" r="10.6195" fill="white"/>
<circle cx="146.159" cy="42.4779" r="10.6195" fill="white"/>
<circle cx="108.991" cy="42.4779" r="10.6195" fill="white"/>
<circle cx="74.4779" cy="42.4779" r="10.6195" fill="white"/>
<circle cx="127.575" cy="58.4071" r="10.6195" fill="white"/>
<circle cx="90.4071" cy="58.4071" r="10.6195" fill="white"/>
<circle cx="55.8936" cy="58.4071" r="10.6195" fill="white"/>
<circle cx="42.6195" cy="39.8226" r="10.6195" fill="white"/>
<path d="M21.4062 94.9727L14.0625 118H7.26562L17.793 89.5625H22.0898L21.4062 94.9727ZM27.5 118L20.1367 94.9727L19.375 89.5625H23.7305L34.2969 118H27.5ZM27.1875 107.414V112.336H12.3633V107.414H27.1875ZM42.4609 101.789V118H36.3672V96.8672H42.0898L42.4609 101.789ZM48.7695 96.7109L48.6719 102.395C48.4115 102.355 48.0729 102.323 47.6562 102.297C47.2396 102.258 46.8815 102.238 46.582 102.238C45.8008 102.238 45.1237 102.336 44.5508 102.531C43.9909 102.714 43.5221 102.987 43.1445 103.352C42.7799 103.716 42.5065 104.172 42.3242 104.719C42.1419 105.253 42.0508 105.871 42.0508 106.574L40.8984 106.008C40.8984 104.615 41.0352 103.339 41.3086 102.18C41.582 101.021 41.9792 100.018 42.5 99.1719C43.0208 98.3125 43.6589 97.6484 44.4141 97.1797C45.1693 96.7109 46.0286 96.4766 46.9922 96.4766C47.3047 96.4766 47.6237 96.4961 47.9492 96.5352C48.2747 96.5742 48.5482 96.6328 48.7695 96.7109ZM59.707 113.645C60.3581 113.645 60.9245 113.521 61.4062 113.273C61.888 113.026 62.2591 112.681 62.5195 112.238C62.793 111.783 62.9297 111.236 62.9297 110.598H68.6719C68.6719 112.134 68.2747 113.488 67.4805 114.66C66.6992 115.832 65.6445 116.75 64.3164 117.414C62.9883 118.065 61.4909 118.391 59.8242 118.391C58.1836 118.391 56.7513 118.124 55.5273 117.59C54.3034 117.043 53.2812 116.281 52.4609 115.305C51.6406 114.328 51.0221 113.195 50.6055 111.906C50.2018 110.604 50 109.198 50 107.688V107.18C50 105.682 50.2018 104.283 50.6055 102.98C51.0221 101.678 51.6406 100.539 52.4609 99.5625C53.2812 98.5859 54.2969 97.8307 55.5078 97.2969C56.7318 96.75 58.1641 96.4766 59.8047 96.4766C61.5365 96.4766 63.0664 96.8086 64.3945 97.4727C65.7357 98.1367 66.7839 99.0938 67.5391 100.344C68.2943 101.581 68.6719 103.072 68.6719 104.816H62.9297C62.9297 104.139 62.806 103.534 62.5586 103C62.3242 102.453 61.9596 102.023 61.4648 101.711C60.9831 101.385 60.3841 101.223 59.668 101.223C58.9258 101.223 58.3138 101.385 57.832 101.711C57.3633 102.023 57.0052 102.46 56.7578 103.02C56.5104 103.579 56.3411 104.217 56.25 104.934C56.1589 105.637 56.1133 106.385 56.1133 107.18V107.688C56.1133 108.495 56.1589 109.263 56.25 109.992C56.3411 110.708 56.5104 111.34 56.7578 111.887C57.0182 112.434 57.3828 112.863 57.8516 113.176C58.3203 113.488 58.9388 113.645 59.707 113.645ZM82.9492 112.121C82.9492 111.73 82.8255 111.385 82.5781 111.086C82.3438 110.786 81.9141 110.513 81.2891 110.266C80.6771 110.018 79.8112 109.771 78.6914 109.523C77.6367 109.302 76.6536 109.016 75.7422 108.664C74.8307 108.299 74.0365 107.863 73.3594 107.355C72.6823 106.835 72.1549 106.223 71.7773 105.52C71.3997 104.803 71.2109 103.99 71.2109 103.078C71.2109 102.193 71.3997 101.353 71.7773 100.559C72.168 99.7643 72.7279 99.0612 73.457 98.4492C74.1992 97.8372 75.0977 97.3555 76.1523 97.0039C77.2201 96.6523 78.431 96.4766 79.7852 96.4766C81.6471 96.4766 83.2552 96.7695 84.6094 97.3555C85.9635 97.9284 87.0052 98.7357 87.7344 99.7773C88.4635 100.806 88.8281 101.984 88.8281 103.312H82.7344C82.7344 102.766 82.6302 102.29 82.4219 101.887C82.2135 101.483 81.8945 101.171 81.4648 100.949C81.0352 100.715 80.4688 100.598 79.7656 100.598C79.2188 100.598 78.737 100.695 78.3203 100.891C77.9167 101.073 77.5977 101.327 77.3633 101.652C77.1419 101.978 77.0312 102.355 77.0312 102.785C77.0312 103.085 77.0964 103.358 77.2266 103.605C77.3698 103.84 77.5846 104.061 77.8711 104.27C78.1706 104.465 78.5547 104.641 79.0234 104.797C79.5052 104.953 80.0911 105.103 80.7812 105.246C82.2526 105.52 83.5938 105.904 84.8047 106.398C86.0286 106.893 87.0052 107.577 87.7344 108.449C88.4766 109.322 88.8477 110.474 88.8477 111.906C88.8477 112.844 88.6328 113.703 88.2031 114.484C87.7865 115.266 87.181 115.949 86.3867 116.535C85.5924 117.121 84.6419 117.577 83.5352 117.902C82.4284 118.228 81.1784 118.391 79.7852 118.391C77.793 118.391 76.1068 118.033 74.7266 117.316C73.3464 116.6 72.3047 115.702 71.6016 114.621C70.9115 113.527 70.5664 112.408 70.5664 111.262H76.2891C76.3151 111.965 76.4909 112.538 76.8164 112.98C77.1549 113.423 77.5911 113.749 78.125 113.957C78.6589 114.152 79.2578 114.25 79.9219 114.25C80.5859 114.25 81.1393 114.159 81.582 113.977C82.0247 113.794 82.3633 113.547 82.5977 113.234C82.832 112.909 82.9492 112.538 82.9492 112.121ZM103.438 112.961V103.898C103.438 103.26 103.34 102.714 103.145 102.258C102.949 101.802 102.643 101.444 102.227 101.184C101.81 100.923 101.27 100.793 100.605 100.793C100.046 100.793 99.5573 100.891 99.1406 101.086C98.737 101.281 98.4245 101.561 98.2031 101.926C97.9948 102.29 97.8906 102.74 97.8906 103.273H91.7969C91.7969 102.323 92.0117 101.438 92.4414 100.617C92.8711 99.7969 93.4831 99.0742 94.2773 98.4492C95.0846 97.8242 96.0482 97.3424 97.168 97.0039C98.2878 96.6523 99.5443 96.4766 100.938 96.4766C102.591 96.4766 104.062 96.7565 105.352 97.3164C106.654 97.8633 107.682 98.6901 108.438 99.7969C109.193 100.891 109.57 102.271 109.57 103.938V112.785C109.57 114.061 109.642 115.064 109.785 115.793C109.941 116.509 110.163 117.134 110.449 117.668V118H104.297C104.01 117.388 103.796 116.633 103.652 115.734C103.509 114.823 103.438 113.898 103.438 112.961ZM104.199 105.109L104.238 108.469H101.211C100.534 108.469 99.9479 108.553 99.4531 108.723C98.9714 108.892 98.5807 109.126 98.2812 109.426C97.9818 109.712 97.7604 110.051 97.6172 110.441C97.487 110.819 97.4219 111.236 97.4219 111.691C97.4219 112.121 97.526 112.512 97.7344 112.863C97.9427 113.202 98.2292 113.469 98.5938 113.664C98.9583 113.859 99.3815 113.957 99.8633 113.957C100.658 113.957 101.335 113.801 101.895 113.488C102.467 113.176 102.91 112.798 103.223 112.355C103.535 111.9 103.691 111.477 103.691 111.086L105.156 113.625C104.922 114.146 104.635 114.686 104.297 115.246C103.958 115.793 103.529 116.307 103.008 116.789C102.487 117.258 101.855 117.642 101.113 117.941C100.384 118.241 99.5052 118.391 98.4766 118.391C97.1484 118.391 95.944 118.124 94.8633 117.59C93.7826 117.043 92.9167 116.294 92.2656 115.344C91.6276 114.393 91.3086 113.299 91.3086 112.062C91.3086 110.956 91.5104 109.973 91.9141 109.113C92.3177 108.254 92.9232 107.525 93.7305 106.926C94.5508 106.327 95.5794 105.878 96.8164 105.578C98.0534 105.266 99.4987 105.109 101.152 105.109H104.199ZM125.996 89.5625H129.648L138.965 112.746L148.262 89.5625H151.934L140.371 118H137.52L125.996 89.5625ZM124.805 89.5625H128.027L128.555 106.906V118H124.805V89.5625ZM149.883 89.5625H153.105V118H149.355V106.906L149.883 89.5625ZM158.223 107.668V107.219C158.223 105.695 158.444 104.283 158.887 102.98C159.329 101.665 159.967 100.526 160.801 99.5625C161.634 98.5859 162.643 97.8307 163.828 97.2969C165.013 96.75 166.341 96.4766 167.812 96.4766C169.297 96.4766 170.632 96.75 171.816 97.2969C173.014 97.8307 174.03 98.5859 174.863 99.5625C175.71 100.526 176.354 101.665 176.797 102.98C177.24 104.283 177.461 105.695 177.461 107.219V107.668C177.461 109.191 177.24 110.604 176.797 111.906C176.354 113.208 175.71 114.348 174.863 115.324C174.03 116.288 173.021 117.043 171.836 117.59C170.664 118.124 169.336 118.391 167.852 118.391C166.367 118.391 165.033 118.124 163.848 117.59C162.663 117.043 161.647 116.288 160.801 115.324C159.967 114.348 159.329 113.208 158.887 111.906C158.444 110.604 158.223 109.191 158.223 107.668ZM161.836 107.219V107.668C161.836 108.723 161.96 109.719 162.207 110.656C162.454 111.581 162.826 112.401 163.32 113.117C163.828 113.833 164.46 114.4 165.215 114.816C165.97 115.22 166.849 115.422 167.852 115.422C168.841 115.422 169.707 115.22 170.449 114.816C171.204 114.4 171.829 113.833 172.324 113.117C172.819 112.401 173.19 111.581 173.438 110.656C173.698 109.719 173.828 108.723 173.828 107.668V107.219C173.828 106.177 173.698 105.194 173.438 104.27C173.19 103.332 172.812 102.505 172.305 101.789C171.81 101.06 171.185 100.487 170.43 100.07C169.688 99.6536 168.815 99.4453 167.812 99.4453C166.823 99.4453 165.951 99.6536 165.195 100.07C164.453 100.487 163.828 101.06 163.32 101.789C162.826 102.505 162.454 103.332 162.207 104.27C161.96 105.194 161.836 106.177 161.836 107.219ZM165.664 93.7422L169.453 88H173.809L168.574 93.7422H165.664ZM188.105 114.738L193.887 96.8672H197.578L189.98 118H187.559L188.105 114.738ZM183.281 96.8672L189.238 114.836L189.648 118H187.227L179.57 96.8672H183.281ZM204.98 96.8672V118H201.348V96.8672H204.98ZM201.074 91.2617C201.074 90.6758 201.25 90.181 201.602 89.7773C201.966 89.3737 202.5 89.1719 203.203 89.1719C203.893 89.1719 204.421 89.3737 204.785 89.7773C205.163 90.181 205.352 90.6758 205.352 91.2617C205.352 91.8216 205.163 92.3034 204.785 92.707C204.421 93.0977 203.893 93.293 203.203 93.293C202.5 93.293 201.966 93.0977 201.602 92.707C201.25 92.3034 201.074 91.8216 201.074 91.2617ZM214.707 88V118H211.074V88H214.707Z" fill="white"/>
</svg>
