<svg width="189" height="23" viewBox="0 0 189 23" fill="none" xmlns="http://www.w3.org/2000/svg">
<path d="M43.3594 5.625V17H41.0156V5.625H43.3594ZM47.8906 10.4844V12.3125H42.7188V10.4844H47.8906ZM48.4375 5.625V7.46094H42.7188V5.625H48.4375ZM54.7788 15.0938V11.3281C54.7788 11.0573 54.7345 10.8255 54.6459 10.6328C54.5574 10.4349 54.4194 10.2812 54.2319 10.1719C54.0496 10.0625 53.8126 10.0078 53.5209 10.0078C53.2709 10.0078 53.0548 10.0521 52.8725 10.1406C52.6902 10.224 52.5496 10.3464 52.4506 10.5078C52.3517 10.6641 52.3022 10.849 52.3022 11.0625H50.0522C50.0522 10.7031 50.1355 10.362 50.3022 10.0391C50.4689 9.71615 50.711 9.43229 51.0288 9.1875C51.3465 8.9375 51.7241 8.74219 52.1616 8.60156C52.6043 8.46094 53.0991 8.39062 53.6459 8.39062C54.3022 8.39062 54.8855 8.5 55.3959 8.71875C55.9064 8.9375 56.3074 9.26562 56.5991 9.70312C56.8959 10.1406 57.0444 10.6875 57.0444 11.3438V14.9609C57.0444 15.4245 57.073 15.8047 57.1303 16.1016C57.1876 16.3932 57.2709 16.6484 57.3803 16.8672V17H55.1069C54.9975 16.7708 54.9142 16.4844 54.8569 16.1406C54.8048 15.7917 54.7788 15.4427 54.7788 15.0938ZM55.0756 11.8516L55.0913 13.125H53.8334C53.5366 13.125 53.2788 13.1589 53.06 13.2266C52.8413 13.2943 52.6616 13.3906 52.5209 13.5156C52.3803 13.6354 52.2761 13.776 52.2084 13.9375C52.1459 14.099 52.1147 14.276 52.1147 14.4688C52.1147 14.6615 52.159 14.8359 52.2475 14.9922C52.336 15.1432 52.4636 15.263 52.6303 15.3516C52.797 15.4349 52.9923 15.4766 53.2163 15.4766C53.5548 15.4766 53.8491 15.4089 54.0991 15.2734C54.3491 15.138 54.5418 14.9714 54.6772 14.7734C54.8178 14.5755 54.8907 14.388 54.8959 14.2109L55.4897 15.1641C55.4064 15.3776 55.2918 15.599 55.1459 15.8281C55.0053 16.0573 54.8256 16.2734 54.6069 16.4766C54.3881 16.6745 54.1251 16.8385 53.8178 16.9688C53.5105 17.0938 53.1459 17.1562 52.7241 17.1562C52.1876 17.1562 51.7006 17.0495 51.2631 16.8359C50.8308 16.6172 50.4871 16.3177 50.2319 15.9375C49.9819 15.5521 49.8569 15.1146 49.8569 14.625C49.8569 14.1823 49.9402 13.7891 50.1069 13.4453C50.2735 13.1016 50.5183 12.8125 50.8413 12.5781C51.1694 12.3385 51.5782 12.1589 52.0678 12.0391C52.5574 11.9141 53.1251 11.8516 53.7709 11.8516H55.0756ZM61.5888 10.3906V17H59.3388V8.54688H61.4559L61.5888 10.3906ZM64.1356 8.49219L64.0966 10.5781C63.9872 10.5625 63.8544 10.5495 63.6981 10.5391C63.5471 10.5234 63.4091 10.5156 63.2841 10.5156C62.9664 10.5156 62.6903 10.5573 62.4559 10.6406C62.2268 10.7188 62.0341 10.8359 61.8778 10.9922C61.7268 11.1484 61.6122 11.3385 61.5341 11.5625C61.4611 11.7865 61.4195 12.0417 61.4091 12.3281L60.9559 12.1875C60.9559 11.6406 61.0106 11.138 61.12 10.6797C61.2294 10.2161 61.3882 9.8125 61.5966 9.46875C61.8101 9.125 62.0705 8.85938 62.3778 8.67188C62.6851 8.48438 63.0367 8.39062 63.4325 8.39062C63.5575 8.39062 63.6851 8.40104 63.8153 8.42188C63.9455 8.4375 64.0523 8.46094 64.1356 8.49219ZM68.0081 10.2969V17H65.7503V8.54688H67.8675L68.0081 10.2969ZM67.6956 12.4766H67.0706C67.0706 11.888 67.1409 11.3464 67.2816 10.8516C67.4274 10.3516 67.6383 9.91927 67.9144 9.55469C68.1956 9.1849 68.542 8.89844 68.9534 8.69531C69.3649 8.49219 69.8415 8.39062 70.3831 8.39062C70.7581 8.39062 71.1019 8.44792 71.4144 8.5625C71.7269 8.67188 71.9951 8.84635 72.2191 9.08594C72.4482 9.32031 72.6253 9.6276 72.7503 10.0078C72.8753 10.3828 72.9378 10.8333 72.9378 11.3594V17H70.6878V11.6094C70.6878 11.224 70.6357 10.9271 70.5316 10.7188C70.4274 10.5104 70.279 10.3646 70.0863 10.2812C69.8988 10.1979 69.6722 10.1562 69.4066 10.1562C69.1149 10.1562 68.8597 10.2161 68.6409 10.3359C68.4274 10.4557 68.2503 10.6224 68.1097 10.8359C67.9691 11.0443 67.8649 11.2891 67.7972 11.5703C67.7295 11.8516 67.6956 12.1536 67.6956 12.4766ZM72.7269 12.2188L71.9222 12.3203C71.9222 11.7682 71.9899 11.2552 72.1253 10.7812C72.2659 10.3073 72.4717 9.89062 72.7425 9.53125C73.0185 9.17188 73.3597 8.89323 73.7659 8.69531C74.1722 8.49219 74.6409 8.39062 75.1722 8.39062C75.5784 8.39062 75.9482 8.45052 76.2816 8.57031C76.6149 8.6849 76.8988 8.86979 77.1331 9.125C77.3727 9.375 77.555 9.70312 77.68 10.1094C77.8102 10.5156 77.8753 11.013 77.8753 11.6016V17H75.6175V11.6016C75.6175 11.2109 75.5654 10.9141 75.4613 10.7109C75.3623 10.5026 75.2165 10.3594 75.0238 10.2812C74.8363 10.1979 74.6123 10.1562 74.3519 10.1562C74.081 10.1562 73.8441 10.2109 73.6409 10.3203C73.4378 10.4245 73.2685 10.5703 73.1331 10.7578C72.9977 10.9453 72.8961 11.1641 72.8284 11.4141C72.7607 11.6589 72.7269 11.9271 72.7269 12.2188ZM84.74 15.0938V11.3281C84.74 11.0573 84.6957 10.8255 84.6072 10.6328C84.5186 10.4349 84.3806 10.2812 84.1931 10.1719C84.0108 10.0625 83.7739 10.0078 83.4822 10.0078C83.2322 10.0078 83.016 10.0521 82.8338 10.1406C82.6515 10.224 82.5108 10.3464 82.4119 10.5078C82.3129 10.6641 82.2634 10.849 82.2634 11.0625H80.0134C80.0134 10.7031 80.0968 10.362 80.2634 10.0391C80.4301 9.71615 80.6723 9.43229 80.99 9.1875C81.3077 8.9375 81.6853 8.74219 82.1228 8.60156C82.5655 8.46094 83.0603 8.39062 83.6072 8.39062C84.2634 8.39062 84.8468 8.5 85.3572 8.71875C85.8676 8.9375 86.2686 9.26562 86.5603 9.70312C86.8572 10.1406 87.0056 10.6875 87.0056 11.3438V14.9609C87.0056 15.4245 87.0343 15.8047 87.0916 16.1016C87.1489 16.3932 87.2322 16.6484 87.3416 16.8672V17H85.0681C84.9588 16.7708 84.8754 16.4844 84.8181 16.1406C84.766 15.7917 84.74 15.4427 84.74 15.0938ZM85.0369 11.8516L85.0525 13.125H83.7947C83.4978 13.125 83.24 13.1589 83.0213 13.2266C82.8025 13.2943 82.6228 13.3906 82.4822 13.5156C82.3416 13.6354 82.2374 13.776 82.1697 13.9375C82.1072 14.099 82.0759 14.276 82.0759 14.4688C82.0759 14.6615 82.1202 14.8359 82.2088 14.9922C82.2973 15.1432 82.4249 15.263 82.5916 15.3516C82.7582 15.4349 82.9535 15.4766 83.1775 15.4766C83.516 15.4766 83.8103 15.4089 84.0603 15.2734C84.3103 15.138 84.503 14.9714 84.6384 14.7734C84.7791 14.5755 84.852 14.388 84.8572 14.2109L85.4509 15.1641C85.3676 15.3776 85.253 15.599 85.1072 15.8281C84.9666 16.0573 84.7869 16.2734 84.5681 16.4766C84.3494 16.6745 84.0864 16.8385 83.7791 16.9688C83.4718 17.0938 83.1072 17.1562 82.6853 17.1562C82.1489 17.1562 81.6619 17.0495 81.2244 16.8359C80.7921 16.6172 80.4483 16.3177 80.1931 15.9375C79.9431 15.5521 79.8181 15.1146 79.8181 14.625C79.8181 14.1823 79.9015 13.7891 80.0681 13.4453C80.2348 13.1016 80.4796 12.8125 80.8025 12.5781C81.1306 12.3385 81.5395 12.1589 82.0291 12.0391C82.5186 11.9141 83.0864 11.8516 83.7322 11.8516H85.0369ZM92.7922 15.3984C93.0682 15.3984 93.313 15.3464 93.5266 15.2422C93.7401 15.1328 93.9068 14.9818 94.0266 14.7891C94.1516 14.5911 94.2167 14.3594 94.2219 14.0938H96.3391C96.3339 14.6875 96.175 15.2161 95.8625 15.6797C95.55 16.138 95.1307 16.5 94.6047 16.7656C94.0786 17.026 93.4901 17.1562 92.8391 17.1562C92.1828 17.1562 91.6099 17.0469 91.1203 16.8281C90.6359 16.6094 90.2323 16.3073 89.9094 15.9219C89.5865 15.5312 89.3443 15.0781 89.1828 14.5625C89.0214 14.0417 88.9406 13.4844 88.9406 12.8906V12.6641C88.9406 12.0651 89.0214 11.5078 89.1828 10.9922C89.3443 10.4714 89.5865 10.0182 89.9094 9.63281C90.2323 9.24219 90.6359 8.9375 91.1203 8.71875C91.6047 8.5 92.1724 8.39062 92.8234 8.39062C93.5161 8.39062 94.1229 8.52344 94.6437 8.78906C95.1698 9.05469 95.5812 9.4349 95.8781 9.92969C96.1802 10.4193 96.3339 11 96.3391 11.6719H94.2219C94.2167 11.3906 94.1568 11.1354 94.0422 10.9062C93.9328 10.6771 93.7714 10.4948 93.5578 10.3594C93.3495 10.2188 93.0917 10.1484 92.7844 10.1484C92.4562 10.1484 92.188 10.2188 91.9797 10.3594C91.7714 10.4948 91.6099 10.6823 91.4953 10.9219C91.3807 11.1562 91.3 11.4245 91.2531 11.7266C91.2115 12.0234 91.1906 12.3359 91.1906 12.6641V12.8906C91.1906 13.2188 91.2115 13.5339 91.2531 13.8359C91.2948 14.138 91.3729 14.4062 91.4875 14.6406C91.6073 14.875 91.7714 15.0599 91.9797 15.1953C92.188 15.3307 92.4589 15.3984 92.7922 15.3984ZM100.579 8.54688V17H98.3209V8.54688H100.579ZM98.1803 6.34375C98.1803 6.01562 98.2949 5.74479 98.5241 5.53125C98.7532 5.31771 99.0605 5.21094 99.4459 5.21094C99.8261 5.21094 100.131 5.31771 100.36 5.53125C100.594 5.74479 100.712 6.01562 100.712 6.34375C100.712 6.67188 100.594 6.94271 100.36 7.15625C100.131 7.36979 99.8261 7.47656 99.4459 7.47656C99.0605 7.47656 98.7532 7.36979 98.5241 7.15625C98.2949 6.94271 98.1803 6.67188 98.1803 6.34375ZM107.561 15.0938V11.3281C107.561 11.0573 107.516 10.8255 107.428 10.6328C107.339 10.4349 107.201 10.2812 107.014 10.1719C106.831 10.0625 106.594 10.0078 106.303 10.0078C106.053 10.0078 105.837 10.0521 105.654 10.1406C105.472 10.224 105.331 10.3464 105.232 10.5078C105.134 10.6641 105.084 10.849 105.084 11.0625H102.834C102.834 10.7031 102.917 10.362 103.084 10.0391C103.251 9.71615 103.493 9.43229 103.811 9.1875C104.128 8.9375 104.506 8.74219 104.943 8.60156C105.386 8.46094 105.881 8.39062 106.428 8.39062C107.084 8.39062 107.667 8.5 108.178 8.71875C108.688 8.9375 109.089 9.26562 109.381 9.70312C109.678 10.1406 109.826 10.6875 109.826 11.3438V14.9609C109.826 15.4245 109.855 15.8047 109.912 16.1016C109.969 16.3932 110.053 16.6484 110.162 16.8672V17H107.889C107.779 16.7708 107.696 16.4844 107.639 16.1406C107.587 15.7917 107.561 15.4427 107.561 15.0938ZM107.857 11.8516L107.873 13.125H106.615C106.318 13.125 106.061 13.1589 105.842 13.2266C105.623 13.2943 105.443 13.3906 105.303 13.5156C105.162 13.6354 105.058 13.776 104.99 13.9375C104.928 14.099 104.897 14.276 104.897 14.4688C104.897 14.6615 104.941 14.8359 105.029 14.9922C105.118 15.1432 105.246 15.263 105.412 15.3516C105.579 15.4349 105.774 15.4766 105.998 15.4766C106.337 15.4766 106.631 15.4089 106.881 15.2734C107.131 15.138 107.324 14.9714 107.459 14.7734C107.6 14.5755 107.673 14.388 107.678 14.2109L108.272 15.1641C108.188 15.3776 108.074 15.599 107.928 15.8281C107.787 16.0573 107.607 16.2734 107.389 16.4766C107.17 16.6745 106.907 16.8385 106.6 16.9688C106.292 17.0938 105.928 17.1562 105.506 17.1562C104.969 17.1562 104.482 17.0495 104.045 16.8359C103.613 16.6172 103.269 16.3177 103.014 15.9375C102.764 15.5521 102.639 15.1146 102.639 14.625C102.639 14.1823 102.722 13.7891 102.889 13.4453C103.055 13.1016 103.3 12.8125 103.623 12.5781C103.951 12.3385 104.36 12.1589 104.85 12.0391C105.339 11.9141 105.907 11.8516 106.553 11.8516H107.857ZM116.691 14.6641C116.691 14.5026 116.644 14.3568 116.55 14.2266C116.457 14.0964 116.282 13.9766 116.027 13.8672C115.777 13.7526 115.415 13.6484 114.941 13.5547C114.514 13.4609 114.115 13.3438 113.746 13.2031C113.381 13.0573 113.063 12.8828 112.793 12.6797C112.527 12.4766 112.319 12.237 112.168 11.9609C112.016 11.6797 111.941 11.3594 111.941 11C111.941 10.6458 112.016 10.3125 112.168 10C112.324 9.6875 112.545 9.41146 112.832 9.17188C113.123 8.92708 113.477 8.73698 113.894 8.60156C114.316 8.46094 114.79 8.39062 115.316 8.39062C116.05 8.39062 116.681 8.50781 117.207 8.74219C117.738 8.97656 118.144 9.29948 118.425 9.71094C118.712 10.1172 118.855 10.5807 118.855 11.1016H116.605C116.605 10.8828 116.558 10.6875 116.464 10.5156C116.376 10.3385 116.235 10.2005 116.043 10.1016C115.855 9.9974 115.61 9.94531 115.308 9.94531C115.058 9.94531 114.842 9.98958 114.66 10.0781C114.477 10.1615 114.337 10.276 114.238 10.4219C114.144 10.5625 114.097 10.7188 114.097 10.8906C114.097 11.0208 114.123 11.138 114.175 11.2422C114.233 11.3411 114.324 11.4323 114.449 11.5156C114.574 11.599 114.735 11.6771 114.933 11.75C115.136 11.8177 115.386 11.8802 115.683 11.9375C116.293 12.0625 116.837 12.2266 117.316 12.4297C117.795 12.6276 118.175 12.8984 118.457 13.2422C118.738 13.5807 118.878 14.026 118.878 14.5781C118.878 14.9531 118.795 15.2969 118.628 15.6094C118.462 15.9219 118.222 16.1953 117.91 16.4297C117.597 16.6589 117.222 16.8385 116.785 16.9688C116.352 17.0938 115.865 17.1562 115.324 17.1562C114.537 17.1562 113.871 17.0156 113.324 16.7344C112.782 16.4531 112.371 16.0964 112.089 15.6641C111.813 15.2266 111.675 14.7786 111.675 14.3203H113.808C113.819 14.6276 113.897 14.875 114.043 15.0625C114.194 15.25 114.384 15.3854 114.613 15.4688C114.847 15.5521 115.1 15.5938 115.371 15.5938C115.662 15.5938 115.904 15.5547 116.097 15.4766C116.29 15.3932 116.436 15.2839 116.535 15.1484C116.639 15.0078 116.691 14.8464 116.691 14.6641ZM130.436 15.1562V5H132.702V17H130.662L130.436 15.1562ZM125.092 12.875V12.7109C125.092 12.0651 125.165 11.4792 125.311 10.9531C125.457 10.4219 125.67 9.96615 125.952 9.58594C126.233 9.20573 126.579 8.91146 126.991 8.70312C127.402 8.49479 127.871 8.39062 128.397 8.39062C128.892 8.39062 129.324 8.49479 129.694 8.70312C130.069 8.91146 130.386 9.20833 130.647 9.59375C130.912 9.97396 131.126 10.4245 131.287 10.9453C131.449 11.4609 131.566 12.026 131.639 12.6406V13C131.566 13.5885 131.449 14.1354 131.287 14.6406C131.126 15.1458 130.912 15.5885 130.647 15.9688C130.386 16.3438 130.069 16.6354 129.694 16.8438C129.319 17.0521 128.881 17.1562 128.381 17.1562C127.855 17.1562 127.386 17.0495 126.975 16.8359C126.569 16.6224 126.225 16.3229 125.944 15.9375C125.668 15.5521 125.457 15.099 125.311 14.5781C125.165 14.0573 125.092 13.4896 125.092 12.875ZM127.342 12.7109V12.875C127.342 13.224 127.368 13.5495 127.42 13.8516C127.478 14.1536 127.569 14.4219 127.694 14.6562C127.824 14.8854 127.991 15.0651 128.194 15.1953C128.402 15.3203 128.655 15.3828 128.952 15.3828C129.337 15.3828 129.655 15.2969 129.905 15.125C130.155 14.9479 130.345 14.7057 130.475 14.3984C130.61 14.0911 130.689 13.737 130.709 13.3359V12.3125C130.694 11.9844 130.647 11.6901 130.569 11.4297C130.496 11.1641 130.386 10.9375 130.241 10.75C130.1 10.5625 129.923 10.4167 129.709 10.3125C129.501 10.2083 129.254 10.1562 128.967 10.1562C128.676 10.1562 128.426 10.224 128.217 10.3594C128.009 10.4896 127.84 10.6693 127.709 10.8984C127.584 11.1276 127.491 11.3984 127.428 11.7109C127.371 12.0182 127.342 12.3516 127.342 12.7109ZM138.91 17.1562C138.254 17.1562 137.665 17.0521 137.144 16.8438C136.624 16.6302 136.181 16.3359 135.816 15.9609C135.457 15.5859 135.181 15.151 134.988 14.6562C134.795 14.1562 134.699 13.625 134.699 13.0625V12.75C134.699 12.1094 134.79 11.5234 134.973 10.9922C135.155 10.4609 135.415 10 135.754 9.60938C136.098 9.21875 136.514 8.91927 137.004 8.71094C137.493 8.4974 138.045 8.39062 138.66 8.39062C139.259 8.39062 139.79 8.48958 140.254 8.6875C140.717 8.88542 141.105 9.16667 141.418 9.53125C141.736 9.89583 141.975 10.3333 142.137 10.8438C142.298 11.349 142.379 11.9115 142.379 12.5312V13.4688H135.66V11.9688H140.168V11.7969C140.168 11.4844 140.111 11.2057 139.996 10.9609C139.887 10.7109 139.72 10.513 139.496 10.3672C139.272 10.2214 138.986 10.1484 138.637 10.1484C138.34 10.1484 138.084 10.2135 137.871 10.3438C137.657 10.474 137.483 10.6562 137.348 10.8906C137.217 11.125 137.118 11.401 137.051 11.7188C136.988 12.0312 136.957 12.375 136.957 12.75V13.0625C136.957 13.401 137.004 13.7135 137.098 14C137.196 14.2865 137.334 14.5339 137.512 14.7422C137.694 14.9505 137.913 15.112 138.168 15.2266C138.428 15.3411 138.723 15.3984 139.051 15.3984C139.457 15.3984 139.834 15.3203 140.183 15.1641C140.538 15.0026 140.842 14.7604 141.098 14.4375L142.191 15.625C142.014 15.8802 141.772 16.125 141.465 16.3594C141.163 16.5938 140.798 16.7865 140.371 16.9375C139.944 17.0833 139.457 17.1562 138.91 17.1562ZM152.905 8.54688V10.1406H147.983V8.54688H152.905ZM149.202 6.46094H151.452V14.4531C151.452 14.6979 151.483 14.8854 151.546 15.0156C151.613 15.1458 151.712 15.237 151.842 15.2891C151.973 15.3359 152.137 15.3594 152.335 15.3594C152.475 15.3594 152.6 15.3542 152.71 15.3438C152.824 15.3281 152.921 15.3125 152.999 15.2969L153.007 16.9531C152.814 17.0156 152.606 17.0651 152.382 17.1016C152.158 17.138 151.91 17.1562 151.639 17.1562C151.145 17.1562 150.712 17.0755 150.342 16.9141C149.978 16.7474 149.697 16.4818 149.499 16.1172C149.301 15.7526 149.202 15.2734 149.202 14.6797V6.46094ZM159.746 14.9766V8.54688H161.996V17H159.879L159.746 14.9766ZM159.996 13.2422L160.66 13.2266C160.66 13.7891 160.595 14.3125 160.465 14.7969C160.335 15.276 160.139 15.6927 159.879 16.0469C159.619 16.3958 159.291 16.6693 158.895 16.8672C158.499 17.0599 158.033 17.1562 157.496 17.1562C157.085 17.1562 156.705 17.099 156.356 16.9844C156.012 16.8646 155.715 16.6797 155.465 16.4297C155.22 16.1745 155.027 15.849 154.887 15.4531C154.751 15.0521 154.684 14.5703 154.684 14.0078V8.54688H156.934V14.0234C156.934 14.2734 156.962 14.4844 157.02 14.6562C157.082 14.8281 157.168 14.9688 157.277 15.0781C157.387 15.1875 157.514 15.2656 157.66 15.3125C157.811 15.3594 157.978 15.3828 158.16 15.3828C158.624 15.3828 158.988 15.2891 159.254 15.1016C159.525 14.9141 159.715 14.6589 159.824 14.3359C159.939 14.0078 159.996 13.6432 159.996 13.2422ZM166.525 10.3906V17H164.275V8.54688H166.392L166.525 10.3906ZM169.072 8.49219L169.033 10.5781C168.923 10.5625 168.791 10.5495 168.634 10.5391C168.483 10.5234 168.345 10.5156 168.22 10.5156C167.903 10.5156 167.627 10.5573 167.392 10.6406C167.163 10.7188 166.97 10.8359 166.814 10.9922C166.663 11.1484 166.548 11.3385 166.47 11.5625C166.397 11.7865 166.356 12.0417 166.345 12.3281L165.892 12.1875C165.892 11.6406 165.947 11.138 166.056 10.6797C166.166 10.2161 166.324 9.8125 166.533 9.46875C166.746 9.125 167.007 8.85938 167.314 8.67188C167.621 8.48438 167.973 8.39062 168.369 8.39062C168.494 8.39062 168.621 8.40104 168.752 8.42188C168.882 8.4375 168.989 8.46094 169.072 8.49219ZM172.898 10.3516V17H170.648V8.54688H172.757L172.898 10.3516ZM172.569 12.4766H171.96C171.96 11.8516 172.041 11.2891 172.202 10.7891C172.364 10.2839 172.59 9.85417 172.882 9.5C173.174 9.14062 173.52 8.86719 173.921 8.67969C174.327 8.48698 174.78 8.39062 175.28 8.39062C175.676 8.39062 176.038 8.44792 176.366 8.5625C176.694 8.67708 176.976 8.85938 177.21 9.10938C177.45 9.35938 177.632 9.6901 177.757 10.1016C177.887 10.513 177.952 11.0156 177.952 11.6094V17H175.687V11.6016C175.687 11.2266 175.634 10.9349 175.53 10.7266C175.426 10.5182 175.273 10.3724 175.069 10.2891C174.871 10.2005 174.627 10.1562 174.335 10.1562C174.033 10.1562 173.77 10.2161 173.546 10.3359C173.327 10.4557 173.145 10.6224 172.999 10.8359C172.858 11.0443 172.752 11.2891 172.679 11.5703C172.606 11.8516 172.569 12.1536 172.569 12.4766ZM179.864 12.8594V12.6953C179.864 12.0755 179.952 11.5052 180.129 10.9844C180.306 10.4583 180.564 10.0026 180.903 9.61719C181.241 9.23177 181.658 8.93229 182.153 8.71875C182.648 8.5 183.215 8.39062 183.856 8.39062C184.497 8.39062 185.067 8.5 185.567 8.71875C186.067 8.93229 186.486 9.23177 186.825 9.61719C187.168 10.0026 187.429 10.4583 187.606 10.9844C187.783 11.5052 187.872 12.0755 187.872 12.6953V12.8594C187.872 13.474 187.783 14.0443 187.606 14.5703C187.429 15.0911 187.168 15.5469 186.825 15.9375C186.486 16.3229 186.069 16.6224 185.575 16.8359C185.08 17.0495 184.512 17.1562 183.872 17.1562C183.231 17.1562 182.661 17.0495 182.161 16.8359C181.666 16.6224 181.247 16.3229 180.903 15.9375C180.564 15.5469 180.306 15.0911 180.129 14.5703C179.952 14.0443 179.864 13.474 179.864 12.8594ZM182.114 12.6953V12.8594C182.114 13.2135 182.145 13.5443 182.208 13.8516C182.27 14.1589 182.369 14.4297 182.504 14.6641C182.645 14.8932 182.827 15.0729 183.051 15.2031C183.275 15.3333 183.549 15.3984 183.872 15.3984C184.184 15.3984 184.452 15.3333 184.676 15.2031C184.9 15.0729 185.08 14.8932 185.215 14.6641C185.351 14.4297 185.45 14.1589 185.512 13.8516C185.58 13.5443 185.614 13.2135 185.614 12.8594V12.6953C185.614 12.3516 185.58 12.0286 185.512 11.7266C185.45 11.4193 185.348 11.1484 185.208 10.9141C185.072 10.6745 184.892 10.487 184.668 10.3516C184.444 10.2161 184.174 10.1484 183.856 10.1484C183.538 10.1484 183.267 10.2161 183.043 10.3516C182.825 10.487 182.645 10.6745 182.504 10.9141C182.369 11.1484 182.27 11.4193 182.208 11.7266C182.145 12.0286 182.114 12.3516 182.114 12.6953Z" fill="white"/>
<path d="M21.85 3.06816H16.8682V1.15C16.8682 0.516602 16.3516 0 15.7182 0H7.28184C6.64844 0 6.13184 0.516602 6.13184 1.15V3.06816H1.15C0.516602 3.06816 0 3.58027 0 4.21816V7.28633C0 7.91973 0.516602 8.43633 1.15 8.43633V20.7045C0.516602 20.7 0 21.2166 0 21.85C0 22.4834 0.516602 23 1.15 23H21.85C22.4834 23 23 22.4834 23 21.85C23 21.2166 22.4834 20.7 21.85 20.7V8.43184C22.4834 8.43184 23 7.91523 23 7.28184V4.21816C23 3.58027 22.4834 3.06816 21.85 3.06816ZM6.9 1.15C6.9 0.938867 7.0707 0.768164 7.28184 0.768164H15.7137C15.9248 0.768164 16.0955 0.938867 16.0955 1.15V7.66816H6.9V1.15ZM0.768164 7.28184V4.21816C0.768164 4.00703 0.938867 3.83633 1.15 3.83633H6.13184V7.66816H1.15C0.938867 7.66816 0.768164 7.49297 0.768164 7.28184ZM22.2318 21.85C22.2318 22.0611 22.0611 22.2318 21.85 22.2318H1.15C0.938867 22.2318 0.768164 22.0611 0.768164 21.85C0.768164 21.6389 0.938867 21.4682 1.15 21.4682H21.85C22.0611 21.4682 22.2318 21.6389 22.2318 21.85ZM19.55 20.7H15.7182V9.96816H19.55V20.7ZM21.0818 20.7H20.3137V9.96816C20.3137 9.5459 19.9723 9.2 19.5455 9.2H15.7137C15.2914 9.2 14.9455 9.54141 14.9455 9.96816V20.7H1.91816V8.43184H21.0863V20.7H21.0818ZM22.2318 7.28184C22.2318 7.49297 22.0611 7.66367 21.85 7.66367H16.8682V3.83184H21.85C22.0611 3.83184 22.2318 4.00254 22.2318 4.21367V7.28184Z" fill="white"/>
<path d="M13.4182 9.2002H3.45005C3.02778 9.2002 2.68188 9.5416 2.68188 9.96836V19.1684C2.68188 19.5906 3.02329 19.9365 3.45005 19.9365H13.4182C13.8405 19.9365 14.1864 19.5951 14.1864 19.1684V9.96836C14.1819 9.5416 13.8405 9.2002 13.4182 9.2002ZM13.4182 14.182H11.5V11.882C11.5 11.2486 10.9834 10.732 10.35 10.732C9.71665 10.732 9.20005 11.2486 9.20005 11.882V14.182H8.43188V9.96387H13.4137V14.182H13.4182ZM10.7319 14.182H9.96372V11.882C9.96372 11.6709 10.1344 11.5002 10.3456 11.5002C10.5567 11.5002 10.7274 11.6709 10.7274 11.882V14.182H10.7319ZM3.45005 9.96836H7.66821V19.1684H3.45005V9.96836ZM9.96821 18.782C9.96821 18.5709 10.1389 18.4002 10.35 18.4002C10.5612 18.4002 10.7319 18.5709 10.7319 18.782C10.7319 18.9932 10.5612 19.1639 10.35 19.1639C10.1389 19.1639 9.96821 18.9932 9.96821 18.782ZM12.65 19.1684V16.1002C12.65 15.8891 12.4793 15.7184 12.2682 15.7184C12.0571 15.7184 11.8864 15.8891 11.8864 16.1002V19.1684H11.4327C11.4776 19.0471 11.5 18.9168 11.5045 18.7865C11.5045 18.1531 10.9879 17.6365 10.3545 17.6365C9.72114 17.6365 9.20454 18.1531 9.20454 18.7865C9.20454 18.9168 9.23149 19.0471 9.27641 19.1684H8.44087V14.9502H13.4227V19.1684H12.65Z" fill="white"/>
<path d="M18.3999 15.7178H18.7817C18.9929 15.7178 19.1636 15.5471 19.1636 15.3359C19.1636 15.1248 18.9929 14.9541 18.7817 14.9541H18.3999C18.1888 14.9541 18.0181 15.1248 18.0181 15.3359C18.0181 15.5471 18.1888 15.7178 18.3999 15.7178Z" fill="white"/>
<path d="M9.58189 5.36855H10.35V6.13672C10.35 6.55898 10.6915 6.90488 11.1182 6.90488H11.8864C12.3086 6.90488 12.6545 6.56348 12.6545 6.13672V5.36855H13.4227C13.845 5.36855 14.1909 5.02715 14.1909 4.60039V3.83223C14.1909 3.40996 13.8495 3.06406 13.4227 3.06406H12.6545V2.30039C12.6545 1.87813 12.3131 1.53223 11.8864 1.53223H11.1182C10.6959 1.53223 10.35 1.87363 10.35 2.30039V3.06855H9.58189C9.15962 3.06855 8.81372 3.40996 8.81372 3.83672V4.60488C8.81821 5.02266 9.15962 5.36855 9.58189 5.36855ZM9.58189 3.83223H10.7319C10.943 3.83223 11.1137 3.66152 11.1137 3.45039V2.30039H11.8819V3.45039C11.8819 3.66152 12.0526 3.83223 12.2637 3.83223H13.4137V4.60039H12.2637C12.0526 4.60039 11.8819 4.77109 11.8819 4.98223V6.13223H11.1137V4.98223C11.1137 4.77109 10.943 4.60039 10.7319 4.60039H9.58189V3.83223Z" fill="white"/>
</svg>
