<svg width="166" height="27" viewBox="0 0 166 27" fill="none" xmlns="http://www.w3.org/2000/svg">
<path d="M40.9238 20H38.7773L38.791 18.5234H40.9238C41.5026 18.5234 41.988 18.3958 42.3799 18.1406C42.7718 17.8809 43.068 17.5094 43.2686 17.0264C43.4691 16.5387 43.5693 15.9554 43.5693 15.2764V14.7637C43.5693 14.2396 43.5124 13.777 43.3984 13.376C43.2845 12.9749 43.1159 12.6377 42.8926 12.3643C42.6738 12.0908 42.4027 11.8835 42.0791 11.7422C41.7555 11.6009 41.3841 11.5303 40.9648 11.5303H38.7363V10.0469H40.9648C41.6302 10.0469 42.2363 10.1585 42.7832 10.3818C43.3346 10.6051 43.8109 10.9264 44.2119 11.3457C44.6175 11.7604 44.9274 12.2572 45.1416 12.8359C45.3604 13.4147 45.4697 14.0618 45.4697 14.7773V15.2764C45.4697 15.9873 45.3604 16.6344 45.1416 17.2178C44.9274 17.7965 44.6175 18.2933 44.2119 18.708C43.8109 19.1227 43.3324 19.4417 42.7764 19.665C42.2204 19.8883 41.6029 20 40.9238 20ZM39.8301 10.0469V20H37.9502V10.0469H39.8301ZM50.2549 20.1367C49.6943 20.1367 49.1908 20.0456 48.7441 19.8633C48.2975 19.681 47.917 19.4281 47.6025 19.1045C47.2926 18.7764 47.0534 18.3958 46.8848 17.9629C46.7207 17.5254 46.6387 17.056 46.6387 16.5547V16.2812C46.6387 15.7116 46.7207 15.1943 46.8848 14.7295C47.0488 14.2601 47.2812 13.8568 47.582 13.5195C47.8828 13.1823 48.2428 12.9225 48.6621 12.7402C49.0814 12.5579 49.5439 12.4668 50.0498 12.4668C50.5739 12.4668 51.0365 12.5557 51.4375 12.7334C51.8385 12.9066 52.1735 13.1527 52.4424 13.4717C52.7113 13.7907 52.9141 14.1735 53.0508 14.6201C53.1875 15.0622 53.2559 15.5521 53.2559 16.0898V16.8486H47.459V15.6045H51.4785V15.4678C51.4694 15.1807 51.4147 14.9186 51.3145 14.6816C51.2142 14.4401 51.0592 14.2487 50.8496 14.1074C50.64 13.9616 50.3688 13.8887 50.0361 13.8887C49.7673 13.8887 49.5326 13.9479 49.332 14.0664C49.1361 14.1803 48.972 14.3444 48.8398 14.5586C48.7122 14.7682 48.6165 15.0189 48.5527 15.3105C48.4889 15.6022 48.457 15.9258 48.457 16.2812V16.5547C48.457 16.8646 48.498 17.1517 48.5801 17.416C48.6667 17.6803 48.792 17.9105 48.9561 18.1064C49.1247 18.2979 49.3252 18.4482 49.5576 18.5576C49.7946 18.6624 50.0635 18.7148 50.3643 18.7148C50.7425 18.7148 51.0843 18.6419 51.3896 18.4961C51.6995 18.3457 51.9684 18.1247 52.1963 17.833L53.1055 18.7764C52.9505 19.0042 52.7409 19.223 52.4766 19.4326C52.2168 19.6423 51.9023 19.8132 51.5332 19.9453C51.1641 20.0729 50.738 20.1367 50.2549 20.1367ZM56.2363 14.1826V20H54.4316V12.6035H56.127L56.2363 14.1826ZM55.9492 16.0352H55.416C55.4206 15.4974 55.4935 15.0098 55.6348 14.5723C55.776 14.1348 55.9743 13.7588 56.2295 13.4443C56.4893 13.1299 56.7969 12.8883 57.1523 12.7197C57.5078 12.5511 57.9043 12.4668 58.3418 12.4668C58.6973 12.4668 59.0186 12.5169 59.3057 12.6172C59.5928 12.7174 59.8389 12.877 60.0439 13.0957C60.2536 13.3145 60.4131 13.6016 60.5225 13.957C60.6364 14.3079 60.6934 14.7409 60.6934 15.2559V20H58.875V15.2422C58.875 14.9049 58.8249 14.6383 58.7246 14.4424C58.6289 14.2464 58.4876 14.1074 58.3008 14.0254C58.1185 13.9434 57.8929 13.9023 57.624 13.9023C57.346 13.9023 57.1022 13.9593 56.8926 14.0732C56.6875 14.1826 56.5143 14.3353 56.373 14.5312C56.2363 14.7272 56.1315 14.9528 56.0586 15.208C55.9857 15.4632 55.9492 15.7389 55.9492 16.0352ZM66.6885 18.2432V12.6035H68.5068V20H66.7979L66.6885 18.2432ZM66.9209 16.7119L67.4814 16.6982C67.4814 17.195 67.4268 17.653 67.3174 18.0723C67.208 18.4915 67.0371 18.8561 66.8047 19.166C66.5768 19.4714 66.2874 19.7106 65.9365 19.8838C65.5856 20.0524 65.1709 20.1367 64.6924 20.1367C64.3278 20.1367 63.9951 20.0866 63.6943 19.9863C63.3936 19.8815 63.1338 19.7197 62.915 19.501C62.7008 19.2777 62.5345 18.9928 62.416 18.6465C62.2975 18.2956 62.2383 17.874 62.2383 17.3818V12.6035H64.043V17.3955C64.043 17.6416 64.0703 17.8467 64.125 18.0107C64.1842 18.1748 64.264 18.3092 64.3643 18.4141C64.4691 18.5143 64.5898 18.5872 64.7266 18.6328C64.8678 18.6738 65.0182 18.6943 65.1777 18.6943C65.6152 18.6943 65.9593 18.6077 66.21 18.4346C66.4652 18.2568 66.6475 18.0199 66.7568 17.7236C66.8662 17.4229 66.9209 17.0856 66.9209 16.7119ZM71.877 14.1826V20H70.0723V12.6035H71.7676L71.877 14.1826ZM71.5898 16.0352H71.0566C71.0612 15.4974 71.1341 15.0098 71.2754 14.5723C71.4167 14.1348 71.6149 13.7588 71.8701 13.4443C72.1299 13.1299 72.4375 12.8883 72.793 12.7197C73.1484 12.5511 73.5449 12.4668 73.9824 12.4668C74.3379 12.4668 74.6592 12.5169 74.9463 12.6172C75.2334 12.7174 75.4795 12.877 75.6846 13.0957C75.8942 13.3145 76.0537 13.6016 76.1631 13.957C76.277 14.3079 76.334 14.7409 76.334 15.2559V20H74.5156V15.2422C74.5156 14.9049 74.4655 14.6383 74.3652 14.4424C74.2695 14.2464 74.1283 14.1074 73.9414 14.0254C73.7591 13.9434 73.5335 13.9023 73.2646 13.9023C72.9867 13.9023 72.7428 13.9593 72.5332 14.0732C72.3281 14.1826 72.1549 14.3353 72.0137 14.5312C71.877 14.7272 71.7721 14.9528 71.6992 15.208C71.6263 15.4632 71.5898 15.7389 71.5898 16.0352ZM80.9619 18.7148C81.2171 18.7148 81.445 18.6647 81.6455 18.5645C81.846 18.4642 82.0055 18.3229 82.124 18.1406C82.2471 17.9583 82.3132 17.7464 82.3223 17.5049H84.0244C84.0153 18.0062 83.874 18.4551 83.6006 18.8516C83.3271 19.248 82.9626 19.5625 82.5068 19.7949C82.0557 20.0228 81.5498 20.1367 80.9893 20.1367C80.4196 20.1367 79.9229 20.041 79.499 19.8496C79.0752 19.6582 78.722 19.3916 78.4395 19.0498C78.1615 18.708 77.9518 18.3115 77.8105 17.8604C77.6738 17.4092 77.6055 16.9261 77.6055 16.4111V16.1924C77.6055 15.6774 77.6738 15.1943 77.8105 14.7432C77.9518 14.292 78.1615 13.8955 78.4395 13.5537C78.722 13.2119 79.0752 12.9453 79.499 12.7539C79.9229 12.5625 80.4173 12.4668 80.9824 12.4668C81.5794 12.4668 82.1035 12.583 82.5547 12.8154C83.0104 13.0479 83.3659 13.376 83.6211 13.7998C83.8809 14.2236 84.0153 14.7227 84.0244 15.2969H82.3223C82.3132 15.0326 82.2539 14.7956 82.1445 14.5859C82.0352 14.3763 81.8802 14.2077 81.6797 14.0801C81.4792 13.9525 81.2354 13.8887 80.9482 13.8887C80.6429 13.8887 80.3877 13.9525 80.1826 14.0801C79.9821 14.2077 79.8249 14.3831 79.7109 14.6064C79.6016 14.8252 79.5241 15.0713 79.4785 15.3447C79.4375 15.6136 79.417 15.8962 79.417 16.1924V16.4111C79.417 16.7119 79.4375 16.999 79.4785 17.2725C79.5241 17.5459 79.6016 17.792 79.7109 18.0107C79.8249 18.2249 79.9821 18.3958 80.1826 18.5234C80.3877 18.651 80.6475 18.7148 80.9619 18.7148ZM87.1416 12.6035V20H85.3301V12.6035H87.1416ZM85.207 10.6689C85.207 10.4001 85.2982 10.1768 85.4805 9.99902C85.6673 9.82129 85.918 9.73242 86.2324 9.73242C86.5469 9.73242 86.7952 9.82129 86.9775 9.99902C87.1644 10.1768 87.2578 10.4001 87.2578 10.6689C87.2578 10.9333 87.1644 11.1543 86.9775 11.332C86.7952 11.5098 86.5469 11.5986 86.2324 11.5986C85.918 11.5986 85.6673 11.5098 85.4805 11.332C85.2982 11.1543 85.207 10.9333 85.207 10.6689ZM92.9385 18.4277V15.0166C92.9385 14.766 92.8952 14.5495 92.8086 14.3672C92.722 14.1849 92.5898 14.0436 92.4121 13.9434C92.2344 13.8431 92.0088 13.793 91.7354 13.793C91.4938 13.793 91.2819 13.834 91.0996 13.916C90.9219 13.998 90.7852 14.1143 90.6895 14.2646C90.5938 14.4105 90.5459 14.5791 90.5459 14.7705H88.7344C88.7344 14.4652 88.8073 14.1758 88.9531 13.9023C89.099 13.6243 89.3063 13.3783 89.5752 13.1641C89.8486 12.9453 90.1745 12.7744 90.5527 12.6514C90.9355 12.5283 91.3639 12.4668 91.8379 12.4668C92.3984 12.4668 92.8975 12.5625 93.335 12.7539C93.777 12.9408 94.1234 13.2233 94.374 13.6016C94.6292 13.9798 94.7568 14.4561 94.7568 15.0303V18.2568C94.7568 18.626 94.7796 18.9427 94.8252 19.207C94.8753 19.4668 94.9482 19.6924 95.0439 19.8838V20H93.2051C93.1185 19.8132 93.0524 19.5762 93.0068 19.2891C92.9613 18.9974 92.9385 18.7103 92.9385 18.4277ZM93.1914 15.4951L93.2051 16.5684H92.0635C91.7809 16.5684 91.5326 16.598 91.3184 16.6572C91.1042 16.7119 90.9287 16.7939 90.792 16.9033C90.6553 17.0081 90.5527 17.1357 90.4844 17.2861C90.416 17.432 90.3818 17.5983 90.3818 17.7852C90.3818 17.9674 90.4229 18.1315 90.5049 18.2773C90.5915 18.4232 90.7145 18.5394 90.874 18.626C91.0381 18.708 91.2295 18.749 91.4482 18.749C91.7673 18.749 92.0452 18.6852 92.2822 18.5576C92.5192 18.4255 92.7038 18.266 92.8359 18.0791C92.9681 17.8923 93.0387 17.7145 93.0479 17.5459L93.5674 18.3252C93.5036 18.512 93.4079 18.7103 93.2803 18.9199C93.1527 19.1296 92.9886 19.3255 92.7881 19.5078C92.5876 19.6901 92.346 19.8405 92.0635 19.959C91.7809 20.0775 91.4528 20.1367 91.0791 20.1367C90.6006 20.1367 90.1722 20.041 89.7939 19.8496C89.4157 19.6582 89.1172 19.3962 88.8984 19.0635C88.6797 18.7308 88.5703 18.3525 88.5703 17.9287C88.5703 17.5368 88.6432 17.1904 88.7891 16.8896C88.9349 16.5889 89.1514 16.3359 89.4385 16.1309C89.7256 15.9212 90.0811 15.764 90.5049 15.6592C90.9333 15.5498 91.4232 15.4951 91.9746 15.4951H93.1914ZM105.831 16.7256H107.711C107.661 17.391 107.476 17.9811 107.157 18.4961C106.838 19.0065 106.394 19.4076 105.824 19.6992C105.255 19.9909 104.564 20.1367 103.753 20.1367C103.129 20.1367 102.566 20.0273 102.064 19.8086C101.568 19.5853 101.142 19.2686 100.786 18.8584C100.435 18.4437 100.166 17.9469 99.9795 17.3682C99.7926 16.7848 99.6992 16.1309 99.6992 15.4062V14.6475C99.6992 13.9229 99.7949 13.2689 99.9863 12.6855C100.178 12.1022 100.451 11.6055 100.807 11.1953C101.167 10.7806 101.597 10.4616 102.099 10.2383C102.604 10.015 103.17 9.90332 103.794 9.90332C104.605 9.90332 105.291 10.0537 105.852 10.3545C106.412 10.6507 106.847 11.0586 107.157 11.5781C107.467 12.0977 107.654 12.6947 107.718 13.3691H105.838C105.801 12.9499 105.71 12.5944 105.564 12.3027C105.423 12.0111 105.209 11.79 104.922 11.6396C104.639 11.4847 104.263 11.4072 103.794 11.4072C103.429 11.4072 103.108 11.4756 102.83 11.6123C102.557 11.749 102.329 11.9541 102.146 12.2275C101.964 12.4964 101.827 12.8337 101.736 13.2393C101.645 13.6403 101.6 14.1051 101.6 14.6338V15.4062C101.6 15.9121 101.641 16.3656 101.723 16.7666C101.805 17.1676 101.932 17.5072 102.105 17.7852C102.279 18.0632 102.502 18.2751 102.775 18.4209C103.049 18.5667 103.375 18.6396 103.753 18.6396C104.213 18.6396 104.587 18.5667 104.874 18.4209C105.166 18.2751 105.387 18.0609 105.537 17.7783C105.692 17.4958 105.79 17.1449 105.831 16.7256ZM110.944 12.6035V20H109.133V12.6035H110.944ZM109.01 10.6689C109.01 10.4001 109.101 10.1768 109.283 9.99902C109.47 9.82129 109.721 9.73242 110.035 9.73242C110.35 9.73242 110.598 9.82129 110.78 9.99902C110.967 10.1768 111.061 10.4001 111.061 10.6689C111.061 10.9333 110.967 11.1543 110.78 11.332C110.598 11.5098 110.35 11.5986 110.035 11.5986C109.721 11.5986 109.47 11.5098 109.283 11.332C109.101 11.1543 109.01 10.9333 109.01 10.6689ZM117.069 18.2432V12.6035H118.888V20H117.179L117.069 18.2432ZM117.302 16.7119L117.862 16.6982C117.862 17.195 117.808 17.653 117.698 18.0723C117.589 18.4915 117.418 18.8561 117.186 19.166C116.958 19.4714 116.668 19.7106 116.317 19.8838C115.966 20.0524 115.552 20.1367 115.073 20.1367C114.709 20.1367 114.376 20.0866 114.075 19.9863C113.774 19.8815 113.515 19.7197 113.296 19.501C113.082 19.2777 112.915 18.9928 112.797 18.6465C112.678 18.2956 112.619 17.874 112.619 17.3818V12.6035H114.424V17.3955C114.424 17.6416 114.451 17.8467 114.506 18.0107C114.565 18.1748 114.645 18.3092 114.745 18.4141C114.85 18.5143 114.971 18.5872 115.107 18.6328C115.249 18.6738 115.399 18.6943 115.559 18.6943C115.996 18.6943 116.34 18.6077 116.591 18.4346C116.846 18.2568 117.028 18.0199 117.138 17.7236C117.247 17.4229 117.302 17.0856 117.302 16.7119ZM124.924 18.4277V9.5H126.742V20H125.102L124.924 18.4277ZM120.173 16.3906V16.2471C120.173 15.682 120.237 15.1693 120.364 14.709C120.496 14.2441 120.688 13.8454 120.938 13.5127C121.189 13.18 121.492 12.9225 121.848 12.7402C122.208 12.5579 122.616 12.4668 123.071 12.4668C123.513 12.4668 123.898 12.5557 124.227 12.7334C124.559 12.9111 124.842 13.1641 125.074 13.4922C125.311 13.8203 125.5 14.21 125.642 14.6611C125.783 15.1077 125.885 15.5999 125.949 16.1377V16.5273C125.885 17.0514 125.783 17.5322 125.642 17.9697C125.5 18.4072 125.311 18.79 125.074 19.1182C124.842 19.4417 124.559 19.6924 124.227 19.8701C123.894 20.0479 123.504 20.1367 123.058 20.1367C122.606 20.1367 122.201 20.0433 121.841 19.8564C121.485 19.6696 121.182 19.4076 120.932 19.0703C120.686 18.7331 120.496 18.3366 120.364 17.8809C120.237 17.4251 120.173 16.9284 120.173 16.3906ZM121.984 16.2471V16.3906C121.984 16.7096 122.012 17.0081 122.066 17.2861C122.121 17.5641 122.21 17.8102 122.333 18.0244C122.456 18.234 122.613 18.3981 122.805 18.5166C123.001 18.6351 123.238 18.6943 123.516 18.6943C123.871 18.6943 124.163 18.6169 124.391 18.4619C124.623 18.3024 124.803 18.0859 124.931 17.8125C125.058 17.5345 125.14 17.2223 125.177 16.876V15.8027C125.159 15.5293 125.111 15.2764 125.033 15.0439C124.96 14.8115 124.855 14.611 124.719 14.4424C124.587 14.2738 124.423 14.1416 124.227 14.0459C124.031 13.9502 123.798 13.9023 123.529 13.9023C123.251 13.9023 123.014 13.9639 122.818 14.0869C122.622 14.2054 122.463 14.3717 122.34 14.5859C122.217 14.8001 122.126 15.0485 122.066 15.3311C122.012 15.6136 121.984 15.9189 121.984 16.2471ZM132.45 18.4277V15.0166C132.45 14.766 132.407 14.5495 132.32 14.3672C132.234 14.1849 132.102 14.0436 131.924 13.9434C131.746 13.8431 131.521 13.793 131.247 13.793C131.006 13.793 130.794 13.834 130.611 13.916C130.434 13.998 130.297 14.1143 130.201 14.2646C130.105 14.4105 130.058 14.5791 130.058 14.7705H128.246C128.246 14.4652 128.319 14.1758 128.465 13.9023C128.611 13.6243 128.818 13.3783 129.087 13.1641C129.36 12.9453 129.686 12.7744 130.064 12.6514C130.447 12.5283 130.876 12.4668 131.35 12.4668C131.91 12.4668 132.409 12.5625 132.847 12.7539C133.289 12.9408 133.635 13.2233 133.886 13.6016C134.141 13.9798 134.269 14.4561 134.269 15.0303V18.2568C134.269 18.626 134.291 18.9427 134.337 19.207C134.387 19.4668 134.46 19.6924 134.556 19.8838V20H132.717C132.63 19.8132 132.564 19.5762 132.519 19.2891C132.473 18.9974 132.45 18.7103 132.45 18.4277ZM132.703 15.4951L132.717 16.5684H131.575C131.293 16.5684 131.044 16.598 130.83 16.6572C130.616 16.7119 130.44 16.7939 130.304 16.9033C130.167 17.0081 130.064 17.1357 129.996 17.2861C129.928 17.432 129.894 17.5983 129.894 17.7852C129.894 17.9674 129.935 18.1315 130.017 18.2773C130.103 18.4232 130.226 18.5394 130.386 18.626C130.55 18.708 130.741 18.749 130.96 18.749C131.279 18.749 131.557 18.6852 131.794 18.5576C132.031 18.4255 132.215 18.266 132.348 18.0791C132.48 17.8923 132.55 17.7145 132.56 17.5459L133.079 18.3252C133.015 18.512 132.92 18.7103 132.792 18.9199C132.664 19.1296 132.5 19.3255 132.3 19.5078C132.099 19.6901 131.858 19.8405 131.575 19.959C131.293 20.0775 130.965 20.1367 130.591 20.1367C130.112 20.1367 129.684 20.041 129.306 19.8496C128.927 19.6582 128.629 19.3962 128.41 19.0635C128.191 18.7308 128.082 18.3525 128.082 17.9287C128.082 17.5368 128.155 17.1904 128.301 16.8896C128.447 16.5889 128.663 16.3359 128.95 16.1309C129.237 15.9212 129.593 15.764 130.017 15.6592C130.445 15.5498 130.935 15.4951 131.486 15.4951H132.703ZM140.332 18.4277V9.5H142.15V20H140.51L140.332 18.4277ZM135.581 16.3906V16.2471C135.581 15.682 135.645 15.1693 135.772 14.709C135.905 14.2441 136.096 13.8454 136.347 13.5127C136.597 13.18 136.9 12.9225 137.256 12.7402C137.616 12.5579 138.024 12.4668 138.479 12.4668C138.922 12.4668 139.307 12.5557 139.635 12.7334C139.967 12.9111 140.25 13.1641 140.482 13.4922C140.719 13.8203 140.909 14.21 141.05 14.6611C141.191 15.1077 141.294 15.5999 141.357 16.1377V16.5273C141.294 17.0514 141.191 17.5322 141.05 17.9697C140.909 18.4072 140.719 18.79 140.482 19.1182C140.25 19.4417 139.967 19.6924 139.635 19.8701C139.302 20.0479 138.912 20.1367 138.466 20.1367C138.015 20.1367 137.609 20.0433 137.249 19.8564C136.894 19.6696 136.59 19.4076 136.34 19.0703C136.094 18.7331 135.905 18.3366 135.772 17.8809C135.645 17.4251 135.581 16.9284 135.581 16.3906ZM137.393 16.2471V16.3906C137.393 16.7096 137.42 17.0081 137.475 17.2861C137.529 17.5641 137.618 17.8102 137.741 18.0244C137.864 18.234 138.021 18.3981 138.213 18.5166C138.409 18.6351 138.646 18.6943 138.924 18.6943C139.279 18.6943 139.571 18.6169 139.799 18.4619C140.031 18.3024 140.211 18.0859 140.339 17.8125C140.466 17.5345 140.549 17.2223 140.585 16.876V15.8027C140.567 15.5293 140.519 15.2764 140.441 15.0439C140.368 14.8115 140.264 14.611 140.127 14.4424C139.995 14.2738 139.831 14.1416 139.635 14.0459C139.439 13.9502 139.206 13.9023 138.938 13.9023C138.66 13.9023 138.423 13.9639 138.227 14.0869C138.031 14.2054 137.871 14.3717 137.748 14.5859C137.625 14.8001 137.534 15.0485 137.475 15.3311C137.42 15.6136 137.393 15.9189 137.393 16.2471ZM147.858 18.4277V15.0166C147.858 14.766 147.815 14.5495 147.729 14.3672C147.642 14.1849 147.51 14.0436 147.332 13.9434C147.154 13.8431 146.929 13.793 146.655 13.793C146.414 13.793 146.202 13.834 146.02 13.916C145.842 13.998 145.705 14.1143 145.609 14.2646C145.514 14.4105 145.466 14.5791 145.466 14.7705H143.654C143.654 14.4652 143.727 14.1758 143.873 13.9023C144.019 13.6243 144.226 13.3783 144.495 13.1641C144.769 12.9453 145.094 12.7744 145.473 12.6514C145.855 12.5283 146.284 12.4668 146.758 12.4668C147.318 12.4668 147.817 12.5625 148.255 12.7539C148.697 12.9408 149.043 13.2233 149.294 13.6016C149.549 13.9798 149.677 14.4561 149.677 15.0303V18.2568C149.677 18.626 149.7 18.9427 149.745 19.207C149.795 19.4668 149.868 19.6924 149.964 19.8838V20H148.125C148.038 19.8132 147.972 19.5762 147.927 19.2891C147.881 18.9974 147.858 18.7103 147.858 18.4277ZM148.111 15.4951L148.125 16.5684H146.983C146.701 16.5684 146.452 16.598 146.238 16.6572C146.024 16.7119 145.849 16.7939 145.712 16.9033C145.575 17.0081 145.473 17.1357 145.404 17.2861C145.336 17.432 145.302 17.5983 145.302 17.7852C145.302 17.9674 145.343 18.1315 145.425 18.2773C145.511 18.4232 145.634 18.5394 145.794 18.626C145.958 18.708 146.149 18.749 146.368 18.749C146.687 18.749 146.965 18.6852 147.202 18.5576C147.439 18.4255 147.624 18.266 147.756 18.0791C147.888 17.8923 147.959 17.7145 147.968 17.5459L148.487 18.3252C148.424 18.512 148.328 18.7103 148.2 18.9199C148.073 19.1296 147.909 19.3255 147.708 19.5078C147.507 19.6901 147.266 19.8405 146.983 19.959C146.701 20.0775 146.373 20.1367 145.999 20.1367C145.521 20.1367 145.092 20.041 144.714 19.8496C144.336 19.6582 144.037 19.3962 143.818 19.0635C143.6 18.7308 143.49 18.3525 143.49 17.9287C143.49 17.5368 143.563 17.1904 143.709 16.8896C143.855 16.5889 144.071 16.3359 144.358 16.1309C144.646 15.9212 145.001 15.764 145.425 15.6592C145.853 15.5498 146.343 15.4951 146.895 15.4951H148.111ZM153.074 14.1826V20H151.27V12.6035H152.965L153.074 14.1826ZM152.787 16.0352H152.254C152.258 15.4974 152.331 15.0098 152.473 14.5723C152.614 14.1348 152.812 13.7588 153.067 13.4443C153.327 13.1299 153.635 12.8883 153.99 12.7197C154.346 12.5511 154.742 12.4668 155.18 12.4668C155.535 12.4668 155.856 12.5169 156.144 12.6172C156.431 12.7174 156.677 12.877 156.882 13.0957C157.091 13.3145 157.251 13.6016 157.36 13.957C157.474 14.3079 157.531 14.7409 157.531 15.2559V20H155.713V15.2422C155.713 14.9049 155.663 14.6383 155.562 14.4424C155.467 14.2464 155.326 14.1074 155.139 14.0254C154.956 13.9434 154.731 13.9023 154.462 13.9023C154.184 13.9023 153.94 13.9593 153.73 14.0732C153.525 14.1826 153.352 14.3353 153.211 14.5312C153.074 14.7272 152.969 14.9528 152.896 15.208C152.824 15.4632 152.787 15.7389 152.787 16.0352ZM163.198 18.4277V15.0166C163.198 14.766 163.155 14.5495 163.068 14.3672C162.982 14.1849 162.85 14.0436 162.672 13.9434C162.494 13.8431 162.269 13.793 161.995 13.793C161.754 13.793 161.542 13.834 161.359 13.916C161.182 13.998 161.045 14.1143 160.949 14.2646C160.854 14.4105 160.806 14.5791 160.806 14.7705H158.994C158.994 14.4652 159.067 14.1758 159.213 13.9023C159.359 13.6243 159.566 13.3783 159.835 13.1641C160.108 12.9453 160.434 12.7744 160.812 12.6514C161.195 12.5283 161.624 12.4668 162.098 12.4668C162.658 12.4668 163.157 12.5625 163.595 12.7539C164.037 12.9408 164.383 13.2233 164.634 13.6016C164.889 13.9798 165.017 14.4561 165.017 15.0303V18.2568C165.017 18.626 165.039 18.9427 165.085 19.207C165.135 19.4668 165.208 19.6924 165.304 19.8838V20H163.465C163.378 19.8132 163.312 19.5762 163.267 19.2891C163.221 18.9974 163.198 18.7103 163.198 18.4277ZM163.451 15.4951L163.465 16.5684H162.323C162.041 16.5684 161.792 16.598 161.578 16.6572C161.364 16.7119 161.188 16.7939 161.052 16.9033C160.915 17.0081 160.812 17.1357 160.744 17.2861C160.676 17.432 160.642 17.5983 160.642 17.7852C160.642 17.9674 160.683 18.1315 160.765 18.2773C160.851 18.4232 160.974 18.5394 161.134 18.626C161.298 18.708 161.489 18.749 161.708 18.749C162.027 18.749 162.305 18.6852 162.542 18.5576C162.779 18.4255 162.964 18.266 163.096 18.0791C163.228 17.8923 163.299 17.7145 163.308 17.5459L163.827 18.3252C163.763 18.512 163.668 18.7103 163.54 18.9199C163.412 19.1296 163.248 19.3255 163.048 19.5078C162.847 19.6901 162.606 19.8405 162.323 19.959C162.041 20.0775 161.713 20.1367 161.339 20.1367C160.86 20.1367 160.432 20.041 160.054 19.8496C159.675 19.6582 159.377 19.3962 159.158 19.0635C158.939 18.7308 158.83 18.3525 158.83 17.9287C158.83 17.5368 158.903 17.1904 159.049 16.8896C159.195 16.5889 159.411 16.3359 159.698 16.1309C159.985 15.9212 160.341 15.764 160.765 15.6592C161.193 15.5498 161.683 15.4951 162.234 15.4951H163.451Z" fill="white"/>
<path d="M26.1502 20.6796H25.8342C25.8233 20.6796 25.8124 20.6744 25.807 20.6585C25.7416 20.474 25.6654 20.2948 25.5782 20.1209C25.5728 20.1103 25.5728 20.0998 25.5837 20.0892L25.807 19.8731C25.965 19.7202 26.0521 19.5147 26.0521 19.2985C26.0521 19.0824 25.965 18.8768 25.807 18.7239L25.1315 18.0703C24.9735 17.9174 24.7611 17.8331 24.5377 17.8331C24.3144 17.8331 24.1019 17.9174 23.944 18.0703L23.7206 18.2864C23.7152 18.2917 23.6988 18.297 23.6879 18.2917C23.5082 18.2074 23.3229 18.1336 23.1323 18.0703C23.1214 18.065 23.1105 18.0545 23.1105 18.0439V17.7382C23.1105 17.2901 22.7346 16.9211 22.2661 16.9211H21.9175C21.5688 16.6892 21.1821 16.5152 20.7735 16.4045L15.8381 15.0762C15.6801 15.034 15.5167 15.0445 15.3696 15.1078C15.2498 14.9496 15.1789 14.7493 15.1789 14.5596V13.2364C15.4132 13.0941 15.6365 12.9307 15.8544 12.7462C16.7968 11.9608 17.3906 10.8274 17.5159 9.58866C18.2077 9.5623 18.7579 9.01408 18.7579 8.33935V7.3905C18.7579 6.96879 18.5455 6.58925 18.2023 6.36258L18.2677 6.13064C18.2786 6.09374 18.284 6.05684 18.284 6.01994V4.23295C18.284 4.01682 18.0988 3.8376 17.8755 3.8376C17.6521 3.8376 17.4669 4.01682 17.4669 4.23295V5.47172C15.7509 4.91296 13.9968 4.6283 12.2427 4.6283C10.4887 4.6283 8.74 4.91296 7.0186 5.47172V3.40534C7.0186 2.50921 7.64506 1.73959 8.54389 1.53401L11.4093 0.875086C11.8832 0.764387 12.3898 0.764387 12.8638 0.869814L15.9144 1.54455C16.4972 1.67633 16.9875 2.04533 17.249 2.5672C17.347 2.76224 17.5922 2.84131 17.7992 2.74642C18.0007 2.65154 18.0825 2.41433 17.9844 2.21401C17.6085 1.48129 16.9221 0.959427 16.0996 0.774929L13.049 0.100194C12.4497 -0.0368616 11.8178 -0.0315902 11.2186 0.105465L8.35323 0.764387C7.08397 1.05431 6.19603 2.14021 6.19603 3.40534V6.01994C6.19603 6.04103 6.19603 6.05684 6.20147 6.07793C6.20147 6.07793 6.20147 6.07793 6.20147 6.0832V6.08847V6.09374C6.20147 6.10956 6.20692 6.12537 6.21237 6.13591L6.27229 6.35731C5.9291 6.58398 5.71665 6.96352 5.71665 7.38523V8.33408C5.71665 9.00881 6.27229 9.55703 6.95867 9.58339C7.08397 10.8222 7.67774 11.9555 8.62016 12.7409C8.83806 12.9202 9.06141 13.0836 9.29565 13.2312V14.5543C9.29565 14.7441 9.21938 14.9444 9.10499 15.1025C8.9579 15.0445 8.79448 15.0287 8.6365 15.0709L3.70107 16.4098C2.27928 16.7946 1.19523 17.9543 0.95009 19.3618L0.743085 20.532C0.704953 20.7482 0.852035 20.9537 1.07538 20.9906C1.09717 20.9959 1.12441 20.9959 1.1462 20.9959C1.34231 20.9959 1.51663 20.8589 1.54931 20.6691L1.75632 19.4988C1.95243 18.3919 2.80224 17.4799 3.92442 17.1742L6.2614 16.5416L8.51666 19.0297C8.5221 19.035 8.52755 19.0402 8.533 19.0455C8.533 19.0455 8.533 19.0508 8.53845 19.0508C8.5439 19.056 8.5439 19.0613 8.54934 19.0613C8.55479 19.0666 8.56024 19.0719 8.56569 19.0771C8.56569 19.0771 8.56568 19.0771 8.57113 19.0824L8.58203 19.0929C8.58203 19.0929 8.58203 19.0929 8.58747 19.0929C8.59292 19.0982 8.59837 19.1035 8.60382 19.1088C8.60382 19.1088 8.60382 19.1088 8.60927 19.114C8.61471 19.1193 8.61471 19.1193 8.62016 19.1246C8.62016 19.1246 8.62016 19.1246 8.62561 19.1298C8.63105 19.1351 8.6365 19.1404 8.64195 19.1457C8.6474 19.1509 8.65284 19.1509 8.65284 19.1562C8.65284 19.1562 8.65829 19.1562 8.65829 19.1615C8.66374 19.1667 8.66919 19.172 8.67464 19.1773C8.68008 19.1826 8.68553 19.1878 8.69098 19.1878C8.69098 19.1878 8.69642 19.1878 8.69642 19.1931C8.70187 19.1984 8.70732 19.1984 8.71277 19.2036C8.71821 19.2089 8.72366 19.2142 8.72911 19.2142C8.72911 19.2142 8.73456 19.2142 8.73456 19.2195C8.74 19.2247 8.74545 19.2247 8.74545 19.23C8.74545 19.23 8.74545 19.23 8.7509 19.2353C8.75635 19.2405 8.76179 19.2405 8.76724 19.2458C8.76724 19.2458 8.77269 19.2458 8.77269 19.2511C8.77814 19.2564 8.77814 19.2564 8.78358 19.2616C8.78358 19.2616 8.78903 19.2616 8.78903 19.2669C8.79448 19.2722 8.79993 19.2722 8.80537 19.2774C8.80537 19.2774 8.81082 19.2774 8.81082 19.2827C8.81627 19.288 8.82172 19.288 8.82172 19.2933C8.82172 19.2933 8.82717 19.2933 8.82717 19.2985C8.83261 19.3038 8.83806 19.3038 8.84351 19.3091C8.84351 19.3091 8.84351 19.3091 8.84895 19.3091C8.8544 19.3143 8.85985 19.3143 8.8653 19.3196C8.8653 19.3196 8.87074 19.3196 8.87074 19.3249C8.87619 19.3302 8.88164 19.3302 8.88164 19.3354C8.88164 19.3354 8.88709 19.3354 8.88709 19.3407C8.89253 19.346 8.89798 19.346 8.90343 19.3512L8.90888 19.3565C8.91432 19.3565 8.91432 19.3618 8.91977 19.3618C8.91977 19.3618 8.92522 19.3618 8.92522 19.3671C8.93067 19.3723 8.93611 19.3723 8.94156 19.3776C8.94156 19.3776 8.94701 19.3776 8.94701 19.3829C8.95246 19.3829 8.95246 19.3881 8.9579 19.3881L8.96335 19.3934C8.9688 19.3987 8.97425 19.3987 8.97969 19.404L8.98514 19.4092C8.99059 19.4092 8.99059 19.4145 8.99604 19.4145L9.00148 19.4198C9.00693 19.4198 9.00693 19.425 9.01238 19.425C9.01783 19.425 9.01783 19.4303 9.02327 19.4303C9.02872 19.4303 9.02872 19.4356 9.03417 19.4356C9.03962 19.4356 9.03962 19.4409 9.04506 19.4409C9.05051 19.4409 9.05051 19.4461 9.05596 19.4461C9.06141 19.4461 9.06685 19.4514 9.0723 19.4514C9.07775 19.4514 9.07775 19.4567 9.0832 19.4567C9.08864 19.4567 9.08864 19.4619 9.09409 19.4619C9.09954 19.4619 9.09954 19.4619 9.10499 19.4672C9.11043 19.4672 9.11588 19.4725 9.11588 19.4725C9.12133 19.4725 9.12133 19.4778 9.12678 19.4778C9.13222 19.4778 9.13222 19.483 9.13767 19.483C9.13767 19.483 9.14312 19.483 9.14312 19.4883C9.14857 19.4883 9.14857 19.4936 9.15401 19.4936C9.15401 19.4936 9.15401 19.4936 9.15946 19.4936C9.16491 19.4988 9.1758 19.4988 9.18125 19.5041H9.1867C9.19215 19.5041 9.19215 19.5094 9.19759 19.5094C9.19759 19.5094 9.20304 19.5094 9.20304 19.5147C9.20849 19.5147 9.21394 19.5199 9.22483 19.5199H9.23028C9.23573 19.5199 9.23573 19.5252 9.24117 19.5252H9.24662C9.25207 19.5305 9.26296 19.5305 9.26841 19.5357C9.27386 19.5357 9.27931 19.541 9.27931 19.541H9.28475C9.29565 19.5463 9.31199 19.5516 9.32289 19.5516C9.32289 19.5516 9.32289 19.5516 9.32833 19.5516C9.34468 19.5568 9.35557 19.5568 9.36647 19.5621C9.36647 19.5621 9.36647 19.5621 9.37191 19.5621C9.38826 19.5674 9.39915 19.5674 9.41549 19.5726C9.42094 19.5726 9.42639 19.5726 9.43184 19.5779C9.44273 19.5779 9.44818 19.5832 9.45907 19.5832C9.46452 19.5832 9.46997 19.5832 9.47542 19.5885C9.49176 19.5937 9.50265 19.5937 9.519 19.599C9.519 19.599 9.519 19.599 9.52444 19.599C9.54079 19.599 9.55168 19.6043 9.56802 19.6043C9.56802 19.6043 9.56802 19.6043 9.57347 19.6043C9.58981 19.6043 9.60071 19.6095 9.61705 19.6095C9.6225 19.6095 9.62795 19.6095 9.63339 19.6095C9.64429 19.6095 9.65518 19.6095 9.66063 19.6148C9.66608 19.6148 9.67153 19.6148 9.67697 19.6148C9.69332 19.6148 9.70421 19.6148 9.72055 19.6201C9.72055 19.6201 9.72055 19.6201 9.726 19.6201C9.74234 19.6201 9.75324 19.6201 9.76958 19.6201H9.77503C9.79137 19.6201 9.80227 19.6201 9.81861 19.6201H9.82406H9.8295C9.87853 19.6201 9.92756 19.6201 9.97659 19.6148C9.98748 19.6148 9.99838 19.6148 10.0093 19.6095C10.042 19.6043 10.0692 19.6043 10.1019 19.599C10.1073 19.599 10.1128 19.599 10.1128 19.599C10.1128 19.599 10.1128 19.599 10.1182 19.599C10.1237 19.599 10.1291 19.599 10.1291 19.599C10.1291 19.599 10.1291 19.599 10.1346 19.599C10.14 19.599 10.14 19.599 10.1455 19.599H10.1509C10.1564 19.599 10.1564 19.599 10.1618 19.599H10.1672C10.1727 19.599 10.1727 19.599 10.1781 19.599H10.1836C10.189 19.599 10.189 19.599 10.1945 19.599C10.1945 19.599 10.1945 19.599 10.1999 19.599C10.2108 19.5937 10.2272 19.5937 10.2381 19.5885H10.2435C10.249 19.5885 10.249 19.5885 10.2544 19.5885H10.2599C10.2653 19.5885 10.2653 19.5885 10.2708 19.5885H10.2762C10.2816 19.5885 10.2816 19.5885 10.2871 19.5885C10.2925 19.5885 10.2925 19.5885 10.298 19.5885H10.3034H10.3089H10.3143C10.3198 19.5885 10.3198 19.5885 10.3252 19.5832H10.3307C10.3361 19.5832 10.3361 19.5832 10.3416 19.5779H10.347C10.3525 19.5779 10.3525 19.5779 10.3579 19.5726H10.3634C10.3688 19.5726 10.3743 19.5674 10.3797 19.5674L12.2754 18.9401L14.1712 19.5674C14.1766 19.5674 14.182 19.5726 14.1875 19.5726H14.1929C14.1984 19.5726 14.1984 19.5726 14.2038 19.5779H14.2093L14.2202 19.5832H14.2256C14.2311 19.5832 14.2311 19.5832 14.2365 19.5885H14.242C14.2474 19.5885 14.2474 19.5885 14.2529 19.5885C14.2583 19.5885 14.2583 19.5885 14.2583 19.5885C14.2638 19.5885 14.2638 19.5885 14.2692 19.5885C14.2747 19.5885 14.2747 19.5885 14.2801 19.5885H14.2856C14.291 19.5885 14.291 19.5885 14.2964 19.5885C14.3019 19.5885 14.3019 19.5885 14.3073 19.5885C14.3128 19.5885 14.3128 19.5885 14.3128 19.5885H14.3182C14.3291 19.5937 14.3455 19.5937 14.3564 19.599C14.3564 19.599 14.3564 19.599 14.3618 19.599C14.3673 19.599 14.3673 19.599 14.3727 19.599H14.3782C14.3836 19.599 14.3836 19.599 14.3891 19.599H14.3945C14.3999 19.599 14.3999 19.599 14.4054 19.599H14.4108C14.4163 19.599 14.4163 19.599 14.4217 19.599H14.4272C14.4326 19.599 14.4326 19.599 14.4381 19.599H14.4435C14.449 19.599 14.449 19.599 14.4544 19.599H14.4599C14.4653 19.599 14.4653 19.599 14.4708 19.599H14.4762C14.4871 19.599 14.5035 19.6043 14.5143 19.6043H14.5198C14.5252 19.6043 14.5252 19.6043 14.5307 19.6043H14.5361C14.5416 19.6043 14.5416 19.6043 14.547 19.6043H14.5525C14.5579 19.6043 14.5579 19.6043 14.5634 19.6043H14.5688C14.5743 19.6043 14.5743 19.6043 14.5797 19.6043H14.5852C14.5906 19.6043 14.5906 19.6043 14.5961 19.6043H14.6015C14.607 19.6043 14.607 19.6043 14.6124 19.6043H14.6178C14.6233 19.6043 14.6233 19.6043 14.6287 19.6043C14.6342 19.6043 14.6342 19.6043 14.6396 19.6043H14.6451C14.6505 19.6043 14.656 19.6043 14.656 19.6043H14.6614C14.6669 19.6043 14.6723 19.6043 14.6778 19.6043H14.6832C14.6887 19.6043 14.6887 19.6043 14.6941 19.6043H14.6996C14.705 19.6043 14.705 19.6043 14.7105 19.6043H14.7159H14.7268H14.7322H14.7486C14.754 19.6043 14.7649 19.6043 14.7704 19.6043H14.7758C14.7813 19.6043 14.7867 19.6043 14.7922 19.6043C14.7976 19.6043 14.8085 19.6043 14.814 19.6043H14.8194C14.8249 19.6043 14.8303 19.6043 14.8357 19.6043C14.8357 19.6043 14.8357 19.6043 14.8412 19.6043C14.8575 19.6043 14.8684 19.6043 14.8848 19.599C14.8848 19.599 14.8848 19.599 14.8902 19.599C14.9066 19.599 14.9175 19.5937 14.9338 19.5937C14.9501 19.5937 14.961 19.5885 14.9774 19.5885C14.9828 19.5885 14.9883 19.5885 14.9992 19.5832C15.0046 19.5832 15.0155 19.5832 15.021 19.5779C15.0264 19.5779 15.0373 19.5779 15.0428 19.5726C15.0591 19.5674 15.07 19.5674 15.0863 19.5621C15.1027 19.5568 15.1136 19.5568 15.1299 19.5516C15.1463 19.5463 15.1572 19.5463 15.1735 19.541C15.1789 19.541 15.1844 19.5357 15.1953 19.5357C15.2007 19.5357 15.2116 19.5305 15.2171 19.5305C15.2225 19.5305 15.228 19.5252 15.2389 19.5252C15.2552 19.5199 15.2661 19.5147 15.2824 19.5147C15.2933 19.5094 15.3097 19.5041 15.3206 19.4988C15.3206 19.4988 15.3206 19.4988 15.326 19.4988C15.3369 19.4936 15.3533 19.4883 15.3642 19.483C15.3642 19.483 15.3642 19.483 15.3696 19.483C15.3751 19.483 15.3805 19.4778 15.3859 19.4778C15.3914 19.4725 15.3968 19.4725 15.4077 19.4672C15.4132 19.4672 15.4186 19.4619 15.4241 19.4619C15.4241 19.4619 15.4241 19.4619 15.4295 19.4619C15.435 19.4567 15.4404 19.4567 15.4459 19.4514C15.4513 19.4514 15.4568 19.4461 15.4622 19.4461H15.4677C15.4786 19.4409 15.4894 19.4356 15.5058 19.4303H15.5112C15.5167 19.425 15.5221 19.425 15.5276 19.4198C15.533 19.4145 15.5385 19.4145 15.5439 19.4092H15.5494C15.5548 19.404 15.5603 19.404 15.5657 19.3987C15.5657 19.3987 15.5657 19.3987 15.5712 19.3987C15.5766 19.3934 15.5821 19.3934 15.5875 19.3881C15.5875 19.3881 15.5929 19.3881 15.5929 19.3829C15.5984 19.3829 15.6038 19.3776 15.6038 19.3776C15.6038 19.3776 15.6093 19.3776 15.6093 19.3723C15.6147 19.3671 15.6202 19.3671 15.6256 19.3618H15.6311C15.6365 19.3565 15.642 19.3565 15.642 19.3512C15.642 19.3512 15.6474 19.3512 15.6474 19.346C15.6529 19.3407 15.6583 19.3407 15.6638 19.3354C15.6692 19.3302 15.6747 19.3302 15.6801 19.3249C15.6801 19.3249 15.6856 19.3249 15.6856 19.3196C15.691 19.3143 15.6965 19.3143 15.7019 19.3091C15.7073 19.3038 15.7128 19.3038 15.7182 19.2985C15.7182 19.2985 15.7237 19.2985 15.7237 19.2933C15.7291 19.288 15.7291 19.288 15.7346 19.2827C15.7346 19.2827 15.74 19.2827 15.74 19.2774C15.7455 19.2722 15.7509 19.2722 15.7564 19.2669L15.7618 19.2616C15.7673 19.2564 15.7673 19.2564 15.7727 19.2511C15.7727 19.2511 15.7782 19.2511 15.7782 19.2458C15.7836 19.2405 15.7891 19.2405 15.7945 19.2353L15.8 19.23C15.8054 19.2247 15.8054 19.2247 15.8108 19.2195L15.8163 19.2142C15.8217 19.2089 15.8272 19.2089 15.8326 19.2036C15.8326 19.2036 15.8326 19.2036 15.8381 19.1984C15.8435 19.1931 15.8435 19.1931 15.849 19.1878L15.8544 19.1826C15.8599 19.1773 15.8653 19.1773 15.8653 19.172C15.8653 19.172 15.8653 19.172 15.8708 19.1667C15.8762 19.1615 15.8817 19.1615 15.8817 19.1562L15.8871 19.1509C15.8926 19.1457 15.8926 19.1457 15.898 19.1404C15.898 19.1404 15.898 19.1404 15.9035 19.1351C15.9089 19.1298 15.9144 19.1246 15.9198 19.1246L15.9252 19.1193C15.9307 19.114 15.9307 19.114 15.9361 19.1088L15.9416 19.1035C15.947 19.0982 15.9525 19.0929 15.9579 19.0877L15.9634 19.0824C15.9688 19.0771 15.9688 19.0771 15.9743 19.0719L15.9797 19.0666C15.9852 19.0613 15.9906 19.056 15.9961 19.0508C16.0015 19.0455 16.0015 19.0402 16.007 19.0402L16.0124 19.035C16.0179 19.0297 16.0233 19.0244 16.0287 19.0191L18.284 16.5311L20.621 17.1636C20.6646 17.1742 20.7027 17.1847 20.7463 17.2005C20.6155 17.3428 20.5393 17.5326 20.5393 17.7329V18.0387C20.5393 18.0492 20.5338 18.0598 20.5175 18.065C20.3268 18.1283 20.1416 18.2021 19.9618 18.2864C19.9509 18.2917 19.94 18.2917 19.9292 18.2812L19.7058 18.065C19.379 17.7487 18.8451 17.7487 18.5128 18.065L17.8373 18.7187C17.5105 19.035 17.5105 19.5516 17.8373 19.8731L18.0607 20.0892C18.0661 20.0945 18.0716 20.1103 18.0661 20.1209C17.979 20.2948 17.9027 20.474 17.8373 20.6585C17.8319 20.6691 17.821 20.6796 17.8101 20.6796H17.4941C17.0311 20.6796 16.6498 21.0433 16.6498 21.4967V22.4192C16.6498 22.8672 17.0256 23.2362 17.4941 23.2362H17.8101C17.821 23.2362 17.8319 23.2415 17.8373 23.2573C17.9027 23.4418 17.979 23.6211 18.0661 23.795C18.0716 23.8055 18.0716 23.8161 18.0607 23.8266L17.8373 24.0428C17.5105 24.359 17.5105 24.8756 17.8373 25.1972L18.0334 25.387H1.35865C1.19523 25.387 1.04814 25.3184 0.944643 25.2025C0.84114 25.0812 0.79756 24.9284 0.824798 24.7755L1.22246 22.5246C1.2606 22.3085 1.11351 22.1029 0.890168 22.066C0.666821 22.0291 0.454368 22.1714 0.416236 22.3876L0.0185689 24.6384C-0.046801 25.0232 0.0621488 25.4133 0.318181 25.7085C0.579661 26.0037 0.955538 26.1777 1.35865 26.1777H20.4739V26.1829C20.4739 26.631 20.8498 27 21.3183 27H22.2716C22.7346 27 23.1159 26.6363 23.1159 26.1829V25.8772C23.1159 25.8667 23.1214 25.8561 23.1377 25.8508C23.3284 25.7876 23.5136 25.7138 23.6934 25.6294C23.7043 25.6242 23.7152 25.6242 23.7261 25.6347L23.9494 25.8508C24.1074 26.0037 24.3198 26.0881 24.5432 26.0881C24.7665 26.0881 24.979 26.0037 25.137 25.8508L25.8124 25.1972C25.9704 25.0443 26.0576 24.8387 26.0576 24.6226C26.0576 24.4065 25.9704 24.2009 25.8124 24.048L25.5891 23.8319C25.5837 23.8266 25.5782 23.8108 25.5837 23.8003C25.6708 23.6263 25.7525 23.4471 25.8124 23.2626C25.8179 23.2521 25.8288 23.2415 25.8397 23.2415H26.1556C26.6187 23.2415 27 22.8778 27 22.4244V21.502C26.9946 21.0486 26.6187 20.6796 26.1502 20.6796ZM12.2373 5.41374C13.9587 5.41374 15.6856 5.70366 17.3743 6.27824L17.2762 6.62615C17.2381 6.75793 17.1564 6.86336 17.0311 6.92662C16.9112 6.98988 16.7751 7.00569 16.6443 6.96352C13.7463 6.10429 10.8101 6.09374 7.90654 6.93716C7.8793 6.9477 7.85206 6.95298 7.81938 6.96352C7.68864 7.00042 7.55245 6.98988 7.43261 6.92662C7.40537 6.9108 7.38358 6.89499 7.35634 6.87918C7.35089 6.87391 7.34545 6.86863 7.33455 6.86336C7.3291 6.85809 7.32366 6.85282 7.31821 6.84755C7.25284 6.78956 7.20926 6.71049 7.18747 6.62615L7.17657 6.57871L7.14389 6.46801L7.08941 6.27824C8.78903 5.70366 10.5159 5.41374 12.2373 5.41374ZM9.15946 12.1453C8.29331 11.4231 7.78669 10.3477 7.75946 9.18277C7.75401 8.96664 7.57424 8.79796 7.35089 8.79796H7.0186C6.75712 8.79796 6.54467 8.59237 6.54467 8.33935V7.3905C6.54467 7.32724 6.56101 7.26399 6.58825 7.206C6.58825 7.206 6.58825 7.206 6.58825 7.21127L6.59369 7.21654C6.59369 7.22182 6.59914 7.22182 6.59914 7.22182L6.60459 7.22709C6.60459 7.23236 6.61004 7.23236 6.61004 7.23763C6.61548 7.2429 6.61548 7.2429 6.62093 7.24817L6.62638 7.25344C6.62638 7.25872 6.63183 7.25872 6.63183 7.25872L6.63727 7.26399L6.64272 7.26926L6.64817 7.27453L6.65361 7.2798L6.65906 7.28507C6.65906 7.29034 6.66451 7.29034 6.66451 7.29561L6.66996 7.30089C6.67541 7.30616 6.6754 7.31143 6.68085 7.31143L6.6863 7.3167C6.6863 7.32197 6.69175 7.32197 6.69175 7.32197L6.6972 7.32724L6.70264 7.33251L6.70809 7.33779L6.71354 7.34306L6.71899 7.34833C6.72443 7.3536 6.72443 7.3536 6.72988 7.35887C6.72988 7.35887 6.72988 7.36414 6.73533 7.36414C6.74077 7.36941 6.74078 7.37469 6.74622 7.37469L6.75167 7.37996L6.75712 7.38523L6.76256 7.3905L6.76801 7.39577L6.77346 7.40104L6.77891 7.40631L6.78435 7.41159L6.7898 7.41686C6.79525 7.42213 6.79525 7.42213 6.8007 7.4274L6.80614 7.43267C6.81159 7.43267 6.81159 7.43794 6.81159 7.43794L6.81704 7.44321L6.82249 7.44848L6.82794 7.45376L6.83338 7.45903L6.83883 7.4643C6.84428 7.4643 6.84428 7.46957 6.84973 7.46957L6.85517 7.47484C6.86062 7.48011 6.86607 7.48538 6.87151 7.48538L6.87696 7.49066C6.88241 7.49066 6.88241 7.49593 6.88786 7.49593L6.8933 7.5012C6.89875 7.5012 6.89875 7.50647 6.9042 7.50647L6.90965 7.51174C6.91509 7.51174 6.91509 7.51701 6.92054 7.51701C6.92054 7.51701 6.92599 7.51701 6.92599 7.52228C6.93144 7.52228 6.93144 7.52756 6.93688 7.52756C6.93688 7.52756 6.93688 7.52756 6.94233 7.52756C6.95323 7.53283 6.95867 7.5381 6.96957 7.54337C6.97502 7.54337 6.97502 7.54864 6.98046 7.54864C6.98046 7.54864 6.98591 7.54864 6.98591 7.55391C6.99136 7.55391 6.99136 7.55918 6.99681 7.55918C6.99681 7.55918 7.00226 7.55918 7.00226 7.56445C7.0077 7.56445 7.0077 7.56973 7.01315 7.56973C7.01315 7.56973 7.01315 7.56973 7.0186 7.56973C7.02949 7.575 7.03494 7.58027 7.04583 7.58554C7.05128 7.59081 7.05673 7.59081 7.06218 7.59608C7.06762 7.60135 7.07307 7.60135 7.07852 7.60663C7.08397 7.6119 7.08941 7.6119 7.09486 7.61717C7.10576 7.62244 7.1221 7.62771 7.13299 7.63298C7.13844 7.63298 7.14389 7.63825 7.14934 7.63825C7.14934 7.63825 7.14934 7.63825 7.15478 7.63825C7.16023 7.63825 7.16568 7.64353 7.17113 7.64353C7.18202 7.6488 7.19292 7.65407 7.20926 7.65934H7.21471C7.22015 7.65934 7.2256 7.66461 7.23105 7.66461H7.2365C7.24194 7.66461 7.24739 7.66988 7.25284 7.66988H7.25829C7.26373 7.66988 7.26918 7.67515 7.27463 7.67515H7.28008C7.28552 7.67515 7.29097 7.68042 7.29097 7.68042H7.29642C7.30187 7.68042 7.30187 7.68043 7.30731 7.6857H7.31276C7.31821 7.6857 7.31821 7.6857 7.32366 7.69097H7.3291C7.33455 7.69097 7.34 7.69624 7.34545 7.69624H7.35089C7.35634 7.69624 7.35634 7.69624 7.36179 7.70151C7.36724 7.70151 7.36724 7.70151 7.37268 7.70151H7.38358C7.38903 7.70151 7.38903 7.70151 7.39447 7.70151C7.39992 7.70151 7.39992 7.70151 7.40537 7.70151C7.41082 7.70151 7.41082 7.70151 7.41626 7.70151C7.42171 7.70151 7.42716 7.70151 7.43261 7.70678C7.43805 7.70678 7.43805 7.70678 7.4435 7.70678C7.44895 7.70678 7.44895 7.70678 7.4544 7.70678C7.45984 7.70678 7.45984 7.70678 7.46529 7.70678C7.47074 7.70678 7.47074 7.70678 7.47619 7.70678C7.48163 7.70678 7.48163 7.70678 7.48708 7.70678C7.49253 7.70678 7.49253 7.70678 7.49798 7.70678C7.50342 7.70678 7.50887 7.70678 7.50887 7.70678C7.51432 7.70678 7.51977 7.70678 7.51977 7.70678C7.52521 7.70678 7.52521 7.70678 7.53066 7.70678C7.53611 7.70678 7.53611 7.70678 7.54156 7.70678C7.547 7.70678 7.547 7.70678 7.55245 7.70678H7.5579C7.56335 7.70678 7.56335 7.70678 7.56879 7.70678H7.57424C7.57969 7.70678 7.58514 7.70678 7.59603 7.70678H7.60148C7.60693 7.70678 7.60693 7.70678 7.61237 7.70678C7.61782 7.70678 7.61782 7.70678 7.61782 7.70678C7.62327 7.70678 7.62327 7.70678 7.62872 7.70678H7.63416C7.63961 7.70678 7.63961 7.70678 7.64506 7.70678H7.65051C7.65595 7.70678 7.6614 7.70678 7.6723 7.70678H7.67774H7.68319C7.72677 7.70678 7.77035 7.70678 7.80848 7.70151C7.82483 7.70151 7.84117 7.69624 7.85751 7.69624C7.86296 7.69624 7.86841 7.69624 7.87385 7.69624C7.8793 7.69624 7.88475 7.69624 7.8902 7.69624C7.89564 7.69624 7.90109 7.69624 7.90654 7.69624C7.91199 7.69624 7.91743 7.69624 7.92288 7.69097C7.92833 7.69097 7.93378 7.69097 7.93922 7.6857C7.94467 7.6857 7.95012 7.6857 7.95012 7.68042C7.95012 7.68042 7.95012 7.68042 7.95557 7.68042C7.96646 7.68042 7.97736 7.67515 7.98825 7.67515C7.9937 7.67515 7.99915 7.67515 7.99915 7.66988C7.99915 7.66988 7.99915 7.66988 8.00459 7.66988C8.01549 7.66988 8.02638 7.66461 8.03183 7.66461C8.03183 7.66461 8.03183 7.66461 8.03728 7.66461C8.04273 7.66461 8.04273 7.66461 8.04817 7.65934H8.05362C8.05907 7.65934 8.06452 7.65407 8.06996 7.65407C10.4396 6.95298 12.8311 6.84755 15.2062 7.34833C15.2498 7.35887 15.2988 7.36941 15.3424 7.37996C15.3642 7.38523 15.3859 7.3905 15.4077 7.39577C15.4404 7.40104 15.4786 7.41158 15.5112 7.41686C15.5494 7.4274 15.5929 7.43794 15.6311 7.44321C15.6583 7.44848 15.6801 7.45376 15.7073 7.4643C15.7509 7.47484 15.7945 7.48538 15.8381 7.49593C15.9307 7.52228 16.0233 7.54337 16.1159 7.56973C16.214 7.59608 16.312 7.62244 16.4101 7.65407C16.7533 7.75422 17.1182 7.71732 17.4342 7.54864C17.4397 7.54337 17.4451 7.54337 17.4505 7.5381C17.4505 7.5381 17.456 7.5381 17.456 7.53283C17.4614 7.53283 17.4614 7.52756 17.4669 7.52756C17.4669 7.52756 17.4723 7.52756 17.4723 7.52228C17.4778 7.52228 17.4778 7.51701 17.4832 7.51701C17.4832 7.51701 17.4887 7.51701 17.4887 7.51174C17.4941 7.51174 17.4941 7.50647 17.4996 7.50647C17.4996 7.50647 17.505 7.50647 17.505 7.5012C17.5159 7.49593 17.5268 7.48538 17.5377 7.48011C17.5377 7.48011 17.5432 7.48011 17.5432 7.47484C17.5486 7.47484 17.5486 7.46957 17.554 7.46957C17.554 7.46957 17.5595 7.46957 17.5595 7.4643C17.5649 7.4643 17.5649 7.45903 17.5704 7.45903C17.5704 7.45903 17.5758 7.45903 17.5758 7.45376C17.5813 7.45376 17.5813 7.44848 17.5867 7.44848C17.5867 7.44848 17.5922 7.44848 17.5922 7.44321C17.5976 7.43794 17.6031 7.43794 17.6085 7.43267C17.614 7.4274 17.6194 7.4274 17.6249 7.42213C17.6249 7.42213 17.6303 7.42213 17.6303 7.41686C17.6358 7.41158 17.6358 7.41159 17.6412 7.40631L17.6467 7.40104C17.6521 7.40104 17.6521 7.39577 17.6576 7.39577C17.6576 7.39577 17.663 7.39577 17.663 7.3905C17.6684 7.38523 17.6684 7.38523 17.6739 7.37996C17.6739 7.37996 17.6793 7.37996 17.6793 7.37469C17.6902 7.36941 17.6957 7.35887 17.7066 7.34833C17.7066 7.34833 17.712 7.34833 17.712 7.34306C17.7175 7.33779 17.7175 7.33779 17.7229 7.33251L17.7284 7.32724C17.7338 7.32197 17.7338 7.32197 17.7393 7.3167L17.7447 7.31143C17.7502 7.30616 17.7502 7.30616 17.7556 7.30089C17.7556 7.30089 17.7556 7.30089 17.7611 7.29561C17.7665 7.29034 17.7719 7.28507 17.7719 7.28507C17.7774 7.2798 17.7774 7.27453 17.7828 7.27453L17.7883 7.26926C17.7937 7.26399 17.7937 7.26399 17.7992 7.25872L17.8046 7.25344C17.8101 7.24817 17.8101 7.24817 17.8155 7.2429L17.821 7.23763C17.8264 7.23236 17.8264 7.23236 17.8319 7.22709C17.8319 7.22709 17.8319 7.22709 17.8373 7.22182C17.8428 7.21654 17.8428 7.21127 17.8482 7.206C17.8537 7.20073 17.8537 7.19546 17.8591 7.19546C17.8591 7.19546 17.8591 7.19019 17.8646 7.19019C17.8646 7.18492 17.87 7.18492 17.87 7.17964C17.87 7.17964 17.87 7.17437 17.8755 7.17437C17.8755 7.1691 17.8809 7.1691 17.8809 7.16383C17.8809 7.16383 17.8809 7.15856 17.8863 7.15856C17.8918 7.15329 17.8918 7.15329 17.8972 7.14802C17.8972 7.14802 17.8972 7.14802 17.8972 7.14275C17.9027 7.13747 17.9027 7.1322 17.9081 7.12693C17.9136 7.12166 17.9136 7.11639 17.919 7.11639C17.919 7.11639 17.919 7.11112 17.9245 7.11112C17.9245 7.10585 17.9299 7.10585 17.9299 7.10057C17.9572 7.15856 17.9735 7.22182 17.9735 7.28507V8.23392C17.9735 8.48694 17.7611 8.69253 17.4996 8.69253H17.1673C16.9439 8.69253 16.7642 8.86648 16.7587 9.07734C16.7315 10.237 16.2249 11.3177 15.3587 12.0346C15.1245 12.2296 14.8739 12.4036 14.6233 12.5512C14.6178 12.5564 14.6124 12.5564 14.6015 12.5617C13.9042 12.9571 13.1416 13.1627 12.3245 13.1785C12.319 13.1785 12.319 13.1785 12.319 13.1785C12.3081 13.1785 12.2972 13.1785 12.2863 13.1785C12.2754 13.1785 12.2645 13.1785 12.2536 13.1785C12.2482 13.1785 12.2482 13.1785 12.2482 13.1785C11.4311 13.1627 10.663 12.9518 9.97114 12.5617C9.96569 12.5564 9.96024 12.5564 9.94935 12.5512C9.64429 12.5143 9.39915 12.3456 9.15946 12.1453ZM10.0801 18.7556C9.7369 18.8663 9.36102 18.7714 9.12678 18.5078L7.13299 16.3044L8.81082 15.8511L11.4746 18.297L10.0801 18.7556ZM9.7369 15.6191C9.97659 15.3186 10.1237 14.9338 10.1237 14.5596V13.6582C10.7556 13.9217 11.4256 14.0588 12.1338 14.0799C12.1447 14.0799 12.1556 14.0799 12.1665 14.0799H12.1719C12.1828 14.0799 12.1883 14.0799 12.1992 14.0799H12.2046C12.2155 14.0799 12.2264 14.0799 12.2373 14.0799H12.2482C12.2591 14.0799 12.27 14.0799 12.2809 14.0799H12.2863C12.2972 14.0799 12.3027 14.0799 12.3136 14.0799H12.319C12.3299 14.0799 12.3408 14.0799 12.3517 14.0799C13.0599 14.0588 13.7354 13.9165 14.3618 13.6582V14.5596C14.3618 14.9338 14.5089 15.3186 14.7486 15.6191L12.2427 17.9174L9.7369 15.6191ZM15.3533 18.5078C15.1136 18.7714 14.7431 18.8663 14.3999 18.7556L13.0108 18.297L15.6747 15.8511L17.3525 16.3044L15.3533 18.5078ZM26.1774 22.4192C26.1774 22.435 26.1665 22.4455 26.1502 22.4455H25.8342C25.4693 22.4455 25.1479 22.6722 25.0335 23.0043C24.9844 23.1519 24.9191 23.2942 24.8482 23.4366C24.6848 23.7528 24.7502 24.1324 25.0062 24.3801L25.2296 24.5963C25.2296 24.5963 25.235 24.6015 25.235 24.6121C25.235 24.6226 25.2296 24.6279 25.2296 24.6279L24.5541 25.2815C24.5541 25.2815 24.5486 25.2868 24.5377 25.2868C24.5268 25.2868 24.5214 25.2815 24.5214 25.2815L24.298 25.0654C24.042 24.8177 23.6498 24.7544 23.3229 24.9125C23.1813 24.9811 23.0288 25.0443 22.8762 25.0918C22.5276 25.2025 22.2988 25.5135 22.2988 25.8667V26.1724C22.2988 26.1882 22.2879 26.1988 22.2716 26.1988H21.3183C21.3019 26.1988 21.291 26.1882 21.291 26.1724V25.8667C21.291 25.5135 21.0568 25.2025 20.7136 25.0918C20.5611 25.0443 20.4085 24.9811 20.2669 24.9125C20.1471 24.8546 20.0163 24.8229 19.8856 24.8229C19.6677 24.8229 19.4498 24.9073 19.2918 25.0601L19.0685 25.2763C19.0576 25.2868 19.0412 25.2868 19.0303 25.2763L18.3548 24.6226C18.3439 24.6121 18.3439 24.5963 18.3548 24.5857L18.5782 24.3696C18.8342 24.1218 18.8996 23.7423 18.7362 23.426C18.6653 23.289 18.6 23.1414 18.5509 22.9938C18.4365 22.6617 18.1151 22.435 17.7502 22.435H17.4342C17.4179 22.435 17.407 22.4244 17.407 22.4086V21.4861C17.407 21.4703 17.4179 21.4598 17.4342 21.4598H17.7502C18.1151 21.4598 18.4365 21.2331 18.5509 20.901C18.6 20.7534 18.6653 20.6058 18.7362 20.4688C18.8996 20.1525 18.8342 19.7729 18.5782 19.5252L18.3548 19.3091C18.3439 19.2985 18.3439 19.2827 18.3548 19.2722L19.0303 18.6185C19.0412 18.608 19.0576 18.608 19.0685 18.6185L19.2918 18.8346C19.5478 19.0824 19.94 19.1457 20.2669 18.9875C20.4085 18.919 20.5611 18.8557 20.7136 18.8083C21.0622 18.6976 21.291 18.3866 21.291 18.0334V17.7277C21.291 17.7118 21.3019 17.7013 21.3183 17.7013H21.7867H21.7976H22.2716C22.2879 17.7013 22.2988 17.7118 22.2988 17.7277V18.0334C22.2988 18.3866 22.5331 18.6976 22.8762 18.8083C23.0288 18.8557 23.1759 18.919 23.3229 18.9875C23.6498 19.1457 24.042 19.0824 24.298 18.8346L24.5214 18.6185C24.5214 18.6185 24.5268 18.6132 24.5377 18.6132C24.5486 18.6132 24.5541 18.6185 24.5541 18.6185L25.2296 19.2722C25.2296 19.2722 25.235 19.2774 25.235 19.288C25.235 19.2985 25.2296 19.3038 25.2296 19.3038L25.0062 19.5199C24.7502 19.7677 24.6848 20.1472 24.8482 20.4635C24.9191 20.6006 24.9844 20.7482 25.0335 20.8958C25.1479 21.2278 25.4693 21.4545 25.8342 21.4545H26.1502C26.1665 21.4545 26.1774 21.4651 26.1774 21.4809V22.4192Z" fill="white"/>
<path d="M21.7977 20.0312C20.7027 20.0312 19.8093 20.8958 19.8093 21.9553C19.8093 23.0148 20.7027 23.8794 21.7977 23.8794C22.8926 23.8794 23.786 23.0148 23.786 21.9553C23.786 20.8958 22.8926 20.0312 21.7977 20.0312ZM21.7977 23.0939C21.1494 23.0939 20.6265 22.5826 20.6265 21.9606C20.6265 21.3386 21.1549 20.8272 21.7977 20.8272C22.4459 20.8272 22.9689 21.3386 22.9689 21.9606C22.9689 22.5826 22.4405 23.0939 21.7977 23.0939Z" fill="white"/>
<path d="M9.74241 23.3313C10.0965 23.3313 10.3852 23.0519 10.3852 22.7093V21.6709C10.3852 21.3282 10.0965 21.0488 9.74241 21.0488H6.62645C6.27236 21.0488 5.98364 21.3282 5.98364 21.6709V22.7093C5.98364 23.0519 6.27236 23.3313 6.62645 23.3313H9.74241ZM6.80077 21.8448H9.56809V22.5459H6.80077V21.8448Z" fill="white"/>
</svg>
