<svg width="201" height="23" viewBox="0 0 201 23" fill="none" xmlns="http://www.w3.org/2000/svg">
<path d="M3.7537 0.65625H5.13543L8.88914 9.09488H7.30015L6.44808 7.05875H2.41803L1.54293 9.07226H0L3.7537 0.65625ZM5.89539 5.74658L4.42154 2.39827L2.97072 5.74658H5.89539Z" fill="white"/>
<path d="M9.85634 10.2713L10.409 9.18538C11.0999 9.5926 11.8138 9.86409 12.6889 9.86409C14.0015 9.86409 14.7154 9.18538 14.7154 7.91845V7.42073C14.1858 8.09944 13.5179 8.57454 12.4586 8.57454C10.9387 8.57454 9.53394 7.46598 9.53394 5.61084V5.58821C9.53394 3.73307 10.9617 2.62451 12.4586 2.62451C13.541 2.62451 14.2088 3.12223 14.7154 3.71045V2.76025H16.1893V7.78271C16.1893 8.84602 15.9129 9.63785 15.3833 10.1582C14.8075 10.7238 13.8864 11.0179 12.7349 11.0179C11.6756 11.0179 10.6854 10.7464 9.85634 10.2713ZM14.7385 5.61084V5.58821C14.7385 4.54752 13.8634 3.84619 12.8501 3.84619C11.8368 3.84619 11.0308 4.54752 11.0308 5.58821V5.61084C11.0308 6.65153 11.8368 7.35286 12.8501 7.35286C13.8864 7.35286 14.7385 6.6289 14.7385 5.61084Z" fill="white"/>
<path d="M17.6631 5.95003V5.92741C17.6631 4.11751 18.9757 2.64697 20.795 2.64697C22.8446 2.64697 23.8809 4.23063 23.8809 6.04052C23.8809 6.17627 23.8578 6.31201 23.8578 6.44775H19.1369C19.2981 7.46582 20.0351 8.05403 20.9792 8.05403C21.6931 8.05403 22.1998 7.78255 22.7294 7.30745L23.6045 8.05403C23.0058 8.77799 22.1537 9.23046 20.9792 9.23046C19.1139 9.23046 17.6631 7.89567 17.6631 5.95003ZM22.4301 5.47493C22.3379 4.54736 21.7622 3.8234 20.795 3.8234C19.8969 3.8234 19.2521 4.50211 19.1369 5.47493H22.4301Z" fill="white"/>
<path d="M25.3778 2.76025H26.8516V3.73307C27.2661 3.14486 27.8649 2.62451 28.8551 2.62451C30.3059 2.62451 31.135 3.57471 31.135 5.04525V9.07226H29.6611V5.49772C29.6611 4.5249 29.1545 3.95931 28.2794 3.95931C27.4273 3.95931 26.8286 4.54752 26.8286 5.52034V9.09488H25.3547V2.76025H25.3778Z" fill="white"/>
<path d="M32.5627 5.95019V5.92757C32.5627 4.1403 33.9675 2.62451 35.9019 2.62451C37.1225 2.62451 37.8824 3.07699 38.4812 3.71045L37.56 4.68327C37.0994 4.20817 36.6389 3.89144 35.9019 3.89144C34.8196 3.89144 34.0596 4.79639 34.0596 5.90495V5.92757C34.0596 7.05875 34.8426 7.9637 35.994 7.9637C36.6849 7.9637 37.1915 7.64697 37.6521 7.17187L38.5502 8.03157C37.9054 8.73291 37.1685 9.208 35.925 9.208C33.9905 9.23063 32.5627 7.76009 32.5627 5.95019Z" fill="white"/>
<path d="M39.886 0.407227H41.475V1.78727H39.886V0.407227ZM39.9551 2.76009H41.4289V9.0721H39.9551V2.76009Z" fill="white"/>
<path d="M47.2782 9.07226V8.30306C46.8407 8.8234 46.1729 9.208 45.2056 9.208C43.9851 9.208 42.9258 8.52929 42.9258 7.26237V7.23974C42.9258 5.83707 44.0312 5.18099 45.528 5.18099C46.311 5.18099 46.8177 5.29411 47.3013 5.45247V5.33935C47.3013 4.45703 46.7486 3.98193 45.7123 3.98193C44.9984 3.98193 44.4687 4.1403 43.87 4.36654L43.4785 3.21273C44.1924 2.896 44.8832 2.69238 45.9195 2.69238C47.8079 2.69238 48.7521 3.6652 48.7521 5.36198V9.11751H47.2782V9.07226ZM47.3243 6.42529C46.9558 6.28955 46.4262 6.17643 45.8504 6.17643C44.9293 6.17643 44.3766 6.53841 44.3766 7.14925V7.17187C44.3766 7.76009 44.9293 8.09944 45.6202 8.09944C46.5874 8.09944 47.3243 7.55647 47.3243 6.76465V6.42529Z" fill="white"/>
<path d="M54.325 0.701172H55.7067L60.2664 6.49283V0.701172H61.7402V9.07193H60.4967L55.7988 3.12191V9.07193H54.325V0.701172Z" fill="white"/>
<path d="M67.7047 9.07226V8.30306C67.2672 8.8234 66.5994 9.208 65.6321 9.208C64.4116 9.208 63.3523 8.52929 63.3523 7.26237V7.23974C63.3523 5.83707 64.4577 5.18099 65.9546 5.18099C66.7375 5.18099 67.2442 5.29411 67.7278 5.45247V5.33935C67.7278 4.45703 67.1751 3.98193 66.1388 3.98193C65.4249 3.98193 64.8952 4.1403 64.2965 4.36654L63.905 3.21273C64.6189 2.896 65.3097 2.69238 66.346 2.69238C68.2344 2.69238 69.1786 3.6652 69.1786 5.36198V9.11751H67.7047V9.07226ZM67.7278 6.42529C67.3593 6.28955 66.8297 6.17643 66.2539 6.17643C65.3328 6.17643 64.7801 6.53841 64.7801 7.14925V7.17187C64.7801 7.76009 65.3328 8.09944 66.0236 8.09944C66.9909 8.09944 67.7278 7.55647 67.7278 6.76465V6.42529Z" fill="white"/>
<path d="M70.5605 5.95019V5.92757C70.5605 4.1403 71.9653 2.62451 73.8997 2.62451C75.1203 2.62451 75.8802 3.07699 76.479 3.71045L75.5578 4.68327C75.0972 4.20817 74.6367 3.89144 73.8997 3.89144C72.8174 3.89144 72.0574 4.79639 72.0574 5.90495V5.92757C72.0574 7.05875 72.8404 7.9637 73.9918 7.9637C74.6827 7.9637 75.1893 7.64697 75.6499 7.17187L76.548 8.03157C75.9032 8.73291 75.1663 9.208 73.9228 9.208C71.9653 9.23063 70.5605 7.76009 70.5605 5.95019Z" fill="white"/>
<path d="M77.8835 0.407227H79.4725V1.78727H77.8835V0.407227ZM77.9526 2.76009H79.4265V9.0721H77.9526V2.76009Z" fill="white"/>
<path d="M80.9924 5.95019V5.92757C80.9924 4.11767 82.4432 2.62451 84.4237 2.62451C86.4042 2.62451 87.855 4.09505 87.855 5.90495V5.92757C87.855 7.71484 86.4042 9.208 84.4007 9.208C82.4432 9.23063 80.9924 7.76009 80.9924 5.95019ZM86.3582 5.95019V5.92757C86.3582 4.81901 85.5521 3.89144 84.3777 3.89144C83.2032 3.89144 82.4432 4.79639 82.4432 5.90495V5.92757C82.4432 7.03613 83.2493 7.9637 84.4007 7.9637C85.6212 7.9637 86.3582 7.03613 86.3582 5.95019Z" fill="white"/>
<path d="M89.3289 2.76025H90.8028V3.73307C91.2173 3.14486 91.8161 2.62451 92.8063 2.62451C94.2571 2.62451 95.0862 3.57471 95.0862 5.04525V9.07226H93.6123V5.49772C93.6123 4.5249 93.1057 3.95931 92.2306 3.95931C91.3785 3.95931 90.7798 4.54752 90.7798 5.52034V9.09488H89.3059V2.76025H89.3289Z" fill="white"/>
<path d="M100.82 9.07226V8.30306C100.383 8.8234 99.7148 9.208 98.7476 9.208C97.5271 9.208 96.4678 8.52929 96.4678 7.26237V7.23974C96.4678 5.83707 97.5732 5.18099 99.07 5.18099C99.853 5.18099 100.36 5.29411 100.843 5.45247V5.33935C100.843 4.45703 100.291 3.98193 99.2543 3.98193C98.5404 3.98193 98.0107 4.1403 97.412 4.36654L97.0205 3.21273C97.7344 2.896 98.4252 2.69238 99.4615 2.69238C101.35 2.69238 102.294 3.6652 102.294 5.36198V9.11751H100.82V9.07226ZM100.843 6.42529C100.475 6.28955 99.9451 6.17643 99.3694 6.17643C98.4483 6.17643 97.8956 6.53841 97.8956 7.14925V7.17187C97.8956 7.76009 98.4483 8.09944 99.1391 8.09944C100.106 8.09944 100.843 7.55647 100.843 6.76465V6.42529Z" fill="white"/>
<path d="M104.114 0.339355H105.587V9.0721H104.114V0.339355Z" fill="white"/>
<path d="M110.838 5.9274V5.90478C110.838 3.8234 112.289 2.62435 113.832 2.62435C114.891 2.62435 115.559 3.14469 116.019 3.73291V0.339355H117.493V9.0721H116.019V8.00878C115.536 8.66487 114.868 9.18521 113.832 9.18521C112.312 9.20784 110.838 8.03141 110.838 5.9274ZM116.019 5.9274V5.90478C116.019 4.6831 115.144 3.89127 114.154 3.89127C113.141 3.89127 112.312 4.66048 112.312 5.90478V5.9274C112.312 7.14908 113.164 7.94091 114.154 7.94091C115.144 7.96354 116.019 7.14908 116.019 5.9274Z" fill="white"/>
<path d="M118.967 5.95003V5.92741C118.967 4.11751 120.28 2.64697 122.099 2.64697C124.149 2.64697 125.185 4.23063 125.185 6.04052C125.185 6.17627 125.162 6.31201 125.162 6.44775H120.441C120.602 7.46582 121.339 8.05403 122.283 8.05403C122.997 8.05403 123.504 7.78255 124.033 7.30745L124.908 8.05403C124.31 8.77799 123.458 9.23046 122.283 9.23046C120.395 9.23046 118.967 7.89567 118.967 5.95003ZM123.711 5.47493C123.619 4.54736 123.043 3.8234 122.076 3.8234C121.178 3.8234 120.533 4.50211 120.418 5.47493H123.711Z" fill="white"/>
<path d="M130.481 0.701172H134.281C135.364 0.701172 136.193 1.0179 136.745 1.53825C137.206 1.99072 137.459 2.62419 137.459 3.34814V3.37077C137.459 4.75081 136.63 5.56526 135.433 5.90462L137.736 9.07193H135.962L133.867 6.15348H132.001V9.07193H130.504V0.701172H130.481ZM134.166 4.86393C135.248 4.86393 135.916 4.32096 135.916 3.46126V3.43864C135.916 2.53369 135.248 2.05859 134.143 2.05859H131.955V4.86393H134.166Z" fill="white"/>
<path d="M138.634 5.95003V5.92741C138.634 4.11751 139.946 2.64697 141.766 2.64697C143.815 2.64697 144.852 4.23063 144.852 6.04052C144.852 6.17627 144.829 6.31201 144.829 6.44775H140.108C140.269 7.46582 141.006 8.05403 141.95 8.05403C142.664 8.05403 143.17 7.78255 143.7 7.30745L144.575 8.05403C143.976 8.77799 143.124 9.23046 141.95 9.23046C140.085 9.23046 138.634 7.89567 138.634 5.95003ZM143.401 5.47493C143.309 4.54736 142.733 3.8234 141.766 3.8234C140.868 3.8234 140.223 4.50211 140.108 5.47493H143.401Z" fill="white"/>
<path d="M146.325 10.2713L146.878 9.18538C147.569 9.5926 148.283 9.86409 149.158 9.86409C150.471 9.86409 151.184 9.18538 151.184 7.91845V7.42073C150.655 8.09944 149.987 8.57454 148.928 8.57454C147.408 8.57454 146.003 7.46598 146.003 5.61084V5.58821C146.003 3.73307 147.431 2.62451 148.928 2.62451C150.01 2.62451 150.678 3.12223 151.184 3.71045V2.76025H152.658V7.78271C152.658 8.84602 152.382 9.63785 151.852 10.1582C151.277 10.7238 150.355 11.0179 149.204 11.0179C148.145 11.0179 147.154 10.7464 146.325 10.2713ZM151.207 5.61084V5.58821C151.207 4.54752 150.332 3.84619 149.319 3.84619C148.306 3.84619 147.5 4.54752 147.5 5.58821V5.61084C147.5 6.65153 148.306 7.35286 149.319 7.35286C150.355 7.35286 151.207 6.6289 151.207 5.61084Z" fill="white"/>
<path d="M154.432 6.78727V2.76025H155.905V6.35742C155.905 7.33024 156.412 7.89583 157.287 7.89583C158.139 7.89583 158.738 7.30761 158.738 6.3348V2.76025H160.212V9.07226H158.738V8.09944C158.324 8.68766 157.725 9.208 156.735 9.208C155.261 9.208 154.432 8.25781 154.432 6.78727Z" fill="white"/>
<path d="M162.123 0.339355H163.597V9.0721H162.123V0.339355Z" fill="white"/>
<path d="M169.469 9.07226V8.30306C169.032 8.8234 168.364 9.208 167.397 9.208C166.176 9.208 165.117 8.52929 165.117 7.26237V7.23974C165.117 5.83707 166.222 5.18099 167.719 5.18099C168.502 5.18099 169.009 5.29411 169.492 5.45247V5.33935C169.492 4.45703 168.94 3.98193 167.903 3.98193C167.19 3.98193 166.66 4.1403 166.061 4.36654L165.67 3.21273C166.384 2.896 167.074 2.69238 168.111 2.69238C169.999 2.69238 170.943 3.6652 170.943 5.36198V9.11751H169.469V9.07226ZM169.492 6.42529C169.124 6.28955 168.594 6.17643 168.019 6.17643C167.097 6.17643 166.545 6.53841 166.545 7.14925V7.17187C166.545 7.76009 167.097 8.09944 167.788 8.09944C168.755 8.09944 169.492 7.55647 169.492 6.76465V6.42529Z" fill="white"/>
<path d="M172.325 5.95019V5.92757C172.325 4.1403 173.73 2.62451 175.664 2.62451C176.885 2.62451 177.645 3.07699 178.243 3.71045L177.322 4.68327C176.862 4.20817 176.401 3.89144 175.664 3.89144C174.582 3.89144 173.822 4.79639 173.822 5.90495V5.92757C173.822 7.05875 174.605 7.9637 175.756 7.9637C176.447 7.9637 176.954 7.64697 177.414 7.17187L178.312 8.03157C177.668 8.73291 176.931 9.208 175.687 9.208C173.73 9.23063 172.325 7.76009 172.325 5.95019Z" fill="white"/>
<path d="M179.648 0.407227H181.237V1.78727H179.648V0.407227ZM179.694 2.76009H181.168V9.0721H179.694V2.76009Z" fill="white"/>
<path d="M182.757 5.95003V5.9274C182.757 4.11751 184.208 2.62435 186.188 2.62435C188.169 2.62435 189.619 4.09489 189.619 5.90478V5.9274C189.619 7.71468 188.169 9.20784 186.165 9.20784C184.208 9.23046 182.757 7.75992 182.757 5.95003ZM188.123 5.95003V5.9274C188.123 4.81884 187.317 3.89127 186.142 3.89127C184.968 3.89127 184.208 4.79622 184.208 5.90478V5.9274C184.208 7.03596 185.014 7.96354 186.165 7.96354C187.386 7.96354 188.123 7.03596 188.123 5.95003ZM186.856 0L188.192 0.588216L186.695 1.96826H185.589L186.856 0Z" fill="white"/>
<path d="M191.093 2.76025H192.567V3.73307C192.982 3.14486 193.58 2.62451 194.571 2.62451C196.022 2.62451 196.851 3.57471 196.851 5.04525V9.07226H195.377V5.49772C195.377 4.5249 194.87 3.95931 193.995 3.95931C193.143 3.95931 192.544 4.54752 192.544 5.52034V9.09488H191.07V2.76025H191.093Z" fill="white"/>
<path d="M198.14 10.2034C198.877 10.0677 199.246 9.6831 199.176 9.07226H198.555V7.44336H200.167V8.8234C200.167 10.1582 199.522 10.7238 198.301 10.8143L198.14 10.2034Z" fill="white"/>
<path d="M0.345459 16.8774V16.8548C0.345459 14.4793 2.16474 12.5337 4.74397 12.5337C6.30993 12.5337 7.25411 13.0767 8.08315 13.8459L7.11594 14.9318C6.42508 14.321 5.71118 13.8911 4.72094 13.8911C3.08589 13.8911 1.91142 15.2033 1.91142 16.8548V16.8774C1.91142 18.5063 3.08589 19.8638 4.72094 19.8638C5.75724 19.8638 6.4481 19.4339 7.162 18.7778L8.12921 19.728C7.23109 20.633 6.26387 21.2212 4.67488 21.2212C2.2108 21.1759 0.345459 19.2755 0.345459 16.8774Z" fill="white"/>
<path d="M9.07324 17.918V17.8953C9.07324 16.0854 10.5241 14.5923 12.5045 14.5923C14.485 14.5923 15.9128 16.0628 15.9128 17.8727V17.8953C15.9128 19.6826 14.462 21.1758 12.4585 21.1758C10.5241 21.1758 9.07324 19.7052 9.07324 17.918ZM14.439 17.918V17.8953C14.439 16.7868 13.633 15.8592 12.4585 15.8592C11.284 15.8592 10.5241 16.7642 10.5241 17.8727V17.8953C10.5241 19.0039 11.3301 19.9315 12.4815 19.9315C13.702 19.9315 14.439 19.0039 14.439 17.918Z" fill="white"/>
<path d="M17.4097 14.728H18.8836V15.7008C19.2981 15.1126 19.8969 14.5923 20.8871 14.5923C22.3379 14.5923 23.167 15.5425 23.167 17.013V21.04H21.6931V17.4429C21.6931 16.4701 21.1865 15.9045 20.3114 15.9045C19.4593 15.9045 18.8606 16.4927 18.8606 17.4655V21.04H17.3867V14.728H17.4097Z" fill="white"/>
<path d="M25.2626 19.2978V15.9722H24.4565V14.7279H25.2626V12.9858H26.7364V14.7279H28.4636V15.9722H26.7364V19.0716C26.7364 19.6372 27.0358 19.8634 27.5194 19.8634C27.8418 19.8634 28.1412 19.7956 28.4405 19.6372V20.8136C28.0721 21.0172 27.6576 21.1304 27.1049 21.1304C26.0455 21.153 25.2626 20.6779 25.2626 19.2978Z" fill="white"/>
<path d="M29.9604 14.7282H31.4343V16.1535C31.8258 15.2033 32.5857 14.5698 33.7141 14.6151V16.1535H33.622C32.3324 16.1535 31.4343 16.9906 31.4343 18.6647V21.0402H29.9604V14.7282Z" fill="white"/>
<path d="M34.405 17.918V17.8953C34.405 16.0854 35.8558 14.5923 37.8363 14.5923C39.8168 14.5923 41.2676 16.0628 41.2676 17.8727V17.8953C41.2676 19.6826 39.8168 21.1758 37.8133 21.1758C35.8558 21.1758 34.405 19.7052 34.405 17.918ZM39.7938 17.918V17.8953C39.7938 16.7868 38.9878 15.8592 37.8133 15.8592C36.6388 15.8592 35.8789 16.7642 35.8789 17.8727V17.8953C35.8789 19.0039 36.6849 19.9315 37.8363 19.9315C39.0338 19.9315 39.7938 19.0039 39.7938 17.918Z" fill="white"/>
<path d="M42.8335 12.3071H44.3073V21.0399H42.8335V12.3071Z" fill="white"/>
<path d="M49.6732 22.6011L50.1799 21.5151C50.4562 21.6509 50.7326 21.764 51.055 21.764C51.4695 21.764 51.7228 21.583 51.9761 21.04L49.2817 14.728H50.8477L52.667 19.4111L54.3251 14.728H55.868L53.3118 21.221C52.8052 22.5106 52.2294 22.9857 51.1931 22.9857C50.5944 22.9857 50.1338 22.8499 49.6732 22.6011Z" fill="white"/>
<path d="M60.2434 12.6694H61.9015L64.4807 19.0946L67.0139 12.6694H68.6259L65.0795 21.1081H63.7668L60.2434 12.6694Z" fill="white"/>
<path d="M69.7083 12.375H71.2972V13.755H69.7083V12.375ZM69.7543 14.7279H71.2282V21.0399H69.7543V14.7279Z" fill="white"/>
<path d="M73.1398 22.2166L73.6925 21.1307C74.3833 21.5379 75.0972 21.8094 75.9723 21.8094C77.285 21.8094 77.9989 21.1307 77.9989 19.8638V19.366C77.4692 20.0448 76.8014 20.5199 75.742 20.5199C74.2221 20.5199 72.8174 19.4113 72.8174 17.5561V17.5335C72.8174 15.6784 74.2452 14.5698 75.742 14.5698C76.8244 14.5698 77.4922 15.0675 77.9989 15.6558V14.7056H79.4727V19.728C79.4727 20.7913 79.1964 21.5832 78.6667 22.1035C78.091 22.6691 77.1698 22.9632 76.0184 22.9632C74.9591 22.9632 73.9688 22.7143 73.1398 22.2166ZM78.0219 17.5788V17.5561C78.0219 16.5155 77.1468 15.8141 76.1335 15.8141C75.1203 15.8141 74.3143 16.5155 74.3143 17.5561V17.5788C74.3143 18.6195 75.1203 19.3208 76.1335 19.3208C77.1698 19.3208 78.0219 18.5968 78.0219 17.5788Z" fill="white"/>
<path d="M81.3379 12.375H82.9269V13.755H81.3379V12.375ZM81.407 14.7279H82.8808V21.0399H81.407V14.7279Z" fill="white"/>
<path d="M84.8843 12.3071H86.3581V21.0399H84.8843V12.3071Z" fill="white"/>
<path d="M92.2074 21.04V20.2708C91.7699 20.7912 91.102 21.1758 90.1348 21.1758C88.9143 21.1758 87.855 20.4971 87.855 19.2301V19.2075C87.855 17.8048 88.9604 17.1488 90.4572 17.1488C91.2402 17.1488 91.7469 17.2619 92.2305 17.4202V17.3071C92.2305 16.4248 91.6778 15.9497 90.6415 15.9497C89.9276 15.9497 89.3979 16.1081 88.7992 16.3343L88.4077 15.1805C89.1216 14.8638 89.8124 14.6602 90.8487 14.6602C92.7371 14.6602 93.6813 15.633 93.6813 17.3297V21.04H92.2074ZM92.2535 18.3931C91.885 18.2573 91.3554 18.1442 90.7796 18.1442C89.8585 18.1442 89.3058 18.5062 89.3058 19.117V19.1396C89.3058 19.7279 89.8585 20.0672 90.5494 20.0672C91.5166 20.0672 92.2535 19.5242 92.2535 18.7324V18.3931Z" fill="white"/>
<path d="M95.4315 14.728H96.9053V15.7008C97.3198 15.1126 97.9186 14.5923 98.9088 14.5923C100.36 14.5923 101.189 15.5425 101.189 17.013V21.04H99.7148V17.4429C99.7148 16.4701 99.2082 15.9045 98.3331 15.9045C97.481 15.9045 96.8823 16.4927 96.8823 17.4655V21.04H95.4084V14.728H95.4315Z" fill="white"/>
<path d="M102.616 17.918V17.8953C102.616 16.1081 104.021 14.5923 105.956 14.5923C107.176 14.5923 107.936 15.0448 108.535 15.6782L107.614 16.651C107.153 16.1759 106.693 15.8592 105.956 15.8592C104.873 15.8592 104.113 16.7642 104.113 17.8727V17.8953C104.113 19.0265 104.896 19.9315 106.048 19.9315C106.739 19.9315 107.245 19.6147 107.706 19.1396L108.604 19.9993C107.982 20.7007 107.222 21.1758 105.979 21.1758C104.021 21.1758 102.616 19.7052 102.616 17.918Z" fill="white"/>
<path d="M109.94 12.375H111.529V13.755H109.94V12.375ZM110.009 14.7279H111.483V21.0399H110.009V14.7279Z" fill="white"/>
<path d="M117.332 21.04V20.2708C116.894 20.7912 116.227 21.1758 115.259 21.1758C114.039 21.1758 112.979 20.4971 112.979 19.2301V19.2075C112.979 17.8048 114.085 17.1488 115.582 17.1488C116.365 17.1488 116.871 17.2619 117.355 17.4202V17.3071C117.355 16.4248 116.802 15.9497 115.766 15.9497C115.052 15.9497 114.522 16.1081 113.924 16.3343L113.532 15.1805C114.246 14.8638 114.937 14.6602 115.973 14.6602C117.862 14.6602 118.806 15.633 118.806 17.3297V21.04H117.332ZM117.378 18.3931C117.01 18.2573 116.48 18.1442 115.904 18.1442C114.983 18.1442 114.43 18.5062 114.43 19.117V19.1396C114.43 19.7279 114.983 20.0672 115.674 20.0672C116.641 20.0672 117.378 19.5242 117.378 18.7324V18.3931Z" fill="white"/>
<path d="M123.78 19.8185L124.678 18.7552C125.484 19.4565 126.313 19.8411 127.373 19.8411C128.294 19.8411 128.892 19.4339 128.892 18.7778C128.892 18.1896 128.547 17.8503 126.958 17.4883C125.139 17.0584 124.125 16.5381 124.125 14.977V14.9544C124.125 13.5291 125.346 12.5337 127.027 12.5337C128.271 12.5337 129.261 12.8957 130.113 13.597L129.307 14.7056C128.547 14.14 127.764 13.8459 127.004 13.8459C126.129 13.8459 125.622 14.2983 125.622 14.8413V14.8639C125.622 15.52 126.014 15.7915 127.649 16.1761C129.445 16.606 130.389 17.2394 130.389 18.6195V18.6421C130.389 20.2031 129.146 21.1533 127.35 21.1533C126.037 21.1533 124.816 20.7235 123.78 19.8185Z" fill="white"/>
<path d="M135.916 21.04V20.2708C135.479 20.7912 134.811 21.1758 133.844 21.1758C132.623 21.1758 131.564 20.4971 131.564 19.2301V19.2075C131.564 17.8048 132.669 17.1488 134.166 17.1488C134.949 17.1488 135.456 17.2619 135.939 17.4202V17.3071C135.939 16.4248 135.387 15.9497 134.35 15.9497C133.637 15.9497 133.107 16.1081 132.508 16.3343L132.117 15.1805C132.831 14.8638 133.521 14.6602 134.558 14.6602C136.446 14.6602 137.39 15.633 137.39 17.3297V21.04H135.916ZM135.962 18.3931C135.594 18.2573 135.064 18.1442 134.489 18.1442C133.567 18.1442 133.015 18.5062 133.015 19.117V19.1396C133.015 19.7279 133.567 20.0672 134.258 20.0672C135.226 20.0672 135.962 19.5242 135.962 18.7324V18.3931Z" fill="white"/>
<path d="M139.117 14.728H140.591V15.7008C141.006 15.1126 141.604 14.5923 142.595 14.5923C144.045 14.5923 144.874 15.5425 144.874 17.013V21.04H143.401V17.4429C143.401 16.4701 142.894 15.9045 142.019 15.9045C141.167 15.9045 140.568 16.4927 140.568 17.4655V21.04H139.094V14.728H139.117Z" fill="white"/>
<path d="M146.694 12.375H148.283V13.755H146.694V12.375ZM146.763 14.7279H148.237V21.0399H146.763V14.7279Z" fill="white"/>
<path d="M150.448 19.2978V15.9722H149.642V14.7279H150.448V12.9858H151.921V14.7279H153.649V15.9722H151.921V19.0716C151.921 19.6372 152.221 19.8634 152.704 19.8634C153.027 19.8634 153.326 19.7956 153.626 19.6372V20.8136C153.257 21.0172 152.843 21.1304 152.29 21.1304C151.231 21.153 150.448 20.6779 150.448 19.2978Z" fill="white"/>
<path d="M159.083 21.04V20.2708C158.646 20.7912 157.978 21.1758 157.011 21.1758C155.79 21.1758 154.731 20.4971 154.731 19.2301V19.2075C154.731 17.8048 155.836 17.1488 157.333 17.1488C158.116 17.1488 158.623 17.2619 159.106 17.4202V17.3071C159.106 16.4248 158.554 15.9497 157.517 15.9497C156.804 15.9497 156.274 16.1081 155.675 16.3343L155.284 15.1805C155.998 14.8638 156.688 14.6602 157.725 14.6602C159.613 14.6602 160.557 15.633 160.557 17.3297V21.04H159.083ZM159.106 18.3931C158.738 18.2573 158.208 18.1442 157.633 18.1442C156.711 18.1442 156.159 18.5062 156.159 19.117V19.1396C156.159 19.7279 156.711 20.0672 157.402 20.0672C158.37 20.0672 159.106 19.5242 159.106 18.7324V18.3931Z" fill="white"/>
<path d="M162.284 14.7282H163.758V16.1535C164.15 15.2033 164.91 14.5698 166.038 14.6151V16.1535H165.946C164.656 16.1535 163.758 16.9906 163.758 18.6647V21.0402H162.284V14.7282Z" fill="white"/>
<path d="M167.351 12.375H168.94V13.755H167.351V12.375ZM167.397 14.7279H168.87V21.0399H167.397V14.7279Z" fill="white"/>
<path d="M174.72 21.04V20.2708C174.282 20.7912 173.615 21.1758 172.647 21.1758C171.427 21.1758 170.367 20.4971 170.367 19.2301V19.2075C170.367 17.8048 171.473 17.1488 172.97 17.1488C173.753 17.1488 174.259 17.2619 174.743 17.4202V17.3071C174.743 16.4248 174.19 15.9497 173.154 15.9497C172.44 15.9497 171.91 16.1081 171.312 16.3343L170.92 15.1805C171.634 14.8638 172.325 14.6602 173.361 14.6602C175.25 14.6602 176.194 15.633 176.194 17.3297V21.04H174.72ZM174.766 18.3931C174.397 18.2573 173.868 18.1442 173.292 18.1442C172.371 18.1442 171.818 18.5062 171.818 19.117V19.1396C171.818 19.7279 172.371 20.0672 173.062 20.0672C174.029 20.0672 174.766 19.5242 174.766 18.7324V18.3931Z" fill="white"/>
</svg>
