<svg width="113" height="54" viewBox="0 0 113 54" fill="none" xmlns="http://www.w3.org/2000/svg">
<circle cx="83" cy="4" r="4" fill="white"/>
<circle cx="69" cy="4" r="4" fill="white"/>
<circle cx="56" cy="4" r="4" fill="white"/>
<circle cx="76" cy="10" r="4" fill="white"/>
<circle cx="62" cy="10" r="4" fill="white"/>
<circle cx="49" cy="10" r="4" fill="white"/>
<circle cx="69" cy="16" r="4" fill="white"/>
<circle cx="55" cy="16" r="4" fill="white"/>
<circle cx="42" cy="16" r="4" fill="white"/>
<circle cx="62" cy="22" r="4" fill="white"/>
<circle cx="48" cy="22" r="4" fill="white"/>
<circle cx="35" cy="22" r="4" fill="white"/>
<circle cx="30" cy="15" r="4" fill="white"/>
<path d="M7.08008 37.4863L3.4082 49H0.00976562L5.27344 34.7812H7.42188L7.08008 37.4863ZM10.127 49L6.44531 37.4863L6.06445 34.7812H8.24219L13.5254 49H10.127ZM9.9707 43.707V46.168H2.55859V43.707H9.9707ZM18.3074 40.8945V49H15.2605V38.4336H18.1219L18.3074 40.8945ZM21.4617 38.3555L21.4129 41.1973C21.2827 41.1777 21.1134 41.1615 20.9051 41.1484C20.6967 41.1289 20.5177 41.1191 20.368 41.1191C19.9773 41.1191 19.6388 41.168 19.3523 41.2656C19.0724 41.3568 18.838 41.4935 18.6492 41.6758C18.4669 41.8581 18.3302 42.0859 18.2391 42.3594C18.1479 42.6263 18.1023 42.9355 18.1023 43.2871L17.5262 43.0039C17.5262 42.3073 17.5945 41.6693 17.7312 41.0898C17.868 40.5104 18.0665 40.0091 18.327 39.5859C18.5874 39.1562 18.9064 38.8242 19.284 38.5898C19.6616 38.3555 20.0913 38.2383 20.573 38.2383C20.7293 38.2383 20.8888 38.248 21.0516 38.2676C21.2143 38.2871 21.351 38.3164 21.4617 38.3555ZM27.6305 46.8223C27.956 46.8223 28.2392 46.7604 28.4801 46.6367C28.721 46.513 28.9065 46.3405 29.0367 46.1191C29.1734 45.8913 29.2418 45.6178 29.2418 45.2988H32.1129C32.1129 46.0671 31.9143 46.7441 31.5172 47.3301C31.1266 47.916 30.5992 48.375 29.9352 48.707C29.2711 49.0326 28.5224 49.1953 27.6891 49.1953C26.8687 49.1953 26.1526 49.0618 25.5406 48.7949C24.9286 48.5215 24.4176 48.1406 24.0074 47.6523C23.5973 47.1641 23.288 46.5977 23.0797 45.9531C22.8779 45.3021 22.777 44.599 22.777 43.8438V43.5898C22.777 42.8411 22.8779 42.1413 23.0797 41.4902C23.288 40.8392 23.5973 40.2695 24.0074 39.7812C24.4176 39.293 24.9254 38.9154 25.5309 38.6484C26.1428 38.375 26.859 38.2383 27.6793 38.2383C28.5452 38.2383 29.3102 38.4043 29.9742 38.7363C30.6448 39.0684 31.1689 39.5469 31.5465 40.1719C31.9241 40.7904 32.1129 41.5358 32.1129 42.4082H29.2418C29.2418 42.0697 29.1799 41.7669 29.0562 41.5C28.9391 41.2266 28.7568 41.0117 28.5094 40.8555C28.2685 40.6927 27.969 40.6113 27.6109 40.6113C27.2398 40.6113 26.9339 40.6927 26.693 40.8555C26.4586 41.0117 26.2796 41.2298 26.1559 41.5098C26.0322 41.7897 25.9475 42.1087 25.902 42.4668C25.8564 42.8184 25.8336 43.1927 25.8336 43.5898V43.8438C25.8336 44.2474 25.8564 44.6315 25.902 44.9961C25.9475 45.3542 26.0322 45.6699 26.1559 45.9434C26.2861 46.2168 26.4684 46.4316 26.7027 46.5879C26.9371 46.7441 27.2464 46.8223 27.6305 46.8223ZM39.9516 46.0605C39.9516 45.8652 39.8897 45.6927 39.766 45.543C39.6488 45.3932 39.434 45.2565 39.1215 45.1328C38.8155 45.0091 38.3826 44.8854 37.8227 44.7617C37.2953 44.651 36.8038 44.5078 36.348 44.332C35.8923 44.1497 35.4952 43.9316 35.1566 43.6777C34.8181 43.4173 34.5544 43.1113 34.3656 42.7598C34.1768 42.4017 34.0824 41.9948 34.0824 41.5391C34.0824 41.0964 34.1768 40.6764 34.3656 40.2793C34.5609 39.8822 34.8409 39.5306 35.2055 39.2246C35.5766 38.9186 36.0258 38.6777 36.5531 38.502C37.087 38.3262 37.6924 38.2383 38.3695 38.2383C39.3005 38.2383 40.1046 38.3848 40.7816 38.6777C41.4587 38.9642 41.9796 39.3678 42.3441 39.8887C42.7087 40.403 42.891 40.9922 42.891 41.6562H39.8441C39.8441 41.3828 39.7921 41.1452 39.6879 40.9434C39.5837 40.7415 39.4242 40.5853 39.2094 40.4746C38.9945 40.3574 38.7113 40.2988 38.3598 40.2988C38.0863 40.2988 37.8454 40.3477 37.6371 40.4453C37.4353 40.5365 37.2758 40.6634 37.1586 40.8262C37.0479 40.9889 36.9926 41.1777 36.9926 41.3926C36.9926 41.5423 37.0251 41.679 37.0902 41.8027C37.1618 41.9199 37.2693 42.0306 37.4125 42.1348C37.5622 42.2324 37.7543 42.3203 37.9887 42.3984C38.2296 42.4766 38.5225 42.5514 38.8676 42.623C39.6033 42.7598 40.2738 42.9518 40.8793 43.1992C41.4913 43.4466 41.9796 43.7884 42.3441 44.2246C42.7152 44.6608 42.9008 45.237 42.9008 45.9531C42.9008 46.4219 42.7934 46.8516 42.5785 47.2422C42.3702 47.6328 42.0674 47.9746 41.6703 48.2676C41.2732 48.5605 40.7979 48.7884 40.2445 48.9512C39.6911 49.1139 39.0661 49.1953 38.3695 49.1953C37.3734 49.1953 36.5303 49.0163 35.8402 48.6582C35.1501 48.3001 34.6293 47.8509 34.2777 47.3105C33.9327 46.7637 33.7602 46.2038 33.7602 45.6309H36.6215C36.6345 45.9824 36.7224 46.2689 36.8852 46.4902C37.0544 46.7116 37.2725 46.8743 37.5395 46.9785C37.8064 47.0762 38.1059 47.125 38.4379 47.125C38.7699 47.125 39.0466 47.0794 39.268 46.9883C39.4893 46.8971 39.6586 46.7734 39.7758 46.6172C39.893 46.4544 39.9516 46.2689 39.9516 46.0605ZM50.8957 46.4805V41.9492C50.8957 41.6302 50.8469 41.3568 50.7492 41.1289C50.6516 40.901 50.4986 40.722 50.2902 40.5918C50.0819 40.4616 49.8117 40.3965 49.4797 40.3965C49.1997 40.3965 48.9556 40.4453 48.7473 40.543C48.5454 40.6406 48.3892 40.7806 48.2785 40.9629C48.1743 41.1452 48.1223 41.3698 48.1223 41.6367H45.0754C45.0754 41.1615 45.1828 40.7188 45.3977 40.3086C45.6125 39.8984 45.9185 39.5371 46.3156 39.2246C46.7193 38.9121 47.201 38.6712 47.7609 38.502C48.3208 38.3262 48.9491 38.2383 49.6457 38.2383C50.4725 38.2383 51.2082 38.3783 51.8527 38.6582C52.5038 38.9316 53.0181 39.3451 53.3957 39.8984C53.7733 40.4453 53.9621 41.1354 53.9621 41.9688V46.3926C53.9621 47.0306 53.9979 47.5319 54.0695 47.8965C54.1477 48.2546 54.2583 48.5671 54.4016 48.834V49H51.3254C51.1822 48.694 51.0747 48.3164 51.0031 47.8672C50.9315 47.4115 50.8957 46.9492 50.8957 46.4805ZM51.2766 42.5547L51.2961 44.2344H49.7824C49.4439 44.2344 49.1509 44.2767 48.9035 44.3613C48.6626 44.446 48.4673 44.5632 48.3176 44.7129C48.1678 44.8561 48.0572 45.0254 47.9855 45.2207C47.9204 45.4095 47.8879 45.6178 47.8879 45.8457C47.8879 46.0605 47.94 46.2559 48.0441 46.4316C48.1483 46.6009 48.2915 46.7344 48.4738 46.832C48.6561 46.9297 48.8677 46.9785 49.1086 46.9785C49.5057 46.9785 49.8443 46.9004 50.1242 46.7441C50.4107 46.5879 50.632 46.3991 50.7883 46.1777C50.9445 45.9499 51.0227 45.7383 51.0227 45.543L51.7551 46.8125C51.6379 47.0729 51.4947 47.3431 51.3254 47.623C51.1561 47.8965 50.9413 48.1536 50.6809 48.3945C50.4204 48.6289 50.1047 48.821 49.7336 48.9707C49.369 49.1204 48.9296 49.1953 48.4152 49.1953C47.7512 49.1953 47.149 49.0618 46.6086 48.7949C46.0682 48.5215 45.6353 48.1471 45.3098 47.6719C44.9908 47.1966 44.8312 46.6497 44.8312 46.0312C44.8312 45.4779 44.9322 44.9863 45.134 44.5566C45.3358 44.127 45.6385 43.7624 46.0422 43.4629C46.4523 43.1634 46.9667 42.9388 47.5852 42.7891C48.2036 42.6328 48.9263 42.5547 49.7531 42.5547H51.2766ZM63.575 34.7812H65.4012L70.0594 46.373L74.7078 34.7812H76.5438L70.7625 49H69.3367L63.575 34.7812ZM62.9793 34.7812H64.5906L64.8543 43.4531V49H62.9793V34.7812ZM75.5184 34.7812H77.1297V49H75.2547V43.4531L75.5184 34.7812ZM80.3883 43.834V43.6094C80.3883 42.8477 80.499 42.1413 80.7203 41.4902C80.9417 40.8327 81.2607 40.263 81.6773 39.7812C82.094 39.293 82.5986 38.9154 83.191 38.6484C83.7835 38.375 84.4475 38.2383 85.1832 38.2383C85.9254 38.2383 86.5927 38.375 87.1852 38.6484C87.7841 38.9154 88.2919 39.293 88.7086 39.7812C89.1318 40.263 89.454 40.8327 89.6754 41.4902C89.8967 42.1413 90.0074 42.8477 90.0074 43.6094V43.834C90.0074 44.5957 89.8967 45.3021 89.6754 45.9531C89.454 46.6042 89.1318 47.1738 88.7086 47.6621C88.2919 48.1439 87.7874 48.5215 87.1949 48.7949C86.609 49.0618 85.9449 49.1953 85.2027 49.1953C84.4605 49.1953 83.7932 49.0618 83.2008 48.7949C82.6083 48.5215 82.1005 48.1439 81.6773 47.6621C81.2607 47.1738 80.9417 46.6042 80.7203 45.9531C80.499 45.3021 80.3883 44.5957 80.3883 43.834ZM82.1949 43.6094V43.834C82.1949 44.3613 82.2568 44.8594 82.3805 45.3281C82.5042 45.7904 82.6897 46.2005 82.9371 46.5586C83.191 46.9167 83.5068 47.1999 83.8844 47.4082C84.262 47.61 84.7014 47.7109 85.2027 47.7109C85.6975 47.7109 86.1305 47.61 86.5016 47.4082C86.8792 47.1999 87.1917 46.9167 87.4391 46.5586C87.6865 46.2005 87.872 45.7904 87.9957 45.3281C88.1259 44.8594 88.191 44.3613 88.191 43.834V43.6094C88.191 43.0885 88.1259 42.597 87.9957 42.1348C87.872 41.666 87.6832 41.2526 87.4293 40.8945C87.1819 40.5299 86.8694 40.2435 86.4918 40.0352C86.1207 39.8268 85.6845 39.7227 85.1832 39.7227C84.6884 39.7227 84.2522 39.8268 83.8746 40.0352C83.5035 40.2435 83.191 40.5299 82.9371 40.8945C82.6897 41.2526 82.5042 41.666 82.3805 42.1348C82.2568 42.597 82.1949 43.0885 82.1949 43.6094ZM84.109 36.8711L86.0035 34H88.1813L85.5641 36.8711H84.109ZM96.0297 47.3691L98.9203 38.4336H100.766L96.9672 49H95.7562L96.0297 47.3691ZM93.6176 38.4336L96.5961 47.418L96.8012 49H95.5902L91.7621 38.4336H93.6176ZM105.167 38.4336V49H103.351V38.4336H105.167ZM103.214 35.6309C103.214 35.3379 103.302 35.0905 103.478 34.8887C103.66 34.6868 103.927 34.5859 104.279 34.5859C104.624 34.5859 104.887 34.6868 105.07 34.8887C105.258 35.0905 105.353 35.3379 105.353 35.6309C105.353 35.9108 105.258 36.1517 105.07 36.3535C104.887 36.5488 104.624 36.6465 104.279 36.6465C103.927 36.6465 103.66 36.5488 103.478 36.3535C103.302 36.1517 103.214 35.9108 103.214 35.6309ZM110.73 34V49H108.914V34H110.73Z" fill="white"/>
</svg>
