<svg width="277" height="27" viewBox="0 0 277 27" fill="none" xmlns="http://www.w3.org/2000/svg">
<path d="M37.4502 18.0518L39.9316 10.0469H42.0166L38.5029 20H37.1152L37.4502 18.0518ZM35.1602 10.0469L37.6279 18.0518L37.9834 20H36.582L33.082 10.0469H35.1602ZM45.9268 20.1367C45.3662 20.1367 44.8626 20.0456 44.416 19.8633C43.9694 19.681 43.5889 19.4281 43.2744 19.1045C42.9645 18.7764 42.7253 18.3958 42.5566 17.9629C42.3926 17.5254 42.3105 17.056 42.3105 16.5547V16.2812C42.3105 15.7116 42.3926 15.1943 42.5566 14.7295C42.7207 14.2601 42.9531 13.8568 43.2539 13.5195C43.5547 13.1823 43.9147 12.9225 44.334 12.7402C44.7533 12.5579 45.2158 12.4668 45.7217 12.4668C46.2458 12.4668 46.7083 12.5557 47.1094 12.7334C47.5104 12.9066 47.8454 13.1527 48.1143 13.4717C48.3831 13.7907 48.5859 14.1735 48.7227 14.6201C48.8594 15.0622 48.9277 15.5521 48.9277 16.0898V16.8486H43.1309V15.6045H47.1504V15.4678C47.1413 15.1807 47.0866 14.9186 46.9863 14.6816C46.8861 14.4401 46.7311 14.2487 46.5215 14.1074C46.3118 13.9616 46.0407 13.8887 45.708 13.8887C45.4391 13.8887 45.2044 13.9479 45.0039 14.0664C44.8079 14.1803 44.6439 14.3444 44.5117 14.5586C44.3841 14.7682 44.2884 15.0189 44.2246 15.3105C44.1608 15.6022 44.1289 15.9258 44.1289 16.2812V16.5547C44.1289 16.8646 44.1699 17.1517 44.252 17.416C44.3385 17.6803 44.4639 17.9105 44.6279 18.1064C44.7965 18.2979 44.9971 18.4482 45.2295 18.5576C45.4665 18.6624 45.7354 18.7148 46.0361 18.7148C46.4144 18.7148 46.7562 18.6419 47.0615 18.4961C47.3714 18.3457 47.6403 18.1247 47.8682 17.833L48.7773 18.7764C48.6224 19.0042 48.4128 19.223 48.1484 19.4326C47.8887 19.6423 47.5742 19.8132 47.2051 19.9453C46.8359 20.0729 46.4098 20.1367 45.9268 20.1367ZM51.9424 14.1143V20H50.1377V12.6035H51.8467L51.9424 14.1143ZM54.1914 12.5557L54.1641 14.2373C54.0638 14.2191 53.9499 14.2054 53.8223 14.1963C53.6992 14.1872 53.583 14.1826 53.4736 14.1826C53.1956 14.1826 52.9518 14.2214 52.7422 14.2988C52.5326 14.3717 52.3571 14.4788 52.2158 14.6201C52.0791 14.7614 51.9743 14.9346 51.9014 15.1396C51.8285 15.3402 51.7874 15.568 51.7783 15.8232L51.3887 15.7754C51.3887 15.306 51.4365 14.8708 51.5322 14.4697C51.6279 14.0687 51.7669 13.7178 51.9492 13.417C52.1315 13.1162 52.3594 12.8838 52.6328 12.7197C52.9108 12.5511 53.2298 12.4668 53.5898 12.4668C53.6901 12.4668 53.7972 12.4759 53.9111 12.4941C54.0296 12.5078 54.123 12.5283 54.1914 12.5557ZM57.0967 12.6035V20H55.2852V12.6035H57.0967ZM55.1621 10.6689C55.1621 10.4001 55.2533 10.1768 55.4355 9.99902C55.6224 9.82129 55.873 9.73242 56.1875 9.73242C56.502 9.73242 56.7503 9.82129 56.9326 9.99902C57.1195 10.1768 57.2129 10.4001 57.2129 10.6689C57.2129 10.9333 57.1195 11.1543 56.9326 11.332C56.7503 11.5098 56.502 11.5986 56.1875 11.5986C55.873 11.5986 55.6224 11.5098 55.4355 11.332C55.2533 11.1543 55.1621 10.9333 55.1621 10.6689ZM61.1025 20H59.2842V12.1934C59.2842 11.5827 59.4072 11.0677 59.6533 10.6484C59.904 10.2246 60.2617 9.90332 60.7266 9.68457C61.196 9.46582 61.7542 9.35645 62.4014 9.35645C62.7796 9.35645 63.1442 9.39518 63.4951 9.47266C63.8506 9.54557 64.2152 9.64128 64.5889 9.75977L64.3223 11.2227C64.0807 11.1452 63.8164 11.0723 63.5293 11.0039C63.2467 10.9355 62.9118 10.9014 62.5244 10.9014C62.0459 10.9014 61.6882 11.0107 61.4512 11.2295C61.2188 11.4482 61.1025 11.7695 61.1025 12.1934V20ZM62.5791 12.6035V13.9023H58.1699V12.6035H62.5791ZM65.4365 12.6035V20H63.625V12.6035H65.4365ZM70.2217 18.7148C70.4769 18.7148 70.7048 18.6647 70.9053 18.5645C71.1058 18.4642 71.2653 18.3229 71.3838 18.1406C71.5068 17.9583 71.5729 17.7464 71.582 17.5049H73.2842C73.2751 18.0062 73.1338 18.4551 72.8604 18.8516C72.5869 19.248 72.2223 19.5625 71.7666 19.7949C71.3154 20.0228 70.8096 20.1367 70.249 20.1367C69.6794 20.1367 69.1826 20.041 68.7588 19.8496C68.335 19.6582 67.9818 19.3916 67.6992 19.0498C67.4212 18.708 67.2116 18.3115 67.0703 17.8604C66.9336 17.4092 66.8652 16.9261 66.8652 16.4111V16.1924C66.8652 15.6774 66.9336 15.1943 67.0703 14.7432C67.2116 14.292 67.4212 13.8955 67.6992 13.5537C67.9818 13.2119 68.335 12.9453 68.7588 12.7539C69.1826 12.5625 69.6771 12.4668 70.2422 12.4668C70.8392 12.4668 71.3633 12.583 71.8145 12.8154C72.2702 13.0479 72.6257 13.376 72.8809 13.7998C73.1406 14.2236 73.2751 14.7227 73.2842 15.2969H71.582C71.5729 15.0326 71.5137 14.7956 71.4043 14.5859C71.2949 14.3763 71.14 14.2077 70.9395 14.0801C70.7389 13.9525 70.4951 13.8887 70.208 13.8887C69.9027 13.8887 69.6475 13.9525 69.4424 14.0801C69.2419 14.2077 69.0846 14.3831 68.9707 14.6064C68.8613 14.8252 68.7839 15.0713 68.7383 15.3447C68.6973 15.6136 68.6768 15.8962 68.6768 16.1924V16.4111C68.6768 16.7119 68.6973 16.999 68.7383 17.2725C68.7839 17.5459 68.8613 17.792 68.9707 18.0107C69.0846 18.2249 69.2419 18.3958 69.4424 18.5234C69.6475 18.651 69.9072 18.7148 70.2217 18.7148ZM78.5615 18.4277V15.0166C78.5615 14.766 78.5182 14.5495 78.4316 14.3672C78.3451 14.1849 78.2129 14.0436 78.0352 13.9434C77.8574 13.8431 77.6318 13.793 77.3584 13.793C77.1169 13.793 76.9049 13.834 76.7227 13.916C76.5449 13.998 76.4082 14.1143 76.3125 14.2646C76.2168 14.4105 76.1689 14.5791 76.1689 14.7705H74.3574C74.3574 14.4652 74.4303 14.1758 74.5762 13.9023C74.722 13.6243 74.9294 13.3783 75.1982 13.1641C75.4717 12.9453 75.7975 12.7744 76.1758 12.6514C76.5586 12.5283 76.987 12.4668 77.4609 12.4668C78.0215 12.4668 78.5205 12.5625 78.958 12.7539C79.4001 12.9408 79.7464 13.2233 79.9971 13.6016C80.2523 13.9798 80.3799 14.4561 80.3799 15.0303V18.2568C80.3799 18.626 80.4027 18.9427 80.4482 19.207C80.4984 19.4668 80.5713 19.6924 80.667 19.8838V20H78.8281C78.7415 19.8132 78.6755 19.5762 78.6299 19.2891C78.5843 18.9974 78.5615 18.7103 78.5615 18.4277ZM78.8145 15.4951L78.8281 16.5684H77.6865C77.404 16.5684 77.1556 16.598 76.9414 16.6572C76.7272 16.7119 76.5518 16.7939 76.415 16.9033C76.2783 17.0081 76.1758 17.1357 76.1074 17.2861C76.0391 17.432 76.0049 17.5983 76.0049 17.7852C76.0049 17.9674 76.0459 18.1315 76.1279 18.2773C76.2145 18.4232 76.3376 18.5394 76.4971 18.626C76.6611 18.708 76.8525 18.749 77.0713 18.749C77.3903 18.749 77.6683 18.6852 77.9053 18.5576C78.1423 18.4255 78.3268 18.266 78.459 18.0791C78.5911 17.8923 78.6618 17.7145 78.6709 17.5459L79.1904 18.3252C79.1266 18.512 79.0309 18.7103 78.9033 18.9199C78.7757 19.1296 78.6117 19.3255 78.4111 19.5078C78.2106 19.6901 77.9691 19.8405 77.6865 19.959C77.404 20.0775 77.0758 20.1367 76.7021 20.1367C76.2236 20.1367 75.7952 20.041 75.417 19.8496C75.0387 19.6582 74.7402 19.3962 74.5215 19.0635C74.3027 18.7308 74.1934 18.3525 74.1934 17.9287C74.1934 17.5368 74.2663 17.1904 74.4121 16.8896C74.5579 16.5889 74.7744 16.3359 75.0615 16.1309C75.3486 15.9212 75.7041 15.764 76.1279 15.6592C76.5563 15.5498 77.0462 15.4951 77.5977 15.4951H78.8145ZM83.8115 14.1143V20H82.0068V12.6035H83.7158L83.8115 14.1143ZM86.0605 12.5557L86.0332 14.2373C85.9329 14.2191 85.819 14.2054 85.6914 14.1963C85.5684 14.1872 85.4521 14.1826 85.3428 14.1826C85.0648 14.1826 84.821 14.2214 84.6113 14.2988C84.4017 14.3717 84.2262 14.4788 84.085 14.6201C83.9482 14.7614 83.8434 14.9346 83.7705 15.1396C83.6976 15.3402 83.6566 15.568 83.6475 15.8232L83.2578 15.7754C83.2578 15.306 83.3057 14.8708 83.4014 14.4697C83.4971 14.0687 83.6361 13.7178 83.8184 13.417C84.0007 13.1162 84.2285 12.8838 84.502 12.7197C84.7799 12.5511 85.099 12.4668 85.459 12.4668C85.5592 12.4668 85.6663 12.4759 85.7803 12.4941C85.8988 12.5078 85.9922 12.5283 86.0605 12.5557ZM97.2715 18.5234V20H91.9805V18.5234H97.2715ZM92.5547 10.0469V20H90.6748V10.0469H92.5547ZM96.5811 14.1553V15.5977H91.9805V14.1553H96.5811ZM97.251 10.0469V11.5303H91.9805V10.0469H97.251ZM102.508 17.9766C102.508 17.8216 102.467 17.6826 102.385 17.5596C102.303 17.4365 102.148 17.3249 101.92 17.2246C101.697 17.1198 101.368 17.0218 100.936 16.9307C100.553 16.8486 100.2 16.7461 99.876 16.623C99.5524 16.5 99.2744 16.3519 99.042 16.1787C98.8096 16.001 98.6273 15.7936 98.4951 15.5566C98.3675 15.3151 98.3037 15.0371 98.3037 14.7227C98.3037 14.4173 98.3698 14.1302 98.502 13.8613C98.6341 13.5879 98.8255 13.3486 99.0762 13.1436C99.3268 12.9339 99.6322 12.7699 99.9922 12.6514C100.352 12.5283 100.758 12.4668 101.209 12.4668C101.838 12.4668 102.378 12.5693 102.829 12.7744C103.285 12.9795 103.633 13.262 103.875 13.6221C104.117 13.9775 104.237 14.3786 104.237 14.8252H102.433C102.433 14.6292 102.387 14.4515 102.296 14.292C102.209 14.1325 102.075 14.0049 101.893 13.9092C101.71 13.8089 101.48 13.7588 101.202 13.7588C100.951 13.7588 100.74 13.7998 100.566 13.8818C100.398 13.9639 100.27 14.071 100.184 14.2031C100.097 14.3353 100.054 14.4811 100.054 14.6406C100.054 14.7591 100.076 14.8662 100.122 14.9619C100.172 15.0531 100.252 15.1374 100.361 15.2148C100.471 15.2923 100.619 15.363 100.806 15.4268C100.997 15.4906 101.232 15.5521 101.51 15.6113C102.061 15.7207 102.542 15.8665 102.952 16.0488C103.367 16.2266 103.69 16.4635 103.923 16.7598C104.155 17.056 104.271 17.4342 104.271 17.8945C104.271 18.2227 104.201 18.5234 104.06 18.7969C103.918 19.0658 103.713 19.3005 103.444 19.501C103.175 19.7015 102.854 19.8587 102.48 19.9727C102.107 20.082 101.685 20.1367 101.216 20.1367C100.537 20.1367 99.9626 20.016 99.4932 19.7744C99.0238 19.5283 98.6683 19.2184 98.4268 18.8447C98.1852 18.4665 98.0645 18.0745 98.0645 17.6689H99.7939C99.8076 17.9561 99.8851 18.1862 100.026 18.3594C100.168 18.5326 100.345 18.6579 100.56 18.7354C100.778 18.8083 101.008 18.8447 101.25 18.8447C101.523 18.8447 101.754 18.8083 101.94 18.7354C102.127 18.6579 102.269 18.5553 102.364 18.4277C102.46 18.2956 102.508 18.1452 102.508 17.9766ZM109.146 12.6035V13.9023H104.907V12.6035H109.146ZM106.042 10.7852H107.854V17.8672C107.854 18.0859 107.883 18.2546 107.942 18.373C108.002 18.4915 108.09 18.5713 108.209 18.6123C108.327 18.6533 108.469 18.6738 108.633 18.6738C108.751 18.6738 108.861 18.667 108.961 18.6533C109.061 18.6396 109.146 18.626 109.214 18.6123L109.221 19.9658C109.07 20.016 108.899 20.057 108.708 20.0889C108.521 20.1208 108.309 20.1367 108.072 20.1367C107.667 20.1367 107.311 20.0684 107.006 19.9316C106.701 19.7904 106.464 19.5648 106.295 19.2549C106.126 18.9404 106.042 18.5257 106.042 18.0107V10.7852ZM114.423 18.4277V15.0166C114.423 14.766 114.38 14.5495 114.293 14.3672C114.206 14.1849 114.074 14.0436 113.896 13.9434C113.719 13.8431 113.493 13.793 113.22 13.793C112.978 13.793 112.766 13.834 112.584 13.916C112.406 13.998 112.27 14.1143 112.174 14.2646C112.078 14.4105 112.03 14.5791 112.03 14.7705H110.219C110.219 14.4652 110.292 14.1758 110.438 13.9023C110.583 13.6243 110.791 13.3783 111.06 13.1641C111.333 12.9453 111.659 12.7744 112.037 12.6514C112.42 12.5283 112.848 12.4668 113.322 12.4668C113.883 12.4668 114.382 12.5625 114.819 12.7539C115.261 12.9408 115.608 13.2233 115.858 13.6016C116.114 13.9798 116.241 14.4561 116.241 15.0303V18.2568C116.241 18.626 116.264 18.9427 116.31 19.207C116.36 19.4668 116.433 19.6924 116.528 19.8838V20H114.689C114.603 19.8132 114.537 19.5762 114.491 19.2891C114.446 18.9974 114.423 18.7103 114.423 18.4277ZM114.676 15.4951L114.689 16.5684H113.548C113.265 16.5684 113.017 16.598 112.803 16.6572C112.589 16.7119 112.413 16.7939 112.276 16.9033C112.14 17.0081 112.037 17.1357 111.969 17.2861C111.9 17.432 111.866 17.5983 111.866 17.7852C111.866 17.9674 111.907 18.1315 111.989 18.2773C112.076 18.4232 112.199 18.5394 112.358 18.626C112.522 18.708 112.714 18.749 112.933 18.749C113.252 18.749 113.53 18.6852 113.767 18.5576C114.004 18.4255 114.188 18.266 114.32 18.0791C114.452 17.8923 114.523 17.7145 114.532 17.5459L115.052 18.3252C114.988 18.512 114.892 18.7103 114.765 18.9199C114.637 19.1296 114.473 19.3255 114.272 19.5078C114.072 19.6901 113.83 19.8405 113.548 19.959C113.265 20.0775 112.937 20.1367 112.563 20.1367C112.085 20.1367 111.657 20.041 111.278 19.8496C110.9 19.6582 110.602 19.3962 110.383 19.0635C110.164 18.7308 110.055 18.3525 110.055 17.9287C110.055 17.5368 110.128 17.1904 110.273 16.8896C110.419 16.5889 110.636 16.3359 110.923 16.1309C111.21 15.9212 111.565 15.764 111.989 15.6592C112.418 15.5498 112.908 15.4951 113.459 15.4951H114.676ZM117.861 9.5H119.673V18.3662L119.495 20H117.861V9.5ZM124.431 16.2266V16.3701C124.431 16.9215 124.369 17.4274 124.246 17.8877C124.128 18.348 123.948 18.7467 123.706 19.084C123.465 19.4167 123.164 19.6764 122.804 19.8633C122.448 20.0456 122.031 20.1367 121.553 20.1367C121.097 20.1367 120.701 20.0479 120.363 19.8701C120.031 19.6924 119.75 19.4417 119.522 19.1182C119.295 18.79 119.112 18.4049 118.976 17.9629C118.839 17.5163 118.736 17.0286 118.668 16.5V16.1104C118.736 15.5771 118.839 15.0895 118.976 14.6475C119.112 14.2054 119.295 13.8203 119.522 13.4922C119.75 13.1641 120.031 12.9111 120.363 12.7334C120.696 12.5557 121.088 12.4668 121.539 12.4668C122.022 12.4668 122.444 12.5602 122.804 12.7471C123.168 12.9294 123.469 13.1891 123.706 13.5264C123.948 13.859 124.128 14.2555 124.246 14.7158C124.369 15.1715 124.431 15.6751 124.431 16.2266ZM122.619 16.3701V16.2266C122.619 15.9121 122.594 15.6159 122.544 15.3379C122.494 15.0553 122.412 14.807 122.298 14.5928C122.184 14.3786 122.029 14.21 121.833 14.0869C121.637 13.9639 121.391 13.9023 121.095 13.9023C120.812 13.9023 120.571 13.9502 120.37 14.0459C120.174 14.1416 120.01 14.2738 119.878 14.4424C119.75 14.611 119.65 14.8092 119.577 15.0371C119.509 15.265 119.463 15.5111 119.44 15.7754V16.8418C119.472 17.1927 119.548 17.5094 119.666 17.792C119.785 18.07 119.96 18.291 120.192 18.4551C120.429 18.6191 120.735 18.7012 121.108 18.7012C121.4 18.7012 121.644 18.6442 121.84 18.5303C122.036 18.4118 122.191 18.2477 122.305 18.0381C122.419 17.8239 122.498 17.5755 122.544 17.293C122.594 17.0104 122.619 16.7028 122.619 16.3701ZM127.657 9.5V20H125.846V9.5H127.657ZM132.702 20.1367C132.142 20.1367 131.638 20.0456 131.191 19.8633C130.745 19.681 130.364 19.4281 130.05 19.1045C129.74 18.7764 129.501 18.3958 129.332 17.9629C129.168 17.5254 129.086 17.056 129.086 16.5547V16.2812C129.086 15.7116 129.168 15.1943 129.332 14.7295C129.496 14.2601 129.729 13.8568 130.029 13.5195C130.33 13.1823 130.69 12.9225 131.109 12.7402C131.529 12.5579 131.991 12.4668 132.497 12.4668C133.021 12.4668 133.484 12.5557 133.885 12.7334C134.286 12.9066 134.621 13.1527 134.89 13.4717C135.159 13.7907 135.361 14.1735 135.498 14.6201C135.635 15.0622 135.703 15.5521 135.703 16.0898V16.8486H129.906V15.6045H133.926V15.4678C133.917 15.1807 133.862 14.9186 133.762 14.6816C133.661 14.4401 133.507 14.2487 133.297 14.1074C133.087 13.9616 132.816 13.8887 132.483 13.8887C132.215 13.8887 131.98 13.9479 131.779 14.0664C131.583 14.1803 131.419 14.3444 131.287 14.5586C131.16 14.7682 131.064 15.0189 131 15.3105C130.936 15.6022 130.904 15.9258 130.904 16.2812V16.5547C130.904 16.8646 130.945 17.1517 131.027 17.416C131.114 17.6803 131.239 17.9105 131.403 18.1064C131.572 18.2979 131.772 18.4482 132.005 18.5576C132.242 18.6624 132.511 18.7148 132.812 18.7148C133.19 18.7148 133.532 18.6419 133.837 18.4961C134.147 18.3457 134.416 18.1247 134.644 17.833L135.553 18.7764C135.398 19.0042 135.188 19.223 134.924 19.4326C134.664 19.6423 134.35 19.8132 133.98 19.9453C133.611 20.0729 133.185 20.1367 132.702 20.1367ZM139.948 18.7148C140.203 18.7148 140.431 18.6647 140.632 18.5645C140.832 18.4642 140.992 18.3229 141.11 18.1406C141.233 17.9583 141.299 17.7464 141.309 17.5049H143.011C143.002 18.0062 142.86 18.4551 142.587 18.8516C142.313 19.248 141.949 19.5625 141.493 19.7949C141.042 20.0228 140.536 20.1367 139.976 20.1367C139.406 20.1367 138.909 20.041 138.485 19.8496C138.062 19.6582 137.708 19.3916 137.426 19.0498C137.148 18.708 136.938 18.3115 136.797 17.8604C136.66 17.4092 136.592 16.9261 136.592 16.4111V16.1924C136.592 15.6774 136.66 15.1943 136.797 14.7432C136.938 14.292 137.148 13.8955 137.426 13.5537C137.708 13.2119 138.062 12.9453 138.485 12.7539C138.909 12.5625 139.404 12.4668 139.969 12.4668C140.566 12.4668 141.09 12.583 141.541 12.8154C141.997 13.0479 142.352 13.376 142.607 13.7998C142.867 14.2236 143.002 14.7227 143.011 15.2969H141.309C141.299 15.0326 141.24 14.7956 141.131 14.5859C141.021 14.3763 140.867 14.2077 140.666 14.0801C140.465 13.9525 140.222 13.8887 139.935 13.8887C139.629 13.8887 139.374 13.9525 139.169 14.0801C138.968 14.2077 138.811 14.3831 138.697 14.6064C138.588 14.8252 138.51 15.0713 138.465 15.3447C138.424 15.6136 138.403 15.8962 138.403 16.1924V16.4111C138.403 16.7119 138.424 16.999 138.465 17.2725C138.51 17.5459 138.588 17.792 138.697 18.0107C138.811 18.2249 138.968 18.3958 139.169 18.5234C139.374 18.651 139.634 18.7148 139.948 18.7148ZM146.128 12.6035V20H144.316V12.6035H146.128ZM144.193 10.6689C144.193 10.4001 144.285 10.1768 144.467 9.99902C144.654 9.82129 144.904 9.73242 145.219 9.73242C145.533 9.73242 145.782 9.82129 145.964 9.99902C146.151 10.1768 146.244 10.4001 146.244 10.6689C146.244 10.9333 146.151 11.1543 145.964 11.332C145.782 11.5098 145.533 11.5986 145.219 11.5986C144.904 11.5986 144.654 11.5098 144.467 11.332C144.285 11.1543 144.193 10.9333 144.193 10.6689ZM149.648 14.1211V20H147.844V12.6035H149.546L149.648 14.1211ZM149.382 16.0352H148.828C148.828 15.5202 148.89 15.0462 149.013 14.6133C149.14 14.1803 149.327 13.8044 149.573 13.4854C149.819 13.1618 150.122 12.9111 150.482 12.7334C150.847 12.5557 151.269 12.4668 151.747 12.4668C152.08 12.4668 152.385 12.5169 152.663 12.6172C152.941 12.7129 153.18 12.8656 153.381 13.0752C153.586 13.2803 153.743 13.5492 153.853 13.8818C153.962 14.21 154.017 14.6042 154.017 15.0645V20H152.212V15.249C152.212 14.9027 152.162 14.6315 152.062 14.4355C151.966 14.2396 151.827 14.1029 151.645 14.0254C151.462 13.9434 151.243 13.9023 150.988 13.9023C150.706 13.9023 150.462 13.9593 150.257 14.0732C150.056 14.1826 149.89 14.3353 149.758 14.5312C149.63 14.7272 149.535 14.9528 149.471 15.208C149.411 15.4632 149.382 15.7389 149.382 16.0352ZM153.88 15.7002L153.135 15.8369C153.139 15.3721 153.203 14.9368 153.326 14.5312C153.449 14.1211 153.629 13.7633 153.866 13.458C154.108 13.1481 154.406 12.9066 154.762 12.7334C155.122 12.5557 155.536 12.4668 156.006 12.4668C156.37 12.4668 156.699 12.5192 156.99 12.624C157.286 12.7243 157.539 12.8861 157.749 13.1094C157.959 13.3281 158.118 13.613 158.228 13.9639C158.341 14.3148 158.398 14.7432 158.398 15.249V20H156.58V15.2422C156.58 14.8822 156.53 14.6064 156.43 14.415C156.334 14.2236 156.195 14.0915 156.013 14.0186C155.83 13.9411 155.616 13.9023 155.37 13.9023C155.119 13.9023 154.901 13.9502 154.714 14.0459C154.532 14.137 154.377 14.2646 154.249 14.4287C154.126 14.5928 154.033 14.7842 153.969 15.0029C153.91 15.2171 153.88 15.4495 153.88 15.7002ZM161.933 12.6035V20H160.121V12.6035H161.933ZM159.998 10.6689C159.998 10.4001 160.089 10.1768 160.271 9.99902C160.458 9.82129 160.709 9.73242 161.023 9.73242C161.338 9.73242 161.586 9.82129 161.769 9.99902C161.955 10.1768 162.049 10.4001 162.049 10.6689C162.049 10.9333 161.955 11.1543 161.769 11.332C161.586 11.5098 161.338 11.5986 161.023 11.5986C160.709 11.5986 160.458 11.5098 160.271 11.332C160.089 11.1543 159.998 10.9333 159.998 10.6689ZM166.978 20.1367C166.417 20.1367 165.913 20.0456 165.467 19.8633C165.02 19.681 164.64 19.4281 164.325 19.1045C164.015 18.7764 163.776 18.3958 163.607 17.9629C163.443 17.5254 163.361 17.056 163.361 16.5547V16.2812C163.361 15.7116 163.443 15.1943 163.607 14.7295C163.771 14.2601 164.004 13.8568 164.305 13.5195C164.605 13.1823 164.965 12.9225 165.385 12.7402C165.804 12.5579 166.267 12.4668 166.772 12.4668C167.297 12.4668 167.759 12.5557 168.16 12.7334C168.561 12.9066 168.896 13.1527 169.165 13.4717C169.434 13.7907 169.637 14.1735 169.773 14.6201C169.91 15.0622 169.979 15.5521 169.979 16.0898V16.8486H164.182V15.6045H168.201V15.4678C168.192 15.1807 168.137 14.9186 168.037 14.6816C167.937 14.4401 167.782 14.2487 167.572 14.1074C167.363 13.9616 167.091 13.8887 166.759 13.8887C166.49 13.8887 166.255 13.9479 166.055 14.0664C165.859 14.1803 165.695 14.3444 165.562 14.5586C165.435 14.7682 165.339 15.0189 165.275 15.3105C165.212 15.6022 165.18 15.9258 165.18 16.2812V16.5547C165.18 16.8646 165.221 17.1517 165.303 17.416C165.389 17.6803 165.515 17.9105 165.679 18.1064C165.847 18.2979 166.048 18.4482 166.28 18.5576C166.517 18.6624 166.786 18.7148 167.087 18.7148C167.465 18.7148 167.807 18.6419 168.112 18.4961C168.422 18.3457 168.691 18.1247 168.919 17.833L169.828 18.7764C169.673 19.0042 169.464 19.223 169.199 19.4326C168.939 19.6423 168.625 19.8132 168.256 19.9453C167.887 20.0729 167.461 20.1367 166.978 20.1367ZM172.959 14.1826V20H171.154V12.6035H172.85L172.959 14.1826ZM172.672 16.0352H172.139C172.143 15.4974 172.216 15.0098 172.357 14.5723C172.499 14.1348 172.697 13.7588 172.952 13.4443C173.212 13.1299 173.52 12.8883 173.875 12.7197C174.23 12.5511 174.627 12.4668 175.064 12.4668C175.42 12.4668 175.741 12.5169 176.028 12.6172C176.315 12.7174 176.562 12.877 176.767 13.0957C176.976 13.3145 177.136 13.6016 177.245 13.957C177.359 14.3079 177.416 14.7409 177.416 15.2559V20H175.598V15.2422C175.598 14.9049 175.548 14.6383 175.447 14.4424C175.352 14.2464 175.21 14.1074 175.023 14.0254C174.841 13.9434 174.616 13.9023 174.347 13.9023C174.069 13.9023 173.825 13.9593 173.615 14.0732C173.41 14.1826 173.237 14.3353 173.096 14.5312C172.959 14.7272 172.854 14.9528 172.781 15.208C172.708 15.4632 172.672 15.7389 172.672 16.0352ZM182.509 12.6035V13.9023H178.271V12.6035H182.509ZM179.405 10.7852H181.217V17.8672C181.217 18.0859 181.246 18.2546 181.306 18.373C181.365 18.4915 181.454 18.5713 181.572 18.6123C181.691 18.6533 181.832 18.6738 181.996 18.6738C182.115 18.6738 182.224 18.667 182.324 18.6533C182.424 18.6396 182.509 18.626 182.577 18.6123L182.584 19.9658C182.434 20.016 182.263 20.057 182.071 20.0889C181.884 20.1208 181.673 20.1367 181.436 20.1367C181.03 20.1367 180.674 20.0684 180.369 19.9316C180.064 19.7904 179.827 19.5648 179.658 19.2549C179.49 18.9404 179.405 18.5257 179.405 18.0107V10.7852ZM183.213 16.377V16.2334C183.213 15.6911 183.29 15.1921 183.445 14.7363C183.6 14.276 183.826 13.8773 184.122 13.54C184.418 13.2028 184.781 12.9408 185.209 12.7539C185.637 12.5625 186.125 12.4668 186.672 12.4668C187.228 12.4668 187.72 12.5625 188.148 12.7539C188.581 12.9408 188.946 13.2028 189.242 13.54C189.538 13.8773 189.764 14.276 189.919 14.7363C190.074 15.1921 190.151 15.6911 190.151 16.2334V16.377C190.151 16.9147 190.074 17.4137 189.919 17.874C189.764 18.3298 189.538 18.7285 189.242 19.0703C188.946 19.4076 188.584 19.6696 188.155 19.8564C187.727 20.0433 187.237 20.1367 186.686 20.1367C186.139 20.1367 185.649 20.0433 185.216 19.8564C184.783 19.6696 184.418 19.4076 184.122 19.0703C183.826 18.7285 183.6 18.3298 183.445 17.874C183.29 17.4137 183.213 16.9147 183.213 16.377ZM185.018 16.2334V16.377C185.018 16.7005 185.049 17.0036 185.113 17.2861C185.177 17.5687 185.275 17.8171 185.407 18.0312C185.539 18.2454 185.71 18.4141 185.92 18.5371C186.134 18.6556 186.389 18.7148 186.686 18.7148C186.977 18.7148 187.228 18.6556 187.438 18.5371C187.647 18.4141 187.818 18.2454 187.95 18.0312C188.087 17.8171 188.187 17.5687 188.251 17.2861C188.315 17.0036 188.347 16.7005 188.347 16.377V16.2334C188.347 15.9144 188.315 15.6159 188.251 15.3379C188.187 15.0553 188.087 14.807 187.95 14.5928C187.818 14.374 187.645 14.2031 187.431 14.0801C187.221 13.9525 186.968 13.8887 186.672 13.8887C186.38 13.8887 186.13 13.9525 185.92 14.0801C185.71 14.2031 185.539 14.374 185.407 14.5928C185.275 14.807 185.177 15.0553 185.113 15.3379C185.049 15.6159 185.018 15.9144 185.018 16.2334ZM195.531 17.9766C195.531 17.8216 195.49 17.6826 195.408 17.5596C195.326 17.4365 195.171 17.3249 194.943 17.2246C194.72 17.1198 194.392 17.0218 193.959 16.9307C193.576 16.8486 193.223 16.7461 192.899 16.623C192.576 16.5 192.298 16.3519 192.065 16.1787C191.833 16.001 191.651 15.7936 191.519 15.5566C191.391 15.3151 191.327 15.0371 191.327 14.7227C191.327 14.4173 191.393 14.1302 191.525 13.8613C191.658 13.5879 191.849 13.3486 192.1 13.1436C192.35 12.9339 192.656 12.7699 193.016 12.6514C193.376 12.5283 193.781 12.4668 194.232 12.4668C194.861 12.4668 195.401 12.5693 195.853 12.7744C196.308 12.9795 196.657 13.262 196.898 13.6221C197.14 13.9775 197.261 14.3786 197.261 14.8252H195.456C195.456 14.6292 195.41 14.4515 195.319 14.292C195.233 14.1325 195.098 14.0049 194.916 13.9092C194.734 13.8089 194.504 13.7588 194.226 13.7588C193.975 13.7588 193.763 13.7998 193.59 13.8818C193.421 13.9639 193.294 14.071 193.207 14.2031C193.12 14.3353 193.077 14.4811 193.077 14.6406C193.077 14.7591 193.1 14.8662 193.146 14.9619C193.196 15.0531 193.275 15.1374 193.385 15.2148C193.494 15.2923 193.642 15.363 193.829 15.4268C194.021 15.4906 194.255 15.5521 194.533 15.6113C195.085 15.7207 195.565 15.8665 195.976 16.0488C196.39 16.2266 196.714 16.4635 196.946 16.7598C197.179 17.056 197.295 17.4342 197.295 17.8945C197.295 18.2227 197.224 18.5234 197.083 18.7969C196.942 19.0658 196.737 19.3005 196.468 19.501C196.199 19.7015 195.878 19.8587 195.504 19.9727C195.13 20.082 194.709 20.1367 194.239 20.1367C193.56 20.1367 192.986 20.016 192.517 19.7744C192.047 19.5283 191.692 19.2184 191.45 18.8447C191.209 18.4665 191.088 18.0745 191.088 17.6689H192.817C192.831 17.9561 192.909 18.1862 193.05 18.3594C193.191 18.5326 193.369 18.6579 193.583 18.7354C193.802 18.8083 194.032 18.8447 194.273 18.8447C194.547 18.8447 194.777 18.8083 194.964 18.7354C195.151 18.6579 195.292 18.5553 195.388 18.4277C195.483 18.2956 195.531 18.1452 195.531 17.9766ZM204.322 19.1797L206.305 12.6035H208.239L205.272 21.1211C205.204 21.3034 205.115 21.5016 205.006 21.7158C204.901 21.93 204.76 22.1328 204.582 22.3242C204.404 22.5202 204.181 22.6797 203.912 22.8027C203.648 22.9258 203.326 22.9873 202.948 22.9873C202.784 22.9873 202.638 22.9759 202.511 22.9531C202.383 22.9303 202.249 22.9007 202.107 22.8643V21.5107C202.153 21.5153 202.205 21.5176 202.265 21.5176C202.328 21.5221 202.383 21.5244 202.429 21.5244C202.693 21.5244 202.912 21.4925 203.085 21.4287C203.258 21.3695 203.397 21.2715 203.502 21.1348C203.611 21.0026 203.702 20.8294 203.775 20.6152L204.322 19.1797ZM203.345 12.6035L205.02 18.0518L205.313 19.959L204.069 20.1846L201.396 12.6035H203.345ZM216.565 16.3701H214.002V14.8936H216.565C216.985 14.8936 217.324 14.8252 217.584 14.6885C217.848 14.5472 218.042 14.3558 218.165 14.1143C218.288 13.8682 218.35 13.5879 218.35 13.2734C218.35 12.9681 218.288 12.6833 218.165 12.4189C218.042 12.1546 217.848 11.9404 217.584 11.7764C217.324 11.6123 216.985 11.5303 216.565 11.5303H214.617V20H212.737V10.0469H216.565C217.34 10.0469 218.001 10.1859 218.548 10.4639C219.099 10.7373 219.519 11.1178 219.806 11.6055C220.097 12.0885 220.243 12.64 220.243 13.2598C220.243 13.9023 220.097 14.4561 219.806 14.9209C219.519 15.3857 219.099 15.7435 218.548 15.9941C218.001 16.2448 217.34 16.3701 216.565 16.3701ZM223.388 14.1143V20H221.583V12.6035H223.292L223.388 14.1143ZM225.637 12.5557L225.609 14.2373C225.509 14.2191 225.395 14.2054 225.268 14.1963C225.145 14.1872 225.028 14.1826 224.919 14.1826C224.641 14.1826 224.397 14.2214 224.188 14.2988C223.978 14.3717 223.802 14.4788 223.661 14.6201C223.524 14.7614 223.42 14.9346 223.347 15.1396C223.274 15.3402 223.233 15.568 223.224 15.8232L222.834 15.7754C222.834 15.306 222.882 14.8708 222.978 14.4697C223.073 14.0687 223.212 13.7178 223.395 13.417C223.577 13.1162 223.805 12.8838 224.078 12.7197C224.356 12.5511 224.675 12.4668 225.035 12.4668C225.135 12.4668 225.243 12.4759 225.356 12.4941C225.475 12.5078 225.568 12.5283 225.637 12.5557ZM226.115 16.377V16.2334C226.115 15.6911 226.193 15.1921 226.348 14.7363C226.503 14.276 226.728 13.8773 227.024 13.54C227.321 13.2028 227.683 12.9408 228.111 12.7539C228.54 12.5625 229.027 12.4668 229.574 12.4668C230.13 12.4668 230.622 12.5625 231.051 12.7539C231.484 12.9408 231.848 13.2028 232.145 13.54C232.441 13.8773 232.666 14.276 232.821 14.7363C232.976 15.1921 233.054 15.6911 233.054 16.2334V16.377C233.054 16.9147 232.976 17.4137 232.821 17.874C232.666 18.3298 232.441 18.7285 232.145 19.0703C231.848 19.4076 231.486 19.6696 231.058 19.8564C230.629 20.0433 230.139 20.1367 229.588 20.1367C229.041 20.1367 228.551 20.0433 228.118 19.8564C227.685 19.6696 227.321 19.4076 227.024 19.0703C226.728 18.7285 226.503 18.3298 226.348 17.874C226.193 17.4137 226.115 16.9147 226.115 16.377ZM227.92 16.2334V16.377C227.92 16.7005 227.952 17.0036 228.016 17.2861C228.079 17.5687 228.177 17.8171 228.31 18.0312C228.442 18.2454 228.613 18.4141 228.822 18.5371C229.036 18.6556 229.292 18.7148 229.588 18.7148C229.88 18.7148 230.13 18.6556 230.34 18.5371C230.549 18.4141 230.72 18.2454 230.853 18.0312C230.989 17.8171 231.09 17.5687 231.153 17.2861C231.217 17.0036 231.249 16.7005 231.249 16.377V16.2334C231.249 15.9144 231.217 15.6159 231.153 15.3379C231.09 15.0553 230.989 14.807 230.853 14.5928C230.72 14.374 230.547 14.2031 230.333 14.0801C230.123 13.9525 229.87 13.8887 229.574 13.8887C229.283 13.8887 229.032 13.9525 228.822 14.0801C228.613 14.2031 228.442 14.374 228.31 14.5928C228.177 14.807 228.079 15.0553 228.016 15.3379C227.952 15.6159 227.92 15.9144 227.92 16.2334ZM238.803 18.4277V9.5H240.621V20H238.98L238.803 18.4277ZM234.052 16.3906V16.2471C234.052 15.682 234.116 15.1693 234.243 14.709C234.375 14.2441 234.567 13.8454 234.817 13.5127C235.068 13.18 235.371 12.9225 235.727 12.7402C236.087 12.5579 236.494 12.4668 236.95 12.4668C237.392 12.4668 237.777 12.5557 238.105 12.7334C238.438 12.9111 238.721 13.1641 238.953 13.4922C239.19 13.8203 239.379 14.21 239.521 14.6611C239.662 15.1077 239.764 15.5999 239.828 16.1377V16.5273C239.764 17.0514 239.662 17.5322 239.521 17.9697C239.379 18.4072 239.19 18.79 238.953 19.1182C238.721 19.4417 238.438 19.6924 238.105 19.8701C237.773 20.0479 237.383 20.1367 236.937 20.1367C236.485 20.1367 236.08 20.0433 235.72 19.8564C235.364 19.6696 235.061 19.4076 234.811 19.0703C234.564 18.7331 234.375 18.3366 234.243 17.8809C234.116 17.4251 234.052 16.9284 234.052 16.3906ZM235.863 16.2471V16.3906C235.863 16.7096 235.891 17.0081 235.945 17.2861C236 17.5641 236.089 17.8102 236.212 18.0244C236.335 18.234 236.492 18.3981 236.684 18.5166C236.88 18.6351 237.117 18.6943 237.395 18.6943C237.75 18.6943 238.042 18.6169 238.27 18.4619C238.502 18.3024 238.682 18.0859 238.81 17.8125C238.937 17.5345 239.019 17.2223 239.056 16.876V15.8027C239.037 15.5293 238.99 15.2764 238.912 15.0439C238.839 14.8115 238.734 14.611 238.598 14.4424C238.465 14.2738 238.301 14.1416 238.105 14.0459C237.91 13.9502 237.677 13.9023 237.408 13.9023C237.13 13.9023 236.893 13.9639 236.697 14.0869C236.501 14.2054 236.342 14.3717 236.219 14.5859C236.096 14.8001 236.005 15.0485 235.945 15.3311C235.891 15.6136 235.863 15.9189 235.863 16.2471ZM246.657 18.2432V12.6035H248.476V20H246.767L246.657 18.2432ZM246.89 16.7119L247.45 16.6982C247.45 17.195 247.396 17.653 247.286 18.0723C247.177 18.4915 247.006 18.8561 246.773 19.166C246.546 19.4714 246.256 19.7106 245.905 19.8838C245.554 20.0524 245.14 20.1367 244.661 20.1367C244.297 20.1367 243.964 20.0866 243.663 19.9863C243.362 19.8815 243.103 19.7197 242.884 19.501C242.67 19.2777 242.503 18.9928 242.385 18.6465C242.266 18.2956 242.207 17.874 242.207 17.3818V12.6035H244.012V17.3955C244.012 17.6416 244.039 17.8467 244.094 18.0107C244.153 18.1748 244.233 18.3092 244.333 18.4141C244.438 18.5143 244.559 18.5872 244.695 18.6328C244.837 18.6738 244.987 18.6943 245.146 18.6943C245.584 18.6943 245.928 18.6077 246.179 18.4346C246.434 18.2568 246.616 18.0199 246.726 17.7236C246.835 17.4229 246.89 17.0856 246.89 16.7119ZM253.11 18.7148C253.366 18.7148 253.593 18.6647 253.794 18.5645C253.994 18.4642 254.154 18.3229 254.272 18.1406C254.396 17.9583 254.462 17.7464 254.471 17.5049H256.173C256.164 18.0062 256.022 18.4551 255.749 18.8516C255.476 19.248 255.111 19.5625 254.655 19.7949C254.204 20.0228 253.698 20.1367 253.138 20.1367C252.568 20.1367 252.071 20.041 251.647 19.8496C251.224 19.6582 250.87 19.3916 250.588 19.0498C250.31 18.708 250.1 18.3115 249.959 17.8604C249.822 17.4092 249.754 16.9261 249.754 16.4111V16.1924C249.754 15.6774 249.822 15.1943 249.959 14.7432C250.1 14.292 250.31 13.8955 250.588 13.5537C250.87 13.2119 251.224 12.9453 251.647 12.7539C252.071 12.5625 252.566 12.4668 253.131 12.4668C253.728 12.4668 254.252 12.583 254.703 12.8154C255.159 13.0479 255.514 13.376 255.77 13.7998C256.029 14.2236 256.164 14.7227 256.173 15.2969H254.471C254.462 15.0326 254.402 14.7956 254.293 14.5859C254.184 14.3763 254.029 14.2077 253.828 14.0801C253.628 13.9525 253.384 13.8887 253.097 13.8887C252.791 13.8887 252.536 13.9525 252.331 14.0801C252.131 14.2077 251.973 14.3831 251.859 14.6064C251.75 14.8252 251.673 15.0713 251.627 15.3447C251.586 15.6136 251.565 15.8962 251.565 16.1924V16.4111C251.565 16.7119 251.586 16.999 251.627 17.2725C251.673 17.5459 251.75 17.792 251.859 18.0107C251.973 18.2249 252.131 18.3958 252.331 18.5234C252.536 18.651 252.796 18.7148 253.11 18.7148ZM260.876 12.6035V13.9023H256.638V12.6035H260.876ZM257.772 10.7852H259.584V17.8672C259.584 18.0859 259.614 18.2546 259.673 18.373C259.732 18.4915 259.821 18.5713 259.939 18.6123C260.058 18.6533 260.199 18.6738 260.363 18.6738C260.482 18.6738 260.591 18.667 260.691 18.6533C260.792 18.6396 260.876 18.626 260.944 18.6123L260.951 19.9658C260.801 20.016 260.63 20.057 260.438 20.0889C260.252 20.1208 260.04 20.1367 259.803 20.1367C259.397 20.1367 259.042 20.0684 258.736 19.9316C258.431 19.7904 258.194 19.5648 258.025 19.2549C257.857 18.9404 257.772 18.5257 257.772 18.0107V10.7852ZM261.58 16.377V16.2334C261.58 15.6911 261.658 15.1921 261.812 14.7363C261.967 14.276 262.193 13.8773 262.489 13.54C262.785 13.2028 263.148 12.9408 263.576 12.7539C264.005 12.5625 264.492 12.4668 265.039 12.4668C265.595 12.4668 266.087 12.5625 266.516 12.7539C266.949 12.9408 267.313 13.2028 267.609 13.54C267.906 13.8773 268.131 14.276 268.286 14.7363C268.441 15.1921 268.519 15.6911 268.519 16.2334V16.377C268.519 16.9147 268.441 17.4137 268.286 17.874C268.131 18.3298 267.906 18.7285 267.609 19.0703C267.313 19.4076 266.951 19.6696 266.522 19.8564C266.094 20.0433 265.604 20.1367 265.053 20.1367C264.506 20.1367 264.016 20.0433 263.583 19.8564C263.15 19.6696 262.785 19.4076 262.489 19.0703C262.193 18.7285 261.967 18.3298 261.812 17.874C261.658 17.4137 261.58 16.9147 261.58 16.377ZM263.385 16.2334V16.377C263.385 16.7005 263.417 17.0036 263.48 17.2861C263.544 17.5687 263.642 17.8171 263.774 18.0312C263.907 18.2454 264.077 18.4141 264.287 18.5371C264.501 18.6556 264.757 18.7148 265.053 18.7148C265.344 18.7148 265.595 18.6556 265.805 18.5371C266.014 18.4141 266.185 18.2454 266.317 18.0312C266.454 17.8171 266.554 17.5687 266.618 17.2861C266.682 17.0036 266.714 16.7005 266.714 16.377V16.2334C266.714 15.9144 266.682 15.6159 266.618 15.3379C266.554 15.0553 266.454 14.807 266.317 14.5928C266.185 14.374 266.012 14.2031 265.798 14.0801C265.588 13.9525 265.335 13.8887 265.039 13.8887C264.747 13.8887 264.497 13.9525 264.287 14.0801C264.077 14.2031 263.907 14.374 263.774 14.5928C263.642 14.807 263.544 15.0553 263.48 15.3379C263.417 15.6159 263.385 15.9144 263.385 16.2334ZM273.898 17.9766C273.898 17.8216 273.857 17.6826 273.775 17.5596C273.693 17.4365 273.538 17.3249 273.311 17.2246C273.087 17.1198 272.759 17.0218 272.326 16.9307C271.943 16.8486 271.59 16.7461 271.267 16.623C270.943 16.5 270.665 16.3519 270.433 16.1787C270.2 16.001 270.018 15.7936 269.886 15.5566C269.758 15.3151 269.694 15.0371 269.694 14.7227C269.694 14.4173 269.76 14.1302 269.893 13.8613C270.025 13.5879 270.216 13.3486 270.467 13.1436C270.717 12.9339 271.023 12.7699 271.383 12.6514C271.743 12.5283 272.148 12.4668 272.6 12.4668C273.229 12.4668 273.769 12.5693 274.22 12.7744C274.675 12.9795 275.024 13.262 275.266 13.6221C275.507 13.9775 275.628 14.3786 275.628 14.8252H273.823C273.823 14.6292 273.778 14.4515 273.687 14.292C273.6 14.1325 273.465 14.0049 273.283 13.9092C273.101 13.8089 272.871 13.7588 272.593 13.7588C272.342 13.7588 272.13 13.7998 271.957 13.8818C271.788 13.9639 271.661 14.071 271.574 14.2031C271.488 14.3353 271.444 14.4811 271.444 14.6406C271.444 14.7591 271.467 14.8662 271.513 14.9619C271.563 15.0531 271.643 15.1374 271.752 15.2148C271.861 15.2923 272.009 15.363 272.196 15.4268C272.388 15.4906 272.622 15.5521 272.9 15.6113C273.452 15.7207 273.933 15.8665 274.343 16.0488C274.757 16.2266 275.081 16.4635 275.313 16.7598C275.546 17.056 275.662 17.4342 275.662 17.8945C275.662 18.2227 275.591 18.5234 275.45 18.7969C275.309 19.0658 275.104 19.3005 274.835 19.501C274.566 19.7015 274.245 19.8587 273.871 19.9727C273.497 20.082 273.076 20.1367 272.606 20.1367C271.927 20.1367 271.353 20.016 270.884 19.7744C270.414 19.5283 270.059 19.2184 269.817 18.8447C269.576 18.4665 269.455 18.0745 269.455 17.6689H271.185C271.198 17.9561 271.276 18.1862 271.417 18.3594C271.558 18.5326 271.736 18.6579 271.95 18.7354C272.169 18.8083 272.399 18.8447 272.641 18.8447C272.914 18.8447 273.144 18.8083 273.331 18.7354C273.518 18.6579 273.659 18.5553 273.755 18.4277C273.851 18.2956 273.898 18.1452 273.898 17.9766Z" fill="white"/>
<path d="M22.4429 1.26567C21.8931 0.472548 20.9729 -0.0055759 19.9891 4.90884e-05C18.7333 0.0112991 17.6163 0.776298 17.1765 1.91817L16.4531 3.79692L15.5966 2.96442V1.35005C15.5966 1.10255 15.3883 0.900048 15.1336 0.900048H10.0408C9.78621 0.900048 9.57787 1.10255 9.57787 1.35005V2.12067C9.05702 1.65942 8.26417 1.6313 7.70859 2.0588V1.35005C7.70859 0.613173 7.09515 0.0169241 6.33702 0.0169241C5.57889 0.0169241 4.95966 0.613173 4.95966 1.35005V2.0588C4.71081 1.8563 4.38672 1.7438 4.06264 1.7438C3.68068 1.7438 3.31608 1.89005 3.04987 2.16005C2.50008 2.71129 2.50008 3.58317 3.04408 4.14004L3.47234 4.57317C3.31608 4.64067 3.1714 4.74192 3.04987 4.86004H3.04408L3.0383 4.86567C2.92834 4.97254 2.84153 5.09629 2.77208 5.23129L2.24545 4.28629L1.42945 4.71379L2.63319 6.86254C2.58111 6.89066 2.52323 6.91879 2.47694 6.95254C2.45957 6.96379 2.44221 6.98066 2.42485 6.99191L0.630808 5.38879L0 6.05254L1.78247 7.65004C1.57991 7.95378 1.44681 8.29691 1.39472 8.65691C1.29634 9.34316 1.50468 10.0407 1.96187 10.5694L2.63319 11.385V18.9V26.1V27H3.55915H4.94808H6.04766H17.9115C19.1905 27 20.2264 25.9931 20.2264 24.75V11.25C20.2264 11.1488 20.1917 11.0532 20.128 10.98L22.8017 4.05567C23.1605 3.12192 23.0274 2.0813 22.4429 1.26567ZM16.0885 4.71942L13.6289 11.0757L13.2701 11.3063V5.58566L15.122 3.78567L16.0885 4.71942ZM10.498 1.80005H14.6648V2.70004H10.498V1.80005ZM10.226 3.60004H14.0109L12.622 4.95004H8.83711L10.226 3.60004ZM10.9379 8.99441C10.1103 8.49378 9.08596 8.40941 8.18894 8.77503V5.85004H12.3557V11.3119L12.3442 11.3063C12.2863 10.3557 11.7654 9.49503 10.9379 8.99441ZM11.3025 10.8169C11.2562 10.8282 11.2099 10.8507 11.1694 10.8732L10.0351 11.61L8.90076 10.8788C8.74451 10.7775 8.54196 10.7775 8.3857 10.8788L7.26298 11.6044C7.26298 11.5594 7.2514 11.52 7.2514 11.475C7.24562 10.485 7.98059 9.64128 8.98757 9.47816C9.99455 9.31503 10.9726 9.88316 11.3025 10.8169ZM3.70383 2.79004C3.79643 2.69442 3.92374 2.64379 4.05685 2.64379C4.18996 2.64379 4.31728 2.69442 4.40987 2.79004L5.08698 3.46504C5.22008 3.59442 5.41685 3.63379 5.59625 3.56629C5.76987 3.49879 5.88562 3.33004 5.88562 3.15004V1.35005C5.87983 1.19255 5.96085 1.04067 6.10553 0.956297C6.24442 0.871923 6.42383 0.871923 6.56272 0.956297C6.70162 1.04067 6.78842 1.18692 6.78264 1.35005V3.15004C6.78264 3.33004 6.89838 3.49879 7.072 3.56629C7.24562 3.63379 7.44817 3.59442 7.57549 3.46504L8.25838 2.79004C8.45515 2.60442 8.76766 2.60442 8.96442 2.79004C9.16698 2.99254 9.16698 3.30754 8.96442 3.51004L7.59864 4.86004L7.61021 4.87129L7.39608 5.07941C7.36136 5.11879 7.32664 5.15816 7.30928 5.20879C7.30349 5.22004 7.2977 5.23691 7.29191 5.25379C7.28034 5.29316 7.26876 5.33254 7.26876 5.37191C7.26876 5.38316 7.26298 5.38879 7.26298 5.40004V9.37128C7.15881 9.46691 7.06042 9.57378 6.96783 9.68628L6.09396 7.87503C5.76987 7.25066 5.18536 6.78941 4.49089 6.61504C4.32885 6.57566 4.16102 6.54754 3.99319 6.54191L3.87166 6.40691C3.77906 6.30566 3.70962 6.22129 3.69804 6.21004C3.57651 6.08629 3.52443 5.91754 3.55915 5.75441C3.57651 5.65879 3.62281 5.57441 3.68647 5.50129L3.69225 5.49566L3.70383 5.48441C3.87166 5.32691 4.13208 5.29879 4.32885 5.42816C4.52562 5.55754 4.78604 5.51816 4.9423 5.34379C5.09277 5.16941 5.08698 4.91067 4.91915 4.74192L3.70383 3.51567C3.50128 3.31317 3.50706 2.99254 3.70383 2.79004ZM2.30911 8.77503C2.36698 8.33628 2.61583 7.94816 2.992 7.70066C3.36238 7.45879 3.82536 7.38004 4.2594 7.48691C4.69345 7.59379 5.05804 7.88066 5.2606 8.26878L6.44119 10.71C6.41225 10.8169 6.38911 10.9238 6.37174 11.0307L6.12868 10.8732C5.97242 10.7719 5.76987 10.7719 5.61362 10.8732L4.47932 11.6044L3.45498 10.9407L3.3566 10.8225L4.54877 9.92816L3.98162 9.21378L2.77787 10.1194L2.6737 9.99566C2.37855 9.65816 2.24545 9.21378 2.30911 8.77503ZM15.1278 26.1H6.04187H4.9423H3.55336V18.9V12.0938L4.22468 12.5269C4.38094 12.6282 4.58349 12.6282 4.73974 12.5269L5.87404 11.79L7.00834 12.5213C7.16459 12.6225 7.36715 12.6225 7.5234 12.5213L8.6577 11.79L9.792 12.5213C9.94825 12.6225 10.1508 12.6225 10.3071 12.5213L11.4414 11.79L12.5757 12.5213C12.7319 12.6225 12.9345 12.6225 13.0907 12.5213L14.225 11.79L15.151 12.3919V26.1H15.1278ZM19.2946 24.75C19.2946 25.4981 18.6754 26.1 17.9057 26.1H16.0538V12.3919L16.9797 11.79L18.114 12.5213C18.2703 12.6225 18.4728 12.6225 18.6291 12.5213L19.3004 12.0882V24.75H19.2946ZM21.9336 3.74067L19.0689 11.16L18.3745 11.61L17.2402 10.8788C17.0839 10.7775 16.8814 10.7775 16.7251 10.8788L15.5908 11.61L14.6533 11.0025L18.0388 2.23317C18.3397 1.44005 19.1152 0.911297 19.9833 0.900048C20.6662 0.900048 21.3028 1.2263 21.679 1.77755C22.0957 2.35129 22.1825 3.08254 21.9336 3.74067Z" fill="white"/>
</svg>
