<svg width="32" height="38" viewBox="0 0 32 38" fill="none" xmlns="http://www.w3.org/2000/svg">
<path d="M31.2249 1.77914C30.46 0.664254 29.1797 -0.00783796 27.8109 6.90028e-05C26.0637 0.0158829 24.5097 1.09123 23.8978 2.69634L22.8913 5.33727L21.6996 4.16704V1.89774C21.6996 1.54983 21.4097 1.26518 21.0555 1.26518H13.9699C13.6156 1.26518 13.3257 1.54983 13.3257 1.89774V2.98099C12.6011 2.33262 11.498 2.29309 10.725 2.89402V1.89774C10.725 0.861928 9.87151 0.0237899 8.81672 0.0237899C7.76194 0.0237899 6.90039 0.861928 6.90039 1.89774V2.89402C6.55417 2.60937 6.10327 2.45123 5.65237 2.45123C5.12095 2.45123 4.61368 2.65681 4.2433 3.03634C3.47838 3.81122 3.47838 5.0368 4.23525 5.81959L4.83108 6.42843C4.61368 6.52331 4.41239 6.66564 4.2433 6.83168H4.23525L4.2272 6.83959C4.07421 6.98982 3.95344 7.16378 3.85681 7.35354L3.1241 6.02517L1.9888 6.6261L3.66357 9.64656C3.5911 9.6861 3.51059 9.72563 3.44617 9.77307C3.42202 9.78889 3.39786 9.81261 3.37371 9.82842L0.877647 7.57494L0 8.50796L2.47996 10.7535C2.19814 11.1805 2.01295 11.6628 1.94048 12.1689C1.8036 13.1335 2.09347 14.114 2.72956 14.8573L3.66357 16.0038V26.5675V36.6884V37.9535H4.95186H6.88429H8.41413H24.9203C26.6998 37.9535 28.1411 36.5381 28.1411 34.7907V15.814C28.1411 15.6717 28.0927 15.5372 28.0042 15.4345L31.7241 5.70099C32.2233 4.38843 32.0381 2.92565 31.2249 1.77914ZM22.384 6.63401L18.962 15.5689L18.4628 15.8931V7.85168L21.0394 5.32145L22.384 6.63401ZM14.606 2.5303H20.4033V3.79541H14.606V2.5303ZM14.2275 5.06052H19.4934L17.561 6.9582H12.2951L14.2275 5.06052ZM15.2179 12.6433C14.0665 11.9396 12.6413 11.821 11.3933 12.3349V8.22331H17.1906V15.901L17.1745 15.8931C17.094 14.5568 16.3693 13.347 15.2179 12.6433ZM15.7252 15.2052C15.6608 15.221 15.5963 15.2526 15.54 15.2842L13.9618 16.32L12.3837 15.2921C12.1663 15.1498 11.8845 15.1498 11.6671 15.2921L10.105 16.3121C10.105 16.2489 10.0889 16.1935 10.0889 16.1303C10.0809 14.7386 11.1034 13.5526 12.5044 13.3233C13.9055 13.094 15.2662 13.8926 15.7252 15.2052ZM5.15315 3.92192C5.28198 3.7875 5.45912 3.71634 5.64431 3.71634C5.82951 3.71634 6.00664 3.7875 6.13547 3.92192L7.07754 4.87076C7.26273 5.05262 7.53649 5.10797 7.78609 5.01308C8.02765 4.9182 8.18868 4.68099 8.18868 4.42797V1.89774C8.18063 1.67635 8.29336 1.46286 8.49465 1.34425C8.6879 1.22565 8.9375 1.22565 9.13074 1.34425C9.32399 1.46286 9.44477 1.66844 9.43671 1.89774V4.42797C9.43671 4.68099 9.59775 4.9182 9.8393 5.01308C10.0809 5.10797 10.3627 5.05262 10.5398 4.87076L11.4899 3.92192C11.7637 3.66099 12.1985 3.66099 12.4722 3.92192C12.7541 4.20657 12.7541 4.64936 12.4722 4.93401L10.572 6.83168L10.5881 6.8475L10.2902 7.14006C10.2419 7.1954 10.1936 7.25075 10.1694 7.32192C10.1614 7.33773 10.1533 7.36145 10.1453 7.38517C10.1292 7.44052 10.1131 7.49587 10.1131 7.55122C10.1131 7.56703 10.105 7.57494 10.105 7.59075V13.1731C9.96008 13.3075 9.8232 13.4577 9.69437 13.6159L8.47855 11.0698C8.02765 10.1921 7.21442 9.54377 6.2482 9.29866C6.02275 9.24331 5.78925 9.20377 5.55574 9.19587L5.38666 9.0061C5.25783 8.86377 5.16121 8.74517 5.1451 8.72935C4.97601 8.5554 4.90355 8.31819 4.95186 8.08889C4.97601 7.95447 5.04043 7.83587 5.129 7.73308L5.13705 7.72517L5.15315 7.70936C5.38666 7.48796 5.74899 7.44843 6.02275 7.63029C6.29651 7.81215 6.65884 7.7568 6.87624 7.51168C7.08559 7.26657 7.07753 6.90285 6.84403 6.66564L5.15315 4.94192C4.87134 4.65727 4.87939 4.20657 5.15315 3.92192ZM3.21267 12.3349C3.29319 11.7182 3.63942 11.1726 4.16278 10.8247C4.6781 10.4847 5.32224 10.374 5.92613 10.5242C6.53001 10.6745 7.03728 11.0777 7.31909 11.6233L8.96166 15.0549C8.9214 15.2052 8.88919 15.3554 8.86504 15.5056L8.52686 15.2842C8.30946 15.1419 8.02765 15.1419 7.81025 15.2842L6.2321 16.3121L4.80693 15.3791L4.67005 15.2131L6.32872 13.9559L5.53964 12.9517L3.86487 14.2247L3.71993 14.0507C3.30929 13.5763 3.1241 12.9517 3.21267 12.3349ZM21.0474 36.6884H8.40608H6.87624H4.94381V26.5675V17L5.87782 17.6089C6.09521 17.7512 6.37703 17.7512 6.59443 17.6089L8.17258 16.5731L9.75073 17.601C9.96813 17.7433 10.2499 17.7433 10.4673 17.601L12.0455 16.5731L13.6237 17.601C13.841 17.7433 14.1229 17.7433 14.3403 17.601L15.9184 16.5731L17.4966 17.601C17.714 17.7433 17.9958 17.7433 18.2132 17.601L19.7913 16.5731L21.0796 17.4191V36.6884H21.0474ZM26.8447 34.7907C26.8447 35.8423 25.9832 36.6884 24.9123 36.6884H22.3357V17.4191L23.624 16.5731L25.2021 17.601C25.4195 17.7433 25.7014 17.7433 25.9188 17.601L26.8528 16.9921V34.7907H26.8447ZM30.5163 5.2582L26.5307 15.6875L25.5645 16.32L23.9863 15.2921C23.7689 15.1498 23.4871 15.1498 23.2697 15.2921L21.6916 16.32L20.3872 15.4661L25.0975 3.13913C25.5162 2.02425 26.5951 1.281 27.8029 1.26518C28.753 1.26518 29.6387 1.72379 30.1621 2.49867C30.7418 3.30518 30.8626 4.33308 30.5163 5.2582Z" fill="#1B4568"/>
</svg>
